G04 Layer: TopLayer*
G04 EasyEDA v6.4.25, 2021-11-23T22:35:47+08:00*
G04 b1e9ac58b82e44e2a900f0cbd8408905,45ba98ba689c459a8d72e4540021d05b,10*
G04 Gerber Generator version 0.2*
G04 Scale: 100 percent, Rotated: No, Reflected: No *
G04 Dimensions in millimeters *
G04 leading zeros omitted , absolute positions ,4 integer and 5 decimal *
%FSLAX45Y45*%
%MOMM*%

%ADD11C,0.1520*%
%ADD12C,0.6096*%
%ADD13C,0.6100*%
%ADD14R,0.9000X0.8000*%
%ADD15R,2.0000X0.6000*%
%ADD16R,2.0000X0.3000*%
%ADD17R,1.3000X0.9000*%
%ADD18R,0.9000X1.3000*%
%ADD20R,1.1989X0.5512*%
%ADD22R,1.0000X1.5000*%
%ADD23R,1.2000X0.6000*%
%ADD24R,2.5000X3.4999*%
%ADD25C,1.0000*%

%LPD*%
G36*
X2921000Y1312011D02*
G01*
X2916682Y1312926D01*
X2913227Y1315618D01*
X2911195Y1319530D01*
X2910433Y1322273D01*
X2906318Y1331163D01*
X2901543Y1337970D01*
X2899867Y1342034D01*
X2900019Y1346454D01*
X2902051Y1350314D01*
X2905556Y1353007D01*
X2909874Y1353972D01*
X2932125Y1353972D01*
X2936443Y1353007D01*
X2939948Y1350314D01*
X2941980Y1346454D01*
X2942132Y1342034D01*
X2940456Y1337970D01*
X2935681Y1331163D01*
X2931566Y1322273D01*
X2930804Y1319530D01*
X2928772Y1315618D01*
X2925318Y1312926D01*
G37*

%LPD*%
G36*
X2482646Y832662D02*
G01*
X2477211Y832815D01*
X2473350Y833678D01*
X2470150Y835914D01*
X2468067Y839216D01*
X2467356Y843076D01*
X2468118Y846886D01*
X2470302Y850137D01*
X2494432Y874318D01*
X2499207Y880160D01*
X2502357Y886409D01*
X2504236Y893267D01*
X2504643Y898753D01*
X2504643Y1027633D01*
X2505405Y1031494D01*
X2507640Y1034796D01*
X2510942Y1037031D01*
X2514803Y1037793D01*
X2518714Y1037031D01*
X2527503Y1033373D01*
X2532837Y1031748D01*
X2536545Y1031392D01*
X2536545Y1068222D01*
X2514803Y1068222D01*
X2510942Y1069035D01*
X2507640Y1071219D01*
X2505405Y1074521D01*
X2504643Y1078382D01*
X2504643Y1105763D01*
X2505405Y1109675D01*
X2507640Y1112977D01*
X2510942Y1115161D01*
X2514803Y1115923D01*
X2536545Y1115923D01*
X2536545Y1159052D01*
X2535682Y1163015D01*
X2536444Y1166977D01*
X2538679Y1170330D01*
X2548890Y1180592D01*
X2552192Y1182776D01*
X2556103Y1183589D01*
X2592425Y1183589D01*
X2597962Y1184097D01*
X2603296Y1185722D01*
X2614726Y1190498D01*
X2619654Y1193088D01*
X2623566Y1196340D01*
X2626766Y1200251D01*
X2629662Y1205585D01*
X2631897Y1208430D01*
X2634996Y1210310D01*
X2638602Y1210970D01*
X2663952Y1210970D01*
X2667863Y1210208D01*
X2671114Y1207973D01*
X2673350Y1204671D01*
X2674112Y1200810D01*
X2674112Y1161186D01*
X2675026Y1150975D01*
X2677566Y1141476D01*
X2681681Y1132586D01*
X2687320Y1124508D01*
X2694279Y1117600D01*
X2702306Y1111961D01*
X2711246Y1107795D01*
X2720695Y1105255D01*
X2730500Y1104392D01*
X2733802Y1104696D01*
X2737866Y1104239D01*
X2741472Y1102156D01*
X2743911Y1098854D01*
X2744825Y1094892D01*
X2744114Y1090828D01*
X2741879Y1087374D01*
X2490114Y835609D01*
X2486660Y833374D01*
G37*

%LPC*%
G36*
X2594254Y1031392D02*
G01*
X2597962Y1031748D01*
X2603296Y1033373D01*
X2614726Y1038098D01*
X2619654Y1040739D01*
X2623566Y1043940D01*
X2626766Y1047851D01*
X2629408Y1052779D01*
X2634132Y1064209D01*
X2635351Y1068222D01*
X2594254Y1068222D01*
G37*
G36*
X2594254Y1115923D02*
G01*
X2635351Y1115923D01*
X2634132Y1119987D01*
X2629408Y1131417D01*
X2626766Y1136345D01*
X2623566Y1140256D01*
X2619654Y1143457D01*
X2614726Y1146098D01*
X2603296Y1150823D01*
X2597962Y1152448D01*
X2594254Y1152804D01*
G37*

%LPD*%
G36*
X515162Y-1193292D02*
G01*
X511606Y-1192682D01*
X508457Y-1190802D01*
X506222Y-1187958D01*
X503326Y-1182573D01*
X500126Y-1178661D01*
X496214Y-1175461D01*
X491286Y-1172819D01*
X479856Y-1168095D01*
X474522Y-1166469D01*
X468985Y-1165910D01*
X432663Y-1165910D01*
X428751Y-1165148D01*
X425450Y-1162964D01*
X415239Y-1152702D01*
X413004Y-1149299D01*
X412242Y-1145336D01*
X413105Y-1141374D01*
X413105Y-1098296D01*
X402285Y-1098296D01*
X398373Y-1097534D01*
X395071Y-1095298D01*
X392887Y-1091996D01*
X392125Y-1088136D01*
X392125Y-1060754D01*
X392887Y-1056843D01*
X395071Y-1053541D01*
X398373Y-1051356D01*
X402285Y-1050594D01*
X413105Y-1050594D01*
X413105Y-1013714D01*
X409448Y-1014069D01*
X405231Y-1015339D01*
X401472Y-1015746D01*
X397814Y-1014780D01*
X394817Y-1012545D01*
X392785Y-1009345D01*
X392125Y-1005636D01*
X392125Y-787349D01*
X392887Y-783488D01*
X395071Y-780186D01*
X398373Y-777951D01*
X402285Y-777189D01*
X619404Y-777189D01*
X625754Y-776478D01*
X631190Y-774598D01*
X636117Y-771499D01*
X640181Y-767384D01*
X643280Y-762508D01*
X645210Y-757021D01*
X645922Y-750722D01*
X645922Y-651865D01*
X645210Y-645566D01*
X643280Y-640080D01*
X640181Y-635203D01*
X636117Y-631088D01*
X631190Y-627989D01*
X625754Y-626110D01*
X619404Y-625398D01*
X395579Y-625398D01*
X389229Y-626110D01*
X383794Y-627989D01*
X378866Y-631088D01*
X374802Y-635203D01*
X371703Y-640080D01*
X369773Y-645566D01*
X369062Y-651865D01*
X369062Y-657606D01*
X368300Y-661517D01*
X366115Y-664819D01*
X362813Y-667004D01*
X358902Y-667766D01*
X345998Y-667766D01*
X342087Y-667004D01*
X338785Y-664819D01*
X257556Y-583590D01*
X255371Y-580288D01*
X254558Y-576376D01*
X255371Y-572516D01*
X257556Y-569214D01*
X260858Y-566978D01*
X264718Y-566216D01*
X291338Y-566216D01*
X296875Y-565708D01*
X302209Y-564083D01*
X313639Y-559308D01*
X318566Y-556717D01*
X322478Y-553466D01*
X325678Y-549554D01*
X328320Y-544626D01*
X329793Y-541070D01*
X331978Y-537768D01*
X335280Y-535584D01*
X339191Y-534822D01*
X358902Y-534822D01*
X362813Y-535584D01*
X366115Y-537768D01*
X368300Y-541070D01*
X369062Y-544982D01*
X369062Y-550722D01*
X369773Y-557022D01*
X371703Y-562508D01*
X374802Y-567385D01*
X378866Y-571500D01*
X383794Y-574598D01*
X389229Y-576478D01*
X395579Y-577189D01*
X619404Y-577189D01*
X625754Y-576478D01*
X631190Y-574598D01*
X636117Y-571500D01*
X640181Y-567385D01*
X643280Y-562508D01*
X645210Y-557022D01*
X645922Y-550722D01*
X645922Y-542899D01*
X646734Y-538886D01*
X649071Y-535533D01*
X652576Y-533400D01*
X656691Y-531876D01*
X662736Y-528370D01*
X667918Y-523697D01*
X672033Y-518058D01*
X674878Y-511657D01*
X676351Y-504799D01*
X676554Y-501040D01*
X676554Y-422046D01*
X677316Y-418134D01*
X679500Y-414832D01*
X828497Y-265836D01*
X832205Y-263499D01*
X836574Y-262940D01*
X840130Y-263245D01*
X849884Y-262382D01*
X859383Y-259842D01*
X868273Y-255676D01*
X876350Y-250037D01*
X883310Y-243078D01*
X888898Y-235051D01*
X893064Y-226161D01*
X895603Y-216662D01*
X896467Y-206857D01*
X895603Y-197053D01*
X893064Y-187553D01*
X888898Y-178663D01*
X883310Y-170637D01*
X876350Y-163677D01*
X868324Y-158089D01*
X865378Y-154838D01*
X864057Y-150622D01*
X864616Y-146304D01*
X867003Y-142595D01*
X872032Y-137515D01*
X877671Y-129489D01*
X881837Y-120599D01*
X884377Y-111099D01*
X885240Y-101295D01*
X884377Y-91490D01*
X881837Y-81991D01*
X877671Y-73101D01*
X872032Y-65074D01*
X865073Y-58115D01*
X857046Y-52476D01*
X848156Y-48310D01*
X838657Y-45770D01*
X828852Y-44907D01*
X819048Y-45770D01*
X809548Y-48310D01*
X800658Y-52476D01*
X792632Y-58115D01*
X785926Y-64820D01*
X782624Y-67005D01*
X778713Y-67767D01*
X656082Y-67767D01*
X652170Y-67005D01*
X648868Y-64820D01*
X646684Y-61518D01*
X645922Y-57607D01*
X645922Y-51866D01*
X645210Y-45567D01*
X643280Y-40081D01*
X640181Y-35204D01*
X636117Y-31089D01*
X631190Y-27990D01*
X625754Y-26111D01*
X619404Y-25400D01*
X395579Y-25400D01*
X389229Y-26111D01*
X383794Y-27990D01*
X378866Y-31089D01*
X374802Y-35204D01*
X371703Y-40081D01*
X369773Y-45567D01*
X369062Y-51866D01*
X369062Y-59690D01*
X368249Y-63703D01*
X365912Y-67056D01*
X362407Y-69189D01*
X358292Y-70713D01*
X352247Y-74218D01*
X347065Y-78892D01*
X342950Y-84531D01*
X340106Y-90932D01*
X339242Y-94234D01*
X338582Y-98806D01*
X337616Y-101904D01*
X335737Y-104597D01*
X300634Y-139649D01*
X296875Y-142036D01*
X291338Y-142494D01*
X257302Y-142494D01*
X251764Y-143002D01*
X246430Y-144627D01*
X235000Y-149402D01*
X230073Y-151993D01*
X226161Y-155244D01*
X222961Y-159156D01*
X220319Y-164033D01*
X215544Y-175514D01*
X213969Y-180848D01*
X213410Y-186385D01*
X213410Y-240385D01*
X213969Y-245922D01*
X215544Y-251256D01*
X220319Y-262686D01*
X222961Y-267614D01*
X226161Y-271526D01*
X230073Y-274777D01*
X235000Y-277368D01*
X246430Y-282143D01*
X251764Y-283768D01*
X257302Y-284276D01*
X291338Y-284276D01*
X296875Y-283768D01*
X302209Y-282143D01*
X313639Y-277368D01*
X318566Y-274777D01*
X322478Y-271526D01*
X325678Y-267614D01*
X328320Y-262686D01*
X333044Y-251256D01*
X334670Y-245922D01*
X335229Y-240385D01*
X335229Y-204063D01*
X335991Y-200152D01*
X338175Y-196850D01*
X364032Y-171043D01*
X367334Y-168808D01*
X371246Y-168046D01*
X375107Y-168808D01*
X378866Y-171500D01*
X383794Y-174599D01*
X389229Y-176479D01*
X395579Y-177190D01*
X619404Y-177190D01*
X625754Y-176479D01*
X631190Y-174599D01*
X636117Y-171500D01*
X640181Y-167386D01*
X643280Y-162509D01*
X645210Y-157022D01*
X645922Y-150723D01*
X645922Y-144983D01*
X646684Y-141071D01*
X648868Y-137769D01*
X652170Y-135585D01*
X656082Y-134823D01*
X778713Y-134823D01*
X782624Y-135585D01*
X785926Y-137769D01*
X792632Y-144475D01*
X800608Y-150063D01*
X803605Y-153314D01*
X804926Y-157530D01*
X804316Y-161848D01*
X801979Y-165557D01*
X796899Y-170637D01*
X791311Y-178663D01*
X787146Y-187553D01*
X784606Y-197053D01*
X783742Y-206857D01*
X784047Y-210413D01*
X783488Y-214782D01*
X781100Y-218490D01*
X663244Y-336346D01*
X659942Y-338531D01*
X656082Y-339293D01*
X652170Y-338531D01*
X648868Y-336346D01*
X646684Y-333044D01*
X645922Y-329133D01*
X645922Y-251866D01*
X645210Y-245567D01*
X643280Y-240080D01*
X640181Y-235204D01*
X636117Y-231089D01*
X631190Y-227990D01*
X625754Y-226110D01*
X619404Y-225399D01*
X395579Y-225399D01*
X389229Y-226110D01*
X383794Y-227990D01*
X378866Y-231089D01*
X374802Y-235204D01*
X371703Y-240080D01*
X369773Y-245567D01*
X369062Y-251866D01*
X369062Y-350723D01*
X369773Y-357022D01*
X371703Y-362508D01*
X374802Y-367385D01*
X378866Y-371500D01*
X383794Y-374599D01*
X389229Y-376478D01*
X395579Y-377190D01*
X602742Y-377190D01*
X606755Y-378053D01*
X610108Y-380390D01*
X612292Y-383895D01*
X612851Y-387959D01*
X609955Y-398830D01*
X609498Y-404317D01*
X609498Y-415239D01*
X608736Y-419100D01*
X606552Y-422401D01*
X603250Y-424637D01*
X599338Y-425399D01*
X395579Y-425399D01*
X389229Y-426110D01*
X383794Y-427990D01*
X378866Y-431088D01*
X374802Y-435203D01*
X371703Y-440080D01*
X369773Y-445566D01*
X369062Y-451866D01*
X369062Y-457606D01*
X368300Y-461518D01*
X366115Y-464820D01*
X362813Y-467004D01*
X358902Y-467766D01*
X343712Y-467766D01*
X339547Y-466902D01*
X336092Y-464312D01*
X334010Y-460552D01*
X333044Y-457454D01*
X328320Y-445973D01*
X325678Y-441096D01*
X322478Y-437184D01*
X318566Y-433933D01*
X313639Y-431342D01*
X302209Y-426567D01*
X296875Y-424942D01*
X291338Y-424434D01*
X257302Y-424434D01*
X251764Y-424942D01*
X246430Y-426567D01*
X235000Y-431342D01*
X230073Y-433933D01*
X226161Y-437184D01*
X222961Y-441096D01*
X220319Y-445973D01*
X215544Y-457454D01*
X213969Y-462788D01*
X213410Y-468325D01*
X213410Y-514908D01*
X212648Y-518769D01*
X210413Y-522071D01*
X207111Y-524306D01*
X203250Y-525068D01*
X199339Y-524306D01*
X196037Y-522071D01*
X185826Y-511809D01*
X183591Y-508558D01*
X182829Y-504647D01*
X182829Y-468325D01*
X182270Y-462788D01*
X180695Y-457454D01*
X175920Y-445973D01*
X173329Y-441096D01*
X170078Y-437184D01*
X166166Y-433933D01*
X160782Y-431088D01*
X157937Y-428802D01*
X156057Y-425704D01*
X155448Y-422097D01*
X155448Y-286562D01*
X156057Y-283006D01*
X157937Y-279908D01*
X160782Y-277622D01*
X166166Y-274777D01*
X170078Y-271526D01*
X173329Y-267614D01*
X175920Y-262686D01*
X180695Y-251256D01*
X182270Y-245922D01*
X182829Y-240385D01*
X182829Y-186385D01*
X182270Y-180848D01*
X180695Y-175514D01*
X175920Y-164033D01*
X173329Y-159156D01*
X170078Y-155244D01*
X166166Y-151993D01*
X160782Y-149148D01*
X157937Y-146862D01*
X156057Y-143764D01*
X155448Y-140157D01*
X155448Y13157D01*
X156057Y16713D01*
X157937Y19812D01*
X160782Y22098D01*
X166166Y24942D01*
X170078Y28194D01*
X173329Y32105D01*
X175920Y37033D01*
X180695Y48463D01*
X182270Y53797D01*
X182829Y59334D01*
X182829Y113334D01*
X182270Y118872D01*
X180695Y124206D01*
X175920Y135686D01*
X173329Y140563D01*
X170078Y144475D01*
X166166Y147726D01*
X161239Y150317D01*
X149809Y155092D01*
X144475Y156718D01*
X138938Y157226D01*
X104902Y157226D01*
X100736Y157734D01*
X97129Y159867D01*
X94691Y163271D01*
X93827Y167386D01*
X93827Y608584D01*
X94589Y612444D01*
X96824Y615746D01*
X100126Y617982D01*
X103987Y618744D01*
X140614Y618744D01*
X144526Y617982D01*
X147828Y615746D01*
X150012Y612444D01*
X150774Y608025D01*
X154432Y608025D01*
X158343Y607263D01*
X161645Y605078D01*
X163830Y601776D01*
X164592Y597865D01*
X164592Y570484D01*
X163830Y566623D01*
X161645Y563321D01*
X158343Y561086D01*
X154432Y560324D01*
X150774Y560324D01*
X150774Y515823D01*
X161239Y520192D01*
X169418Y524611D01*
X173126Y525119D01*
X176733Y524256D01*
X179781Y522122D01*
X212648Y489305D01*
X218490Y484581D01*
X224739Y481380D01*
X231597Y479551D01*
X237083Y479094D01*
X319074Y479094D01*
X327202Y479958D01*
X331419Y479551D01*
X335076Y477418D01*
X337566Y474014D01*
X338429Y469849D01*
X338429Y445922D01*
X337667Y442061D01*
X335483Y438759D01*
X300634Y403910D01*
X296875Y401523D01*
X291338Y401066D01*
X257302Y401066D01*
X251764Y400558D01*
X246430Y398932D01*
X235000Y394157D01*
X230073Y391566D01*
X226161Y388315D01*
X222961Y384403D01*
X220319Y379526D01*
X215544Y368046D01*
X213969Y362712D01*
X213410Y357174D01*
X213410Y303174D01*
X213969Y297637D01*
X215544Y292303D01*
X220319Y280873D01*
X222961Y275945D01*
X226161Y272034D01*
X230073Y268782D01*
X235000Y266192D01*
X246430Y261416D01*
X251764Y259791D01*
X257302Y259283D01*
X291338Y259283D01*
X296875Y259791D01*
X302209Y261416D01*
X313639Y266192D01*
X318566Y268782D01*
X321868Y271526D01*
X325170Y273304D01*
X328930Y273812D01*
X332638Y272846D01*
X335686Y270611D01*
X337718Y267360D01*
X338429Y263652D01*
X338429Y202082D01*
X337667Y198221D01*
X335483Y194919D01*
X300634Y160070D01*
X296875Y157683D01*
X291338Y157226D01*
X257302Y157226D01*
X251764Y156718D01*
X246430Y155092D01*
X235000Y150317D01*
X230073Y147726D01*
X226161Y144475D01*
X222961Y140563D01*
X220319Y135686D01*
X215544Y124206D01*
X213969Y118872D01*
X213410Y113334D01*
X213410Y59334D01*
X213969Y53797D01*
X215544Y48463D01*
X220319Y37033D01*
X222961Y32105D01*
X226161Y28194D01*
X230073Y24942D01*
X235000Y22352D01*
X246430Y17576D01*
X251764Y15951D01*
X257302Y15443D01*
X291338Y15443D01*
X296875Y15951D01*
X302209Y17576D01*
X313639Y22352D01*
X318566Y24942D01*
X322478Y28194D01*
X325678Y32105D01*
X328320Y37033D01*
X333044Y48463D01*
X334670Y53797D01*
X335229Y59334D01*
X335229Y95656D01*
X335991Y99568D01*
X338175Y102870D01*
X351739Y116382D01*
X355041Y118618D01*
X358902Y119380D01*
X362813Y118618D01*
X366115Y116382D01*
X368300Y113080D01*
X369062Y109220D01*
X369062Y49276D01*
X369773Y42976D01*
X371703Y37490D01*
X374802Y32613D01*
X378866Y28498D01*
X383794Y25400D01*
X389229Y23520D01*
X395579Y22809D01*
X619404Y22809D01*
X625754Y23520D01*
X631190Y25400D01*
X636117Y28498D01*
X640181Y32613D01*
X643280Y37490D01*
X645210Y42976D01*
X645922Y49276D01*
X645922Y148132D01*
X645210Y154432D01*
X643280Y159918D01*
X640181Y164795D01*
X636117Y168910D01*
X631190Y172008D01*
X625754Y173888D01*
X619404Y174599D01*
X415645Y174599D01*
X411734Y175361D01*
X408432Y177596D01*
X406247Y180898D01*
X405485Y184759D01*
X405485Y212648D01*
X406247Y216509D01*
X408432Y219811D01*
X411734Y222046D01*
X415645Y222808D01*
X619404Y222808D01*
X625754Y223520D01*
X631190Y225399D01*
X636117Y228498D01*
X640181Y232613D01*
X643280Y237490D01*
X645210Y242976D01*
X645922Y249275D01*
X645922Y348132D01*
X645210Y354431D01*
X643280Y359918D01*
X640181Y364794D01*
X636117Y368909D01*
X631190Y372008D01*
X625754Y373888D01*
X619404Y374599D01*
X395579Y374599D01*
X391210Y374142D01*
X387096Y374497D01*
X383489Y376529D01*
X380949Y379831D01*
X379933Y383844D01*
X380644Y387908D01*
X382930Y391414D01*
X395274Y403758D01*
X400100Y409701D01*
X402590Y414375D01*
X403352Y416306D01*
X405536Y419709D01*
X408889Y421995D01*
X412851Y422808D01*
X619404Y422808D01*
X625754Y423519D01*
X631190Y425399D01*
X636117Y428498D01*
X640181Y432612D01*
X643280Y437489D01*
X645210Y442976D01*
X645922Y449275D01*
X645922Y546557D01*
X646684Y550418D01*
X648868Y553720D01*
X652170Y555955D01*
X656082Y556717D01*
X1125067Y556717D01*
X1128979Y555955D01*
X1132230Y553720D01*
X1138936Y547014D01*
X1147013Y541426D01*
X1155903Y537260D01*
X1165402Y534720D01*
X1175207Y533857D01*
X1184960Y534720D01*
X1194460Y537260D01*
X1203350Y541426D01*
X1211427Y547014D01*
X1218133Y553720D01*
X1221384Y555955D01*
X1225296Y556717D01*
X1883918Y556717D01*
X1887829Y555955D01*
X1891131Y553720D01*
X1893316Y550418D01*
X1894078Y546557D01*
X1894078Y449275D01*
X1894738Y443534D01*
X1894332Y439318D01*
X1892249Y435609D01*
X1888794Y433120D01*
X1884629Y432257D01*
X1310182Y432257D01*
X1306271Y433019D01*
X1302969Y435203D01*
X1296263Y441909D01*
X1288237Y447548D01*
X1279347Y451713D01*
X1269847Y454253D01*
X1260043Y455117D01*
X1250238Y454253D01*
X1240739Y451713D01*
X1231849Y447548D01*
X1223822Y441909D01*
X1216863Y434949D01*
X1211224Y426923D01*
X1207058Y418033D01*
X1204518Y408533D01*
X1203655Y398729D01*
X1204518Y388924D01*
X1207058Y379425D01*
X1211224Y370535D01*
X1216863Y362508D01*
X1223822Y355549D01*
X1231849Y349910D01*
X1240739Y345744D01*
X1250238Y343204D01*
X1260043Y342341D01*
X1269847Y343204D01*
X1279347Y345744D01*
X1288237Y349910D01*
X1296263Y355549D01*
X1302969Y362254D01*
X1306271Y364439D01*
X1310182Y365201D01*
X1884680Y365201D01*
X1888794Y364337D01*
X1892249Y361848D01*
X1894332Y358140D01*
X1894738Y353923D01*
X1894078Y348132D01*
X1894078Y340156D01*
X1893214Y336042D01*
X1890775Y332638D01*
X1887169Y330555D01*
X1883410Y329285D01*
X1877212Y325678D01*
X1872996Y322122D01*
X819759Y-731113D01*
X815035Y-736955D01*
X809752Y-746963D01*
X806297Y-749503D01*
X802132Y-750417D01*
X720547Y-750417D01*
X714248Y-751128D01*
X708812Y-753008D01*
X703884Y-756107D01*
X699820Y-760171D01*
X696722Y-765098D01*
X694791Y-770534D01*
X694080Y-776884D01*
X694080Y-925728D01*
X694791Y-932078D01*
X696722Y-937514D01*
X699820Y-942441D01*
X703884Y-946505D01*
X708812Y-949604D01*
X714248Y-951484D01*
X720547Y-952195D01*
X799388Y-952195D01*
X803300Y-953008D01*
X806602Y-955192D01*
X808786Y-958494D01*
X809548Y-962355D01*
X809548Y-1003198D01*
X808786Y-1007110D01*
X806450Y-1010564D01*
X803148Y-1012748D01*
X799236Y-1013510D01*
X762965Y-1013510D01*
X757428Y-1014069D01*
X752094Y-1015695D01*
X740613Y-1020419D01*
X735685Y-1023061D01*
X731774Y-1026261D01*
X728573Y-1030224D01*
X725728Y-1035558D01*
X723442Y-1038402D01*
X720344Y-1040282D01*
X716788Y-1040942D01*
X685393Y-1040942D01*
X681786Y-1040333D01*
X678637Y-1038453D01*
X676402Y-1035608D01*
X673506Y-1030224D01*
X670306Y-1026312D01*
X666394Y-1023061D01*
X661466Y-1020470D01*
X650036Y-1015695D01*
X644702Y-1014120D01*
X639165Y-1013561D01*
X585165Y-1013561D01*
X579628Y-1014120D01*
X574294Y-1015695D01*
X562813Y-1020470D01*
X557885Y-1023061D01*
X553974Y-1026312D01*
X550773Y-1030224D01*
X548132Y-1035151D01*
X543407Y-1046581D01*
X541782Y-1051915D01*
X541223Y-1057452D01*
X541223Y-1091438D01*
X541782Y-1097026D01*
X543407Y-1102309D01*
X548132Y-1113790D01*
X550773Y-1118717D01*
X553974Y-1122629D01*
X557885Y-1125829D01*
X562813Y-1128471D01*
X574294Y-1133195D01*
X579628Y-1134821D01*
X585165Y-1135380D01*
X631698Y-1135380D01*
X635609Y-1136142D01*
X638911Y-1138326D01*
X641096Y-1141628D01*
X641858Y-1145540D01*
X641096Y-1149400D01*
X638911Y-1152702D01*
X628650Y-1162964D01*
X625348Y-1165148D01*
X621436Y-1165910D01*
X585165Y-1165910D01*
X579628Y-1166469D01*
X574294Y-1168095D01*
X562813Y-1172819D01*
X557885Y-1175461D01*
X553974Y-1178661D01*
X550773Y-1182624D01*
X547928Y-1187958D01*
X545642Y-1190802D01*
X542544Y-1192682D01*
X538937Y-1193292D01*
G37*

%LPC*%
G36*
X150774Y354025D02*
G01*
X182829Y354025D01*
X182829Y357174D01*
X182270Y362712D01*
X180695Y368046D01*
X175920Y379526D01*
X173329Y384403D01*
X170078Y388315D01*
X166166Y391566D01*
X161239Y394157D01*
X150774Y398526D01*
G37*
G36*
X150774Y261823D02*
G01*
X161239Y266192D01*
X166166Y268782D01*
X170078Y272034D01*
X173329Y275945D01*
X175920Y280873D01*
X180695Y292303D01*
X182270Y297637D01*
X182829Y303174D01*
X182829Y306324D01*
X150774Y306324D01*
G37*
G36*
X470814Y-1050594D02*
G01*
X511962Y-1050594D01*
X510692Y-1046581D01*
X505968Y-1035100D01*
X503326Y-1030224D01*
X500126Y-1026261D01*
X496214Y-1023061D01*
X491286Y-1020419D01*
X479856Y-1015695D01*
X474522Y-1014069D01*
X470814Y-1013714D01*
G37*
G36*
X470814Y-1135176D02*
G01*
X474522Y-1134821D01*
X479856Y-1133195D01*
X491286Y-1128420D01*
X496214Y-1125829D01*
X500126Y-1122578D01*
X503326Y-1118666D01*
X505968Y-1113790D01*
X510692Y-1102309D01*
X511962Y-1098296D01*
X470814Y-1098296D01*
G37*

%LPD*%
G36*
X2392222Y-1345692D02*
G01*
X2389632Y-1345336D01*
X2387193Y-1344371D01*
X2381402Y-1341069D01*
X2375306Y-1339088D01*
X2372512Y-1337665D01*
X2370328Y-1335532D01*
X2368042Y-1330401D01*
X2364943Y-1325524D01*
X2360828Y-1321409D01*
X2355951Y-1318310D01*
X2354173Y-1317701D01*
X2350617Y-1315567D01*
X2348230Y-1312164D01*
X2347366Y-1308100D01*
X2348230Y-1304036D01*
X2350617Y-1300683D01*
X2354173Y-1298549D01*
X2355951Y-1297889D01*
X2360828Y-1294841D01*
X2364943Y-1290726D01*
X2368042Y-1285849D01*
X2369921Y-1280363D01*
X2370632Y-1274064D01*
X2370632Y-1265986D01*
X2321102Y-1265986D01*
X2321102Y-1305560D01*
X2320340Y-1309420D01*
X2318105Y-1312722D01*
X2314803Y-1314958D01*
X2310942Y-1315720D01*
X2258568Y-1315720D01*
X2254656Y-1314958D01*
X2251354Y-1312722D01*
X2249170Y-1309420D01*
X2248408Y-1305560D01*
X2248408Y-1265986D01*
X2199030Y-1265986D01*
X2195068Y-1265174D01*
X2191715Y-1262888D01*
X2189530Y-1259433D01*
X2188870Y-1255471D01*
X2189784Y-1251508D01*
X2190902Y-1249172D01*
X2193442Y-1239672D01*
X2194102Y-1232560D01*
X2195068Y-1228953D01*
X2197354Y-1225956D01*
X2200503Y-1223975D01*
X2204212Y-1223264D01*
X2248408Y-1223264D01*
X2248408Y-1183690D01*
X2249170Y-1179779D01*
X2251354Y-1176528D01*
X2254656Y-1174292D01*
X2258568Y-1173530D01*
X2310942Y-1173530D01*
X2314803Y-1174292D01*
X2318105Y-1176528D01*
X2320340Y-1179779D01*
X2321102Y-1183690D01*
X2321102Y-1223264D01*
X2370632Y-1223264D01*
X2370632Y-1215186D01*
X2369921Y-1208887D01*
X2368042Y-1203401D01*
X2364943Y-1198524D01*
X2360828Y-1194409D01*
X2355951Y-1191310D01*
X2354173Y-1190701D01*
X2350617Y-1188567D01*
X2348230Y-1185164D01*
X2347366Y-1181100D01*
X2348230Y-1177036D01*
X2350617Y-1173683D01*
X2354173Y-1171549D01*
X2355951Y-1170889D01*
X2360828Y-1167841D01*
X2364943Y-1163726D01*
X2368042Y-1158849D01*
X2369921Y-1153363D01*
X2370632Y-1147064D01*
X2370632Y-1088186D01*
X2369921Y-1081887D01*
X2368042Y-1076401D01*
X2364943Y-1071524D01*
X2360828Y-1067409D01*
X2355951Y-1064310D01*
X2354173Y-1063701D01*
X2350617Y-1061567D01*
X2348230Y-1058164D01*
X2347366Y-1054100D01*
X2348230Y-1050036D01*
X2350617Y-1046683D01*
X2354173Y-1044549D01*
X2355951Y-1043889D01*
X2360828Y-1040841D01*
X2364943Y-1036726D01*
X2368042Y-1031849D01*
X2369921Y-1026363D01*
X2370632Y-1020064D01*
X2370632Y-1011986D01*
X2321102Y-1011986D01*
X2321102Y-1051560D01*
X2320340Y-1055420D01*
X2318105Y-1058722D01*
X2314803Y-1060958D01*
X2310942Y-1061720D01*
X2258568Y-1061720D01*
X2254656Y-1060958D01*
X2251354Y-1058722D01*
X2249170Y-1055420D01*
X2248408Y-1051560D01*
X2248408Y-1011986D01*
X2245360Y-1011986D01*
X2241499Y-1011174D01*
X2238197Y-1008989D01*
X2235962Y-1005687D01*
X2235200Y-1001826D01*
X2235200Y-981252D01*
X2235962Y-977341D01*
X2238197Y-974039D01*
X2241499Y-971854D01*
X2245360Y-971092D01*
X2343353Y-971092D01*
X2347264Y-971854D01*
X2350566Y-974039D01*
X2357272Y-980744D01*
X2365298Y-986383D01*
X2374188Y-990549D01*
X2379675Y-991971D01*
X2381351Y-992835D01*
X2393492Y-993952D01*
X2403297Y-993089D01*
X2412492Y-990600D01*
X2416454Y-990346D01*
X2420162Y-991565D01*
X2423160Y-994156D01*
X2424938Y-997661D01*
X2425242Y-1001572D01*
X2424684Y-1006703D01*
X2424684Y-1087272D01*
X2506726Y-1087272D01*
X2506726Y-980236D01*
X2451506Y-980236D01*
X2447544Y-979424D01*
X2444191Y-977137D01*
X2442006Y-973683D01*
X2441346Y-969721D01*
X2442311Y-965758D01*
X2446477Y-956868D01*
X2449017Y-947369D01*
X2449880Y-937564D01*
X2449017Y-927760D01*
X2446477Y-918260D01*
X2442311Y-909370D01*
X2436672Y-901344D01*
X2429713Y-894384D01*
X2421686Y-888746D01*
X2412796Y-884580D01*
X2403297Y-882040D01*
X2393492Y-881176D01*
X2389835Y-881532D01*
X2385415Y-880922D01*
X2381656Y-878433D01*
X2379319Y-874623D01*
X2378862Y-870153D01*
X2380386Y-865936D01*
X2383536Y-862787D01*
X2385212Y-861720D01*
X2389327Y-857656D01*
X2392375Y-852728D01*
X2394305Y-847293D01*
X2395016Y-840943D01*
X2395016Y-792276D01*
X2395778Y-788365D01*
X2398014Y-785063D01*
X2401265Y-782878D01*
X2405176Y-782116D01*
X2409088Y-782878D01*
X2412339Y-785063D01*
X2463444Y-836117D01*
X2469286Y-840892D01*
X2475636Y-844092D01*
X2480665Y-845616D01*
X2483408Y-846886D01*
X2485694Y-848918D01*
X2490317Y-856487D01*
X2494432Y-860602D01*
X2499309Y-863650D01*
X2504795Y-865581D01*
X2511094Y-866292D01*
X2629865Y-866292D01*
X2636164Y-865581D01*
X2641650Y-863650D01*
X2646527Y-860602D01*
X2650642Y-856487D01*
X2653741Y-851611D01*
X2655620Y-846124D01*
X2656332Y-839825D01*
X2656332Y-785825D01*
X2655620Y-779526D01*
X2653741Y-774039D01*
X2650642Y-769162D01*
X2646527Y-765048D01*
X2641650Y-762000D01*
X2636164Y-760069D01*
X2629865Y-759358D01*
X2511094Y-759358D01*
X2504795Y-760069D01*
X2499309Y-762000D01*
X2496820Y-763574D01*
X2493670Y-764895D01*
X2490266Y-765048D01*
X2486964Y-764133D01*
X2484221Y-762152D01*
X2436672Y-714654D01*
X2430830Y-709879D01*
X2424582Y-706729D01*
X2417724Y-704850D01*
X2412238Y-704443D01*
X2405176Y-704443D01*
X2401265Y-703681D01*
X2398014Y-701446D01*
X2395778Y-698144D01*
X2395016Y-694283D01*
X2395016Y-687882D01*
X2352954Y-687882D01*
X2352954Y-694283D01*
X2352192Y-698144D01*
X2350008Y-701446D01*
X2346706Y-703681D01*
X2342794Y-704443D01*
X2305405Y-704443D01*
X2301544Y-703681D01*
X2298242Y-701446D01*
X2296058Y-698144D01*
X2295245Y-694283D01*
X2295245Y-687882D01*
X2253183Y-687882D01*
X2253183Y-694283D01*
X2252421Y-698144D01*
X2250236Y-701446D01*
X2246934Y-703681D01*
X2243023Y-704443D01*
X2219909Y-704443D01*
X2212441Y-705205D01*
X2205786Y-707390D01*
X2199640Y-710946D01*
X2195423Y-714552D01*
X2180285Y-729691D01*
X2176983Y-731875D01*
X2173122Y-732637D01*
X2095093Y-732637D01*
X2095093Y-777189D01*
X2108250Y-777189D01*
X2112111Y-777951D01*
X2115413Y-780186D01*
X2117598Y-783488D01*
X2118410Y-787349D01*
X2117598Y-791260D01*
X2115413Y-794562D01*
X1904593Y-1005382D01*
X1901443Y-1007516D01*
X1897735Y-1008329D01*
X1893925Y-1007770D01*
X1887118Y-1005281D01*
X1880870Y-1004569D01*
X1865274Y-1004569D01*
X1865274Y-1044600D01*
X1868982Y-1046734D01*
X1871472Y-1050137D01*
X1872335Y-1054303D01*
X1872335Y-1086662D01*
X1871472Y-1090828D01*
X1868982Y-1094232D01*
X1865274Y-1096365D01*
X1865274Y-1103782D01*
X1864512Y-1107643D01*
X1862328Y-1110945D01*
X1859025Y-1113180D01*
X1855114Y-1113942D01*
X1836674Y-1113942D01*
X1832914Y-1114145D01*
X1826158Y-1115568D01*
X1821586Y-1117447D01*
X1817674Y-1118158D01*
X1813814Y-1117396D01*
X1810512Y-1115161D01*
X1808327Y-1111910D01*
X1807565Y-1107998D01*
X1807565Y-1096822D01*
X1765503Y-1096822D01*
X1765503Y-1109929D01*
X1766214Y-1116228D01*
X1768144Y-1121714D01*
X1771243Y-1126591D01*
X1775307Y-1130706D01*
X1777187Y-1131874D01*
X1780133Y-1134719D01*
X1781759Y-1138428D01*
X1781759Y-1142542D01*
X1780133Y-1146251D01*
X1777187Y-1149096D01*
X1775307Y-1150264D01*
X1771243Y-1154379D01*
X1768144Y-1159256D01*
X1766214Y-1164742D01*
X1765503Y-1171041D01*
X1765503Y-1249883D01*
X1766214Y-1256233D01*
X1768144Y-1261668D01*
X1771192Y-1266545D01*
X1776425Y-1271625D01*
X1778660Y-1274927D01*
X1779473Y-1278839D01*
X1778711Y-1282750D01*
X1776475Y-1286103D01*
X1752447Y-1310132D01*
X1749145Y-1312316D01*
X1745234Y-1313078D01*
X1608531Y-1313078D01*
X1604619Y-1312316D01*
X1601317Y-1310132D01*
X1581962Y-1290777D01*
X1579778Y-1287475D01*
X1578965Y-1283563D01*
X1578965Y-1250696D01*
X1551736Y-1250696D01*
X1547876Y-1249934D01*
X1544574Y-1247698D01*
X1542338Y-1244396D01*
X1541576Y-1240536D01*
X1541576Y-1213154D01*
X1542338Y-1209243D01*
X1544574Y-1205941D01*
X1547876Y-1203756D01*
X1551736Y-1202994D01*
X1578965Y-1202994D01*
X1578965Y-1166114D01*
X1575308Y-1166469D01*
X1569974Y-1168095D01*
X1558493Y-1172819D01*
X1553565Y-1175461D01*
X1549654Y-1178661D01*
X1547114Y-1181811D01*
X1543608Y-1184554D01*
X1539240Y-1185519D01*
X1534922Y-1184554D01*
X1531416Y-1181811D01*
X1528826Y-1178661D01*
X1524914Y-1175461D01*
X1519986Y-1172819D01*
X1508556Y-1168095D01*
X1503222Y-1166469D01*
X1497685Y-1165910D01*
X1443685Y-1165910D01*
X1438148Y-1166469D01*
X1432814Y-1168095D01*
X1421333Y-1172819D01*
X1416405Y-1175461D01*
X1412494Y-1178661D01*
X1409293Y-1182624D01*
X1406448Y-1187958D01*
X1404162Y-1190802D01*
X1401064Y-1192682D01*
X1397457Y-1193342D01*
X1378813Y-1193342D01*
X1375206Y-1192682D01*
X1372057Y-1190802D01*
X1369822Y-1187958D01*
X1366926Y-1182573D01*
X1363726Y-1178661D01*
X1359814Y-1175461D01*
X1354886Y-1172819D01*
X1343456Y-1168095D01*
X1338122Y-1166469D01*
X1332585Y-1165910D01*
X1278585Y-1165910D01*
X1273048Y-1166469D01*
X1267714Y-1168095D01*
X1256233Y-1172819D01*
X1251305Y-1175461D01*
X1247394Y-1178661D01*
X1244193Y-1182573D01*
X1241552Y-1187500D01*
X1236827Y-1198930D01*
X1235202Y-1204264D01*
X1234643Y-1209802D01*
X1234643Y-1229614D01*
X1233881Y-1233525D01*
X1231696Y-1236827D01*
X1228394Y-1239012D01*
X1224483Y-1239774D01*
X1213205Y-1239774D01*
X1209294Y-1239012D01*
X1205992Y-1236827D01*
X1203807Y-1233525D01*
X1198524Y-1220825D01*
X1195933Y-1215898D01*
X1192682Y-1211986D01*
X1188770Y-1208735D01*
X1183894Y-1206144D01*
X1167993Y-1199540D01*
X1162659Y-1197914D01*
X1157122Y-1197406D01*
X1110589Y-1197406D01*
X1106170Y-1196848D01*
X1102410Y-1194460D01*
X1049477Y-1141577D01*
X1047292Y-1138275D01*
X1046530Y-1134364D01*
X1047292Y-1130503D01*
X1049477Y-1127201D01*
X1052779Y-1124966D01*
X1056690Y-1124204D01*
X1062126Y-1124204D01*
X1067663Y-1123645D01*
X1072997Y-1122070D01*
X1088847Y-1115466D01*
X1093774Y-1112824D01*
X1097686Y-1109624D01*
X1100937Y-1105712D01*
X1103528Y-1100785D01*
X1110132Y-1084935D01*
X1111758Y-1079601D01*
X1112266Y-1074064D01*
X1112266Y-1022553D01*
X1111758Y-1017016D01*
X1110132Y-1011682D01*
X1103528Y-995781D01*
X1100937Y-990904D01*
X1097686Y-986993D01*
X1093774Y-983742D01*
X1088847Y-981151D01*
X1072997Y-974547D01*
X1067663Y-972921D01*
X1062126Y-972413D01*
X1021232Y-972413D01*
X1017473Y-971550D01*
X1014679Y-972464D01*
X1010056Y-972921D01*
X1004773Y-974547D01*
X988872Y-981151D01*
X983945Y-983742D01*
X980033Y-986993D01*
X976833Y-990904D01*
X974191Y-995781D01*
X967638Y-1011682D01*
X966012Y-1017016D01*
X965555Y-1021740D01*
X964184Y-1025906D01*
X961186Y-1029106D01*
X957173Y-1030782D01*
X952804Y-1030579D01*
X942898Y-1027937D01*
X933094Y-1027074D01*
X923290Y-1027937D01*
X913790Y-1030478D01*
X904900Y-1034643D01*
X896874Y-1040231D01*
X889304Y-1047851D01*
X885240Y-1050188D01*
X884428Y-1054912D01*
X880211Y-1063955D01*
X877468Y-1067460D01*
X873506Y-1069492D01*
X868984Y-1069594D01*
X864920Y-1067765D01*
X862025Y-1064361D01*
X860856Y-1060043D01*
X860704Y-1055674D01*
X861314Y-1051712D01*
X863447Y-1048359D01*
X867816Y-1043686D01*
X871118Y-1041298D01*
X871931Y-1040231D01*
X872896Y-1036319D01*
X874268Y-1033424D01*
X876147Y-1026414D01*
X876604Y-1020927D01*
X876604Y-939800D01*
X877366Y-935837D01*
X879652Y-932484D01*
X883107Y-930300D01*
X887069Y-929640D01*
X890981Y-930554D01*
X894283Y-932942D01*
X896721Y-937514D01*
X899820Y-942441D01*
X903884Y-946505D01*
X908812Y-949604D01*
X914247Y-951484D01*
X920546Y-952195D01*
X1013714Y-952195D01*
X1017473Y-953058D01*
X1020114Y-952144D01*
X1025753Y-951484D01*
X1031189Y-949604D01*
X1036116Y-946505D01*
X1040180Y-942441D01*
X1043279Y-937514D01*
X1045210Y-932078D01*
X1045921Y-925728D01*
X1045921Y-776884D01*
X1045210Y-770534D01*
X1043279Y-765098D01*
X1040180Y-760171D01*
X1036116Y-756107D01*
X1031189Y-753008D01*
X1025753Y-751128D01*
X1019454Y-750417D01*
X920496Y-750417D01*
X916432Y-749858D01*
X912926Y-747776D01*
X910539Y-744474D01*
X909624Y-740511D01*
X910336Y-736498D01*
X912571Y-733094D01*
X1882495Y236829D01*
X1885442Y238861D01*
X1888998Y239775D01*
X1892604Y239369D01*
X1895805Y237693D01*
X1898243Y235051D01*
X1899818Y232613D01*
X1903882Y228498D01*
X1908810Y225399D01*
X1914245Y223520D01*
X1920595Y222808D01*
X2124354Y222808D01*
X2128266Y222046D01*
X2131568Y219811D01*
X2133752Y216509D01*
X2134514Y212648D01*
X2134514Y184759D01*
X2133752Y180898D01*
X2131568Y177596D01*
X2128266Y175361D01*
X2124354Y174599D01*
X1920595Y174599D01*
X1914245Y173888D01*
X1908810Y172008D01*
X1903882Y168910D01*
X1899818Y164795D01*
X1896719Y159918D01*
X1894789Y154432D01*
X1894078Y148132D01*
X1894078Y49276D01*
X1894789Y42976D01*
X1896719Y37490D01*
X1899818Y32613D01*
X1903882Y28498D01*
X1908810Y25400D01*
X1914245Y23520D01*
X1920595Y22809D01*
X2124354Y22809D01*
X2128266Y22047D01*
X2131568Y19812D01*
X2133752Y16510D01*
X2134514Y12649D01*
X2134514Y-15240D01*
X2133752Y-19100D01*
X2131568Y-22402D01*
X2128266Y-24638D01*
X2124354Y-25400D01*
X1920595Y-25400D01*
X1914245Y-26111D01*
X1908810Y-27990D01*
X1903882Y-31089D01*
X1899818Y-35204D01*
X1896719Y-40081D01*
X1894789Y-45567D01*
X1894078Y-51866D01*
X1894078Y-150723D01*
X1894789Y-157022D01*
X1896719Y-162509D01*
X1899818Y-167386D01*
X1903882Y-171500D01*
X1908810Y-174599D01*
X1914245Y-176479D01*
X1920595Y-177190D01*
X2144420Y-177190D01*
X2150770Y-176479D01*
X2156206Y-174599D01*
X2161133Y-171500D01*
X2165197Y-167386D01*
X2168296Y-162509D01*
X2170226Y-157022D01*
X2170938Y-150723D01*
X2170938Y-142900D01*
X2171750Y-138887D01*
X2174087Y-135534D01*
X2177592Y-133400D01*
X2181707Y-131876D01*
X2187752Y-128371D01*
X2192934Y-123698D01*
X2197049Y-118059D01*
X2199894Y-111658D01*
X2201367Y-104800D01*
X2201570Y-101041D01*
X2201570Y355041D01*
X2202332Y358952D01*
X2204516Y362254D01*
X2207818Y364439D01*
X2211730Y365201D01*
X2234641Y365201D01*
X2242108Y366014D01*
X2248763Y368147D01*
X2254910Y371754D01*
X2259126Y375310D01*
X2302510Y418693D01*
X2305812Y420928D01*
X2309723Y421690D01*
X2346045Y421690D01*
X2351582Y422249D01*
X2356916Y423875D01*
X2368346Y428599D01*
X2373274Y431241D01*
X2377186Y434441D01*
X2380386Y438353D01*
X2382418Y442163D01*
X2385263Y445465D01*
X2389225Y447293D01*
X2393594Y447293D01*
X2397506Y445465D01*
X2400350Y442163D01*
X2402433Y438251D01*
X2405634Y434340D01*
X2409545Y431139D01*
X2414473Y428498D01*
X2425903Y423773D01*
X2431237Y422148D01*
X2436774Y421589D01*
X2490825Y421589D01*
X2496362Y422148D01*
X2501696Y423773D01*
X2513126Y428498D01*
X2518054Y431139D01*
X2521966Y434340D01*
X2525166Y438251D01*
X2527808Y443179D01*
X2532532Y454659D01*
X2534158Y459993D01*
X2534716Y465531D01*
X2534716Y499516D01*
X2534158Y505053D01*
X2532532Y510387D01*
X2527808Y521817D01*
X2525166Y526745D01*
X2521966Y530656D01*
X2518054Y533908D01*
X2513126Y536498D01*
X2501696Y541274D01*
X2496362Y542899D01*
X2490825Y543407D01*
X2436774Y543407D01*
X2431237Y542899D01*
X2425954Y541274D01*
X2413304Y535940D01*
X2409444Y535178D01*
X2405532Y535889D01*
X2402230Y538124D01*
X2399995Y541426D01*
X2399233Y545287D01*
X2399995Y549198D01*
X2402179Y552500D01*
X2412034Y562356D01*
X2416759Y568198D01*
X2419756Y572719D01*
X2422702Y574649D01*
X2426157Y575462D01*
X2431237Y574548D01*
X2436774Y573989D01*
X2490825Y573989D01*
X2496362Y574548D01*
X2501696Y576173D01*
X2513126Y580898D01*
X2518054Y583539D01*
X2521966Y586740D01*
X2525166Y590651D01*
X2528214Y596442D01*
X2530094Y598982D01*
X2532684Y600811D01*
X2538018Y602132D01*
X2544876Y604316D01*
X2551023Y607923D01*
X2555240Y611479D01*
X2656789Y713028D01*
X2660040Y715213D01*
X2663952Y715975D01*
X2667863Y715213D01*
X2671114Y713028D01*
X2673350Y709726D01*
X2674112Y705815D01*
X2674112Y602386D01*
X2675026Y592175D01*
X2677566Y582676D01*
X2681681Y573786D01*
X2687320Y565708D01*
X2694279Y558800D01*
X2702306Y553161D01*
X2711246Y548995D01*
X2720695Y546455D01*
X2730500Y545592D01*
X2740304Y546455D01*
X2749753Y548995D01*
X2758694Y553161D01*
X2766110Y558342D01*
X2769311Y559866D01*
X2772816Y560171D01*
X2776220Y559257D01*
X2779115Y557225D01*
X2830982Y505358D01*
X2833166Y502056D01*
X2833928Y498144D01*
X2833928Y447852D01*
X2884271Y447852D01*
X2888183Y447040D01*
X2891485Y444855D01*
X2894482Y441858D01*
X2896666Y438556D01*
X2897428Y434644D01*
X2897428Y395274D01*
X2896666Y391414D01*
X2894482Y388112D01*
X2891180Y385927D01*
X2887268Y385114D01*
X2833928Y385114D01*
X2833928Y340563D01*
X2852216Y340563D01*
X2863900Y341477D01*
X2874975Y343966D01*
X2883560Y347370D01*
X2887421Y348081D01*
X2891282Y347268D01*
X2894533Y345033D01*
X2896666Y341731D01*
X2897428Y337921D01*
X2897428Y270002D01*
X2896666Y266090D01*
X2894482Y262788D01*
X2757576Y125882D01*
X2754172Y123647D01*
X2750159Y122935D01*
X2746197Y123850D01*
X2742895Y126237D01*
X2740355Y131064D01*
X2739745Y134416D01*
X2740660Y138684D01*
X2741371Y144983D01*
X2741371Y173837D01*
X2740660Y180187D01*
X2739745Y184404D01*
X2740660Y188671D01*
X2741371Y194970D01*
X2741371Y206400D01*
X2742336Y210769D01*
X2745130Y214274D01*
X2749143Y216255D01*
X2753664Y216306D01*
X2756154Y215798D01*
X2766060Y215392D01*
X2775864Y216611D01*
X2785313Y219506D01*
X2794152Y223977D01*
X2802128Y229870D01*
X2808986Y237032D01*
X2814523Y245211D01*
X2818587Y254254D01*
X2821076Y263804D01*
X2821940Y273659D01*
X2821076Y283565D01*
X2818587Y293116D01*
X2814523Y302158D01*
X2808986Y310337D01*
X2802128Y317500D01*
X2794152Y323392D01*
X2785313Y327863D01*
X2775864Y330758D01*
X2766060Y331978D01*
X2756154Y331571D01*
X2746451Y329488D01*
X2737256Y325780D01*
X2730703Y321767D01*
X2728163Y320649D01*
X2725420Y320243D01*
X2718562Y320243D01*
X2719730Y316331D01*
X2719273Y312572D01*
X2717495Y309219D01*
X2715209Y306374D01*
X2710383Y297738D01*
X2707589Y289864D01*
X2705455Y286308D01*
X2702052Y283921D01*
X2697988Y283057D01*
X2668574Y283057D01*
X2665374Y281025D01*
X2661666Y280314D01*
X2569260Y280314D01*
X2565552Y281025D01*
X2562301Y283057D01*
X2489555Y283057D01*
X2489555Y275031D01*
X2490470Y267360D01*
X2490266Y263906D01*
X2488946Y260705D01*
X2486558Y258114D01*
X2483510Y256540D01*
X2478836Y255016D01*
X2472639Y251409D01*
X2468473Y247853D01*
X2435453Y214833D01*
X2430678Y208991D01*
X2427528Y202742D01*
X2425649Y195834D01*
X2425242Y190347D01*
X2425242Y-198475D01*
X2426004Y-205943D01*
X2428189Y-212598D01*
X2431745Y-218795D01*
X2435352Y-222961D01*
X2481935Y-269544D01*
X2485948Y-272948D01*
X2488590Y-276453D01*
X2489555Y-280720D01*
X2489555Y-284988D01*
X2490266Y-291338D01*
X2491130Y-295554D01*
X2490266Y-299821D01*
X2489555Y-306120D01*
X2489555Y-314248D01*
X2562301Y-314248D01*
X2565552Y-312216D01*
X2569260Y-311505D01*
X2661666Y-311505D01*
X2665374Y-312216D01*
X2668574Y-314248D01*
X2698191Y-314248D01*
X2702255Y-315061D01*
X2705608Y-317449D01*
X2707792Y-321005D01*
X2710383Y-328371D01*
X2715209Y-337007D01*
X2717901Y-340360D01*
X2719730Y-343712D01*
X2720136Y-347472D01*
X2719070Y-351282D01*
X2726029Y-351282D01*
X2728823Y-351688D01*
X2731363Y-352806D01*
X2737256Y-356412D01*
X2746451Y-360121D01*
X2756154Y-362204D01*
X2766060Y-362610D01*
X2775864Y-361391D01*
X2785313Y-358495D01*
X2794152Y-354025D01*
X2802128Y-348132D01*
X2808986Y-340969D01*
X2814523Y-332790D01*
X2818587Y-323748D01*
X2821076Y-314198D01*
X2821533Y-309016D01*
X2822702Y-305104D01*
X2825343Y-301955D01*
X2829001Y-300075D01*
X2833116Y-299821D01*
X2836976Y-301244D01*
X2839974Y-304088D01*
X2842514Y-307746D01*
X2849473Y-314706D01*
X2857550Y-320294D01*
X2866440Y-324459D01*
X2875940Y-326999D01*
X2885744Y-327863D01*
X2895498Y-326999D01*
X2904998Y-324459D01*
X2913888Y-320294D01*
X2921965Y-314706D01*
X2928924Y-307746D01*
X2934512Y-299669D01*
X2938678Y-290779D01*
X2941218Y-281279D01*
X2942082Y-271526D01*
X2941218Y-261721D01*
X2938678Y-252221D01*
X2934512Y-243332D01*
X2928924Y-235254D01*
X2921965Y-228295D01*
X2913888Y-222707D01*
X2904998Y-218541D01*
X2895498Y-216001D01*
X2885744Y-215138D01*
X2877566Y-215849D01*
X2874924Y-215747D01*
X2865475Y-213106D01*
X2859989Y-212648D01*
X2751531Y-212648D01*
X2747619Y-211886D01*
X2744317Y-209702D01*
X2742133Y-206400D01*
X2741371Y-202488D01*
X2741371Y-176123D01*
X2740660Y-169824D01*
X2739745Y-165557D01*
X2740660Y-161340D01*
X2741371Y-154990D01*
X2741371Y-132232D01*
X2742184Y-128219D01*
X2744520Y-124866D01*
X2747975Y-122732D01*
X2752191Y-121158D01*
X2758186Y-117652D01*
X2763367Y-112979D01*
X2767482Y-107340D01*
X2770378Y-100939D01*
X2771800Y-94081D01*
X2772003Y-90322D01*
X2772003Y-8686D01*
X2772765Y-4775D01*
X2775000Y-1473D01*
X2984957Y208534D01*
X2989732Y214375D01*
X2992882Y220624D01*
X2994761Y227482D01*
X2995168Y232968D01*
X2995168Y361797D01*
X2995980Y365760D01*
X2998216Y369062D01*
X3001619Y371246D01*
X3005582Y371957D01*
X3009493Y371043D01*
X3012795Y368706D01*
X3019704Y361238D01*
X3028543Y354177D01*
X3038398Y348538D01*
X3048914Y344373D01*
X3059988Y341833D01*
X3071672Y340969D01*
X3077464Y340969D01*
X3077464Y385521D01*
X3005328Y385521D01*
X3001467Y386283D01*
X2998165Y388518D01*
X2995930Y391820D01*
X2995168Y395681D01*
X2995168Y438048D01*
X2995930Y441959D01*
X2998165Y445262D01*
X3001467Y447446D01*
X3005328Y448208D01*
X3077464Y448208D01*
X3077464Y492810D01*
X3071672Y492810D01*
X3059988Y491896D01*
X3048914Y489407D01*
X3038398Y485241D01*
X3028543Y479551D01*
X3019704Y472490D01*
X3012795Y465074D01*
X3009493Y462686D01*
X3005582Y461822D01*
X3001619Y462483D01*
X2998216Y464667D01*
X2995980Y468020D01*
X2995168Y471982D01*
X2995168Y488543D01*
X2994406Y496011D01*
X2993847Y497789D01*
X2993339Y501548D01*
X2994304Y505256D01*
X2996539Y508304D01*
X2999740Y510336D01*
X3012490Y511860D01*
X3019145Y513994D01*
X3025343Y517601D01*
X3029508Y521157D01*
X3064459Y556107D01*
X3067354Y558139D01*
X3070758Y559054D01*
X3074263Y558749D01*
X3077464Y557225D01*
X3083306Y553161D01*
X3092246Y548995D01*
X3101695Y546455D01*
X3111500Y545592D01*
X3121304Y546455D01*
X3130753Y548995D01*
X3139694Y553161D01*
X3147720Y558800D01*
X3154680Y565708D01*
X3160318Y573786D01*
X3164433Y582676D01*
X3166973Y592175D01*
X3167888Y602386D01*
X3167888Y743762D01*
X3166973Y753973D01*
X3164433Y763473D01*
X3160318Y772363D01*
X3154680Y780440D01*
X3147720Y787349D01*
X3139694Y792988D01*
X3130753Y797153D01*
X3121304Y799693D01*
X3111500Y800557D01*
X3101695Y799693D01*
X3092246Y797153D01*
X3083306Y792988D01*
X3075279Y787349D01*
X3068320Y780440D01*
X3062681Y772363D01*
X3058566Y763473D01*
X3057804Y760730D01*
X3055772Y756818D01*
X3052318Y754126D01*
X3048000Y753211D01*
X3043682Y754126D01*
X3040227Y756818D01*
X3038195Y760730D01*
X3037433Y763473D01*
X3033318Y772363D01*
X3027680Y780440D01*
X3020720Y787349D01*
X3012694Y792988D01*
X3006090Y796086D01*
X3006090Y730199D01*
X3044952Y730199D01*
X3048863Y729437D01*
X3052114Y727252D01*
X3054350Y723950D01*
X3055112Y720039D01*
X3055112Y645718D01*
X3054350Y641858D01*
X3052114Y638556D01*
X3032506Y618896D01*
X3029204Y616712D01*
X3025292Y615899D01*
X3006090Y615899D01*
X3006090Y596696D01*
X3005328Y592836D01*
X3003092Y589534D01*
X2994660Y581050D01*
X2991358Y578866D01*
X2987446Y578104D01*
X2981096Y578104D01*
X2977235Y578866D01*
X2973933Y581050D01*
X2965907Y589076D01*
X2963672Y592378D01*
X2962910Y596290D01*
X2962910Y616102D01*
X2959608Y617270D01*
X2956864Y619556D01*
X2955137Y622604D01*
X2954528Y626059D01*
X2954528Y720039D01*
X2955137Y723544D01*
X2956864Y726592D01*
X2959608Y728878D01*
X2962910Y730046D01*
X2962910Y796086D01*
X2957830Y793699D01*
X2953562Y792734D01*
X2949295Y793648D01*
X2945790Y796290D01*
X2944418Y797915D01*
X2910128Y832205D01*
X2904286Y836980D01*
X2898038Y840130D01*
X2891129Y842010D01*
X2885643Y842416D01*
X2727198Y842416D01*
X2723286Y843178D01*
X2719984Y845413D01*
X2717800Y848715D01*
X2717038Y852576D01*
X2717800Y856487D01*
X2719984Y859790D01*
X2963316Y1103071D01*
X2966212Y1105103D01*
X2969615Y1106017D01*
X2974695Y1105255D01*
X2984500Y1104392D01*
X2994304Y1105255D01*
X3003753Y1107795D01*
X3012694Y1111961D01*
X3020720Y1117600D01*
X3027680Y1124508D01*
X3033318Y1132586D01*
X3037433Y1141476D01*
X3038195Y1144219D01*
X3040227Y1148130D01*
X3043682Y1150823D01*
X3048000Y1151737D01*
X3052318Y1150823D01*
X3055772Y1148130D01*
X3057804Y1144219D01*
X3058566Y1141476D01*
X3062681Y1132586D01*
X3068320Y1124508D01*
X3075279Y1117600D01*
X3083306Y1111961D01*
X3092246Y1107795D01*
X3101695Y1105255D01*
X3111500Y1104392D01*
X3121304Y1105255D01*
X3130753Y1107795D01*
X3139694Y1111961D01*
X3147720Y1117600D01*
X3154680Y1124508D01*
X3160318Y1132586D01*
X3164433Y1141476D01*
X3166973Y1150975D01*
X3167888Y1161186D01*
X3167888Y1273962D01*
X3168650Y1277874D01*
X3170885Y1281176D01*
X3174136Y1283360D01*
X3178048Y1284122D01*
X3181959Y1283360D01*
X3185210Y1281176D01*
X3312668Y1153718D01*
X3314801Y1150620D01*
X3315665Y1147013D01*
X3315157Y1143355D01*
X3313379Y1140104D01*
X3310534Y1137666D01*
X3305606Y1134922D01*
X3301847Y1131722D01*
X3290112Y1120038D01*
X3286912Y1116228D01*
X3284677Y1112316D01*
X3283000Y1107643D01*
X3278682Y1091539D01*
X3277920Y1087882D01*
X3277717Y1084173D01*
X3277717Y1017320D01*
X3277920Y1013612D01*
X3278682Y1010005D01*
X3283000Y993851D01*
X3284677Y989177D01*
X3286912Y985316D01*
X3290112Y981506D01*
X3301847Y969771D01*
X3305657Y966571D01*
X3309569Y964336D01*
X3314192Y962660D01*
X3330346Y958342D01*
X3333953Y957580D01*
X3337661Y957326D01*
X3469538Y957326D01*
X3473246Y957580D01*
X3476853Y958342D01*
X3493008Y962660D01*
X3497630Y964336D01*
X3501542Y966571D01*
X3506774Y971194D01*
X3510026Y973378D01*
X3513937Y974140D01*
X3517849Y973378D01*
X3521100Y971194D01*
X3523335Y967892D01*
X3524097Y963980D01*
X3524097Y732536D01*
X3523335Y728624D01*
X3521100Y725322D01*
X3517849Y723138D01*
X3513937Y722376D01*
X3510026Y723138D01*
X3506774Y725322D01*
X3501542Y729945D01*
X3497630Y732180D01*
X3493008Y733856D01*
X3476853Y738174D01*
X3473246Y738936D01*
X3469538Y739140D01*
X3443681Y739140D01*
X3443681Y702106D01*
X3513937Y702106D01*
X3517849Y701344D01*
X3521100Y699160D01*
X3523335Y695858D01*
X3524097Y691946D01*
X3524097Y599592D01*
X3523335Y595680D01*
X3521100Y592378D01*
X3517849Y590194D01*
X3513937Y589432D01*
X3443681Y589432D01*
X3443681Y586028D01*
X3442919Y582168D01*
X3440734Y578866D01*
X3437432Y576681D01*
X3433521Y575868D01*
X3373678Y575868D01*
X3369767Y576681D01*
X3366465Y578866D01*
X3364280Y582168D01*
X3363518Y586028D01*
X3363518Y589432D01*
X3282848Y589432D01*
X3284677Y584200D01*
X3286912Y580288D01*
X3290112Y576478D01*
X3301847Y564794D01*
X3305657Y561594D01*
X3309518Y559358D01*
X3316579Y557022D01*
X3320491Y554990D01*
X3323132Y551484D01*
X3324098Y547166D01*
X3324098Y-499618D01*
X3324402Y-503428D01*
X3326434Y-510489D01*
X3329178Y-515416D01*
X3331972Y-518617D01*
X3371138Y-557784D01*
X3373323Y-561086D01*
X3374136Y-564946D01*
X3374136Y-567994D01*
X3373323Y-571855D01*
X3371138Y-575157D01*
X3367836Y-577392D01*
X3363976Y-578154D01*
X3317087Y-578154D01*
X3310788Y-578866D01*
X3305301Y-580796D01*
X3300425Y-583844D01*
X3296310Y-587959D01*
X3293262Y-592836D01*
X3291332Y-598322D01*
X3290620Y-604621D01*
X3290620Y-625348D01*
X3289858Y-629259D01*
X3287623Y-632561D01*
X3284321Y-634746D01*
X3280460Y-635508D01*
X3222599Y-635508D01*
X3218688Y-634746D01*
X3215386Y-632561D01*
X3213201Y-629259D01*
X3212439Y-625348D01*
X3212439Y-604621D01*
X3211728Y-598322D01*
X3209798Y-592836D01*
X3206750Y-587959D01*
X3202635Y-583844D01*
X3197758Y-580796D01*
X3192272Y-578866D01*
X3185972Y-578154D01*
X3097072Y-578154D01*
X3090773Y-578866D01*
X3085287Y-580796D01*
X3080410Y-583844D01*
X3076295Y-587959D01*
X3073247Y-592836D01*
X3071317Y-598322D01*
X3070606Y-604621D01*
X3070606Y-733501D01*
X3071825Y-743610D01*
X3070860Y-747268D01*
X3068624Y-750366D01*
X3065424Y-752398D01*
X3061665Y-753110D01*
X2990088Y-753110D01*
X2983788Y-753821D01*
X2978302Y-755751D01*
X2973425Y-758850D01*
X2969310Y-762914D01*
X2966262Y-767842D01*
X2964332Y-773277D01*
X2963621Y-779627D01*
X2963621Y-797763D01*
X2962859Y-801674D01*
X2960573Y-804976D01*
X2957271Y-807161D01*
X2953308Y-807923D01*
X2949397Y-807059D01*
X2946146Y-804773D01*
X2943961Y-801370D01*
X2941523Y-796086D01*
X2937408Y-790397D01*
X2932226Y-785723D01*
X2926384Y-782370D01*
X2920644Y-780491D01*
X2916326Y-778052D01*
X2913430Y-775004D01*
X2911043Y-771245D01*
X2909671Y-767740D01*
X2909671Y-763930D01*
X2911043Y-760425D01*
X2912821Y-757631D01*
X2914700Y-752144D01*
X2915412Y-745845D01*
X2915412Y-738987D01*
X2865882Y-738987D01*
X2865882Y-749198D01*
X2865120Y-753059D01*
X2862935Y-756361D01*
X2859633Y-758596D01*
X2855722Y-759358D01*
X2803398Y-759358D01*
X2799537Y-758596D01*
X2796235Y-756361D01*
X2794000Y-753059D01*
X2793238Y-749198D01*
X2793238Y-738987D01*
X2790240Y-738987D01*
X2786380Y-738174D01*
X2783078Y-735990D01*
X2780842Y-732688D01*
X2780080Y-728827D01*
X2780080Y-708863D01*
X2780842Y-705002D01*
X2783078Y-701700D01*
X2786380Y-699465D01*
X2790240Y-698703D01*
X2793238Y-698703D01*
X2793238Y-688492D01*
X2794000Y-684580D01*
X2796235Y-681278D01*
X2799537Y-679094D01*
X2803398Y-678332D01*
X2855722Y-678332D01*
X2859633Y-679094D01*
X2862935Y-681278D01*
X2865120Y-684580D01*
X2865882Y-688492D01*
X2865882Y-698703D01*
X2915412Y-698703D01*
X2915412Y-691845D01*
X2914700Y-685546D01*
X2912821Y-680059D01*
X2911043Y-677265D01*
X2909671Y-673760D01*
X2909671Y-669950D01*
X2911043Y-666445D01*
X2912821Y-663651D01*
X2914700Y-658164D01*
X2915412Y-651865D01*
X2915412Y-597865D01*
X2914700Y-591566D01*
X2912821Y-586079D01*
X2909722Y-581202D01*
X2905607Y-577088D01*
X2900730Y-574040D01*
X2895244Y-572109D01*
X2888945Y-571398D01*
X2770174Y-571398D01*
X2763875Y-572109D01*
X2758389Y-574040D01*
X2753512Y-577088D01*
X2749397Y-581202D01*
X2744724Y-588822D01*
X2742336Y-590905D01*
X2739440Y-592175D01*
X2736189Y-593039D01*
X2729839Y-595884D01*
X2724150Y-599998D01*
X2719476Y-605180D01*
X2715971Y-611225D01*
X2713837Y-617880D01*
X2713278Y-621385D01*
X2713075Y-625144D01*
X2713075Y-812546D01*
X2713278Y-816305D01*
X2714701Y-823163D01*
X2717596Y-829564D01*
X2721711Y-835253D01*
X2726893Y-839927D01*
X2732735Y-843280D01*
X2738475Y-845159D01*
X2742742Y-847547D01*
X2745740Y-850646D01*
X2749397Y-856487D01*
X2753512Y-860602D01*
X2758389Y-863650D01*
X2763875Y-865581D01*
X2770174Y-866292D01*
X2888945Y-866292D01*
X2893466Y-865784D01*
X2896514Y-865886D01*
X2899359Y-866902D01*
X2901797Y-868680D01*
X2960624Y-927557D01*
X2962859Y-930859D01*
X2963621Y-934719D01*
X2963621Y-937006D01*
X2962859Y-940866D01*
X2960624Y-944168D01*
X2957372Y-946403D01*
X2953461Y-947166D01*
X2949600Y-946403D01*
X2946298Y-944168D01*
X2942488Y-940409D01*
X2937611Y-937310D01*
X2932176Y-935431D01*
X2925826Y-934719D01*
X2806954Y-934719D01*
X2800654Y-935431D01*
X2795168Y-937310D01*
X2790291Y-940409D01*
X2786176Y-944524D01*
X2783128Y-949401D01*
X2782265Y-951788D01*
X2780639Y-954735D01*
X2778150Y-957021D01*
X2769717Y-960018D01*
X2763672Y-963523D01*
X2758490Y-968197D01*
X2754376Y-973886D01*
X2751480Y-980287D01*
X2750616Y-983538D01*
X2750007Y-988263D01*
X2748991Y-991514D01*
X2746959Y-994257D01*
X2744114Y-996137D01*
X2740812Y-997000D01*
X2737612Y-997305D01*
X2734360Y-998169D01*
X2730093Y-998372D01*
X2726131Y-996797D01*
X2723134Y-993749D01*
X2720797Y-989990D01*
X2716682Y-985926D01*
X2711805Y-982827D01*
X2706319Y-980948D01*
X2700020Y-980236D01*
X2644444Y-980236D01*
X2644444Y-1087272D01*
X2698242Y-1087272D01*
X2702153Y-1088034D01*
X2705455Y-1090269D01*
X2710942Y-1095756D01*
X2713126Y-1099007D01*
X2713888Y-1102918D01*
X2713888Y-1264818D01*
X2713126Y-1268679D01*
X2710942Y-1271981D01*
X2707640Y-1274216D01*
X2703728Y-1274978D01*
X2644444Y-1274978D01*
X2644444Y-1335532D01*
X2643632Y-1339392D01*
X2641447Y-1342694D01*
X2638145Y-1344930D01*
X2634284Y-1345692D01*
X2516886Y-1345692D01*
X2512974Y-1344930D01*
X2509672Y-1342694D01*
X2507488Y-1339392D01*
X2506726Y-1335532D01*
X2506726Y-1274978D01*
X2424684Y-1274978D01*
X2424684Y-1335532D01*
X2423871Y-1339392D01*
X2421686Y-1342694D01*
X2418384Y-1344930D01*
X2414524Y-1345692D01*
G37*

%LPC*%
G36*
X1636674Y-1287576D02*
G01*
X1640382Y-1287221D01*
X1645716Y-1285595D01*
X1657146Y-1280820D01*
X1662074Y-1278229D01*
X1665986Y-1274978D01*
X1669186Y-1271066D01*
X1671828Y-1266190D01*
X1676552Y-1254709D01*
X1677822Y-1250696D01*
X1636674Y-1250696D01*
G37*
G36*
X1636674Y-1202994D02*
G01*
X1677822Y-1202994D01*
X1676552Y-1198981D01*
X1671828Y-1187500D01*
X1669186Y-1182624D01*
X1665986Y-1178661D01*
X1662074Y-1175461D01*
X1657146Y-1172819D01*
X1645716Y-1168095D01*
X1640382Y-1166469D01*
X1636674Y-1166114D01*
G37*
G36*
X3282848Y702106D02*
G01*
X3363518Y702106D01*
X3363518Y739140D01*
X3337661Y739140D01*
X3333953Y738936D01*
X3330346Y738174D01*
X3314192Y733856D01*
X3309569Y732180D01*
X3305657Y729945D01*
X3301847Y726744D01*
X3290112Y715010D01*
X3286912Y711200D01*
X3284677Y707339D01*
G37*
G36*
X1443685Y-1135380D02*
G01*
X1497685Y-1135380D01*
X1503222Y-1134821D01*
X1508556Y-1133195D01*
X1519986Y-1128471D01*
X1524914Y-1125829D01*
X1528826Y-1122629D01*
X1531416Y-1119479D01*
X1534922Y-1116736D01*
X1539240Y-1115771D01*
X1543608Y-1116736D01*
X1547114Y-1119479D01*
X1549654Y-1122629D01*
X1553565Y-1125829D01*
X1558493Y-1128471D01*
X1569974Y-1133195D01*
X1575308Y-1134821D01*
X1580845Y-1135380D01*
X1634845Y-1135380D01*
X1640382Y-1134821D01*
X1645716Y-1133195D01*
X1657146Y-1128471D01*
X1662074Y-1125829D01*
X1665986Y-1122629D01*
X1669186Y-1118717D01*
X1671828Y-1113790D01*
X1676552Y-1102309D01*
X1678178Y-1097026D01*
X1678736Y-1091438D01*
X1678736Y-1057452D01*
X1679193Y-1051864D01*
X1681530Y-1048105D01*
X1708657Y-1020978D01*
X1713433Y-1015136D01*
X1716582Y-1008887D01*
X1718462Y-1002030D01*
X1718868Y-996543D01*
X1718868Y-962355D01*
X1719630Y-958494D01*
X1721866Y-955192D01*
X1725168Y-953008D01*
X1729028Y-952195D01*
X1819452Y-952195D01*
X1825752Y-951484D01*
X1831187Y-949604D01*
X1836115Y-946505D01*
X1840179Y-942441D01*
X1843278Y-937514D01*
X1845208Y-932078D01*
X1845919Y-925728D01*
X1845919Y-776884D01*
X1845208Y-770534D01*
X1843278Y-765098D01*
X1840179Y-760171D01*
X1836115Y-756107D01*
X1831187Y-753008D01*
X1825752Y-751128D01*
X1819452Y-750417D01*
X1729028Y-750417D01*
X1725168Y-749604D01*
X1721866Y-747420D01*
X1719630Y-744118D01*
X1718868Y-740257D01*
X1718868Y-731012D01*
X1719630Y-727100D01*
X1721866Y-723798D01*
X1882495Y-563168D01*
X1885442Y-561136D01*
X1888998Y-560222D01*
X1892604Y-560628D01*
X1895805Y-562305D01*
X1898243Y-564946D01*
X1899818Y-567385D01*
X1903882Y-571500D01*
X1908810Y-574598D01*
X1914245Y-576478D01*
X1920595Y-577189D01*
X2144420Y-577189D01*
X2150770Y-576478D01*
X2155291Y-574903D01*
X2159609Y-574395D01*
X2163724Y-575716D01*
X2166975Y-578662D01*
X2168855Y-581406D01*
X2175814Y-588365D01*
X2183892Y-594004D01*
X2192782Y-598170D01*
X2202281Y-600710D01*
X2212086Y-601573D01*
X2221839Y-600710D01*
X2231339Y-598170D01*
X2240330Y-593953D01*
X2245207Y-590651D01*
X2248814Y-589127D01*
X2252268Y-584403D01*
X2255012Y-581660D01*
X2257552Y-579780D01*
X2260600Y-578815D01*
X2265019Y-579018D01*
X2268829Y-580440D01*
X2271826Y-583234D01*
X2273401Y-586994D01*
X2273401Y-591108D01*
X2271826Y-594817D01*
X2268880Y-597662D01*
X2264867Y-600151D01*
X2260600Y-601624D01*
X2259533Y-604469D01*
X2255824Y-610362D01*
X2253894Y-615797D01*
X2253183Y-622096D01*
X2253183Y-635203D01*
X2295245Y-635203D01*
X2295245Y-588873D01*
X2296058Y-584962D01*
X2298242Y-581660D01*
X2301544Y-579475D01*
X2305405Y-578713D01*
X2342794Y-578713D01*
X2346706Y-579475D01*
X2350008Y-581660D01*
X2352192Y-584962D01*
X2352954Y-588873D01*
X2352954Y-635203D01*
X2395016Y-635203D01*
X2395016Y-622096D01*
X2394305Y-615797D01*
X2392375Y-610362D01*
X2389327Y-605434D01*
X2385263Y-601421D01*
X2378913Y-597560D01*
X2375763Y-594512D01*
X2374138Y-590448D01*
X2374392Y-586130D01*
X2376424Y-582269D01*
X2379929Y-579628D01*
X2384196Y-578713D01*
X2389733Y-578713D01*
X2393594Y-579475D01*
X2396896Y-581660D01*
X2463444Y-648157D01*
X2469286Y-652932D01*
X2475636Y-656132D01*
X2480665Y-657656D01*
X2483408Y-658926D01*
X2485694Y-660958D01*
X2490317Y-668528D01*
X2494432Y-672642D01*
X2499309Y-675690D01*
X2504795Y-677621D01*
X2511094Y-678332D01*
X2629865Y-678332D01*
X2636164Y-677621D01*
X2641650Y-675690D01*
X2646527Y-672642D01*
X2650642Y-668528D01*
X2653741Y-663651D01*
X2655620Y-658164D01*
X2656332Y-651865D01*
X2656332Y-597865D01*
X2655620Y-591566D01*
X2653741Y-586079D01*
X2650642Y-581202D01*
X2646527Y-577088D01*
X2641650Y-574040D01*
X2636164Y-572109D01*
X2629865Y-571398D01*
X2511094Y-571398D01*
X2504795Y-572109D01*
X2499309Y-574040D01*
X2496820Y-575614D01*
X2493670Y-576935D01*
X2490266Y-577088D01*
X2486964Y-576173D01*
X2484221Y-574192D01*
X2431897Y-521868D01*
X2426055Y-517143D01*
X2419807Y-513943D01*
X2412898Y-512114D01*
X2407412Y-511657D01*
X2262174Y-511657D01*
X2258263Y-510895D01*
X2255012Y-508711D01*
X2248306Y-502005D01*
X2240229Y-496366D01*
X2231339Y-492201D01*
X2221839Y-489661D01*
X2212086Y-488797D01*
X2202281Y-489661D01*
X2192782Y-492201D01*
X2185365Y-495655D01*
X2181453Y-496620D01*
X2177440Y-495960D01*
X2174036Y-493776D01*
X2171700Y-490423D01*
X2170938Y-486460D01*
X2170938Y-451866D01*
X2170226Y-445566D01*
X2168296Y-440080D01*
X2165197Y-435203D01*
X2161133Y-431088D01*
X2156206Y-427990D01*
X2150770Y-426110D01*
X2144420Y-425399D01*
X1920595Y-425399D01*
X1914245Y-426110D01*
X1908810Y-427990D01*
X1903882Y-431088D01*
X1899818Y-435203D01*
X1896719Y-440080D01*
X1894789Y-445566D01*
X1894078Y-451866D01*
X1894078Y-459841D01*
X1893214Y-463956D01*
X1890775Y-467359D01*
X1887169Y-469442D01*
X1883410Y-470712D01*
X1877212Y-474319D01*
X1872996Y-477875D01*
X1693925Y-656996D01*
X1690624Y-659180D01*
X1686712Y-659942D01*
X1682851Y-659180D01*
X1679549Y-656996D01*
X1677314Y-653694D01*
X1676552Y-649782D01*
X1676552Y-535482D01*
X1677314Y-531622D01*
X1679549Y-528320D01*
X1870049Y-337769D01*
X1873351Y-335584D01*
X1877263Y-334822D01*
X1883918Y-334822D01*
X1887829Y-335584D01*
X1891131Y-337769D01*
X1893316Y-341071D01*
X1894078Y-344982D01*
X1894078Y-350723D01*
X1894789Y-357022D01*
X1896719Y-362508D01*
X1899818Y-367385D01*
X1903882Y-371500D01*
X1908810Y-374599D01*
X1914245Y-376478D01*
X1920595Y-377190D01*
X2144420Y-377190D01*
X2150770Y-376478D01*
X2156206Y-374599D01*
X2161133Y-371500D01*
X2165197Y-367385D01*
X2168296Y-362508D01*
X2170226Y-357022D01*
X2170938Y-350723D01*
X2170938Y-251866D01*
X2170226Y-245567D01*
X2168296Y-240080D01*
X2165197Y-235204D01*
X2161133Y-231089D01*
X2156206Y-227990D01*
X2150770Y-226110D01*
X2144420Y-225399D01*
X1920595Y-225399D01*
X1914245Y-226110D01*
X1908810Y-227990D01*
X1903882Y-231089D01*
X1899818Y-235204D01*
X1896719Y-240080D01*
X1894789Y-245567D01*
X1894078Y-251866D01*
X1894078Y-257606D01*
X1893316Y-261518D01*
X1891131Y-264820D01*
X1887829Y-267004D01*
X1883918Y-267766D01*
X1859686Y-267766D01*
X1852218Y-268579D01*
X1845564Y-270713D01*
X1839366Y-274320D01*
X1835200Y-277876D01*
X1632153Y-480923D01*
X1628851Y-483108D01*
X1624939Y-483870D01*
X1378915Y-483870D01*
X1375054Y-483108D01*
X1371752Y-480923D01*
X1365707Y-474929D01*
X1363370Y-471220D01*
X1362811Y-466851D01*
X1363116Y-463296D01*
X1362252Y-453491D01*
X1359712Y-443992D01*
X1355547Y-435101D01*
X1349908Y-427075D01*
X1342948Y-420116D01*
X1334922Y-414477D01*
X1326032Y-410311D01*
X1316532Y-407771D01*
X1306728Y-406908D01*
X1296924Y-407771D01*
X1287424Y-410311D01*
X1278534Y-414477D01*
X1270508Y-420116D01*
X1263548Y-427075D01*
X1257909Y-435101D01*
X1253744Y-443992D01*
X1251204Y-453491D01*
X1250340Y-463296D01*
X1251204Y-473100D01*
X1253744Y-482600D01*
X1257909Y-491490D01*
X1263548Y-499516D01*
X1270508Y-506476D01*
X1278534Y-512114D01*
X1287424Y-516280D01*
X1296924Y-518820D01*
X1306728Y-519684D01*
X1310284Y-519379D01*
X1314653Y-519938D01*
X1318361Y-522274D01*
X1336751Y-540715D01*
X1342593Y-545439D01*
X1348841Y-548640D01*
X1355750Y-550468D01*
X1361236Y-550926D01*
X1599387Y-550926D01*
X1603248Y-551688D01*
X1606550Y-553872D01*
X1608785Y-557174D01*
X1609547Y-561086D01*
X1609547Y-740257D01*
X1608785Y-744118D01*
X1606550Y-747420D01*
X1603248Y-749604D01*
X1599387Y-750417D01*
X1520545Y-750417D01*
X1514246Y-751128D01*
X1508810Y-753008D01*
X1503883Y-756107D01*
X1499819Y-760171D01*
X1496720Y-765098D01*
X1494790Y-770534D01*
X1494078Y-776884D01*
X1494078Y-925728D01*
X1494790Y-932078D01*
X1496720Y-937514D01*
X1499819Y-942441D01*
X1503883Y-946505D01*
X1508810Y-949604D01*
X1514246Y-951484D01*
X1520545Y-952195D01*
X1555800Y-952195D01*
X1559712Y-953008D01*
X1562963Y-955192D01*
X1565198Y-958494D01*
X1565960Y-962355D01*
X1565198Y-966266D01*
X1562963Y-969568D01*
X1519224Y-1013358D01*
X1516227Y-1015390D01*
X1512671Y-1016304D01*
X1509064Y-1015898D01*
X1503222Y-1014069D01*
X1497685Y-1013561D01*
X1443685Y-1013561D01*
X1438148Y-1014120D01*
X1432814Y-1015695D01*
X1421333Y-1020470D01*
X1416405Y-1023061D01*
X1412494Y-1026312D01*
X1409293Y-1030224D01*
X1406652Y-1035151D01*
X1401927Y-1046581D01*
X1400302Y-1051915D01*
X1399743Y-1057452D01*
X1399743Y-1091438D01*
X1400302Y-1097026D01*
X1401927Y-1102309D01*
X1406652Y-1113790D01*
X1409293Y-1118717D01*
X1412494Y-1122629D01*
X1416405Y-1125829D01*
X1421333Y-1128471D01*
X1432814Y-1133195D01*
X1438148Y-1134821D01*
G37*
G36*
X1334414Y-1135176D02*
G01*
X1338122Y-1134821D01*
X1343456Y-1133195D01*
X1354886Y-1128420D01*
X1359814Y-1125829D01*
X1363726Y-1122578D01*
X1366926Y-1118666D01*
X1369568Y-1113790D01*
X1374292Y-1102309D01*
X1375562Y-1098296D01*
X1334414Y-1098296D01*
G37*
G36*
X1276705Y-1135176D02*
G01*
X1276705Y-1098296D01*
X1235608Y-1098296D01*
X1236827Y-1102309D01*
X1241552Y-1113790D01*
X1244193Y-1118666D01*
X1247394Y-1122578D01*
X1251305Y-1125829D01*
X1256233Y-1128420D01*
X1267714Y-1133195D01*
X1273048Y-1134821D01*
G37*
G36*
X3215132Y448208D02*
G01*
X3290214Y448208D01*
X3287014Y454812D01*
X3280613Y464210D01*
X3272891Y472490D01*
X3264052Y479551D01*
X3254248Y485241D01*
X3243681Y489407D01*
X3232607Y491896D01*
X3220923Y492810D01*
X3215132Y492810D01*
G37*
G36*
X1334414Y-1050594D02*
G01*
X1375562Y-1050594D01*
X1374292Y-1046581D01*
X1369568Y-1035100D01*
X1366926Y-1030224D01*
X1363726Y-1026261D01*
X1359814Y-1023061D01*
X1354886Y-1020419D01*
X1343456Y-1015695D01*
X1338122Y-1014069D01*
X1334414Y-1013714D01*
G37*
G36*
X1235608Y-1050594D02*
G01*
X1276705Y-1050594D01*
X1276705Y-1013714D01*
X1273048Y-1014069D01*
X1267714Y-1015695D01*
X1256233Y-1020419D01*
X1251305Y-1023061D01*
X1247394Y-1026261D01*
X1244193Y-1030224D01*
X1241552Y-1035100D01*
X1236827Y-1046581D01*
G37*
G36*
X2583738Y447852D02*
G01*
X2671267Y447852D01*
X2671267Y492404D01*
X2652979Y492404D01*
X2641295Y491540D01*
X2630220Y489000D01*
X2619705Y484835D01*
X2609850Y479196D01*
X2601010Y472135D01*
X2593289Y463804D01*
X2586888Y454406D01*
G37*
G36*
X1765503Y-1044143D02*
G01*
X1807565Y-1044143D01*
X1807565Y-1004569D01*
X1792020Y-1004569D01*
X1785670Y-1005281D01*
X1780235Y-1007211D01*
X1775307Y-1010310D01*
X1771243Y-1014374D01*
X1768144Y-1019302D01*
X1766214Y-1024737D01*
X1765503Y-1031036D01*
G37*
G36*
X1120546Y-952195D02*
G01*
X1219454Y-952195D01*
X1225753Y-951484D01*
X1231188Y-949604D01*
X1236116Y-946505D01*
X1240180Y-942441D01*
X1243279Y-937514D01*
X1245209Y-932078D01*
X1245920Y-925728D01*
X1245920Y-776884D01*
X1245209Y-770534D01*
X1243279Y-765098D01*
X1240180Y-760171D01*
X1236116Y-756107D01*
X1231188Y-753008D01*
X1225753Y-751128D01*
X1219454Y-750417D01*
X1120546Y-750417D01*
X1114247Y-751128D01*
X1108811Y-753008D01*
X1103884Y-756107D01*
X1099820Y-760171D01*
X1096721Y-765098D01*
X1094790Y-770534D01*
X1094079Y-776884D01*
X1094079Y-925728D01*
X1094790Y-932078D01*
X1096721Y-937514D01*
X1099820Y-942441D01*
X1103884Y-946505D01*
X1108811Y-949604D01*
X1114247Y-951484D01*
G37*
G36*
X1320546Y-952195D02*
G01*
X1419453Y-952195D01*
X1425752Y-951484D01*
X1431188Y-949604D01*
X1436116Y-946505D01*
X1440180Y-942441D01*
X1443278Y-937514D01*
X1445209Y-932078D01*
X1445920Y-925728D01*
X1445920Y-776884D01*
X1445209Y-770534D01*
X1443278Y-765098D01*
X1440180Y-760171D01*
X1436116Y-756107D01*
X1431188Y-753008D01*
X1425752Y-751128D01*
X1419453Y-750417D01*
X1320546Y-750417D01*
X1314246Y-751128D01*
X1308811Y-753008D01*
X1303883Y-756107D01*
X1299819Y-760171D01*
X1296720Y-765098D01*
X1294790Y-770534D01*
X1294079Y-776884D01*
X1294079Y-925728D01*
X1294790Y-932078D01*
X1296720Y-937514D01*
X1299819Y-942441D01*
X1303883Y-946505D01*
X1308811Y-949604D01*
X1314246Y-951484D01*
G37*
G36*
X1920595Y-777189D02*
G01*
X1969922Y-777189D01*
X1969922Y-732637D01*
X1894078Y-732637D01*
X1894078Y-750722D01*
X1894789Y-757021D01*
X1896719Y-762508D01*
X1899818Y-767384D01*
X1903882Y-771499D01*
X1908810Y-774598D01*
X1914245Y-776478D01*
G37*
G36*
X2095093Y-669950D02*
G01*
X2170938Y-669950D01*
X2170938Y-651865D01*
X2170226Y-645566D01*
X2168296Y-640080D01*
X2165197Y-635203D01*
X2161133Y-631088D01*
X2156206Y-627989D01*
X2150770Y-626110D01*
X2144420Y-625398D01*
X2095093Y-625398D01*
G37*
G36*
X1894078Y-669950D02*
G01*
X1969922Y-669950D01*
X1969922Y-625398D01*
X1920595Y-625398D01*
X1914245Y-626110D01*
X1908810Y-627989D01*
X1903882Y-631088D01*
X1899818Y-635203D01*
X1896719Y-640080D01*
X1894789Y-645566D01*
X1894078Y-651865D01*
G37*
G36*
X2833979Y-523443D02*
G01*
X2852216Y-523443D01*
X2863900Y-522528D01*
X2874975Y-520039D01*
X2885541Y-515874D01*
X2895346Y-510235D01*
X2904236Y-503123D01*
X2911957Y-494842D01*
X2918307Y-485444D01*
X2921508Y-478891D01*
X2833979Y-478891D01*
G37*
G36*
X2652979Y-523443D02*
G01*
X2671267Y-523443D01*
X2671267Y-478891D01*
X2583738Y-478891D01*
X2586888Y-485444D01*
X2593289Y-494842D01*
X2601010Y-503123D01*
X2609850Y-510235D01*
X2619705Y-515874D01*
X2630220Y-520039D01*
X2641295Y-522528D01*
G37*
G36*
X3215182Y-523036D02*
G01*
X3220923Y-523036D01*
X3232607Y-522173D01*
X3243681Y-519633D01*
X3254248Y-515467D01*
X3264052Y-509828D01*
X3272942Y-502767D01*
X3280613Y-494436D01*
X3287014Y-485089D01*
X3290214Y-478485D01*
X3215182Y-478485D01*
G37*
G36*
X3071672Y-523036D02*
G01*
X3077464Y-523036D01*
X3077464Y-478485D01*
X3002432Y-478485D01*
X3005582Y-485089D01*
X3011982Y-494436D01*
X3019704Y-502767D01*
X3028543Y-509828D01*
X3038398Y-515467D01*
X3048965Y-519633D01*
X3059988Y-522173D01*
G37*
G36*
X2583738Y-416153D02*
G01*
X2671267Y-416153D01*
X2671267Y-404368D01*
X2671013Y-405536D01*
X2668828Y-408838D01*
X2665526Y-411022D01*
X2661666Y-411784D01*
X2585821Y-411784D01*
G37*
G36*
X2833979Y-416153D02*
G01*
X2921508Y-416153D01*
X2918307Y-409600D01*
X2911957Y-400202D01*
X2904236Y-391871D01*
X2895346Y-384810D01*
X2885541Y-379171D01*
X2874975Y-375005D01*
X2863900Y-372465D01*
X2852216Y-371602D01*
X2833979Y-371602D01*
G37*
G36*
X3002432Y-415798D02*
G01*
X3077464Y-415798D01*
X3077464Y-371195D01*
X3071672Y-371195D01*
X3059988Y-372110D01*
X3048965Y-374599D01*
X3038398Y-378764D01*
X3028543Y-384454D01*
X3019704Y-391515D01*
X3011982Y-399796D01*
X3005582Y-409194D01*
G37*
G36*
X3215182Y-415798D02*
G01*
X3290214Y-415798D01*
X3287014Y-409194D01*
X3280613Y-399796D01*
X3272942Y-391515D01*
X3264052Y-384454D01*
X3254248Y-378764D01*
X3243681Y-374599D01*
X3232607Y-372110D01*
X3220923Y-371195D01*
X3215182Y-371195D01*
G37*
G36*
X2516022Y-391464D02*
G01*
X2559100Y-391464D01*
X2559100Y-356920D01*
X2489555Y-356920D01*
X2489555Y-364998D01*
X2490266Y-371348D01*
X2492146Y-376783D01*
X2495245Y-381711D01*
X2499360Y-385775D01*
X2504236Y-388874D01*
X2509723Y-390753D01*
G37*
G36*
X2671267Y373227D02*
G01*
X2671267Y385114D01*
X2583738Y385114D01*
X2585872Y380644D01*
X2661666Y380644D01*
X2665526Y379882D01*
X2668828Y377698D01*
X2671013Y374396D01*
G37*
G36*
X2671826Y325780D02*
G01*
X2672537Y325780D01*
X2671826Y327660D01*
G37*
G36*
X2489555Y325780D02*
G01*
X2559100Y325780D01*
X2559100Y360324D01*
X2516022Y360324D01*
X2509723Y359613D01*
X2504236Y357733D01*
X2499360Y354634D01*
X2495245Y350520D01*
X2492146Y345643D01*
X2490266Y340156D01*
X2489555Y333857D01*
G37*
G36*
X3215132Y340969D02*
G01*
X3220923Y340969D01*
X3232607Y341833D01*
X3243681Y344373D01*
X3254248Y348538D01*
X3264052Y354177D01*
X3272891Y361238D01*
X3280613Y369570D01*
X3287014Y378917D01*
X3290214Y385521D01*
X3215132Y385521D01*
G37*

%LPD*%
G36*
X1996897Y-1431544D02*
G01*
X1993442Y-1430934D01*
X1990394Y-1429207D01*
X1988159Y-1426514D01*
X1986940Y-1423263D01*
X1984451Y-1419809D01*
X1983587Y-1415694D01*
X1983587Y-1378305D01*
X1984400Y-1374292D01*
X1986737Y-1370939D01*
X1986737Y-1323340D01*
X1984400Y-1319987D01*
X1983587Y-1315974D01*
X1983587Y-1285849D01*
X1984451Y-1281734D01*
X1986940Y-1278280D01*
X1990648Y-1276197D01*
X1994865Y-1275791D01*
X2000300Y-1276400D01*
X2089150Y-1276400D01*
X2095449Y-1275689D01*
X2100326Y-1274470D01*
X2103526Y-1274927D01*
X2106371Y-1276299D01*
X2109774Y-1278686D01*
X2118664Y-1282852D01*
X2128164Y-1285392D01*
X2137968Y-1286256D01*
X2147722Y-1285392D01*
X2157222Y-1282852D01*
X2166112Y-1278686D01*
X2174189Y-1273048D01*
X2181504Y-1265732D01*
X2184806Y-1263548D01*
X2188667Y-1262786D01*
X2192578Y-1263548D01*
X2195880Y-1265732D01*
X2198065Y-1269034D01*
X2199538Y-1280363D01*
X2201468Y-1285849D01*
X2204516Y-1290726D01*
X2208631Y-1294841D01*
X2213508Y-1297889D01*
X2215337Y-1298549D01*
X2218893Y-1300683D01*
X2221280Y-1304036D01*
X2222144Y-1308100D01*
X2221280Y-1312164D01*
X2218893Y-1315567D01*
X2215337Y-1317701D01*
X2213508Y-1318310D01*
X2208631Y-1321409D01*
X2204516Y-1325524D01*
X2201468Y-1330401D01*
X2199538Y-1335887D01*
X2198827Y-1342186D01*
X2198827Y-1401064D01*
X2199538Y-1407363D01*
X2201468Y-1412849D01*
X2203450Y-1415999D01*
X2204923Y-1420063D01*
X2204567Y-1424330D01*
X2202484Y-1428089D01*
X2199030Y-1430629D01*
X2194864Y-1431544D01*
X2089150Y-1431544D01*
X2085492Y-1430883D01*
X2082292Y-1428902D01*
X2080056Y-1425854D01*
X2038400Y-1425854D01*
X2036165Y-1428902D01*
X2032965Y-1430883D01*
X2029307Y-1431544D01*
G37*

%LPC*%
G36*
X2039467Y-1368145D02*
G01*
X2078989Y-1368145D01*
X2078989Y-1352600D01*
X2078278Y-1346250D01*
X2076399Y-1340815D01*
X2073300Y-1335887D01*
X2069236Y-1331823D01*
X2064308Y-1328724D01*
X2058873Y-1326845D01*
X2052523Y-1326134D01*
X2039467Y-1326134D01*
G37*

%LPD*%
D11*
X2155916Y-880191D02*
G01*
X2155916Y-1086464D01*
X2108316Y-1134064D01*
X2003491Y-1134064D01*
X1950049Y-1187505D01*
X1950049Y-1460606D01*
X1954494Y-1465051D01*
X2721422Y-1465051D01*
X2814868Y-1371605D01*
X2324089Y-864544D02*
G01*
X2171562Y-864544D01*
X2155916Y-880191D01*
X2324089Y-801527D02*
G01*
X2324089Y-864544D01*
X2866379Y-1371605D02*
G01*
X2824876Y-1371605D01*
X2814868Y-1371605D02*
G01*
X2783347Y-1371605D01*
X2824876Y-1371605D02*
G01*
X2814868Y-1371605D01*
X2783347Y-1371605D02*
G01*
X2783347Y-1194922D01*
X2787792Y-1190477D01*
X2933588Y-1190477D01*
X3003565Y-1120500D01*
X3114639Y-1120500D01*
X3150885Y-1084254D01*
X3150885Y-920399D01*
X3054517Y-824031D01*
X668441Y4820D02*
G01*
X811291Y4820D01*
X905118Y-89006D01*
X905118Y-541685D01*
X441949Y-1004854D01*
X441949Y-1074425D01*
X121909Y330194D02*
G01*
X209006Y243098D01*
X209006Y36570D01*
X240731Y4846D01*
X668441Y4846D01*
X668441Y4820D01*
X2367777Y-990605D02*
G01*
X2369886Y-992713D01*
X2417282Y-992713D01*
X2496657Y-913338D01*
X2593101Y-913338D01*
X2653477Y-852962D01*
X2653477Y-768126D01*
X2602626Y-717275D01*
X2673441Y-447502D02*
G01*
X2615453Y-389514D01*
X2615453Y-335564D01*
X2752613Y-447502D02*
G01*
X2673441Y-447502D01*
X2602626Y-717275D02*
G01*
X2673441Y-646460D01*
X2673441Y-447502D01*
X2392136Y-661522D02*
G01*
X2447889Y-717275D01*
X2602626Y-717275D01*
X2501534Y-1181105D02*
G01*
X2501534Y-1156670D01*
X2363332Y-1018468D01*
X2361656Y-1018468D01*
X2361631Y-1018443D01*
X2361631Y-1018418D01*
X2361859Y-1018189D01*
X2363332Y-1018189D01*
X2367777Y-1013744D01*
X2367777Y-990605D01*
X2324089Y-661522D02*
G01*
X2392136Y-661522D01*
X936487Y-972367D02*
G01*
X1203492Y-972367D01*
X1305549Y-1074425D01*
X2284719Y-990605D02*
G01*
X2367777Y-990605D01*
X2501534Y-1181105D02*
G01*
X2427518Y-1181105D01*
X2575549Y-1181105D02*
G01*
X2501534Y-1181105D01*
X2168032Y-701273D02*
G01*
X2207783Y-661522D01*
X2324089Y-661522D01*
X2013092Y-1397005D02*
G01*
X2076135Y-1397005D01*
X1896963Y-701273D02*
G01*
X1896963Y-946866D01*
X1836409Y-1007419D01*
X2032497Y-701273D02*
G01*
X1896963Y-701273D01*
X3403589Y645789D02*
G01*
X3375192Y645789D01*
X3146313Y416910D01*
X3146313Y-447095D02*
G01*
X2753019Y-447095D01*
X2752613Y-447502D01*
X2752613Y416504D02*
G01*
X2640548Y304439D01*
X2615453Y304439D01*
X1836409Y-1070462D02*
G01*
X1836409Y-1007419D01*
X2829549Y-718825D02*
G01*
X2912531Y-718825D01*
X2912531Y-718825D02*
G01*
X2912531Y-680877D01*
X3146313Y-447095D01*
X1305549Y-1074425D02*
G01*
X1381749Y-1150625D01*
X1531609Y-1150625D01*
X1607809Y-1226825D01*
X1607809Y-1226825D02*
G01*
X1764172Y-1070462D01*
X1836409Y-1070462D01*
X121909Y584194D02*
G01*
X121909Y330194D01*
X3083168Y804717D02*
G01*
X3244662Y804717D01*
X3403589Y645789D01*
X2984489Y673094D02*
G01*
X2984489Y706038D01*
X3083168Y804717D01*
X2565389Y1092118D02*
G01*
X2737551Y1092118D01*
X2788249Y1142817D01*
X2788249Y1320896D01*
X2824139Y1356786D01*
X3006486Y1356786D01*
X3038033Y1325239D01*
X3038033Y849853D01*
X3083168Y804717D01*
X2032497Y-701273D02*
G01*
X2168032Y-701273D01*
X2284719Y-1244605D02*
G01*
X2201687Y-1244605D01*
X2201687Y-1244605D02*
G01*
X2201687Y-1271452D01*
X2076135Y-1397005D01*
X2318578Y-1244605D02*
G01*
X2284719Y-1244605D01*
X2318578Y-1244605D02*
G01*
X2367777Y-1244605D01*
X2427518Y-1181105D02*
G01*
X2427518Y-1184864D01*
X2367777Y-1244605D01*
X121909Y-213365D02*
G01*
X121909Y-495305D01*
X121909Y86354D02*
G01*
X121909Y-213365D01*
X2487488Y-812805D02*
G01*
X2412608Y-737925D01*
X2219391Y-737925D01*
X1905853Y-1051463D01*
X1905853Y-1141023D01*
X1899452Y-1147424D01*
X1836409Y-1147424D01*
X1836409Y-1210467D02*
G01*
X1836409Y-1147424D01*
X2570469Y-812805D02*
G01*
X2487488Y-812805D01*
X358587Y-701273D02*
G01*
X358587Y-1143436D01*
X441949Y-1226799D01*
X358587Y-701273D02*
G01*
X507481Y-701273D01*
X121909Y-495305D02*
G01*
X327878Y-701273D01*
X358587Y-701273D01*
X1175171Y590240D02*
G01*
X397169Y590240D01*
X319572Y512643D01*
X236692Y512643D01*
X198109Y551225D01*
X198109Y627019D01*
X172862Y652266D01*
X121909Y652266D01*
X2319009Y634994D02*
G01*
X2274255Y590240D01*
X1175171Y590240D01*
X1836409Y-1241988D02*
G01*
X1836409Y-1210467D01*
X1836409Y-1241988D02*
G01*
X1836409Y-1273510D01*
X2319009Y634994D02*
G01*
X2319009Y655010D01*
X2387564Y723564D01*
X2387564Y814826D01*
X2471130Y898392D01*
X2471130Y1150233D01*
X2565389Y1244493D01*
X1873112Y-1397005D02*
G01*
X1810070Y-1397005D01*
X1763334Y-1346586D02*
G01*
X1836409Y-1273510D01*
X1470649Y-1226825D02*
G01*
X1590410Y-1346586D01*
X1763334Y-1346586D01*
X1763334Y-1346586D02*
G01*
X1810070Y-1393322D01*
X1810070Y-1397005D01*
X1305549Y-1226799D02*
G01*
X1305575Y-1226825D01*
X1470649Y-1226825D01*
X612129Y-1226825D02*
G01*
X682894Y-1156060D01*
X1016624Y-1156060D01*
X1133845Y-1273281D01*
X441949Y-1226799D02*
G01*
X612129Y-1226799D01*
X612129Y-1226825D01*
X3111489Y1231894D02*
G01*
X3111489Y1295217D01*
X3019211Y1387495D01*
X2811414Y1387495D01*
X2730489Y1306570D01*
X2730489Y1244493D01*
X121909Y652266D02*
G01*
X64759Y652266D01*
X60314Y647821D01*
X60314Y147949D01*
X121909Y86354D01*
X121909Y853434D02*
G01*
X121909Y652266D01*
X1133845Y-1273281D02*
G01*
X1259067Y-1273281D01*
X1305549Y-1226799D01*
X2730489Y1244493D02*
G01*
X2730489Y1231894D01*
X2730489Y1244493D02*
G01*
X2565389Y1244493D01*
X2747406Y-1052784D02*
G01*
X2747406Y-1345671D01*
X2713903Y-1379174D01*
X2375347Y-1379174D01*
X2367777Y-1371605D01*
X2284719Y-1371605D02*
G01*
X2367777Y-1371605D01*
X2783347Y-990605D02*
G01*
X2783347Y-1016843D01*
X2747406Y-1052784D01*
X2866379Y-990605D02*
G01*
X2783347Y-990605D01*
X2615453Y-255554D02*
G01*
X2615453Y-246156D01*
X2615453Y224454D02*
G01*
X2492415Y224454D01*
X2949437Y-1244605D02*
G01*
X2949437Y-1218087D01*
X2985658Y-1181867D01*
X3038668Y-1181867D01*
X2866379Y-1244605D02*
G01*
X2949437Y-1244605D01*
X2866379Y-1117605D02*
G01*
X2949437Y-1117605D01*
X2949437Y-1117605D02*
G01*
X3000085Y-1066957D01*
X3092439Y-1066957D01*
X1643039Y-517377D02*
G01*
X1360820Y-517377D01*
X1306718Y-463275D01*
X1643039Y-517377D02*
G01*
X1643039Y-936858D01*
X1505447Y-1074450D01*
X1470649Y-1074450D01*
X1904659Y-301274D02*
G01*
X1859142Y-301274D01*
X1643039Y-517377D01*
X2032497Y-301274D02*
G01*
X1904659Y-301274D01*
X507481Y-101274D02*
G01*
X828842Y-101274D01*
X439714Y-101274D02*
G01*
X507481Y-101274D01*
X439714Y-101274D02*
G01*
X371947Y-101274D01*
X371947Y-101274D02*
G01*
X371947Y-115702D01*
X274284Y-213365D01*
X933084Y-1083416D02*
G01*
X1003721Y-1083416D01*
X1038849Y-1048288D01*
X507481Y-501274D02*
G01*
X643016Y-501274D01*
X643016Y-501274D02*
G01*
X643016Y-403915D01*
X840094Y-206837D01*
X274284Y-495305D02*
G01*
X280253Y-501274D01*
X507481Y-501274D01*
X2319009Y482620D02*
G01*
X2235139Y398749D01*
X2168032Y398749D01*
X2168032Y398749D02*
G01*
X1260033Y398749D01*
X2168032Y-101274D02*
G01*
X2168032Y398749D01*
X2032497Y-101274D02*
G01*
X2168032Y-101274D01*
X2463789Y482544D02*
G01*
X2319086Y482544D01*
X2319009Y482620D01*
X2284719Y-1117605D02*
G01*
X2201687Y-1117605D01*
X2201687Y-1117605D02*
G01*
X2201687Y-945621D01*
X2209764Y-937544D01*
X2393482Y-937544D01*
X2730820Y9443D02*
G01*
X2738490Y9443D01*
X2615453Y9443D02*
G01*
X2730820Y9443D01*
X2615453Y-90556D02*
G01*
X2738490Y-90556D01*
X2570469Y-624845D02*
G01*
X2487488Y-624845D01*
X2044689Y-1210467D02*
G01*
X2112736Y-1210467D01*
X2137933Y-1229847D02*
G01*
X2132116Y-1229847D01*
X2112736Y-1210467D01*
X2487488Y-624845D02*
G01*
X2407808Y-545165D01*
X2212050Y-545165D01*
X2032497Y498723D02*
G01*
X2168032Y498723D01*
X2168032Y498723D02*
G01*
X2228128Y558820D01*
X2361097Y558820D01*
X2388707Y586430D01*
X2388707Y669335D01*
X2412329Y692957D01*
X2505776Y692957D01*
X2984489Y1171671D01*
X2984489Y1231894D01*
X507481Y498723D02*
G01*
X371947Y498723D01*
X371947Y498723D02*
G01*
X371947Y427857D01*
X274284Y330194D01*
X2032497Y-501274D02*
G01*
X1896963Y-501274D01*
X1896963Y-501274D02*
G01*
X1685356Y-712881D01*
X1685356Y-996904D01*
X1607809Y-1074450D01*
X3111489Y673094D02*
G01*
X3111489Y650539D01*
X3005546Y544596D01*
X2963001Y544596D01*
X2920989Y586607D01*
X2920989Y773983D01*
X2886039Y808934D01*
X2705267Y808934D01*
X2531252Y634918D01*
X2463789Y634918D01*
X2032497Y698723D02*
G01*
X2248194Y698723D01*
X2311389Y761918D01*
X2857489Y1231894D02*
G01*
X2857489Y1155644D01*
X2463764Y761918D01*
X507481Y298724D02*
G01*
X371947Y298724D01*
X371947Y298724D02*
G01*
X371947Y184017D01*
X274284Y86354D01*
X2032497Y298724D02*
G01*
X1896963Y298724D01*
X789929Y-1074425D02*
G01*
X843066Y-1021288D01*
X843066Y-755172D01*
X1896963Y298724D01*
X612129Y-1074450D02*
G01*
X789904Y-1074450D01*
X789929Y-1074425D01*
X789929Y-1226799D02*
G01*
X897371Y-1226799D01*
X943853Y-1273281D01*
X3141512Y-669015D02*
G01*
X3209559Y-669015D01*
X3361502Y-683214D02*
G01*
X3347303Y-669015D01*
X3209559Y-669015D01*
X3361502Y-683214D02*
G01*
X3361502Y-757052D01*
X3361502Y-669015D02*
G01*
X3361502Y-683214D01*
X3361502Y-1429034D02*
G01*
X3361502Y-757052D01*
X3141512Y-1429034D02*
G01*
X3361502Y-1429034D01*
X3054517Y-974018D02*
G01*
X3054517Y-905972D01*
X2829549Y-812805D02*
G01*
X2912531Y-812805D01*
X2912531Y-812805D02*
G01*
X2912531Y-832032D01*
X2986471Y-905972D01*
X3054517Y-905972D01*
X2788071Y-812805D02*
G01*
X2829549Y-812805D01*
X2788071Y-812805D02*
G01*
X2746568Y-812805D01*
X2829549Y-624845D02*
G01*
X2746568Y-624845D01*
X2746568Y-624845D02*
G01*
X2746568Y-812805D01*
X507481Y698723D02*
G01*
X643016Y698723D01*
X643016Y698723D02*
G01*
X804611Y860318D01*
X2316622Y860318D01*
X2435951Y979647D01*
X2435951Y1218890D01*
X2645730Y1428668D01*
X3085124Y1428668D01*
X3403589Y1110203D01*
X3403589Y1050767D01*
X439714Y698723D02*
G01*
X507481Y698723D01*
X439714Y698723D02*
G01*
X371947Y698723D01*
X274284Y853434D02*
G01*
X371947Y755771D01*
X371947Y698723D01*
X371947Y698723D02*
G01*
X371947Y681857D01*
X274284Y584194D01*
X2615453Y59456D02*
G01*
X2738490Y59456D01*
X2738490Y59456D02*
G01*
X2930946Y251912D01*
X2930946Y452775D01*
X2730489Y653232D01*
X2730489Y673094D01*
X2561630Y59456D02*
G01*
X2615453Y59456D01*
X2561630Y59456D02*
G01*
X2492415Y59456D01*
X2615453Y-40543D02*
G01*
X2492415Y-40543D01*
X2492415Y-40543D02*
G01*
X2492415Y59456D01*
X2738490Y-90556D02*
G01*
X2738490Y9443D01*
X2857489Y673094D02*
G01*
X2857489Y593262D01*
X2961655Y489097D01*
X2961655Y232608D01*
X2738490Y9443D01*
X2492415Y224454D02*
G01*
X2458735Y190774D01*
X2458735Y-198988D01*
X2505903Y-246156D01*
X2615453Y-246156D01*
X2615453Y-246156D02*
G01*
X2860385Y-246156D01*
X2885709Y-271480D01*
D12*
X2730489Y1160774D02*
G01*
X2730489Y1303014D01*
X2857489Y1160774D02*
G01*
X2857489Y1303014D01*
X2984489Y1160774D02*
G01*
X2984489Y1303014D01*
X2984489Y601974D02*
G01*
X2984489Y744214D01*
X2857489Y601974D02*
G01*
X2857489Y744214D01*
X2730489Y601974D02*
G01*
X2730489Y744214D01*
X3111489Y1160774D02*
G01*
X3111489Y1303014D01*
X3111489Y601974D02*
G01*
X3111489Y744214D01*
D14*
G01*
X2044689Y-1210467D03*
G01*
X2044689Y-1070462D03*
G01*
X1836409Y-1210467D03*
G01*
X1836409Y-1070462D03*
D15*
G01*
X2615453Y-335564D03*
G01*
X2615453Y-255554D03*
G01*
X2615453Y304439D03*
G01*
X2615453Y224454D03*
D16*
G01*
X2615453Y159456D03*
G01*
X2615453Y109443D03*
G01*
X2615453Y59456D03*
G01*
X2615453Y9443D03*
G01*
X2615453Y-40543D03*
G01*
X2615453Y-90556D03*
G01*
X2615453Y-140543D03*
G01*
X2615453Y-190555D03*
G36*
X3337339Y983279D02*
G01*
X3320465Y987800D01*
X3308111Y1000152D01*
X3303590Y1017028D01*
X3303590Y1084529D01*
X3308111Y1101404D01*
X3320465Y1113756D01*
X3337339Y1118278D01*
X3469840Y1118278D01*
X3486713Y1113756D01*
X3499068Y1101404D01*
X3503589Y1084529D01*
X3503589Y1017028D01*
X3499068Y1000152D01*
X3486713Y987800D01*
X3469840Y983279D01*
G37*
G36*
X3337339Y578279D02*
G01*
X3320465Y582800D01*
X3308111Y595155D01*
X3303590Y612028D01*
X3303590Y679528D01*
X3308111Y696404D01*
X3320465Y708756D01*
X3337339Y713277D01*
X3469840Y713277D01*
X3486713Y708756D01*
X3499068Y696404D01*
X3503589Y679528D01*
X3503589Y612028D01*
X3499068Y595155D01*
X3486713Y582800D01*
X3469840Y578279D01*
G37*
D17*
G01*
X3054517Y-1273027D03*
G01*
X3054517Y-974018D03*
G01*
X3054517Y-824031D03*
D18*
G01*
X3361502Y-669015D03*
G01*
X3141512Y-669015D03*
G01*
X3361502Y-1429034D03*
G01*
X3141512Y-1429034D03*
G36*
X1973099Y-1351998D02*
G01*
X2053099Y-1351998D01*
X2053099Y-1442001D01*
X1973099Y-1442001D01*
G37*
G36*
X1833100Y-1351998D02*
G01*
X1913100Y-1351998D01*
X1913100Y-1442001D01*
X1833100Y-1442001D01*
G37*
D20*
G01*
X2829549Y-812805D03*
G01*
X2829549Y-718825D03*
G01*
X2829549Y-624845D03*
G01*
X2570469Y-624845D03*
G01*
X2570469Y-812805D03*
G36*
X1260558Y-1056919D02*
G01*
X1265684Y-1044544D01*
X1278059Y-1039418D01*
X1333060Y-1039418D01*
X1345435Y-1044544D01*
X1350561Y-1056919D01*
X1350561Y-1091920D01*
X1345435Y-1104295D01*
X1333060Y-1109421D01*
X1278059Y-1109421D01*
X1265684Y-1104295D01*
X1260558Y-1091920D01*
G37*
G36*
X1350561Y-1244302D02*
G01*
X1345435Y-1256677D01*
X1333060Y-1261803D01*
X1278059Y-1261803D01*
X1265684Y-1256677D01*
X1260558Y-1244302D01*
X1260558Y-1209304D01*
X1265684Y-1196929D01*
X1278059Y-1191803D01*
X1333060Y-1191803D01*
X1345435Y-1196929D01*
X1350561Y-1209304D01*
G37*
G36*
X104419Y539198D02*
G01*
X92044Y544324D01*
X86918Y556699D01*
X86918Y611700D01*
X92044Y624075D01*
X104419Y629201D01*
X139420Y629201D01*
X151795Y624075D01*
X156921Y611700D01*
X156921Y556699D01*
X151795Y544324D01*
X139420Y539198D01*
G37*
G36*
X291802Y629201D02*
G01*
X304177Y624075D01*
X309303Y611700D01*
X309303Y556699D01*
X304177Y544324D01*
X291802Y539198D01*
X256804Y539198D01*
X244429Y544324D01*
X239303Y556699D01*
X239303Y611700D01*
X244429Y624075D01*
X256804Y629201D01*
G37*
G36*
X396958Y-1056919D02*
G01*
X402084Y-1044544D01*
X414459Y-1039418D01*
X469460Y-1039418D01*
X481835Y-1044544D01*
X486961Y-1056919D01*
X486961Y-1091920D01*
X481835Y-1104295D01*
X469460Y-1109421D01*
X414459Y-1109421D01*
X402084Y-1104295D01*
X396958Y-1091920D01*
G37*
G36*
X486961Y-1244302D02*
G01*
X481835Y-1256677D01*
X469460Y-1261803D01*
X414459Y-1261803D01*
X402084Y-1256677D01*
X396958Y-1244302D01*
X396958Y-1209304D01*
X402084Y-1196929D01*
X414459Y-1191803D01*
X469460Y-1191803D01*
X481835Y-1196929D01*
X486961Y-1209304D01*
G37*
G36*
X2610391Y1074618D02*
G01*
X2605265Y1062243D01*
X2592890Y1057117D01*
X2537889Y1057117D01*
X2525514Y1062243D01*
X2520388Y1074618D01*
X2520388Y1109619D01*
X2525514Y1121994D01*
X2537889Y1127119D01*
X2592890Y1127119D01*
X2605265Y1121994D01*
X2610391Y1109619D01*
G37*
G36*
X2520388Y1262001D02*
G01*
X2525514Y1274376D01*
X2537889Y1279502D01*
X2592890Y1279502D01*
X2605265Y1274376D01*
X2610391Y1262001D01*
X2610391Y1227002D01*
X2605265Y1214628D01*
X2592890Y1209502D01*
X2537889Y1209502D01*
X2525514Y1214628D01*
X2520388Y1227002D01*
G37*
G36*
X991359Y-1022029D02*
G01*
X998316Y-1005235D01*
X1015111Y-998280D01*
X1062608Y-998280D01*
X1079403Y-1005235D01*
X1086360Y-1022029D01*
X1086360Y-1074529D01*
X1079403Y-1091323D01*
X1062608Y-1098280D01*
X1015111Y-1098280D01*
X998316Y-1091323D01*
X991359Y-1074529D01*
G37*
G36*
X1086360Y-1247028D02*
G01*
X1093317Y-1230236D01*
X1110109Y-1223279D01*
X1157610Y-1223279D01*
X1174404Y-1230236D01*
X1181361Y-1247028D01*
X1181361Y-1299530D01*
X1174404Y-1316321D01*
X1157610Y-1323279D01*
X1110109Y-1323279D01*
X1093317Y-1316321D01*
X1086360Y-1299530D01*
G37*
G36*
X896360Y-1247030D02*
G01*
X903315Y-1230236D01*
X920109Y-1223279D01*
X967610Y-1223279D01*
X984404Y-1230236D01*
X991359Y-1247030D01*
X991359Y-1299530D01*
X984404Y-1316324D01*
X967610Y-1323279D01*
X920109Y-1323279D01*
X903315Y-1316324D01*
X896360Y-1299530D01*
G37*
G36*
X834941Y-1244302D02*
G01*
X829815Y-1256677D01*
X817440Y-1261803D01*
X762439Y-1261803D01*
X750064Y-1256677D01*
X744938Y-1244302D01*
X744938Y-1209304D01*
X750064Y-1196929D01*
X762439Y-1191803D01*
X817440Y-1191803D01*
X829815Y-1196929D01*
X834941Y-1209304D01*
G37*
G36*
X744938Y-1056919D02*
G01*
X750064Y-1044544D01*
X762439Y-1039418D01*
X817440Y-1039418D01*
X829815Y-1044544D01*
X834941Y-1056919D01*
X834941Y-1091920D01*
X829815Y-1104295D01*
X817440Y-1109421D01*
X762439Y-1109421D01*
X750064Y-1104295D01*
X744938Y-1091920D01*
G37*
G36*
X291802Y898441D02*
G01*
X304177Y893315D01*
X309303Y880940D01*
X309303Y825939D01*
X304177Y813564D01*
X291802Y808438D01*
X256804Y808438D01*
X244429Y813564D01*
X239303Y825939D01*
X239303Y880940D01*
X244429Y893315D01*
X256804Y898441D01*
G37*
G36*
X104419Y808438D02*
G01*
X92044Y813564D01*
X86918Y825939D01*
X86918Y880940D01*
X92044Y893315D01*
X104419Y898441D01*
X139420Y898441D01*
X151795Y893315D01*
X156921Y880940D01*
X156921Y825939D01*
X151795Y813564D01*
X139420Y808438D01*
G37*
G36*
X291802Y131361D02*
G01*
X304177Y126235D01*
X309303Y113860D01*
X309303Y58859D01*
X304177Y46484D01*
X291802Y41358D01*
X256804Y41358D01*
X244429Y46484D01*
X239303Y58859D01*
X239303Y113860D01*
X244429Y126235D01*
X256804Y131361D01*
G37*
G36*
X104419Y41358D02*
G01*
X92044Y46484D01*
X86918Y58859D01*
X86918Y113860D01*
X92044Y126235D01*
X104419Y131361D01*
X139420Y131361D01*
X151795Y126235D01*
X156921Y113860D01*
X156921Y58859D01*
X151795Y46484D01*
X139420Y41358D01*
G37*
G36*
X291802Y-168358D02*
G01*
X304177Y-173484D01*
X309303Y-185859D01*
X309303Y-240860D01*
X304177Y-253235D01*
X291802Y-258361D01*
X256804Y-258361D01*
X244429Y-253235D01*
X239303Y-240860D01*
X239303Y-185859D01*
X244429Y-173484D01*
X256804Y-168358D01*
G37*
G36*
X104419Y-258361D02*
G01*
X92044Y-253235D01*
X86918Y-240860D01*
X86918Y-185859D01*
X92044Y-173484D01*
X104419Y-168358D01*
X139420Y-168358D01*
X151795Y-173484D01*
X156921Y-185859D01*
X156921Y-240860D01*
X151795Y-253235D01*
X139420Y-258361D01*
G37*
G36*
X291802Y-450298D02*
G01*
X304177Y-455424D01*
X309303Y-467799D01*
X309303Y-522800D01*
X304177Y-535175D01*
X291802Y-540301D01*
X256804Y-540301D01*
X244429Y-535175D01*
X239303Y-522800D01*
X239303Y-467799D01*
X244429Y-455424D01*
X256804Y-450298D01*
G37*
G36*
X104419Y-540301D02*
G01*
X92044Y-535175D01*
X86918Y-522800D01*
X86918Y-467799D01*
X92044Y-455424D01*
X104419Y-450298D01*
X139420Y-450298D01*
X151795Y-455424D01*
X156921Y-467799D01*
X156921Y-522800D01*
X151795Y-535175D01*
X139420Y-540301D01*
G37*
G36*
X2481272Y806919D02*
G01*
X2493647Y801794D01*
X2498773Y789419D01*
X2498773Y734418D01*
X2493647Y722043D01*
X2481272Y716917D01*
X2446273Y716917D01*
X2433899Y722043D01*
X2428773Y734418D01*
X2428773Y789419D01*
X2433899Y801794D01*
X2446273Y806919D01*
G37*
G36*
X2293889Y716917D02*
G01*
X2281514Y722043D01*
X2276388Y734418D01*
X2276388Y789419D01*
X2281514Y801794D01*
X2293889Y806919D01*
X2328890Y806919D01*
X2341265Y801794D01*
X2346391Y789419D01*
X2346391Y734418D01*
X2341265Y722043D01*
X2328890Y716917D01*
G37*
G36*
X1425658Y-1056937D02*
G01*
X1430784Y-1044562D01*
X1443159Y-1039436D01*
X1498160Y-1039436D01*
X1510535Y-1044562D01*
X1515661Y-1056937D01*
X1515661Y-1091935D01*
X1510535Y-1104310D01*
X1498160Y-1109436D01*
X1443159Y-1109436D01*
X1430784Y-1104310D01*
X1425658Y-1091935D01*
G37*
G36*
X1515661Y-1244320D02*
G01*
X1510535Y-1256695D01*
X1498160Y-1261821D01*
X1443159Y-1261821D01*
X1430784Y-1256695D01*
X1425658Y-1244320D01*
X1425658Y-1209319D01*
X1430784Y-1196944D01*
X1443159Y-1191818D01*
X1498160Y-1191818D01*
X1510535Y-1196944D01*
X1515661Y-1209319D01*
G37*
G36*
X2508791Y465035D02*
G01*
X2503665Y452661D01*
X2491290Y447535D01*
X2436289Y447535D01*
X2423914Y452661D01*
X2418788Y465035D01*
X2418788Y500034D01*
X2423914Y512409D01*
X2436289Y517535D01*
X2491290Y517535D01*
X2503665Y512409D01*
X2508791Y500034D01*
G37*
G36*
X2418788Y652419D02*
G01*
X2423914Y664794D01*
X2436289Y669919D01*
X2491290Y669919D01*
X2503665Y664794D01*
X2508791Y652419D01*
X2508791Y617418D01*
X2503665Y605043D01*
X2491290Y599917D01*
X2436289Y599917D01*
X2423914Y605043D01*
X2418788Y617418D01*
G37*
G36*
X2364021Y465117D02*
G01*
X2358895Y452742D01*
X2346520Y447616D01*
X2291519Y447616D01*
X2279144Y452742D01*
X2274018Y465117D01*
X2274018Y500115D01*
X2279144Y512490D01*
X2291519Y517616D01*
X2346520Y517616D01*
X2358895Y512490D01*
X2364021Y500115D01*
G37*
G36*
X2274018Y652500D02*
G01*
X2279144Y664875D01*
X2291519Y670001D01*
X2346520Y670001D01*
X2358895Y664875D01*
X2364021Y652500D01*
X2364021Y617499D01*
X2358895Y605124D01*
X2346520Y599998D01*
X2291519Y599998D01*
X2279144Y605124D01*
X2274018Y617499D01*
G37*
G36*
X567138Y-1056937D02*
G01*
X572264Y-1044562D01*
X584639Y-1039436D01*
X639640Y-1039436D01*
X652015Y-1044562D01*
X657141Y-1056937D01*
X657141Y-1091935D01*
X652015Y-1104310D01*
X639640Y-1109436D01*
X584639Y-1109436D01*
X572264Y-1104310D01*
X567138Y-1091935D01*
G37*
G36*
X657141Y-1244320D02*
G01*
X652015Y-1256695D01*
X639640Y-1261821D01*
X584639Y-1261821D01*
X572264Y-1256695D01*
X567138Y-1244320D01*
X567138Y-1209319D01*
X572264Y-1196944D01*
X584639Y-1191818D01*
X639640Y-1191818D01*
X652015Y-1196944D01*
X657141Y-1209319D01*
G37*
G36*
X1562818Y-1056937D02*
G01*
X1567944Y-1044562D01*
X1580319Y-1039436D01*
X1635320Y-1039436D01*
X1647695Y-1044562D01*
X1652821Y-1056937D01*
X1652821Y-1091935D01*
X1647695Y-1104310D01*
X1635320Y-1109436D01*
X1580319Y-1109436D01*
X1567944Y-1104310D01*
X1562818Y-1091935D01*
G37*
G36*
X1652821Y-1244320D02*
G01*
X1647695Y-1256695D01*
X1635320Y-1261821D01*
X1580319Y-1261821D01*
X1567944Y-1256695D01*
X1562818Y-1244320D01*
X1562818Y-1209319D01*
X1567944Y-1196944D01*
X1580319Y-1191818D01*
X1635320Y-1191818D01*
X1647695Y-1196944D01*
X1652821Y-1209319D01*
G37*
G36*
X291802Y375201D02*
G01*
X304177Y370075D01*
X309303Y357700D01*
X309303Y302699D01*
X304177Y290324D01*
X291802Y285198D01*
X256804Y285198D01*
X244429Y290324D01*
X239303Y302699D01*
X239303Y357700D01*
X244429Y370075D01*
X256804Y375201D01*
G37*
G36*
X104419Y285198D02*
G01*
X92044Y290324D01*
X86918Y302699D01*
X86918Y357700D01*
X92044Y370075D01*
X104419Y375201D01*
X139420Y375201D01*
X151795Y370075D01*
X156921Y357700D01*
X156921Y302699D01*
X151795Y290324D01*
X139420Y285198D01*
G37*
G36*
X1919998Y-651273D02*
G01*
X2144996Y-651273D01*
X2144996Y-751273D01*
X1919998Y-751273D01*
G37*
G36*
X1919998Y-451274D02*
G01*
X2144996Y-451274D01*
X2144996Y-551273D01*
X1919998Y-551273D01*
G37*
G36*
X1919998Y-251274D02*
G01*
X2144996Y-251274D01*
X2144996Y-351274D01*
X1919998Y-351274D01*
G37*
G36*
X1919998Y-51274D02*
G01*
X2144996Y-51274D01*
X2144996Y-151274D01*
X1919998Y-151274D01*
G37*
G36*
X1919998Y148724D02*
G01*
X2144996Y148724D01*
X2144996Y48724D01*
X1919998Y48724D01*
G37*
G36*
X1919998Y348724D02*
G01*
X2144996Y348724D01*
X2144996Y248724D01*
X1919998Y248724D01*
G37*
G36*
X1919998Y548723D02*
G01*
X2144996Y548723D01*
X2144996Y448724D01*
X1919998Y448724D01*
G37*
G36*
X1919998Y748723D02*
G01*
X2144996Y748723D01*
X2144996Y648723D01*
X1919998Y648723D01*
G37*
G36*
X394982Y748723D02*
G01*
X619980Y748723D01*
X619980Y648723D01*
X394982Y648723D01*
G37*
G36*
X394982Y548723D02*
G01*
X619980Y548723D01*
X619980Y448724D01*
X394982Y448724D01*
G37*
G36*
X394982Y348724D02*
G01*
X619980Y348724D01*
X619980Y248724D01*
X394982Y248724D01*
G37*
G36*
X394982Y148724D02*
G01*
X619980Y148724D01*
X619980Y48724D01*
X394982Y48724D01*
G37*
G36*
X394982Y-51274D02*
G01*
X619980Y-51274D01*
X619980Y-151274D01*
X394982Y-151274D01*
G37*
G36*
X394982Y-251274D02*
G01*
X619980Y-251274D01*
X619980Y-351274D01*
X394982Y-351274D01*
G37*
G36*
X394982Y-451274D02*
G01*
X619980Y-451274D01*
X619980Y-551273D01*
X394982Y-551273D01*
G37*
G36*
X394982Y-651273D02*
G01*
X619980Y-651273D01*
X619980Y-751273D01*
X394982Y-751273D01*
G37*
D22*
G01*
X769990Y-851286D03*
G01*
X969990Y-851286D03*
G01*
X1169990Y-851286D03*
G01*
X1369989Y-851286D03*
G01*
X1569989Y-851286D03*
G01*
X1769988Y-851286D03*
D14*
G01*
X2324089Y-801527D03*
G01*
X2324089Y-661522D03*
D23*
G01*
X2284719Y-990605D03*
G01*
X2284719Y-1117605D03*
G01*
X2284719Y-1244605D03*
G01*
X2284719Y-1371605D03*
G01*
X2866379Y-1371605D03*
G01*
X2866379Y-1244605D03*
G01*
X2866379Y-1117605D03*
G01*
X2866379Y-990605D03*
D24*
G01*
X2575549Y-1181105D03*
D13*
G01*
X2155916Y-880191D03*
G01*
X936487Y-972367D03*
G01*
X668441Y4820D03*
G01*
X1175171Y590240D03*
G01*
X2747406Y-1052784D03*
G01*
X2885709Y-271480D03*
G01*
X3038668Y-1181867D03*
G01*
X3092439Y-1066957D03*
G01*
X1306718Y-463275D03*
G01*
X828842Y-101274D03*
G01*
X933084Y-1083416D03*
G01*
X840094Y-206837D03*
G01*
X1260033Y398749D03*
G01*
X2393482Y-937544D03*
G01*
X2137933Y-1229847D03*
G01*
X2212050Y-545165D03*
D25*
X3071314Y416910D02*
G01*
X3221314Y416910D01*
X3071312Y-447095D02*
G01*
X3221314Y-447095D01*
X2652613Y416504D02*
G01*
X2852613Y416504D01*
X2652613Y-447502D02*
G01*
X2852613Y-447502D01*
M02*
