G04 Layer: TopSolderMaskLayer*
G04 EasyEDA v6.4.25, 2021-11-23T22:35:47+08:00*
G04 b1e9ac58b82e44e2a900f0cbd8408905,45ba98ba689c459a8d72e4540021d05b,10*
G04 Gerber Generator version 0.2*
G04 Scale: 100 percent, Rotated: No, Reflected: No *
G04 Dimensions in millimeters *
G04 leading zeros omitted , absolute positions ,4 integer and 5 decimal *
%FSLAX45Y45*%
%MOMM*%

%ADD36C,1.2032*%
%ADD37C,0.8128*%

%LPD*%
D36*
X3071314Y416910D02*
G01*
X3221314Y416910D01*
X3071312Y-447095D02*
G01*
X3221314Y-447095D01*
X2652613Y416504D02*
G01*
X2852613Y416504D01*
X2652613Y-447502D02*
G01*
X2852613Y-447502D01*
D37*
X2730489Y1160774D02*
G01*
X2730489Y1303014D01*
X2857489Y1160774D02*
G01*
X2857489Y1303014D01*
X2984489Y1160774D02*
G01*
X2984489Y1303014D01*
X2984489Y601974D02*
G01*
X2984489Y744214D01*
X2857489Y601974D02*
G01*
X2857489Y744214D01*
X2730489Y601974D02*
G01*
X2730489Y744214D01*
X3111489Y1160774D02*
G01*
X3111489Y1303014D01*
X3111489Y601974D02*
G01*
X3111489Y744214D01*
G36*
X1994651Y-1255603D02*
G01*
X1994651Y-1165433D01*
X2094727Y-1165433D01*
X2094727Y-1255603D01*
G37*
G36*
X1994651Y-1115649D02*
G01*
X1994651Y-1025479D01*
X2094727Y-1025479D01*
X2094727Y-1115649D01*
G37*
G36*
X1786371Y-1255603D02*
G01*
X1786371Y-1165433D01*
X1886447Y-1165433D01*
X1886447Y-1255603D01*
G37*
G36*
X1786371Y-1115649D02*
G01*
X1786371Y-1025479D01*
X1886447Y-1025479D01*
X1886447Y-1115649D01*
G37*
G36*
X2505191Y-375747D02*
G01*
X2505191Y-295483D01*
X2725663Y-295483D01*
X2725663Y-375747D01*
G37*
G36*
X2505191Y-295737D02*
G01*
X2505191Y-215473D01*
X2725663Y-215473D01*
X2725663Y-295737D01*
G37*
G36*
X2505191Y264332D02*
G01*
X2505191Y344596D01*
X2725663Y344596D01*
X2725663Y264332D01*
G37*
G36*
X2505191Y184322D02*
G01*
X2505191Y264586D01*
X2725663Y264586D01*
X2725663Y184322D01*
G37*
G36*
X2505191Y134284D02*
G01*
X2505191Y184576D01*
X2725663Y184576D01*
X2725663Y134284D01*
G37*
G36*
X2505191Y84246D02*
G01*
X2505191Y134538D01*
X2725663Y134538D01*
X2725663Y84246D01*
G37*
G36*
X2505191Y34208D02*
G01*
X2505191Y84500D01*
X2725663Y84500D01*
X2725663Y34208D01*
G37*
G36*
X2505191Y-15829D02*
G01*
X2505191Y34716D01*
X2725663Y34716D01*
X2725663Y-15829D01*
G37*
G36*
X2505191Y-65613D02*
G01*
X2505191Y-15321D01*
X2725663Y-15321D01*
X2725663Y-65613D01*
G37*
G36*
X2505191Y-115651D02*
G01*
X2505191Y-65359D01*
X2725663Y-65359D01*
X2725663Y-115651D01*
G37*
G36*
X2505191Y-165689D02*
G01*
X2505191Y-115397D01*
X2725663Y-115397D01*
X2725663Y-165689D01*
G37*
G36*
X2505191Y-215727D02*
G01*
X2505191Y-165435D01*
X2725663Y-165435D01*
X2725663Y-215727D01*
G37*
G36*
X3336025Y973246D02*
G01*
X3315197Y978580D01*
X3298941Y994836D01*
X3293353Y1015664D01*
X3293353Y1085768D01*
X3298941Y1106596D01*
X3315197Y1122852D01*
X3336025Y1128440D01*
X3471153Y1128440D01*
X3491981Y1122852D01*
X3508237Y1106596D01*
X3513825Y1085768D01*
X3513825Y1015664D01*
X3508237Y994836D01*
X3491981Y978580D01*
X3471153Y973246D01*
G37*
G36*
X3336025Y568116D02*
G01*
X3315197Y573704D01*
X3298941Y589960D01*
X3293353Y610788D01*
X3293353Y680892D01*
X3298941Y701720D01*
X3315197Y717976D01*
X3336025Y723564D01*
X3471153Y723564D01*
X3491981Y717976D01*
X3508237Y701720D01*
X3513825Y680892D01*
X3513825Y610788D01*
X3508237Y589960D01*
X3491981Y573704D01*
X3471153Y568116D01*
G37*
G36*
X2984489Y-1323167D02*
G01*
X2984489Y-1222837D01*
X3124697Y-1222837D01*
X3124697Y-1323167D01*
G37*
G36*
X2984489Y-1024209D02*
G01*
X2984489Y-923879D01*
X3124697Y-923879D01*
X3124697Y-1024209D01*
G37*
G36*
X2984489Y-874095D02*
G01*
X2984489Y-774019D01*
X3124697Y-774019D01*
X3124697Y-874095D01*
G37*
G36*
X3311387Y-739221D02*
G01*
X3311387Y-599013D01*
X3411463Y-599013D01*
X3411463Y-739221D01*
G37*
G36*
X3091423Y-739221D02*
G01*
X3091423Y-599013D01*
X3191499Y-599013D01*
X3191499Y-739221D01*
G37*
G36*
X3311387Y-1499189D02*
G01*
X3311387Y-1358981D01*
X3411463Y-1358981D01*
X3411463Y-1499189D01*
G37*
G36*
X3091423Y-1499189D02*
G01*
X3091423Y-1358981D01*
X3191499Y-1358981D01*
X3191499Y-1499189D01*
G37*
G36*
X1967981Y-1447119D02*
G01*
X1967981Y-1347043D01*
X2058151Y-1347043D01*
X2058151Y-1447119D01*
G37*
G36*
X1828027Y-1447119D02*
G01*
X1828027Y-1347043D01*
X1918197Y-1347043D01*
X1918197Y-1447119D01*
G37*
G36*
X2759445Y-850473D02*
G01*
X2759445Y-775035D01*
X2899653Y-775035D01*
X2899653Y-850473D01*
G37*
G36*
X2759445Y-756493D02*
G01*
X2759445Y-681055D01*
X2899653Y-681055D01*
X2899653Y-756493D01*
G37*
G36*
X2759445Y-662513D02*
G01*
X2759445Y-587075D01*
X2899653Y-587075D01*
X2899653Y-662513D01*
G37*
G36*
X2500365Y-662513D02*
G01*
X2500365Y-587075D01*
X2640573Y-587075D01*
X2640573Y-662513D01*
G37*
G36*
X2500365Y-850473D02*
G01*
X2500365Y-775035D01*
X2640573Y-775035D01*
X2640573Y-850473D01*
G37*
G36*
X1276085Y-1119459D02*
G01*
X1257797Y-1112093D01*
X1250431Y-1094059D01*
X1250431Y-1054943D01*
X1257797Y-1036655D01*
X1276085Y-1029289D01*
X1335013Y-1029289D01*
X1353301Y-1036655D01*
X1360667Y-1054943D01*
X1360667Y-1094059D01*
X1353301Y-1112093D01*
X1335013Y-1119459D01*
G37*
G36*
X1276085Y-1271859D02*
G01*
X1257797Y-1264493D01*
X1250431Y-1246205D01*
X1250431Y-1207343D01*
X1257797Y-1189055D01*
X1276085Y-1181689D01*
X1335013Y-1181689D01*
X1353301Y-1189055D01*
X1360667Y-1207343D01*
X1360667Y-1246205D01*
X1353301Y-1264493D01*
X1335013Y-1271859D01*
G37*
G36*
X102351Y529000D02*
G01*
X84317Y536620D01*
X76697Y554654D01*
X76697Y613836D01*
X84317Y631870D01*
X102351Y639236D01*
X141467Y639236D01*
X159501Y631870D01*
X167121Y613836D01*
X167121Y554654D01*
X159501Y536620D01*
X141467Y529000D01*
G37*
G36*
X254751Y529000D02*
G01*
X236717Y536620D01*
X229097Y554654D01*
X229097Y613836D01*
X236717Y631870D01*
X254751Y639236D01*
X293867Y639236D01*
X311901Y631870D01*
X319521Y613836D01*
X319521Y554654D01*
X311901Y536620D01*
X293867Y529000D01*
G37*
G36*
X412485Y-1119459D02*
G01*
X394197Y-1112093D01*
X386831Y-1094059D01*
X386831Y-1054943D01*
X394197Y-1036655D01*
X412485Y-1029289D01*
X471413Y-1029289D01*
X489701Y-1036655D01*
X497067Y-1054943D01*
X497067Y-1094059D01*
X489701Y-1112093D01*
X471413Y-1119459D01*
G37*
G36*
X412485Y-1271859D02*
G01*
X394197Y-1264493D01*
X386831Y-1246205D01*
X386831Y-1207343D01*
X394197Y-1189055D01*
X412485Y-1181689D01*
X471413Y-1181689D01*
X489701Y-1189055D01*
X497067Y-1207343D01*
X497067Y-1246205D01*
X489701Y-1264493D01*
X471413Y-1271859D01*
G37*
G36*
X2535925Y1046906D02*
G01*
X2517637Y1054526D01*
X2510271Y1072560D01*
X2510271Y1111676D01*
X2517637Y1129710D01*
X2535925Y1137330D01*
X2594853Y1137330D01*
X2613141Y1129710D01*
X2620507Y1111676D01*
X2620507Y1072560D01*
X2613141Y1054526D01*
X2594853Y1046906D01*
G37*
G36*
X2535925Y1199306D02*
G01*
X2517637Y1206926D01*
X2510271Y1224960D01*
X2510271Y1264076D01*
X2517637Y1282110D01*
X2535925Y1289730D01*
X2594853Y1289730D01*
X2613141Y1282110D01*
X2620507Y1264076D01*
X2620507Y1224960D01*
X2613141Y1206926D01*
X2594853Y1199306D01*
G37*
G36*
X1013195Y-1108537D02*
G01*
X990589Y-1099139D01*
X981191Y-1076533D01*
X981191Y-1019891D01*
X990589Y-997539D01*
X1013195Y-988141D01*
X1064503Y-988141D01*
X1087109Y-997539D01*
X1096507Y-1019891D01*
X1096507Y-1076533D01*
X1087109Y-1099139D01*
X1064503Y-1108537D01*
G37*
G36*
X1108191Y-1333327D02*
G01*
X1085585Y-1324183D01*
X1076187Y-1301577D01*
X1076187Y-1244935D01*
X1085585Y-1222583D01*
X1108191Y-1213185D01*
X1159753Y-1213185D01*
X1182105Y-1222583D01*
X1191503Y-1244935D01*
X1191503Y-1301577D01*
X1182105Y-1324183D01*
X1159753Y-1333327D01*
G37*
G36*
X918199Y-1333327D02*
G01*
X895593Y-1324183D01*
X886195Y-1301577D01*
X886195Y-1244935D01*
X895593Y-1222583D01*
X918199Y-1213185D01*
X969507Y-1213185D01*
X992113Y-1222583D01*
X1001511Y-1244935D01*
X1001511Y-1301577D01*
X992113Y-1324183D01*
X969507Y-1333327D01*
G37*
G36*
X760465Y-1271859D02*
G01*
X742177Y-1264493D01*
X734811Y-1246205D01*
X734811Y-1207343D01*
X742177Y-1189055D01*
X760465Y-1181689D01*
X819393Y-1181689D01*
X837681Y-1189055D01*
X845047Y-1207343D01*
X845047Y-1246205D01*
X837681Y-1264493D01*
X819393Y-1271859D01*
G37*
G36*
X760465Y-1119459D02*
G01*
X742177Y-1112093D01*
X734811Y-1094059D01*
X734811Y-1054943D01*
X742177Y-1036655D01*
X760465Y-1029289D01*
X819393Y-1029289D01*
X837681Y-1036655D01*
X845047Y-1054943D01*
X845047Y-1094059D01*
X837681Y-1112093D01*
X819393Y-1119459D01*
G37*
G36*
X254751Y798240D02*
G01*
X236717Y805860D01*
X229097Y823894D01*
X229097Y883076D01*
X236717Y901110D01*
X254751Y908476D01*
X293867Y908476D01*
X311901Y901110D01*
X319521Y883076D01*
X319521Y823894D01*
X311901Y805860D01*
X293867Y798240D01*
G37*
G36*
X102351Y798240D02*
G01*
X84317Y805860D01*
X76697Y823894D01*
X76697Y883076D01*
X84317Y901110D01*
X102351Y908476D01*
X141467Y908476D01*
X159501Y901110D01*
X167121Y883076D01*
X167121Y823894D01*
X159501Y805860D01*
X141467Y798240D01*
G37*
G36*
X254751Y31160D02*
G01*
X236717Y38780D01*
X229097Y56814D01*
X229097Y115996D01*
X236717Y134030D01*
X254751Y141396D01*
X293867Y141396D01*
X311901Y134030D01*
X319521Y115996D01*
X319521Y56814D01*
X311901Y38780D01*
X293867Y31160D01*
G37*
G36*
X102351Y31160D02*
G01*
X84317Y38780D01*
X76697Y56814D01*
X76697Y115996D01*
X84317Y134030D01*
X102351Y141396D01*
X141467Y141396D01*
X159501Y134030D01*
X167121Y115996D01*
X167121Y56814D01*
X159501Y38780D01*
X141467Y31160D01*
G37*
G36*
X254751Y-268559D02*
G01*
X236717Y-260939D01*
X229097Y-242905D01*
X229097Y-183723D01*
X236717Y-165689D01*
X254751Y-158323D01*
X293867Y-158323D01*
X311901Y-165689D01*
X319521Y-183723D01*
X319521Y-242905D01*
X311901Y-260939D01*
X293867Y-268559D01*
G37*
G36*
X102351Y-268559D02*
G01*
X84317Y-260939D01*
X76697Y-242905D01*
X76697Y-183723D01*
X84317Y-165689D01*
X102351Y-158323D01*
X141467Y-158323D01*
X159501Y-165689D01*
X167121Y-183723D01*
X167121Y-242905D01*
X159501Y-260939D01*
X141467Y-268559D01*
G37*
G36*
X254751Y-550499D02*
G01*
X236717Y-542879D01*
X229097Y-524845D01*
X229097Y-465663D01*
X236717Y-447629D01*
X254751Y-440263D01*
X293867Y-440263D01*
X311901Y-447629D01*
X319521Y-465663D01*
X319521Y-524845D01*
X311901Y-542879D01*
X293867Y-550499D01*
G37*
G36*
X102351Y-550499D02*
G01*
X84317Y-542879D01*
X76697Y-524845D01*
X76697Y-465663D01*
X84317Y-447629D01*
X102351Y-440263D01*
X141467Y-440263D01*
X159501Y-447629D01*
X167121Y-465663D01*
X167121Y-524845D01*
X159501Y-542879D01*
X141467Y-550499D01*
G37*
G36*
X2444231Y706800D02*
G01*
X2426197Y714166D01*
X2418577Y732454D01*
X2418577Y791382D01*
X2426197Y809670D01*
X2444231Y817036D01*
X2483347Y817036D01*
X2501381Y809670D01*
X2509001Y791382D01*
X2509001Y732454D01*
X2501381Y714166D01*
X2483347Y706800D01*
G37*
G36*
X2291831Y706800D02*
G01*
X2273797Y714166D01*
X2266177Y732454D01*
X2266177Y791382D01*
X2273797Y809670D01*
X2291831Y817036D01*
X2330947Y817036D01*
X2348981Y809670D01*
X2356601Y791382D01*
X2356601Y732454D01*
X2348981Y714166D01*
X2330947Y706800D01*
G37*
G36*
X1441185Y-1119713D02*
G01*
X1422897Y-1112093D01*
X1415531Y-1094059D01*
X1415531Y-1054943D01*
X1422897Y-1036909D01*
X1441185Y-1029289D01*
X1500113Y-1029289D01*
X1518401Y-1036909D01*
X1525767Y-1054943D01*
X1525767Y-1094059D01*
X1518401Y-1112093D01*
X1500113Y-1119713D01*
G37*
G36*
X1441185Y-1271859D02*
G01*
X1422897Y-1264493D01*
X1415531Y-1246459D01*
X1415531Y-1207343D01*
X1422897Y-1189055D01*
X1441185Y-1181689D01*
X1500113Y-1181689D01*
X1518401Y-1189055D01*
X1525767Y-1207343D01*
X1525767Y-1246459D01*
X1518401Y-1264493D01*
X1500113Y-1271859D01*
G37*
G36*
X2434325Y437306D02*
G01*
X2416037Y444926D01*
X2408671Y462960D01*
X2408671Y502076D01*
X2416037Y520110D01*
X2434325Y527730D01*
X2493253Y527730D01*
X2511541Y520110D01*
X2518907Y502076D01*
X2518907Y462960D01*
X2511541Y444926D01*
X2493253Y437306D01*
G37*
G36*
X2434325Y589706D02*
G01*
X2416037Y597326D01*
X2408671Y615360D01*
X2408671Y654476D01*
X2416037Y672510D01*
X2434325Y680130D01*
X2493253Y680130D01*
X2511541Y672510D01*
X2518907Y654476D01*
X2518907Y615360D01*
X2511541Y597326D01*
X2493253Y589706D01*
G37*
G36*
X2289545Y437560D02*
G01*
X2271257Y444926D01*
X2263891Y463214D01*
X2263891Y502076D01*
X2271257Y520364D01*
X2289545Y527730D01*
X2348473Y527730D01*
X2366761Y520364D01*
X2374127Y502076D01*
X2374127Y463214D01*
X2366761Y444926D01*
X2348473Y437560D01*
G37*
G36*
X2289545Y589960D02*
G01*
X2271257Y597326D01*
X2263891Y615360D01*
X2263891Y654476D01*
X2271257Y672764D01*
X2289545Y680130D01*
X2348473Y680130D01*
X2366761Y672764D01*
X2374127Y654476D01*
X2374127Y615360D01*
X2366761Y597326D01*
X2348473Y589960D01*
G37*
G36*
X582665Y-1119713D02*
G01*
X564377Y-1112093D01*
X557011Y-1094059D01*
X557011Y-1054943D01*
X564377Y-1036909D01*
X582665Y-1029289D01*
X641593Y-1029289D01*
X659881Y-1036909D01*
X667247Y-1054943D01*
X667247Y-1094059D01*
X659881Y-1112093D01*
X641593Y-1119713D01*
G37*
G36*
X582665Y-1271859D02*
G01*
X564377Y-1264493D01*
X557011Y-1246459D01*
X557011Y-1207343D01*
X564377Y-1189055D01*
X582665Y-1181689D01*
X641593Y-1181689D01*
X659881Y-1189055D01*
X667247Y-1207343D01*
X667247Y-1246459D01*
X659881Y-1264493D01*
X641593Y-1271859D01*
G37*
G36*
X1578345Y-1119713D02*
G01*
X1560057Y-1112093D01*
X1552691Y-1094059D01*
X1552691Y-1054943D01*
X1560057Y-1036909D01*
X1578345Y-1029289D01*
X1637273Y-1029289D01*
X1655561Y-1036909D01*
X1662927Y-1054943D01*
X1662927Y-1094059D01*
X1655561Y-1112093D01*
X1637273Y-1119713D01*
G37*
G36*
X1578345Y-1271859D02*
G01*
X1560057Y-1264493D01*
X1552691Y-1246459D01*
X1552691Y-1207343D01*
X1560057Y-1189055D01*
X1578345Y-1181689D01*
X1637273Y-1181689D01*
X1655561Y-1189055D01*
X1662927Y-1207343D01*
X1662927Y-1246459D01*
X1655561Y-1264493D01*
X1637273Y-1271859D01*
G37*
G36*
X254751Y275000D02*
G01*
X236717Y282620D01*
X229097Y300654D01*
X229097Y359836D01*
X236717Y377870D01*
X254751Y385236D01*
X293867Y385236D01*
X311901Y377870D01*
X319521Y359836D01*
X319521Y300654D01*
X311901Y282620D01*
X293867Y275000D01*
G37*
G36*
X102351Y275000D02*
G01*
X84317Y282620D01*
X76697Y300654D01*
X76697Y359836D01*
X84317Y377870D01*
X102351Y385236D01*
X141467Y385236D01*
X159501Y377870D01*
X167121Y359836D01*
X167121Y300654D01*
X159501Y282620D01*
X141467Y275000D01*
G37*
G36*
X1909815Y-761319D02*
G01*
X1909815Y-641177D01*
X2155179Y-641177D01*
X2155179Y-761319D01*
G37*
G36*
X1909815Y-561421D02*
G01*
X1909815Y-441025D01*
X2155179Y-441025D01*
X2155179Y-561421D01*
G37*
G36*
X1909815Y-361523D02*
G01*
X1909815Y-241127D01*
X2155179Y-241127D01*
X2155179Y-361523D01*
G37*
G36*
X1909815Y-161371D02*
G01*
X1909815Y-41229D01*
X2155179Y-41229D01*
X2155179Y-161371D01*
G37*
G36*
X1909815Y38526D02*
G01*
X1909815Y158922D01*
X2155179Y158922D01*
X2155179Y38526D01*
G37*
G36*
X1909815Y238678D02*
G01*
X1909815Y358820D01*
X2155179Y358820D01*
X2155179Y238678D01*
G37*
G36*
X1909815Y438576D02*
G01*
X1909815Y558972D01*
X2155179Y558972D01*
X2155179Y438576D01*
G37*
G36*
X1909815Y638474D02*
G01*
X1909815Y758870D01*
X2155179Y758870D01*
X2155179Y638474D01*
G37*
G36*
X384799Y638474D02*
G01*
X384799Y758870D01*
X630163Y758870D01*
X630163Y638474D01*
G37*
G36*
X384799Y438576D02*
G01*
X384799Y558972D01*
X630163Y558972D01*
X630163Y438576D01*
G37*
G36*
X384799Y238678D02*
G01*
X384799Y358820D01*
X630163Y358820D01*
X630163Y238678D01*
G37*
G36*
X384799Y38526D02*
G01*
X384799Y158922D01*
X630163Y158922D01*
X630163Y38526D01*
G37*
G36*
X384799Y-161371D02*
G01*
X384799Y-41229D01*
X630163Y-41229D01*
X630163Y-161371D01*
G37*
G36*
X384799Y-361523D02*
G01*
X384799Y-241127D01*
X630163Y-241127D01*
X630163Y-361523D01*
G37*
G36*
X384799Y-561421D02*
G01*
X384799Y-441025D01*
X630163Y-441025D01*
X630163Y-561421D01*
G37*
G36*
X384799Y-761319D02*
G01*
X384799Y-641177D01*
X630163Y-641177D01*
X630163Y-761319D01*
G37*
G36*
X709919Y-936325D02*
G01*
X709919Y-766145D01*
X830061Y-766145D01*
X830061Y-936325D01*
G37*
G36*
X909817Y-936325D02*
G01*
X909817Y-766145D01*
X1030213Y-766145D01*
X1030213Y-936325D01*
G37*
G36*
X1109715Y-936325D02*
G01*
X1109715Y-766145D01*
X1230111Y-766145D01*
X1230111Y-936325D01*
G37*
G36*
X1309867Y-936325D02*
G01*
X1309867Y-766145D01*
X1430263Y-766145D01*
X1430263Y-936325D01*
G37*
G36*
X1509765Y-936325D02*
G01*
X1509765Y-766145D01*
X1630161Y-766145D01*
X1630161Y-936325D01*
G37*
G36*
X1709917Y-936325D02*
G01*
X1709917Y-766145D01*
X1830059Y-766145D01*
X1830059Y-936325D01*
G37*
G36*
X2274051Y-846663D02*
G01*
X2274051Y-756493D01*
X2374127Y-756493D01*
X2374127Y-846663D01*
G37*
G36*
X2274051Y-706709D02*
G01*
X2274051Y-616539D01*
X2374127Y-616539D01*
X2374127Y-706709D01*
G37*
G36*
X2219695Y-1025733D02*
G01*
X2219695Y-955629D01*
X2349743Y-955629D01*
X2349743Y-1025733D01*
G37*
G36*
X2219695Y-1152733D02*
G01*
X2219695Y-1082629D01*
X2349743Y-1082629D01*
X2349743Y-1152733D01*
G37*
G36*
X2219695Y-1279733D02*
G01*
X2219695Y-1209629D01*
X2349743Y-1209629D01*
X2349743Y-1279733D01*
G37*
G36*
X2219695Y-1406733D02*
G01*
X2219695Y-1336629D01*
X2349743Y-1336629D01*
X2349743Y-1406733D01*
G37*
G36*
X2801355Y-1406733D02*
G01*
X2801355Y-1336629D01*
X2931403Y-1336629D01*
X2931403Y-1406733D01*
G37*
G36*
X2801355Y-1279733D02*
G01*
X2801355Y-1209629D01*
X2931403Y-1209629D01*
X2931403Y-1279733D01*
G37*
G36*
X2801355Y-1152733D02*
G01*
X2801355Y-1082629D01*
X2931403Y-1082629D01*
X2931403Y-1152733D01*
G37*
G36*
X2801355Y-1025733D02*
G01*
X2801355Y-955629D01*
X2931403Y-955629D01*
X2931403Y-1025733D01*
G37*
G36*
X2445501Y-1361267D02*
G01*
X2445501Y-1001095D01*
X2705597Y-1001095D01*
X2705597Y-1361267D01*
G37*
M02*
