G04 Layer: TopSilkLayer*
G04 EasyEDA v6.4.25, 2021-11-23T22:35:47+08:00*
G04 b1e9ac58b82e44e2a900f0cbd8408905,45ba98ba689c459a8d72e4540021d05b,10*
G04 Gerber Generator version 0.2*
G04 Scale: 100 percent, Rotated: No, Reflected: No *
G04 Dimensions in millimeters *
G04 leading zeros omitted , absolute positions ,4 integer and 5 decimal *
%FSLAX45Y45*%
%MOMM*%

%ADD10C,0.2540*%
%ADD31C,0.2032*%
%ADD32C,0.1524*%
%ADD33C,0.2000*%
%ADD34C,0.3000*%

%LPD*%
D32*
X86918Y742375D02*
G01*
X97332Y747455D01*
X112826Y762949D01*
X112826Y653983D01*
X178358Y762949D02*
G01*
X162864Y757869D01*
X152450Y742375D01*
X147116Y716213D01*
X147116Y700719D01*
X152450Y674811D01*
X162864Y659063D01*
X178358Y653983D01*
X188772Y653983D01*
X204266Y659063D01*
X214680Y674811D01*
X220014Y700719D01*
X220014Y716213D01*
X214680Y742375D01*
X204266Y757869D01*
X188772Y762949D01*
X178358Y762949D01*
X306120Y762949D02*
G01*
X254304Y690305D01*
X332028Y690305D01*
X306120Y762949D02*
G01*
X306120Y653983D01*
X86918Y234370D02*
G01*
X97332Y239450D01*
X112826Y254944D01*
X112826Y145978D01*
X152450Y229036D02*
G01*
X152450Y234370D01*
X157530Y244784D01*
X162864Y249864D01*
X173278Y254944D01*
X193852Y254944D01*
X204266Y249864D01*
X209600Y244784D01*
X214680Y234370D01*
X214680Y223956D01*
X209600Y213542D01*
X199186Y197794D01*
X147116Y145978D01*
X220014Y145978D01*
X254304Y254944D02*
G01*
X254304Y145978D01*
X306120Y218622D02*
G01*
X254304Y166806D01*
X274878Y187634D02*
G01*
X311454Y145978D01*
X86918Y493450D02*
G01*
X97332Y498530D01*
X112826Y514024D01*
X112826Y405058D01*
X152450Y488116D02*
G01*
X152450Y493450D01*
X157530Y503864D01*
X162864Y508944D01*
X173278Y514024D01*
X193852Y514024D01*
X204266Y508944D01*
X209600Y503864D01*
X214680Y493450D01*
X214680Y483036D01*
X209600Y472622D01*
X199186Y456874D01*
X147116Y405058D01*
X220014Y405058D01*
X254304Y514024D02*
G01*
X254304Y405058D01*
X306120Y477702D02*
G01*
X254304Y425886D01*
X274878Y446714D02*
G01*
X311454Y405058D01*
X86918Y1031935D02*
G01*
X97332Y1037015D01*
X112826Y1052509D01*
X112826Y943543D01*
X152450Y1026601D02*
G01*
X152450Y1031935D01*
X157530Y1042349D01*
X162864Y1047429D01*
X173278Y1052509D01*
X193852Y1052509D01*
X204266Y1047429D01*
X209600Y1042349D01*
X214680Y1031935D01*
X214680Y1021521D01*
X209600Y1011107D01*
X199186Y995359D01*
X147116Y943543D01*
X220014Y943543D01*
X254304Y1052509D02*
G01*
X254304Y943543D01*
X306120Y1016187D02*
G01*
X254304Y964371D01*
X274878Y985199D02*
G01*
X311454Y943543D01*
X86918Y-339669D02*
G01*
X97332Y-334589D01*
X112826Y-319095D01*
X112826Y-428061D01*
X152450Y-345003D02*
G01*
X152450Y-339669D01*
X157530Y-329255D01*
X162864Y-324175D01*
X173278Y-319095D01*
X193852Y-319095D01*
X204266Y-324175D01*
X209600Y-329255D01*
X214680Y-339669D01*
X214680Y-350083D01*
X209600Y-360497D01*
X199186Y-376245D01*
X147116Y-428061D01*
X220014Y-428061D01*
X254304Y-319095D02*
G01*
X254304Y-428061D01*
X306120Y-355417D02*
G01*
X254304Y-407233D01*
X274878Y-386405D02*
G01*
X311454Y-428061D01*
X1561840Y-1536908D02*
G01*
X1556760Y-1526494D01*
X1541266Y-1511000D01*
X1650232Y-1511000D01*
X1567174Y-1471376D02*
G01*
X1561840Y-1471376D01*
X1551426Y-1466296D01*
X1546346Y-1460962D01*
X1541266Y-1450548D01*
X1541266Y-1429974D01*
X1546346Y-1419560D01*
X1551426Y-1414226D01*
X1561840Y-1409146D01*
X1572254Y-1409146D01*
X1582668Y-1414226D01*
X1598416Y-1424640D01*
X1650232Y-1476710D01*
X1650232Y-1403812D01*
X1541266Y-1369522D02*
G01*
X1650232Y-1369522D01*
X1577588Y-1317706D02*
G01*
X1629404Y-1369522D01*
X1608576Y-1348948D02*
G01*
X1650232Y-1312372D01*
X1421744Y-1536700D02*
G01*
X1416664Y-1526286D01*
X1401170Y-1510792D01*
X1510136Y-1510792D01*
X1427078Y-1471168D02*
G01*
X1421744Y-1471168D01*
X1411330Y-1466088D01*
X1406250Y-1460754D01*
X1401170Y-1450339D01*
X1401170Y-1429766D01*
X1406250Y-1419351D01*
X1411330Y-1414018D01*
X1421744Y-1408938D01*
X1432158Y-1408938D01*
X1442572Y-1414018D01*
X1458320Y-1424432D01*
X1510136Y-1476501D01*
X1510136Y-1403604D01*
X1401170Y-1369314D02*
G01*
X1510136Y-1369314D01*
X1437492Y-1317498D02*
G01*
X1489308Y-1369314D01*
X1468480Y-1348739D02*
G01*
X1510136Y-1312164D01*
X1274429Y-1536694D02*
G01*
X1269349Y-1526280D01*
X1253855Y-1510786D01*
X1362821Y-1510786D01*
X1253855Y-1445254D02*
G01*
X1258935Y-1460748D01*
X1274429Y-1471162D01*
X1300591Y-1476496D01*
X1316085Y-1476496D01*
X1341993Y-1471162D01*
X1357741Y-1460748D01*
X1362821Y-1445254D01*
X1362821Y-1434840D01*
X1357741Y-1419346D01*
X1341993Y-1408932D01*
X1316085Y-1403598D01*
X1300591Y-1403598D01*
X1274429Y-1408932D01*
X1258935Y-1419346D01*
X1253855Y-1434840D01*
X1253855Y-1445254D01*
X1253855Y-1317492D02*
G01*
X1326499Y-1369308D01*
X1326499Y-1291584D01*
X1253855Y-1317492D02*
G01*
X1362821Y-1317492D01*
X1218945Y-1471599D02*
G01*
X1161795Y-1471599D01*
X1193038Y-1430197D01*
X1177289Y-1430197D01*
X1167129Y-1424863D01*
X1161795Y-1419783D01*
X1156715Y-1404289D01*
X1156715Y-1393875D01*
X1161795Y-1378127D01*
X1172210Y-1367713D01*
X1187703Y-1362633D01*
X1203451Y-1362633D01*
X1218945Y-1367713D01*
X1224279Y-1373047D01*
X1229360Y-1383461D01*
X1070355Y-1471599D02*
G01*
X1122426Y-1398955D01*
X1044448Y-1398955D01*
X1070355Y-1471599D02*
G01*
X1070355Y-1362633D01*
X978915Y-1471599D02*
G01*
X994410Y-1466519D01*
X1004824Y-1451025D01*
X1010157Y-1424863D01*
X1010157Y-1409369D01*
X1004824Y-1383461D01*
X994410Y-1367713D01*
X978915Y-1362633D01*
X968501Y-1362633D01*
X953007Y-1367713D01*
X942593Y-1383461D01*
X937260Y-1409369D01*
X937260Y-1424863D01*
X942593Y-1451025D01*
X953007Y-1466519D01*
X968501Y-1471599D01*
X978915Y-1471599D01*
X902969Y-1451025D02*
G01*
X892810Y-1456105D01*
X877062Y-1471599D01*
X877062Y-1362633D01*
X725835Y-1485894D02*
G01*
X720755Y-1475480D01*
X705007Y-1459986D01*
X814227Y-1459986D01*
X705007Y-1425696D02*
G01*
X814227Y-1425696D01*
X741583Y-1373626D02*
G01*
X793399Y-1425696D01*
X772571Y-1404868D02*
G01*
X814227Y-1368546D01*
X568309Y-1536694D02*
G01*
X563229Y-1526280D01*
X547735Y-1510786D01*
X656701Y-1510786D01*
X573643Y-1471162D02*
G01*
X568309Y-1471162D01*
X557895Y-1466082D01*
X552815Y-1460748D01*
X547735Y-1450334D01*
X547735Y-1429760D01*
X552815Y-1419346D01*
X557895Y-1414012D01*
X568309Y-1408932D01*
X578723Y-1408932D01*
X589137Y-1414012D01*
X604885Y-1424426D01*
X656701Y-1476496D01*
X656701Y-1403598D01*
X547735Y-1369308D02*
G01*
X656701Y-1369308D01*
X584057Y-1317492D02*
G01*
X635873Y-1369308D01*
X615045Y-1348734D02*
G01*
X656701Y-1312158D01*
X398109Y-1526519D02*
G01*
X393029Y-1516105D01*
X377535Y-1500611D01*
X486501Y-1500611D01*
X377535Y-1435079D02*
G01*
X382615Y-1450573D01*
X398109Y-1460987D01*
X424271Y-1466321D01*
X439765Y-1466321D01*
X465673Y-1460987D01*
X481421Y-1450573D01*
X486501Y-1435079D01*
X486501Y-1424665D01*
X481421Y-1409171D01*
X465673Y-1398757D01*
X439765Y-1393423D01*
X424271Y-1393423D01*
X398109Y-1398757D01*
X382615Y-1409171D01*
X377535Y-1424665D01*
X377535Y-1435079D01*
X377535Y-1307317D02*
G01*
X450179Y-1359133D01*
X450179Y-1281409D01*
X377535Y-1307317D02*
G01*
X486501Y-1307317D01*
X2397074Y1051559D02*
G01*
X2391994Y1061974D01*
X2376500Y1077468D01*
X2485466Y1077468D01*
X2376500Y1143000D02*
G01*
X2381580Y1127505D01*
X2397074Y1117092D01*
X2423236Y1111757D01*
X2438730Y1111757D01*
X2464638Y1117092D01*
X2480386Y1127505D01*
X2485466Y1143000D01*
X2485466Y1153413D01*
X2480386Y1168907D01*
X2464638Y1179322D01*
X2438730Y1184655D01*
X2423236Y1184655D01*
X2397074Y1179322D01*
X2381580Y1168907D01*
X2376500Y1153413D01*
X2376500Y1143000D01*
X2376500Y1270761D02*
G01*
X2449144Y1218946D01*
X2449144Y1296670D01*
X2376500Y1270761D02*
G01*
X2485466Y1270761D01*
X2243063Y930574D02*
G01*
X2300213Y930574D01*
X2268971Y889172D01*
X2284719Y889172D01*
X2294879Y883838D01*
X2300213Y878758D01*
X2305293Y863264D01*
X2305293Y852850D01*
X2300213Y837102D01*
X2289799Y826688D01*
X2274305Y821608D01*
X2258557Y821608D01*
X2243063Y826688D01*
X2237729Y832022D01*
X2232649Y842436D01*
X2370825Y930574D02*
G01*
X2355331Y925494D01*
X2344917Y910000D01*
X2339583Y883838D01*
X2339583Y868344D01*
X2344917Y842436D01*
X2355331Y826688D01*
X2370825Y821608D01*
X2381239Y821608D01*
X2396733Y826688D01*
X2407147Y842436D01*
X2412481Y868344D01*
X2412481Y883838D01*
X2407147Y910000D01*
X2396733Y925494D01*
X2381239Y930574D01*
X2370825Y930574D01*
X2477759Y930574D02*
G01*
X2462265Y925494D01*
X2451851Y910000D01*
X2446771Y883838D01*
X2446771Y868344D01*
X2451851Y842436D01*
X2462265Y826688D01*
X2477759Y821608D01*
X2488173Y821608D01*
X2503921Y826688D01*
X2514335Y842436D01*
X2519415Y868344D01*
X2519415Y883838D01*
X2514335Y910000D01*
X2503921Y925494D01*
X2488173Y930574D01*
X2477759Y930574D01*
X2553705Y930574D02*
G01*
X2553705Y821608D01*
X2553705Y930574D02*
G01*
X2600441Y930574D01*
X2616189Y925494D01*
X2621269Y920414D01*
X2626349Y910000D01*
X2626349Y899586D01*
X2621269Y889172D01*
X2616189Y883838D01*
X2600441Y878758D01*
X2553705Y878758D01*
X2590027Y878758D02*
G01*
X2626349Y821608D01*
X2242129Y213215D02*
G01*
X2237049Y223629D01*
X2221555Y239123D01*
X2330521Y239123D01*
X2247463Y278747D02*
G01*
X2242129Y278747D01*
X2231715Y283827D01*
X2226635Y289161D01*
X2221555Y299575D01*
X2221555Y320149D01*
X2226635Y330563D01*
X2231715Y335897D01*
X2242129Y340977D01*
X2252543Y340977D01*
X2262957Y335897D01*
X2278705Y325483D01*
X2330521Y273413D01*
X2330521Y346311D01*
X2221555Y380601D02*
G01*
X2330521Y380601D01*
X2257877Y432417D02*
G01*
X2309693Y380601D01*
X2288865Y401175D02*
G01*
X2330521Y437751D01*
X2381470Y73799D02*
G01*
X2381470Y130949D01*
X2423126Y99961D01*
X2423126Y115455D01*
X2428206Y125869D01*
X2433540Y130949D01*
X2449034Y136283D01*
X2459448Y136283D01*
X2474942Y130949D01*
X2485356Y120535D01*
X2490690Y105041D01*
X2490690Y89547D01*
X2485356Y73799D01*
X2480276Y68719D01*
X2469862Y63385D01*
X2381470Y201815D02*
G01*
X2386804Y186067D01*
X2402298Y175653D01*
X2428206Y170573D01*
X2443954Y170573D01*
X2469862Y175653D01*
X2485356Y186067D01*
X2490690Y201815D01*
X2490690Y211975D01*
X2485356Y227723D01*
X2469862Y238137D01*
X2443954Y243217D01*
X2428206Y243217D01*
X2402298Y238137D01*
X2386804Y227723D01*
X2381470Y211975D01*
X2381470Y201815D01*
X2381470Y308749D02*
G01*
X2386804Y293255D01*
X2402298Y282841D01*
X2428206Y277507D01*
X2443954Y277507D01*
X2469862Y282841D01*
X2485356Y293255D01*
X2490690Y308749D01*
X2490690Y319163D01*
X2485356Y334657D01*
X2469862Y345071D01*
X2443954Y350405D01*
X2428206Y350405D01*
X2402298Y345071D01*
X2386804Y334657D01*
X2381470Y319163D01*
X2381470Y308749D01*
X2417792Y384695D02*
G01*
X2490690Y384695D01*
X2449034Y384695D02*
G01*
X2433540Y389775D01*
X2423126Y400189D01*
X2417792Y410603D01*
X2417792Y426097D01*
X86918Y-52649D02*
G01*
X97332Y-47569D01*
X112826Y-32075D01*
X112826Y-141041D01*
X152450Y-57983D02*
G01*
X152450Y-52649D01*
X157530Y-42235D01*
X162864Y-37155D01*
X173278Y-32075D01*
X193852Y-32075D01*
X204266Y-37155D01*
X209600Y-42235D01*
X214680Y-52649D01*
X214680Y-63063D01*
X209600Y-73477D01*
X199186Y-89225D01*
X147116Y-141041D01*
X220014Y-141041D01*
X254304Y-32075D02*
G01*
X254304Y-141041D01*
X306120Y-68397D02*
G01*
X254304Y-120213D01*
X274878Y-99385D02*
G01*
X311454Y-141041D01*
X2285339Y-563880D02*
G01*
X2280259Y-553466D01*
X2264765Y-537972D01*
X2373731Y-537972D01*
X2264765Y-472439D02*
G01*
X2269845Y-487934D01*
X2285339Y-498348D01*
X2311501Y-503682D01*
X2326995Y-503682D01*
X2352903Y-498348D01*
X2368651Y-487934D01*
X2373731Y-472439D01*
X2373731Y-462025D01*
X2368651Y-446532D01*
X2352903Y-436118D01*
X2326995Y-430784D01*
X2311501Y-430784D01*
X2285339Y-436118D01*
X2269845Y-446532D01*
X2264765Y-462025D01*
X2264765Y-472439D01*
X2280259Y-334263D02*
G01*
X2269845Y-339344D01*
X2264765Y-355092D01*
X2264765Y-365506D01*
X2269845Y-381000D01*
X2285339Y-391413D01*
X2311501Y-396494D01*
X2337409Y-396494D01*
X2358237Y-391413D01*
X2368651Y-381000D01*
X2373731Y-365506D01*
X2373731Y-360172D01*
X2368651Y-344678D01*
X2358237Y-334263D01*
X2342489Y-328930D01*
X2337409Y-328930D01*
X2321915Y-334263D01*
X2311501Y-344678D01*
X2306167Y-360172D01*
X2306167Y-365506D01*
X2311501Y-381000D01*
X2321915Y-391413D01*
X2337409Y-396494D01*
X2072629Y-1529770D02*
G01*
X2062215Y-1534850D01*
X2046721Y-1550344D01*
X2046721Y-1441378D01*
X1981189Y-1550344D02*
G01*
X1996683Y-1545264D01*
X2007097Y-1529770D01*
X2012431Y-1503608D01*
X2012431Y-1488114D01*
X2007097Y-1462206D01*
X1996683Y-1446458D01*
X1981189Y-1441378D01*
X1970775Y-1441378D01*
X1955281Y-1446458D01*
X1944867Y-1462206D01*
X1939533Y-1488114D01*
X1939533Y-1503608D01*
X1944867Y-1529770D01*
X1955281Y-1545264D01*
X1970775Y-1550344D01*
X1981189Y-1550344D01*
X1843013Y-1534850D02*
G01*
X1848093Y-1545264D01*
X1863841Y-1550344D01*
X1874255Y-1550344D01*
X1889749Y-1545264D01*
X1900163Y-1529770D01*
X1905243Y-1503608D01*
X1905243Y-1477700D01*
X1900163Y-1456872D01*
X1889749Y-1446458D01*
X1874255Y-1441378D01*
X1868921Y-1441378D01*
X1853427Y-1446458D01*
X1843013Y-1456872D01*
X1837679Y-1472620D01*
X1837679Y-1477700D01*
X1843013Y-1493194D01*
X1853427Y-1503608D01*
X1868921Y-1508942D01*
X1874255Y-1508942D01*
X1889749Y-1503608D01*
X1900163Y-1493194D01*
X1905243Y-1477700D01*
X1745655Y-1008385D02*
G01*
X1750735Y-1018799D01*
X1766229Y-1034293D01*
X1657263Y-1034293D01*
X1766229Y-1099825D02*
G01*
X1761149Y-1084331D01*
X1745655Y-1073917D01*
X1719493Y-1068583D01*
X1703999Y-1068583D01*
X1678091Y-1073917D01*
X1662343Y-1084331D01*
X1657263Y-1099825D01*
X1657263Y-1110239D01*
X1662343Y-1125733D01*
X1678091Y-1136147D01*
X1703999Y-1141481D01*
X1719493Y-1141481D01*
X1745655Y-1136147D01*
X1761149Y-1125733D01*
X1766229Y-1110239D01*
X1766229Y-1099825D01*
X1766229Y-1227587D02*
G01*
X1693585Y-1175771D01*
X1693585Y-1253495D01*
X1766229Y-1227587D02*
G01*
X1657263Y-1227587D01*
X2202855Y-1010925D02*
G01*
X2207935Y-1021339D01*
X2223429Y-1036833D01*
X2114463Y-1036833D01*
X2223429Y-1102365D02*
G01*
X2218349Y-1086871D01*
X2202855Y-1076457D01*
X2176693Y-1071123D01*
X2161199Y-1071123D01*
X2135291Y-1076457D01*
X2119543Y-1086871D01*
X2114463Y-1102365D01*
X2114463Y-1112779D01*
X2119543Y-1128273D01*
X2135291Y-1138687D01*
X2161199Y-1144021D01*
X2176693Y-1144021D01*
X2202855Y-1138687D01*
X2218349Y-1128273D01*
X2223429Y-1112779D01*
X2223429Y-1102365D01*
X2223429Y-1230127D02*
G01*
X2150785Y-1178311D01*
X2150785Y-1256035D01*
X2223429Y-1230127D02*
G01*
X2114463Y-1230127D01*
X3209879Y-1169426D02*
G01*
X3199465Y-1179840D01*
X3194385Y-1195334D01*
X3194385Y-1216162D01*
X3199465Y-1231656D01*
X3209879Y-1242070D01*
X3220293Y-1242070D01*
X3230707Y-1236990D01*
X3235787Y-1231656D01*
X3241121Y-1221242D01*
X3251535Y-1190000D01*
X3256615Y-1179840D01*
X3261695Y-1174506D01*
X3272109Y-1169426D01*
X3287857Y-1169426D01*
X3298271Y-1179840D01*
X3303351Y-1195334D01*
X3303351Y-1216162D01*
X3298271Y-1231656D01*
X3287857Y-1242070D01*
X3194385Y-1135136D02*
G01*
X3303351Y-1108974D01*
X3194385Y-1083066D02*
G01*
X3303351Y-1108974D01*
X3194385Y-1083066D02*
G01*
X3303351Y-1057158D01*
X3194385Y-1031250D02*
G01*
X3303351Y-1057158D01*
X3220293Y-991626D02*
G01*
X3214959Y-991626D01*
X3204545Y-986546D01*
X3199465Y-981212D01*
X3194385Y-970798D01*
X3194385Y-949970D01*
X3199465Y-939810D01*
X3204545Y-934476D01*
X3214959Y-929396D01*
X3225373Y-929396D01*
X3235787Y-934476D01*
X3251535Y-944890D01*
X3303351Y-996960D01*
X3303351Y-924062D01*
G36*
X773988Y762203D02*
G01*
X646988Y698703D01*
X773988Y635203D01*
G37*
D10*
X2084677Y-1279461D02*
G01*
X2004674Y-1279461D01*
X2115662Y-1168486D02*
G01*
X2115662Y-1248483D01*
X1973696Y-1168486D02*
G01*
X1973696Y-1248483D01*
X2116244Y-1110896D02*
G01*
X2116244Y-1030897D01*
X2085261Y-999914D02*
G01*
X2005263Y-999914D01*
X1974283Y-1110896D02*
G01*
X1974283Y-1030897D01*
X1876397Y-1279461D02*
G01*
X1796394Y-1279461D01*
X1907382Y-1168486D02*
G01*
X1907382Y-1248483D01*
X1765416Y-1168486D02*
G01*
X1765416Y-1248483D01*
X1907964Y-1110896D02*
G01*
X1907964Y-1030897D01*
X1876981Y-999914D02*
G01*
X1796983Y-999914D01*
X1766003Y-1110896D02*
G01*
X1766003Y-1030897D01*
X3006608Y416501D02*
G01*
X2854208Y416501D01*
X3247908Y-447098D02*
G01*
X3400308Y-447098D01*
X3400308Y416501D01*
X3247908Y416501D01*
X2854208Y-447098D02*
G01*
X3006608Y-447098D01*
X2574808Y-447098D02*
G01*
X2574808Y416501D01*
D31*
X3453589Y748278D02*
G01*
X3453589Y773277D01*
X3403589Y773277D01*
X3378591Y798278D01*
X3378591Y898278D01*
X3403589Y923279D01*
X3453589Y923279D01*
X3453589Y948278D01*
X3353589Y948278D01*
X3328588Y923279D01*
X3328588Y773277D01*
X3353589Y748278D01*
X3453589Y748278D01*
X3548590Y933279D02*
G01*
X3588590Y933279D01*
X3618590Y903279D01*
X3618590Y793280D01*
X3588590Y763277D01*
X3548590Y763277D01*
X3258588Y1043279D02*
G01*
X3258588Y653277D01*
X3548590Y653277D01*
X3548590Y1043279D01*
X3258588Y1043279D01*
D10*
X3293391Y-709020D02*
G01*
X3209622Y-709020D01*
X3108020Y-1042136D02*
G01*
X3108020Y-1204912D01*
X3108020Y-905906D02*
G01*
X3108020Y-892136D01*
X3108020Y-905906D01*
X3108020Y-1124018D02*
G01*
X3108020Y-1042136D01*
X3293391Y-1389019D02*
G01*
X3209622Y-1389019D01*
X3393018Y-1092197D02*
G01*
X3393018Y-1340906D01*
X3393018Y-939022D02*
G01*
X3393018Y-757138D01*
X3541184Y-1092197D02*
G01*
X3393018Y-1092197D01*
X3541184Y-939022D02*
G01*
X3393018Y-939022D01*
X3541184Y-1092197D02*
G01*
X3541184Y-939022D01*
X2082101Y-1357022D02*
G01*
X2082101Y-1437025D01*
X1971126Y-1326037D02*
G01*
X2051123Y-1326037D01*
X1971126Y-1468003D02*
G01*
X2051123Y-1468003D01*
X1913536Y-1325455D02*
G01*
X1833537Y-1325455D01*
X1802554Y-1356438D02*
G01*
X1802554Y-1436436D01*
X1913536Y-1467416D02*
G01*
X1833537Y-1467416D01*
X2618740Y-586739D02*
G01*
X2618740Y-576580D01*
X2781299Y-576580D01*
X2781299Y-586739D01*
X2781299Y-850900D02*
G01*
X2781299Y-861060D01*
X2618740Y-861060D01*
X2618740Y-850900D01*
X2618740Y-772160D02*
G01*
X2618740Y-665480D01*
X2781299Y-762000D02*
G01*
X2781299Y-772160D01*
X2781299Y-665480D02*
G01*
X2781299Y-675639D01*
D32*
X1267460Y-1176020D02*
G01*
X1343660Y-1176020D01*
X1267460Y-1125220D02*
G01*
X1343660Y-1125220D01*
X223519Y546100D02*
G01*
X223519Y622300D01*
X172719Y546100D02*
G01*
X172719Y622300D01*
X403860Y-1176020D02*
G01*
X480060Y-1176020D01*
X403860Y-1125220D02*
G01*
X480060Y-1125220D01*
X2603489Y1193718D02*
G01*
X2527289Y1193718D01*
X2603489Y1142918D02*
G01*
X2527289Y1142918D01*
D33*
X1126360Y-1048280D02*
G01*
X1171359Y-1048280D01*
X1171359Y-1183279D01*
X906360Y-1048280D02*
G01*
X906360Y-1183279D01*
X906020Y-1048280D02*
G01*
X951359Y-1048280D01*
D32*
X828039Y-1188720D02*
G01*
X828039Y-1112520D01*
X751839Y-1188720D02*
G01*
X751839Y-1112520D01*
X236219Y891539D02*
G01*
X160019Y891539D01*
X236219Y815339D02*
G01*
X160019Y815339D01*
X236219Y124460D02*
G01*
X160019Y124460D01*
X236219Y48260D02*
G01*
X160019Y48260D01*
X236219Y-175260D02*
G01*
X160019Y-175260D01*
X236219Y-251460D02*
G01*
X160019Y-251460D01*
X236219Y-457200D02*
G01*
X160019Y-457200D01*
X236219Y-533400D02*
G01*
X160019Y-533400D01*
X2425689Y800018D02*
G01*
X2349489Y800018D01*
X2425689Y723818D02*
G01*
X2349489Y723818D01*
X1432560Y-1112520D02*
G01*
X1432560Y-1188720D01*
X1508760Y-1112520D02*
G01*
X1508760Y-1188720D01*
X2501889Y520618D02*
G01*
X2501889Y596818D01*
X2425689Y520618D02*
G01*
X2425689Y596818D01*
X2357119Y520700D02*
G01*
X2357119Y596900D01*
X2280919Y520700D02*
G01*
X2280919Y596900D01*
X574039Y-1112520D02*
G01*
X574039Y-1188720D01*
X650239Y-1112520D02*
G01*
X650239Y-1188720D01*
X1569719Y-1112520D02*
G01*
X1569719Y-1188720D01*
X1645919Y-1112520D02*
G01*
X1645919Y-1188720D01*
X236219Y368300D02*
G01*
X160019Y368300D01*
X236219Y292100D02*
G01*
X160019Y292100D01*
D10*
X2078372Y-792899D02*
G01*
X2078372Y-858113D01*
X1863156Y-858113D01*
X676823Y-858113D02*
G01*
X461639Y-858113D01*
X461639Y-792929D01*
X2078372Y790336D02*
G01*
X2078372Y1535818D01*
X461639Y1535818D01*
X461639Y790369D01*
X2666999Y889000D02*
G01*
X2666999Y825500D01*
X3174999Y825500D01*
X3174999Y1079500D01*
X2666999Y1079500D01*
X2666999Y1016000D01*
X2364077Y-870521D02*
G01*
X2284074Y-870521D01*
X2395062Y-759546D02*
G01*
X2395062Y-839543D01*
X2253096Y-759546D02*
G01*
X2253096Y-839543D01*
X2395644Y-701956D02*
G01*
X2395644Y-621957D01*
X2364661Y-590974D02*
G01*
X2284663Y-590974D01*
X2253683Y-701956D02*
G01*
X2253683Y-621957D01*
X2780563Y-926109D02*
G01*
X2780563Y-1436116D01*
X2780563Y-1436090D02*
G01*
X2370556Y-1436090D01*
X2370556Y-1436090D02*
G01*
X2370556Y-926084D01*
X2655569Y-926109D02*
G01*
X2780563Y-926109D01*
X2495549Y-926109D02*
G01*
X2370556Y-926109D01*
G75*
G01*
X2085261Y-999909D02*
G02*
X2116244Y-1030892I0J-30983D01*
G75*
G01*
X1974278Y-1030892D02*
G02*
X2005264Y-999909I30983J0D01*
G75*
G01*
X2115663Y-1248479D02*
G02*
X2084677Y-1279461I-30983J0D01*
G75*
G01*
X2004680Y-1279461D02*
G02*
X1973697Y-1248479I0J30982D01*
G75*
G01*
X1876981Y-999909D02*
G02*
X1907964Y-1030892I0J-30983D01*
G75*
G01*
X1765999Y-1030892D02*
G02*
X1796984Y-999909I30982J0D01*
G75*
G01*
X1907383Y-1248479D02*
G02*
X1876397Y-1279461I-30983J0D01*
G75*
G01*
X1796400Y-1279461D02*
G02*
X1765417Y-1248479I0J30982D01*
G75*
G01*
X1802549Y-1356439D02*
G02*
X1833532Y-1325456I30983J0D01*
G75*
G01*
X1833532Y-1467422D02*
G02*
X1802549Y-1436436I0J30983D01*
G75*
G01*
X2051119Y-1326037D02*
G02*
X2082102Y-1357023I0J-30983D01*
G75*
G01*
X2082102Y-1437020D02*
G02*
X2051119Y-1468003I-30983J0D01*
D34*
G75*
G01*
X399989Y801218D02*
G02*
X400004Y800555I15000J13D01*
D10*
G75*
G01*
X2667000Y889001D02*
G03*
X2667000Y1016001I0J63500D01*
G75*
G01*
X2364661Y-590969D02*
G02*
X2395644Y-621952I0J-30983D01*
G75*
G01*
X2253678Y-621952D02*
G02*
X2284664Y-590969I30983J0D01*
G75*
G01*
X2395063Y-839539D02*
G02*
X2364077Y-870522I-30983J0D01*
G75*
G01*
X2284080Y-870522D02*
G02*
X2253097Y-839539I0J30983D01*
G75*
G01*
X2655570Y-931113D02*
G02*
X2495550Y-931113I-80010J37528D01*
G75*
G01
X2342556Y-878108D02*
G03X2342556Y-878108I-17018J0D01*
M02*
