M48
METRIC,LZ,000.000
;FILE_FORMAT=3:3
;TYPE=PLATED
;Layer: Drill PTH
;EasyEDA v6.4.25, 2021-11-23T22:35:47+08:00
;b1e9ac58b82e44e2a900f0cbd8408905,45ba98ba689c459a8d72e4540021d05b,10
;Gerber Generator version 0.2
;Holesize 1 = 0.306 mm
T01C0.306
;Holesize 2 = 0.600 mm
T02C0.600
%
G05
G90
T01
X021559Y-008802
X009365Y-009724
X006684Y000048
X011752Y005902
X027474Y-010528
X028857Y-002715
X030387Y-011819
X030924Y-010670
X013067Y-004633
X008288Y-001013
X009331Y-010834
X008401Y-002068
X012600Y003987
X023935Y-009375
X021379Y-012298
X022121Y-005452
T02
X032213Y004169G85X030713Y004169
X032213Y-004471G85X030713Y-004471
X028526Y004165G85X026526Y004165
X028526Y-004475G85X026526Y-004475
M30
