G04 Layer: TopPasteMaskLayer*
G04 EasyEDA v6.4.25, 2021-11-23T22:35:47+08:00*
G04 b1e9ac58b82e44e2a900f0cbd8408905,45ba98ba689c459a8d72e4540021d05b,10*
G04 Gerber Generator version 0.2*
G04 Scale: 100 percent, Rotated: No, Reflected: No *
G04 Dimensions in millimeters *
G04 leading zeros omitted , absolute positions ,4 integer and 5 decimal *
%FSLAX45Y45*%
%MOMM*%

%ADD12C,0.6096*%
%ADD14R,0.9000X0.8000*%
%ADD15R,2.0000X0.6000*%
%ADD16R,2.0000X0.3000*%
%ADD17R,1.3000X0.9000*%
%ADD18R,0.9000X1.3000*%
%ADD20R,1.1989X0.5512*%
%ADD22R,1.0000X1.5000*%
%ADD23R,1.2000X0.6000*%
%ADD24R,2.5000X3.4999*%

%LPD*%
D12*
X2730489Y1160774D02*
G01*
X2730489Y1303014D01*
X2857489Y1160774D02*
G01*
X2857489Y1303014D01*
X2984489Y1160774D02*
G01*
X2984489Y1303014D01*
X2984489Y601974D02*
G01*
X2984489Y744214D01*
X2857489Y601974D02*
G01*
X2857489Y744214D01*
X2730489Y601974D02*
G01*
X2730489Y744214D01*
X3111489Y1160774D02*
G01*
X3111489Y1303014D01*
X3111489Y601974D02*
G01*
X3111489Y744214D01*
D14*
G01*
X2044689Y-1210467D03*
G01*
X2044689Y-1070462D03*
G01*
X1836409Y-1210467D03*
G01*
X1836409Y-1070462D03*
D15*
G01*
X2615453Y-335564D03*
G01*
X2615453Y-255554D03*
G01*
X2615453Y304439D03*
G01*
X2615453Y224454D03*
D16*
G01*
X2615453Y159456D03*
G01*
X2615453Y109443D03*
G01*
X2615453Y59456D03*
G01*
X2615453Y9443D03*
G01*
X2615453Y-40543D03*
G01*
X2615453Y-90556D03*
G01*
X2615453Y-140543D03*
G01*
X2615453Y-190555D03*
G36*
X3337339Y983279D02*
G01*
X3320465Y987800D01*
X3308111Y1000152D01*
X3303590Y1017028D01*
X3303590Y1084529D01*
X3308111Y1101404D01*
X3320465Y1113756D01*
X3337339Y1118278D01*
X3469840Y1118278D01*
X3486713Y1113756D01*
X3499068Y1101404D01*
X3503589Y1084529D01*
X3503589Y1017028D01*
X3499068Y1000152D01*
X3486713Y987800D01*
X3469840Y983279D01*
G37*
G36*
X3337339Y578279D02*
G01*
X3320465Y582800D01*
X3308111Y595155D01*
X3303590Y612028D01*
X3303590Y679528D01*
X3308111Y696404D01*
X3320465Y708756D01*
X3337339Y713277D01*
X3469840Y713277D01*
X3486713Y708756D01*
X3499068Y696404D01*
X3503589Y679528D01*
X3503589Y612028D01*
X3499068Y595155D01*
X3486713Y582800D01*
X3469840Y578279D01*
G37*
D17*
G01*
X3054517Y-1273027D03*
G01*
X3054517Y-974018D03*
G01*
X3054517Y-824031D03*
D18*
G01*
X3361502Y-669015D03*
G01*
X3141512Y-669015D03*
G01*
X3361502Y-1429034D03*
G01*
X3141512Y-1429034D03*
G36*
X1973099Y-1351998D02*
G01*
X2053099Y-1351998D01*
X2053099Y-1442001D01*
X1973099Y-1442001D01*
G37*
G36*
X1833100Y-1351998D02*
G01*
X1913100Y-1351998D01*
X1913100Y-1442001D01*
X1833100Y-1442001D01*
G37*
D20*
G01*
X2829549Y-812805D03*
G01*
X2829549Y-718825D03*
G01*
X2829549Y-624845D03*
G01*
X2570469Y-624845D03*
G01*
X2570469Y-812805D03*
G36*
X1260558Y-1056919D02*
G01*
X1265684Y-1044544D01*
X1278059Y-1039418D01*
X1333060Y-1039418D01*
X1345435Y-1044544D01*
X1350561Y-1056919D01*
X1350561Y-1091920D01*
X1345435Y-1104295D01*
X1333060Y-1109421D01*
X1278059Y-1109421D01*
X1265684Y-1104295D01*
X1260558Y-1091920D01*
G37*
G36*
X1350561Y-1244302D02*
G01*
X1345435Y-1256677D01*
X1333060Y-1261803D01*
X1278059Y-1261803D01*
X1265684Y-1256677D01*
X1260558Y-1244302D01*
X1260558Y-1209304D01*
X1265684Y-1196929D01*
X1278059Y-1191803D01*
X1333060Y-1191803D01*
X1345435Y-1196929D01*
X1350561Y-1209304D01*
G37*
G36*
X104419Y539198D02*
G01*
X92044Y544324D01*
X86918Y556699D01*
X86918Y611700D01*
X92044Y624075D01*
X104419Y629201D01*
X139420Y629201D01*
X151795Y624075D01*
X156921Y611700D01*
X156921Y556699D01*
X151795Y544324D01*
X139420Y539198D01*
G37*
G36*
X291802Y629201D02*
G01*
X304177Y624075D01*
X309303Y611700D01*
X309303Y556699D01*
X304177Y544324D01*
X291802Y539198D01*
X256804Y539198D01*
X244429Y544324D01*
X239303Y556699D01*
X239303Y611700D01*
X244429Y624075D01*
X256804Y629201D01*
G37*
G36*
X396958Y-1056919D02*
G01*
X402084Y-1044544D01*
X414459Y-1039418D01*
X469460Y-1039418D01*
X481835Y-1044544D01*
X486961Y-1056919D01*
X486961Y-1091920D01*
X481835Y-1104295D01*
X469460Y-1109421D01*
X414459Y-1109421D01*
X402084Y-1104295D01*
X396958Y-1091920D01*
G37*
G36*
X486961Y-1244302D02*
G01*
X481835Y-1256677D01*
X469460Y-1261803D01*
X414459Y-1261803D01*
X402084Y-1256677D01*
X396958Y-1244302D01*
X396958Y-1209304D01*
X402084Y-1196929D01*
X414459Y-1191803D01*
X469460Y-1191803D01*
X481835Y-1196929D01*
X486961Y-1209304D01*
G37*
G36*
X2610391Y1074618D02*
G01*
X2605265Y1062243D01*
X2592890Y1057117D01*
X2537889Y1057117D01*
X2525514Y1062243D01*
X2520388Y1074618D01*
X2520388Y1109619D01*
X2525514Y1121994D01*
X2537889Y1127119D01*
X2592890Y1127119D01*
X2605265Y1121994D01*
X2610391Y1109619D01*
G37*
G36*
X2520388Y1262001D02*
G01*
X2525514Y1274376D01*
X2537889Y1279502D01*
X2592890Y1279502D01*
X2605265Y1274376D01*
X2610391Y1262001D01*
X2610391Y1227002D01*
X2605265Y1214628D01*
X2592890Y1209502D01*
X2537889Y1209502D01*
X2525514Y1214628D01*
X2520388Y1227002D01*
G37*
G36*
X991359Y-1022029D02*
G01*
X998316Y-1005235D01*
X1015111Y-998280D01*
X1062608Y-998280D01*
X1079403Y-1005235D01*
X1086360Y-1022029D01*
X1086360Y-1074529D01*
X1079403Y-1091323D01*
X1062608Y-1098280D01*
X1015111Y-1098280D01*
X998316Y-1091323D01*
X991359Y-1074529D01*
G37*
G36*
X1086360Y-1247028D02*
G01*
X1093317Y-1230236D01*
X1110109Y-1223279D01*
X1157610Y-1223279D01*
X1174404Y-1230236D01*
X1181361Y-1247028D01*
X1181361Y-1299530D01*
X1174404Y-1316321D01*
X1157610Y-1323279D01*
X1110109Y-1323279D01*
X1093317Y-1316321D01*
X1086360Y-1299530D01*
G37*
G36*
X896360Y-1247030D02*
G01*
X903315Y-1230236D01*
X920109Y-1223279D01*
X967610Y-1223279D01*
X984404Y-1230236D01*
X991359Y-1247030D01*
X991359Y-1299530D01*
X984404Y-1316324D01*
X967610Y-1323279D01*
X920109Y-1323279D01*
X903315Y-1316324D01*
X896360Y-1299530D01*
G37*
G36*
X834941Y-1244302D02*
G01*
X829815Y-1256677D01*
X817440Y-1261803D01*
X762439Y-1261803D01*
X750064Y-1256677D01*
X744938Y-1244302D01*
X744938Y-1209304D01*
X750064Y-1196929D01*
X762439Y-1191803D01*
X817440Y-1191803D01*
X829815Y-1196929D01*
X834941Y-1209304D01*
G37*
G36*
X744938Y-1056919D02*
G01*
X750064Y-1044544D01*
X762439Y-1039418D01*
X817440Y-1039418D01*
X829815Y-1044544D01*
X834941Y-1056919D01*
X834941Y-1091920D01*
X829815Y-1104295D01*
X817440Y-1109421D01*
X762439Y-1109421D01*
X750064Y-1104295D01*
X744938Y-1091920D01*
G37*
G36*
X291802Y898441D02*
G01*
X304177Y893315D01*
X309303Y880940D01*
X309303Y825939D01*
X304177Y813564D01*
X291802Y808438D01*
X256804Y808438D01*
X244429Y813564D01*
X239303Y825939D01*
X239303Y880940D01*
X244429Y893315D01*
X256804Y898441D01*
G37*
G36*
X104419Y808438D02*
G01*
X92044Y813564D01*
X86918Y825939D01*
X86918Y880940D01*
X92044Y893315D01*
X104419Y898441D01*
X139420Y898441D01*
X151795Y893315D01*
X156921Y880940D01*
X156921Y825939D01*
X151795Y813564D01*
X139420Y808438D01*
G37*
G36*
X291802Y131361D02*
G01*
X304177Y126235D01*
X309303Y113860D01*
X309303Y58859D01*
X304177Y46484D01*
X291802Y41358D01*
X256804Y41358D01*
X244429Y46484D01*
X239303Y58859D01*
X239303Y113860D01*
X244429Y126235D01*
X256804Y131361D01*
G37*
G36*
X104419Y41358D02*
G01*
X92044Y46484D01*
X86918Y58859D01*
X86918Y113860D01*
X92044Y126235D01*
X104419Y131361D01*
X139420Y131361D01*
X151795Y126235D01*
X156921Y113860D01*
X156921Y58859D01*
X151795Y46484D01*
X139420Y41358D01*
G37*
G36*
X291802Y-168358D02*
G01*
X304177Y-173484D01*
X309303Y-185859D01*
X309303Y-240860D01*
X304177Y-253235D01*
X291802Y-258361D01*
X256804Y-258361D01*
X244429Y-253235D01*
X239303Y-240860D01*
X239303Y-185859D01*
X244429Y-173484D01*
X256804Y-168358D01*
G37*
G36*
X104419Y-258361D02*
G01*
X92044Y-253235D01*
X86918Y-240860D01*
X86918Y-185859D01*
X92044Y-173484D01*
X104419Y-168358D01*
X139420Y-168358D01*
X151795Y-173484D01*
X156921Y-185859D01*
X156921Y-240860D01*
X151795Y-253235D01*
X139420Y-258361D01*
G37*
G36*
X291802Y-450298D02*
G01*
X304177Y-455424D01*
X309303Y-467799D01*
X309303Y-522800D01*
X304177Y-535175D01*
X291802Y-540301D01*
X256804Y-540301D01*
X244429Y-535175D01*
X239303Y-522800D01*
X239303Y-467799D01*
X244429Y-455424D01*
X256804Y-450298D01*
G37*
G36*
X104419Y-540301D02*
G01*
X92044Y-535175D01*
X86918Y-522800D01*
X86918Y-467799D01*
X92044Y-455424D01*
X104419Y-450298D01*
X139420Y-450298D01*
X151795Y-455424D01*
X156921Y-467799D01*
X156921Y-522800D01*
X151795Y-535175D01*
X139420Y-540301D01*
G37*
G36*
X2481272Y806919D02*
G01*
X2493647Y801794D01*
X2498773Y789419D01*
X2498773Y734418D01*
X2493647Y722043D01*
X2481272Y716917D01*
X2446273Y716917D01*
X2433899Y722043D01*
X2428773Y734418D01*
X2428773Y789419D01*
X2433899Y801794D01*
X2446273Y806919D01*
G37*
G36*
X2293889Y716917D02*
G01*
X2281514Y722043D01*
X2276388Y734418D01*
X2276388Y789419D01*
X2281514Y801794D01*
X2293889Y806919D01*
X2328890Y806919D01*
X2341265Y801794D01*
X2346391Y789419D01*
X2346391Y734418D01*
X2341265Y722043D01*
X2328890Y716917D01*
G37*
G36*
X1425658Y-1056937D02*
G01*
X1430784Y-1044562D01*
X1443159Y-1039436D01*
X1498160Y-1039436D01*
X1510535Y-1044562D01*
X1515661Y-1056937D01*
X1515661Y-1091935D01*
X1510535Y-1104310D01*
X1498160Y-1109436D01*
X1443159Y-1109436D01*
X1430784Y-1104310D01*
X1425658Y-1091935D01*
G37*
G36*
X1515661Y-1244320D02*
G01*
X1510535Y-1256695D01*
X1498160Y-1261821D01*
X1443159Y-1261821D01*
X1430784Y-1256695D01*
X1425658Y-1244320D01*
X1425658Y-1209319D01*
X1430784Y-1196944D01*
X1443159Y-1191818D01*
X1498160Y-1191818D01*
X1510535Y-1196944D01*
X1515661Y-1209319D01*
G37*
G36*
X2508791Y465035D02*
G01*
X2503665Y452661D01*
X2491290Y447535D01*
X2436289Y447535D01*
X2423914Y452661D01*
X2418788Y465035D01*
X2418788Y500034D01*
X2423914Y512409D01*
X2436289Y517535D01*
X2491290Y517535D01*
X2503665Y512409D01*
X2508791Y500034D01*
G37*
G36*
X2418788Y652419D02*
G01*
X2423914Y664794D01*
X2436289Y669919D01*
X2491290Y669919D01*
X2503665Y664794D01*
X2508791Y652419D01*
X2508791Y617418D01*
X2503665Y605043D01*
X2491290Y599917D01*
X2436289Y599917D01*
X2423914Y605043D01*
X2418788Y617418D01*
G37*
G36*
X2364021Y465117D02*
G01*
X2358895Y452742D01*
X2346520Y447616D01*
X2291519Y447616D01*
X2279144Y452742D01*
X2274018Y465117D01*
X2274018Y500115D01*
X2279144Y512490D01*
X2291519Y517616D01*
X2346520Y517616D01*
X2358895Y512490D01*
X2364021Y500115D01*
G37*
G36*
X2274018Y652500D02*
G01*
X2279144Y664875D01*
X2291519Y670001D01*
X2346520Y670001D01*
X2358895Y664875D01*
X2364021Y652500D01*
X2364021Y617499D01*
X2358895Y605124D01*
X2346520Y599998D01*
X2291519Y599998D01*
X2279144Y605124D01*
X2274018Y617499D01*
G37*
G36*
X567138Y-1056937D02*
G01*
X572264Y-1044562D01*
X584639Y-1039436D01*
X639640Y-1039436D01*
X652015Y-1044562D01*
X657141Y-1056937D01*
X657141Y-1091935D01*
X652015Y-1104310D01*
X639640Y-1109436D01*
X584639Y-1109436D01*
X572264Y-1104310D01*
X567138Y-1091935D01*
G37*
G36*
X657141Y-1244320D02*
G01*
X652015Y-1256695D01*
X639640Y-1261821D01*
X584639Y-1261821D01*
X572264Y-1256695D01*
X567138Y-1244320D01*
X567138Y-1209319D01*
X572264Y-1196944D01*
X584639Y-1191818D01*
X639640Y-1191818D01*
X652015Y-1196944D01*
X657141Y-1209319D01*
G37*
G36*
X1562818Y-1056937D02*
G01*
X1567944Y-1044562D01*
X1580319Y-1039436D01*
X1635320Y-1039436D01*
X1647695Y-1044562D01*
X1652821Y-1056937D01*
X1652821Y-1091935D01*
X1647695Y-1104310D01*
X1635320Y-1109436D01*
X1580319Y-1109436D01*
X1567944Y-1104310D01*
X1562818Y-1091935D01*
G37*
G36*
X1652821Y-1244320D02*
G01*
X1647695Y-1256695D01*
X1635320Y-1261821D01*
X1580319Y-1261821D01*
X1567944Y-1256695D01*
X1562818Y-1244320D01*
X1562818Y-1209319D01*
X1567944Y-1196944D01*
X1580319Y-1191818D01*
X1635320Y-1191818D01*
X1647695Y-1196944D01*
X1652821Y-1209319D01*
G37*
G36*
X291802Y375201D02*
G01*
X304177Y370075D01*
X309303Y357700D01*
X309303Y302699D01*
X304177Y290324D01*
X291802Y285198D01*
X256804Y285198D01*
X244429Y290324D01*
X239303Y302699D01*
X239303Y357700D01*
X244429Y370075D01*
X256804Y375201D01*
G37*
G36*
X104419Y285198D02*
G01*
X92044Y290324D01*
X86918Y302699D01*
X86918Y357700D01*
X92044Y370075D01*
X104419Y375201D01*
X139420Y375201D01*
X151795Y370075D01*
X156921Y357700D01*
X156921Y302699D01*
X151795Y290324D01*
X139420Y285198D01*
G37*
G36*
X1919998Y-651273D02*
G01*
X2144996Y-651273D01*
X2144996Y-751273D01*
X1919998Y-751273D01*
G37*
G36*
X1919998Y-451274D02*
G01*
X2144996Y-451274D01*
X2144996Y-551273D01*
X1919998Y-551273D01*
G37*
G36*
X1919998Y-251274D02*
G01*
X2144996Y-251274D01*
X2144996Y-351274D01*
X1919998Y-351274D01*
G37*
G36*
X1919998Y-51274D02*
G01*
X2144996Y-51274D01*
X2144996Y-151274D01*
X1919998Y-151274D01*
G37*
G36*
X1919998Y148724D02*
G01*
X2144996Y148724D01*
X2144996Y48724D01*
X1919998Y48724D01*
G37*
G36*
X1919998Y348724D02*
G01*
X2144996Y348724D01*
X2144996Y248724D01*
X1919998Y248724D01*
G37*
G36*
X1919998Y548723D02*
G01*
X2144996Y548723D01*
X2144996Y448724D01*
X1919998Y448724D01*
G37*
G36*
X1919998Y748723D02*
G01*
X2144996Y748723D01*
X2144996Y648723D01*
X1919998Y648723D01*
G37*
G36*
X394982Y748723D02*
G01*
X619980Y748723D01*
X619980Y648723D01*
X394982Y648723D01*
G37*
G36*
X394982Y548723D02*
G01*
X619980Y548723D01*
X619980Y448724D01*
X394982Y448724D01*
G37*
G36*
X394982Y348724D02*
G01*
X619980Y348724D01*
X619980Y248724D01*
X394982Y248724D01*
G37*
G36*
X394982Y148724D02*
G01*
X619980Y148724D01*
X619980Y48724D01*
X394982Y48724D01*
G37*
G36*
X394982Y-51274D02*
G01*
X619980Y-51274D01*
X619980Y-151274D01*
X394982Y-151274D01*
G37*
G36*
X394982Y-251274D02*
G01*
X619980Y-251274D01*
X619980Y-351274D01*
X394982Y-351274D01*
G37*
G36*
X394982Y-451274D02*
G01*
X619980Y-451274D01*
X619980Y-551273D01*
X394982Y-551273D01*
G37*
G36*
X394982Y-651273D02*
G01*
X619980Y-651273D01*
X619980Y-751273D01*
X394982Y-751273D01*
G37*
D22*
G01*
X769990Y-851286D03*
G01*
X969990Y-851286D03*
G01*
X1169990Y-851286D03*
G01*
X1369989Y-851286D03*
G01*
X1569989Y-851286D03*
G01*
X1769988Y-851286D03*
D14*
G01*
X2324089Y-801527D03*
G01*
X2324089Y-661522D03*
D23*
G01*
X2284719Y-990605D03*
G01*
X2284719Y-1117605D03*
G01*
X2284719Y-1244605D03*
G01*
X2284719Y-1371605D03*
G01*
X2866379Y-1371605D03*
G01*
X2866379Y-1244605D03*
G01*
X2866379Y-1117605D03*
G01*
X2866379Y-990605D03*
D24*
G01*
X2575549Y-1181105D03*
M02*
