G04 Layer: BottomSolderMaskLayer*
G04 EasyEDA v6.4.25, 2021-11-23T22:35:47+08:00*
G04 b1e9ac58b82e44e2a900f0cbd8408905,45ba98ba689c459a8d72e4540021d05b,10*
G04 Gerber Generator version 0.2*
G04 Scale: 100 percent, Rotated: No, Reflected: No *
G04 Dimensions in millimeters *
G04 leading zeros omitted , absolute positions ,4 integer and 5 decimal *
%FSLAX45Y45*%
%MOMM*%

%ADD36C,1.2032*%
%ADD49C,0.9081*%

%LPD*%
D49*
X2011669Y1477830D02*
G01*
X2011669Y-441523D01*
D36*
X3071314Y416910D02*
G01*
X3221314Y416910D01*
X3071312Y-447095D02*
G01*
X3221314Y-447095D01*
X2652613Y416504D02*
G01*
X2852613Y416504D01*
X2652613Y-447502D02*
G01*
X2852613Y-447502D01*
G36*
X2316723Y-499699D02*
G01*
X2316723Y1510456D01*
X2407655Y1510456D01*
X2407655Y-499699D01*
G37*
G36*
X2530083Y-1007699D02*
G01*
X2530083Y-907623D01*
X2620253Y-907623D01*
X2620253Y-1007699D01*
G37*
G36*
X2670037Y-1007699D02*
G01*
X2670037Y-907623D01*
X2760207Y-907623D01*
X2760207Y-1007699D01*
G37*
G36*
X2559039Y893998D02*
G01*
X2559039Y990518D01*
X2649717Y990518D01*
X2649717Y893998D01*
G37*
G36*
X2709661Y893998D02*
G01*
X2709661Y990518D01*
X2800339Y990518D01*
X2800339Y893998D01*
G37*
G36*
X3057387Y-1007191D02*
G01*
X3057387Y-906861D01*
X3147557Y-906861D01*
X3147557Y-1007191D01*
G37*
G36*
X2917433Y-1007191D02*
G01*
X2917433Y-906861D01*
X3007603Y-906861D01*
X3007603Y-1007191D01*
G37*
G36*
X2897621Y-697565D02*
G01*
X2897621Y-607395D01*
X2987791Y-607395D01*
X2987791Y-697565D01*
G37*
G36*
X3057387Y-698327D02*
G01*
X3057387Y-608157D01*
X3147557Y-608157D01*
X3147557Y-698327D01*
G37*
G36*
X2940801Y607740D02*
G01*
X2940801Y717976D01*
X3041131Y717976D01*
X3041131Y607740D01*
G37*
G36*
X3110981Y607740D02*
G01*
X3110981Y717976D01*
X3211057Y717976D01*
X3211057Y607740D01*
G37*
G36*
X2674609Y-708741D02*
G01*
X2674609Y-612221D01*
X2765287Y-612221D01*
X2765287Y-708741D01*
G37*
G36*
X2523987Y-708741D02*
G01*
X2523987Y-612221D01*
X2614665Y-612221D01*
X2614665Y-708741D01*
G37*
G36*
X2709661Y617138D02*
G01*
X2709661Y713658D01*
X2800339Y713658D01*
X2800339Y617138D01*
G37*
G36*
X2559039Y617138D02*
G01*
X2559039Y713658D01*
X2649717Y713658D01*
X2649717Y617138D01*
G37*
G36*
X894323Y-372953D02*
G01*
X881369Y-367619D01*
X876035Y-354665D01*
X876035Y-330789D01*
X881369Y-317835D01*
X894323Y-312501D01*
X1081521Y-312501D01*
X1094475Y-317835D01*
X1099555Y-330789D01*
X1099555Y-354665D01*
X1094475Y-367619D01*
X1081521Y-372953D01*
G37*
G36*
X894323Y-302849D02*
G01*
X881369Y-297515D01*
X876035Y-284815D01*
X876035Y-260685D01*
X881369Y-247985D01*
X894323Y-242651D01*
X1081521Y-242651D01*
X1094475Y-247985D01*
X1099555Y-260685D01*
X1099555Y-284815D01*
X1094475Y-297515D01*
X1081521Y-302849D01*
G37*
G36*
X894323Y-162895D02*
G01*
X881369Y-157561D01*
X876035Y-144861D01*
X876035Y-120731D01*
X881369Y-108031D01*
X894323Y-102697D01*
X1081521Y-102697D01*
X1094475Y-108031D01*
X1099555Y-120731D01*
X1099555Y-144861D01*
X1094475Y-157561D01*
X1081521Y-162895D01*
G37*
G36*
X894323Y-93045D02*
G01*
X881369Y-87711D01*
X876035Y-74757D01*
X876035Y-50627D01*
X881369Y-37927D01*
X894323Y-32593D01*
X1081521Y-32593D01*
X1094475Y-37927D01*
X1099555Y-50627D01*
X1099555Y-74757D01*
X1094475Y-87711D01*
X1081521Y-93045D01*
G37*
G36*
X894323Y117012D02*
G01*
X881369Y122346D01*
X876035Y135300D01*
X876035Y159176D01*
X881369Y172130D01*
X894323Y177464D01*
X1081521Y177464D01*
X1094475Y172130D01*
X1099555Y159176D01*
X1099555Y135300D01*
X1094475Y122346D01*
X1081521Y117012D01*
G37*
G36*
X894323Y47162D02*
G01*
X881369Y52496D01*
X876035Y65196D01*
X876035Y89326D01*
X881369Y102026D01*
X894323Y107360D01*
X1081521Y107360D01*
X1094475Y102026D01*
X1099555Y89326D01*
X1099555Y65196D01*
X1094475Y52496D01*
X1081521Y47162D01*
G37*
G36*
X894323Y327070D02*
G01*
X881369Y332404D01*
X876035Y345104D01*
X876035Y369234D01*
X881369Y382188D01*
X894323Y387522D01*
X1081521Y387522D01*
X1094475Y382188D01*
X1099555Y369234D01*
X1099555Y345104D01*
X1094475Y332404D01*
X1081521Y327070D01*
G37*
G36*
X894323Y256966D02*
G01*
X881369Y262300D01*
X876035Y275254D01*
X876035Y299384D01*
X881369Y312084D01*
X894323Y317418D01*
X1081521Y317418D01*
X1094475Y312084D01*
X1099555Y299384D01*
X1099555Y275254D01*
X1094475Y262300D01*
X1081521Y256966D01*
G37*
G36*
X894323Y-232999D02*
G01*
X881369Y-227665D01*
X876035Y-214711D01*
X876035Y-190835D01*
X881369Y-177881D01*
X894323Y-172547D01*
X1081521Y-172547D01*
X1094475Y-177881D01*
X1099555Y-190835D01*
X1099555Y-214711D01*
X1094475Y-227665D01*
X1081521Y-232999D01*
G37*
G36*
X894323Y-22941D02*
G01*
X881369Y-17607D01*
X876035Y-4653D01*
X876035Y19222D01*
X881369Y32176D01*
X894323Y37510D01*
X1081521Y37510D01*
X1094475Y32176D01*
X1099555Y19222D01*
X1099555Y-4653D01*
X1094475Y-17607D01*
X1081521Y-22941D01*
G37*
G36*
X894323Y187116D02*
G01*
X881369Y192450D01*
X876035Y205150D01*
X876035Y229280D01*
X881369Y241980D01*
X894323Y247314D01*
X1081521Y247314D01*
X1094475Y241980D01*
X1099555Y229280D01*
X1099555Y205150D01*
X1094475Y192450D01*
X1081521Y187116D01*
G37*
G36*
X894323Y397174D02*
G01*
X881369Y402508D01*
X876035Y415208D01*
X876035Y439338D01*
X881369Y452038D01*
X894323Y457372D01*
X1081521Y457372D01*
X1094475Y452038D01*
X1099555Y439338D01*
X1099555Y415208D01*
X1094475Y402508D01*
X1081521Y397174D01*
G37*
M02*
