G04 Layer: TopSilkLayer*
G04 EasyEDA v6.4.25, 2021-11-23T22:34:31+08:00*
G04 edc2d8422afb4d2cae5fb123c77887e6,45ba98ba689c459a8d72e4540021d05b,10*
G04 Gerber Generator version 0.2*
G04 Scale: 100 percent, Rotated: No, Reflected: No *
G04 Dimensions in millimeters *
G04 leading zeros omitted , absolute positions ,4 integer and 5 decimal *
%FSLAX45Y45*%
%MOMM*%

%ADD10C,0.2540*%
%ADD11C,0.2500*%
%ADD29C,0.1524*%
%ADD30C,0.2000*%
%ADD31C,0.3000*%

%LPD*%
D29*
X1238882Y1746371D02*
G01*
X1228468Y1741037D01*
X1218054Y1730623D01*
X1212974Y1720463D01*
X1212974Y1699635D01*
X1218054Y1689221D01*
X1228468Y1678807D01*
X1238882Y1673473D01*
X1254630Y1668393D01*
X1280538Y1668393D01*
X1296032Y1673473D01*
X1306446Y1678807D01*
X1316860Y1689221D01*
X1321940Y1699635D01*
X1321940Y1720463D01*
X1316860Y1730623D01*
X1306446Y1741037D01*
X1296032Y1746371D01*
X1212974Y1853305D02*
G01*
X1321940Y1801489D01*
X1212974Y1780661D02*
G01*
X1212974Y1853305D01*
X2202977Y239407D02*
G01*
X2197643Y249821D01*
X2187229Y260235D01*
X2177069Y265315D01*
X2156241Y265315D01*
X2145827Y260235D01*
X2135413Y249821D01*
X2130079Y239407D01*
X2124999Y223659D01*
X2124999Y197751D01*
X2130079Y182257D01*
X2135413Y171843D01*
X2145827Y161429D01*
X2156241Y156349D01*
X2177069Y156349D01*
X2187229Y161429D01*
X2197643Y171843D01*
X2202977Y182257D01*
X2237267Y244487D02*
G01*
X2247681Y249821D01*
X2263175Y265315D01*
X2263175Y156349D01*
X2190478Y526907D02*
G01*
X2185144Y537321D01*
X2174730Y547735D01*
X2164570Y552815D01*
X2143742Y552815D01*
X2133328Y547735D01*
X2122914Y537321D01*
X2117580Y526907D01*
X2112500Y511159D01*
X2112500Y485251D01*
X2117580Y469757D01*
X2122914Y459343D01*
X2133328Y448929D01*
X2143742Y443849D01*
X2164570Y443849D01*
X2174730Y448929D01*
X2185144Y459343D01*
X2190478Y469757D01*
X2229848Y526907D02*
G01*
X2229848Y531987D01*
X2235182Y542401D01*
X2240262Y547735D01*
X2250676Y552815D01*
X2271504Y552815D01*
X2281918Y547735D01*
X2286998Y542401D01*
X2292332Y531987D01*
X2292332Y521573D01*
X2286998Y511159D01*
X2276584Y495665D01*
X2224768Y443849D01*
X2297412Y443849D01*
X1315478Y626907D02*
G01*
X1310144Y637321D01*
X1299730Y647735D01*
X1289570Y652815D01*
X1268742Y652815D01*
X1258328Y647735D01*
X1247914Y637321D01*
X1242580Y626907D01*
X1237500Y611159D01*
X1237500Y585251D01*
X1242580Y569757D01*
X1247914Y559343D01*
X1258328Y548929D01*
X1268742Y543849D01*
X1289570Y543849D01*
X1299730Y548929D01*
X1310144Y559343D01*
X1315478Y569757D01*
X1360182Y652815D02*
G01*
X1417332Y652815D01*
X1386090Y611159D01*
X1401584Y611159D01*
X1411998Y606079D01*
X1417332Y600999D01*
X1422412Y585251D01*
X1422412Y574837D01*
X1417332Y559343D01*
X1406918Y548929D01*
X1391170Y543849D01*
X1375676Y543849D01*
X1360182Y548929D01*
X1354848Y554009D01*
X1349768Y564423D01*
X2190478Y1026906D02*
G01*
X2185144Y1037320D01*
X2174730Y1047734D01*
X2164570Y1052814D01*
X2143742Y1052814D01*
X2133328Y1047734D01*
X2122914Y1037320D01*
X2117580Y1026906D01*
X2112500Y1011158D01*
X2112500Y985250D01*
X2117580Y969756D01*
X2122914Y959342D01*
X2133328Y948928D01*
X2143742Y943848D01*
X2164570Y943848D01*
X2174730Y948928D01*
X2185144Y959342D01*
X2190478Y969756D01*
X2276584Y1052814D02*
G01*
X2224768Y980170D01*
X2302746Y980170D01*
X2276584Y1052814D02*
G01*
X2276584Y943848D01*
X2190478Y764407D02*
G01*
X2185144Y774821D01*
X2174730Y785235D01*
X2164570Y790315D01*
X2143742Y790315D01*
X2133328Y785235D01*
X2122914Y774821D01*
X2117580Y764407D01*
X2112500Y748659D01*
X2112500Y722751D01*
X2117580Y707257D01*
X2122914Y696843D01*
X2133328Y686429D01*
X2143742Y681349D01*
X2164570Y681349D01*
X2174730Y686429D01*
X2185144Y696843D01*
X2190478Y707257D01*
X2286998Y790315D02*
G01*
X2235182Y790315D01*
X2229848Y743579D01*
X2235182Y748659D01*
X2250676Y753993D01*
X2266170Y753993D01*
X2281918Y748659D01*
X2292332Y738499D01*
X2297412Y722751D01*
X2297412Y712337D01*
X2292332Y696843D01*
X2281918Y686429D01*
X2266170Y681349D01*
X2250676Y681349D01*
X2235182Y686429D01*
X2229848Y691509D01*
X2224768Y701923D01*
X2177978Y2239408D02*
G01*
X2172644Y2249822D01*
X2162230Y2260236D01*
X2152070Y2265316D01*
X2131242Y2265316D01*
X2120828Y2260236D01*
X2110414Y2249822D01*
X2105080Y2239408D01*
X2100000Y2223660D01*
X2100000Y2197752D01*
X2105080Y2182258D01*
X2110414Y2171844D01*
X2120828Y2161430D01*
X2131242Y2156350D01*
X2152070Y2156350D01*
X2162230Y2161430D01*
X2172644Y2171844D01*
X2177978Y2182258D01*
X2274498Y2249822D02*
G01*
X2269418Y2260236D01*
X2253670Y2265316D01*
X2243510Y2265316D01*
X2227762Y2260236D01*
X2217348Y2244488D01*
X2212268Y2218580D01*
X2212268Y2192672D01*
X2217348Y2171844D01*
X2227762Y2161430D01*
X2243510Y2156350D01*
X2248590Y2156350D01*
X2264084Y2161430D01*
X2274498Y2171844D01*
X2279832Y2187338D01*
X2279832Y2192672D01*
X2274498Y2208166D01*
X2264084Y2218580D01*
X2248590Y2223660D01*
X2243510Y2223660D01*
X2227762Y2218580D01*
X2217348Y2208166D01*
X2212268Y2192672D01*
X1156241Y165315D02*
G01*
X1145827Y160235D01*
X1135413Y149821D01*
X1130079Y139407D01*
X1124999Y123659D01*
X1124999Y97751D01*
X1130079Y82257D01*
X1135413Y71843D01*
X1145827Y61429D01*
X1156241Y56349D01*
X1177069Y56349D01*
X1187229Y61429D01*
X1197643Y71843D01*
X1202977Y82257D01*
X1208057Y97751D01*
X1208057Y123659D01*
X1202977Y139407D01*
X1197643Y149821D01*
X1187229Y160235D01*
X1177069Y165315D01*
X1156241Y165315D01*
X1171735Y76923D02*
G01*
X1202977Y45935D01*
X1242347Y144487D02*
G01*
X1252761Y149821D01*
X1268509Y165315D01*
X1268509Y56349D01*
X1915975Y154063D02*
G01*
X1905561Y148983D01*
X1895147Y138569D01*
X1889813Y128155D01*
X1884733Y112407D01*
X1884733Y86499D01*
X1889813Y71005D01*
X1895147Y60591D01*
X1905561Y50177D01*
X1915975Y45097D01*
X1936803Y45097D01*
X1946963Y50177D01*
X1957377Y60591D01*
X1962711Y71005D01*
X1967791Y86499D01*
X1967791Y112407D01*
X1962711Y128155D01*
X1957377Y138569D01*
X1946963Y148983D01*
X1936803Y154063D01*
X1915975Y154063D01*
X1931469Y65671D02*
G01*
X1962711Y34683D01*
X2007415Y128155D02*
G01*
X2007415Y133235D01*
X2012495Y143649D01*
X2017829Y148983D01*
X2028243Y154063D01*
X2048817Y154063D01*
X2059231Y148983D01*
X2064565Y143649D01*
X2069645Y133235D01*
X2069645Y122821D01*
X2064565Y112407D01*
X2054151Y96913D01*
X2002081Y45097D01*
X2074979Y45097D01*
X481241Y165315D02*
G01*
X470827Y160235D01*
X460413Y149821D01*
X455079Y139407D01*
X449999Y123659D01*
X449999Y97751D01*
X455079Y82257D01*
X460413Y71843D01*
X470827Y61429D01*
X481241Y56349D01*
X502069Y56349D01*
X512229Y61429D01*
X522643Y71843D01*
X527977Y82257D01*
X533057Y97751D01*
X533057Y123659D01*
X527977Y139407D01*
X522643Y149821D01*
X512229Y160235D01*
X502069Y165315D01*
X481241Y165315D01*
X496735Y76923D02*
G01*
X527977Y45935D01*
X577761Y165315D02*
G01*
X634911Y165315D01*
X603669Y123659D01*
X619417Y123659D01*
X629831Y118579D01*
X634911Y113499D01*
X640245Y97751D01*
X640245Y87337D01*
X634911Y71843D01*
X624497Y61429D01*
X609003Y56349D01*
X593509Y56349D01*
X577761Y61429D01*
X572681Y66509D01*
X567347Y76923D01*
X734684Y1875000D02*
G01*
X843650Y1875000D01*
X734684Y1875000D02*
G01*
X734684Y1921736D01*
X739764Y1937230D01*
X745098Y1942564D01*
X755512Y1947644D01*
X765926Y1947644D01*
X776340Y1942564D01*
X781420Y1937230D01*
X786500Y1921736D01*
X786500Y1875000D01*
X786500Y1911322D02*
G01*
X843650Y1947644D01*
X755512Y1981934D02*
G01*
X750178Y1992348D01*
X734684Y2008096D01*
X843650Y2008096D01*
X1495143Y143644D02*
G01*
X1495143Y34678D01*
X1495143Y143644D02*
G01*
X1541879Y143644D01*
X1557373Y138564D01*
X1562707Y133230D01*
X1567787Y122816D01*
X1567787Y112402D01*
X1562707Y101988D01*
X1557373Y96908D01*
X1541879Y91828D01*
X1495143Y91828D01*
X1531465Y91828D02*
G01*
X1567787Y34678D01*
X1607411Y117736D02*
G01*
X1607411Y122816D01*
X1612491Y133230D01*
X1617825Y138564D01*
X1628239Y143644D01*
X1648813Y143644D01*
X1659227Y138564D01*
X1664561Y133230D01*
X1669641Y122816D01*
X1669641Y112402D01*
X1664561Y101988D01*
X1654147Y86494D01*
X1602077Y34678D01*
X1674975Y34678D01*
X1512498Y627816D02*
G01*
X1512498Y518850D01*
X1512498Y627816D02*
G01*
X1559234Y627816D01*
X1574728Y622736D01*
X1580062Y617402D01*
X1585142Y606988D01*
X1585142Y596574D01*
X1580062Y586160D01*
X1574728Y581080D01*
X1559234Y576000D01*
X1512498Y576000D01*
X1548820Y576000D02*
G01*
X1585142Y518850D01*
X1629846Y627816D02*
G01*
X1686996Y627816D01*
X1656008Y586160D01*
X1671502Y586160D01*
X1681916Y581080D01*
X1686996Y576000D01*
X1692330Y560252D01*
X1692330Y549838D01*
X1686996Y534344D01*
X1676582Y523930D01*
X1661088Y518850D01*
X1645594Y518850D01*
X1629846Y523930D01*
X1624766Y529010D01*
X1619432Y539424D01*
X2124999Y1565315D02*
G01*
X2124999Y1456349D01*
X2124999Y1565315D02*
G01*
X2171735Y1565315D01*
X2187229Y1560235D01*
X2192563Y1554901D01*
X2197643Y1544487D01*
X2197643Y1534073D01*
X2192563Y1523659D01*
X2187229Y1518579D01*
X2171735Y1513499D01*
X2124999Y1513499D01*
X2161321Y1513499D02*
G01*
X2197643Y1456349D01*
X2284003Y1565315D02*
G01*
X2231933Y1492671D01*
X2309911Y1492671D01*
X2284003Y1565315D02*
G01*
X2284003Y1456349D01*
X2124999Y1265316D02*
G01*
X2124999Y1156350D01*
X2124999Y1265316D02*
G01*
X2171735Y1265316D01*
X2187229Y1260236D01*
X2192563Y1254902D01*
X2197643Y1244488D01*
X2197643Y1234074D01*
X2192563Y1223660D01*
X2187229Y1218580D01*
X2171735Y1213500D01*
X2124999Y1213500D01*
X2161321Y1213500D02*
G01*
X2197643Y1156350D01*
X2294417Y1265316D02*
G01*
X2242347Y1265316D01*
X2237267Y1218580D01*
X2242347Y1223660D01*
X2258095Y1228994D01*
X2273589Y1228994D01*
X2289083Y1223660D01*
X2299497Y1213500D01*
X2304831Y1197752D01*
X2304831Y1187338D01*
X2299497Y1171844D01*
X2289083Y1161430D01*
X2273589Y1156350D01*
X2258095Y1156350D01*
X2242347Y1161430D01*
X2237267Y1166510D01*
X2231933Y1176924D01*
X2124999Y1765315D02*
G01*
X2124999Y1656349D01*
X2124999Y1765315D02*
G01*
X2171735Y1765315D01*
X2187229Y1760235D01*
X2192563Y1754901D01*
X2197643Y1744487D01*
X2197643Y1734073D01*
X2192563Y1723659D01*
X2187229Y1718579D01*
X2171735Y1713499D01*
X2124999Y1713499D01*
X2161321Y1713499D02*
G01*
X2197643Y1656349D01*
X2294417Y1749821D02*
G01*
X2289083Y1760235D01*
X2273589Y1765315D01*
X2263175Y1765315D01*
X2247681Y1760235D01*
X2237267Y1744487D01*
X2231933Y1718579D01*
X2231933Y1692671D01*
X2237267Y1671843D01*
X2247681Y1661429D01*
X2263175Y1656349D01*
X2268509Y1656349D01*
X2284003Y1661429D01*
X2294417Y1671843D01*
X2299497Y1687337D01*
X2299497Y1692671D01*
X2294417Y1708165D01*
X2284003Y1718579D01*
X2268509Y1723659D01*
X2263175Y1723659D01*
X2247681Y1718579D01*
X2237267Y1708165D01*
X2231933Y1692671D01*
X755591Y1074244D02*
G01*
X864557Y1074244D01*
X755591Y1074244D02*
G01*
X755591Y1120980D01*
X760671Y1136474D01*
X766005Y1141808D01*
X776419Y1146888D01*
X786833Y1146888D01*
X797247Y1141808D01*
X802327Y1136474D01*
X807407Y1120980D01*
X807407Y1074244D01*
X807407Y1110566D02*
G01*
X864557Y1146888D01*
X755591Y1254076D02*
G01*
X864557Y1202006D01*
X755591Y1181178D02*
G01*
X755591Y1254076D01*
X1825000Y665314D02*
G01*
X1825000Y556348D01*
X1825000Y665314D02*
G01*
X1871736Y665314D01*
X1887230Y660234D01*
X1892564Y654900D01*
X1897644Y644486D01*
X1897644Y634072D01*
X1892564Y623658D01*
X1887230Y618578D01*
X1871736Y613498D01*
X1825000Y613498D01*
X1861322Y613498D02*
G01*
X1897644Y556348D01*
X1958096Y665314D02*
G01*
X1942348Y660234D01*
X1937268Y649820D01*
X1937268Y639406D01*
X1942348Y628992D01*
X1952762Y623658D01*
X1973590Y618578D01*
X1989084Y613498D01*
X1999498Y603084D01*
X2004832Y592670D01*
X2004832Y576922D01*
X1999498Y566508D01*
X1994418Y561428D01*
X1978670Y556348D01*
X1958096Y556348D01*
X1942348Y561428D01*
X1937268Y566508D01*
X1931934Y576922D01*
X1931934Y592670D01*
X1937268Y603084D01*
X1947682Y613498D01*
X1963176Y618578D01*
X1984004Y623658D01*
X1994418Y628992D01*
X1999498Y639406D01*
X1999498Y649820D01*
X1994418Y660234D01*
X1978670Y665314D01*
X1958096Y665314D01*
X1207772Y873597D02*
G01*
X1316738Y873597D01*
X1207772Y873597D02*
G01*
X1207772Y920333D01*
X1212852Y935827D01*
X1218186Y941161D01*
X1228600Y946241D01*
X1239014Y946241D01*
X1249428Y941161D01*
X1254508Y935827D01*
X1259588Y920333D01*
X1259588Y873597D01*
X1259588Y909919D02*
G01*
X1316738Y946241D01*
X1244094Y1048095D02*
G01*
X1259588Y1043015D01*
X1270002Y1032601D01*
X1275336Y1017107D01*
X1275336Y1011773D01*
X1270002Y996279D01*
X1259588Y985865D01*
X1244094Y980531D01*
X1239014Y980531D01*
X1223266Y985865D01*
X1212852Y996279D01*
X1207772Y1011773D01*
X1207772Y1017107D01*
X1212852Y1032601D01*
X1223266Y1043015D01*
X1244094Y1048095D01*
X1270002Y1048095D01*
X1296164Y1043015D01*
X1311658Y1032601D01*
X1316738Y1017107D01*
X1316738Y1006693D01*
X1311658Y990945D01*
X1301244Y985865D01*
X1200477Y1244158D02*
G01*
X1309443Y1244158D01*
X1200477Y1244158D02*
G01*
X1200477Y1290894D01*
X1205557Y1306388D01*
X1210891Y1311722D01*
X1221305Y1316802D01*
X1231719Y1316802D01*
X1242133Y1311722D01*
X1247213Y1306388D01*
X1252293Y1290894D01*
X1252293Y1244158D01*
X1252293Y1280480D02*
G01*
X1309443Y1316802D01*
X1221305Y1351092D02*
G01*
X1215971Y1361506D01*
X1200477Y1377254D01*
X1309443Y1377254D01*
X1200477Y1442532D02*
G01*
X1205557Y1427038D01*
X1221305Y1416624D01*
X1247213Y1411544D01*
X1262707Y1411544D01*
X1288869Y1416624D01*
X1304363Y1427038D01*
X1309443Y1442532D01*
X1309443Y1452946D01*
X1304363Y1468694D01*
X1288869Y1479108D01*
X1262707Y1484188D01*
X1247213Y1484188D01*
X1221305Y1479108D01*
X1205557Y1468694D01*
X1200477Y1452946D01*
X1200477Y1442532D01*
X734684Y1449999D02*
G01*
X843650Y1449999D01*
X734684Y1449999D02*
G01*
X734684Y1496735D01*
X739764Y1512229D01*
X745098Y1517563D01*
X755512Y1522643D01*
X765926Y1522643D01*
X776340Y1517563D01*
X781420Y1512229D01*
X786500Y1496735D01*
X786500Y1449999D01*
X786500Y1486321D02*
G01*
X843650Y1522643D01*
X755512Y1556933D02*
G01*
X750178Y1567347D01*
X734684Y1583095D01*
X843650Y1583095D01*
X755512Y1617385D02*
G01*
X750178Y1627799D01*
X734684Y1643293D01*
X843650Y1643293D01*
X2050000Y1990316D02*
G01*
X2050000Y1881350D01*
X2050000Y1990316D02*
G01*
X2096736Y1990316D01*
X2112230Y1985236D01*
X2117564Y1979902D01*
X2122644Y1969488D01*
X2122644Y1959074D01*
X2117564Y1948660D01*
X2112230Y1943580D01*
X2096736Y1938500D01*
X2050000Y1938500D01*
X2086322Y1938500D02*
G01*
X2122644Y1881350D01*
X2156934Y1969488D02*
G01*
X2167348Y1974822D01*
X2183096Y1990316D01*
X2183096Y1881350D01*
X2222466Y1964408D02*
G01*
X2222466Y1969488D01*
X2227800Y1979902D01*
X2232880Y1985236D01*
X2243294Y1990316D01*
X2264122Y1990316D01*
X2274536Y1985236D01*
X2279616Y1979902D01*
X2284950Y1969488D01*
X2284950Y1959074D01*
X2279616Y1948660D01*
X2269202Y1933166D01*
X2217386Y1881350D01*
X2290030Y1881350D01*
X765530Y615820D02*
G01*
X874496Y615820D01*
X765530Y615820D02*
G01*
X765530Y662556D01*
X770610Y678050D01*
X775944Y683384D01*
X786358Y688464D01*
X796772Y688464D01*
X807186Y683384D01*
X812266Y678050D01*
X817346Y662556D01*
X817346Y615820D01*
X817346Y652142D02*
G01*
X874496Y688464D01*
X786358Y722754D02*
G01*
X781024Y733168D01*
X765530Y748916D01*
X874496Y748916D01*
X765530Y793620D02*
G01*
X765530Y850770D01*
X807186Y819528D01*
X807186Y835022D01*
X812266Y845436D01*
X817346Y850770D01*
X833094Y855850D01*
X843508Y855850D01*
X859002Y850770D01*
X869416Y840356D01*
X874496Y824608D01*
X874496Y809114D01*
X869416Y793620D01*
X864336Y788286D01*
X853922Y783206D01*
X791608Y177020D02*
G01*
X791608Y68054D01*
X791608Y177020D02*
G01*
X838344Y177020D01*
X853838Y171940D01*
X859172Y166606D01*
X864252Y156192D01*
X864252Y145778D01*
X859172Y135364D01*
X853838Y130284D01*
X838344Y125204D01*
X791608Y125204D01*
X827930Y125204D02*
G01*
X864252Y68054D01*
X898542Y156192D02*
G01*
X908956Y161526D01*
X924704Y177020D01*
X924704Y68054D01*
X1010810Y177020D02*
G01*
X958994Y104376D01*
X1036718Y104376D01*
X1010810Y177020D02*
G01*
X1010810Y68054D01*
X3259683Y1399999D02*
G01*
X3337661Y1399999D01*
X3353155Y1405079D01*
X3363569Y1415493D01*
X3368649Y1431241D01*
X3368649Y1441655D01*
X3363569Y1457149D01*
X3353155Y1467563D01*
X3337661Y1472643D01*
X3259683Y1472643D01*
X3285591Y1512267D02*
G01*
X3280511Y1512267D01*
X3270097Y1517347D01*
X3264763Y1522681D01*
X3259683Y1533095D01*
X3259683Y1553669D01*
X3264763Y1564083D01*
X3270097Y1569417D01*
X3280511Y1574497D01*
X3290925Y1574497D01*
X3301339Y1569417D01*
X3316833Y1559003D01*
X3368649Y1506933D01*
X3368649Y1579831D01*
X2999999Y540316D02*
G01*
X2999999Y462338D01*
X3005079Y446844D01*
X3015493Y436430D01*
X3031241Y431350D01*
X3041655Y431350D01*
X3057149Y436430D01*
X3067563Y446844D01*
X3072643Y462338D01*
X3072643Y540316D01*
X3117347Y540316D02*
G01*
X3174497Y540316D01*
X3143509Y498660D01*
X3159003Y498660D01*
X3169417Y493580D01*
X3174497Y488500D01*
X3179831Y472752D01*
X3179831Y462338D01*
X3174497Y446844D01*
X3164083Y436430D01*
X3148589Y431350D01*
X3133095Y431350D01*
X3117347Y436430D01*
X3112267Y441510D01*
X3106933Y451924D01*
X1621711Y2021944D02*
G01*
X1621711Y1943966D01*
X1626791Y1928472D01*
X1637205Y1918058D01*
X1652953Y1912978D01*
X1663367Y1912978D01*
X1678861Y1918058D01*
X1689275Y1928472D01*
X1694355Y1943966D01*
X1694355Y2021944D01*
X1780715Y2021944D02*
G01*
X1728645Y1949300D01*
X1806623Y1949300D01*
X1780715Y2021944D02*
G01*
X1780715Y1912978D01*
X345937Y2139561D02*
G01*
X345937Y2061583D01*
X351017Y2046089D01*
X361431Y2035675D01*
X377179Y2030595D01*
X387593Y2030595D01*
X403087Y2035675D01*
X413501Y2046089D01*
X418581Y2061583D01*
X418581Y2139561D01*
X515355Y2139561D02*
G01*
X463285Y2139561D01*
X458205Y2092825D01*
X463285Y2097905D01*
X479033Y2103239D01*
X494527Y2103239D01*
X510021Y2097905D01*
X520435Y2087745D01*
X525769Y2071997D01*
X525769Y2061583D01*
X520435Y2046089D01*
X510021Y2035675D01*
X494527Y2030595D01*
X479033Y2030595D01*
X463285Y2035675D01*
X458205Y2040755D01*
X452871Y2051169D01*
D10*
X623671Y2008609D02*
G01*
X630598Y1994753D01*
X651380Y1973973D01*
X505907Y1973973D01*
X626079Y974989D02*
G01*
X633006Y961133D01*
X653788Y940351D01*
X508314Y940351D01*
X619152Y887704D02*
G01*
X626079Y887704D01*
X639935Y880778D01*
X646861Y873851D01*
X653788Y859995D01*
X653788Y832286D01*
X646861Y818431D01*
X639935Y811504D01*
X626079Y804578D01*
X612223Y804578D01*
X598370Y811504D01*
X577588Y825360D01*
X508314Y894631D01*
X508314Y797651D01*
D11*
X650001Y1000000D02*
G01*
X199999Y1000000D01*
X149999Y950000D01*
X149999Y399999D01*
X99999Y349999D01*
X-199999Y349999D01*
X-199999Y2250000D02*
G01*
X149999Y2250000D01*
X249999Y2150000D01*
X249999Y2000001D01*
X349999Y1900001D01*
X650001Y1900001D01*
D10*
X1189001Y1789976D02*
G01*
X1189001Y1709973D01*
X1078026Y1820961D02*
G01*
X1158024Y1820961D01*
X1078026Y1678995D02*
G01*
X1158024Y1678995D01*
X1020437Y1821543D02*
G01*
X940437Y1821543D01*
X909454Y1790560D02*
G01*
X909454Y1710562D01*
X1020437Y1679582D02*
G01*
X940437Y1679582D01*
X2589001Y289976D02*
G01*
X2589001Y209974D01*
X2478026Y320962D02*
G01*
X2558023Y320962D01*
X2478026Y178996D02*
G01*
X2558023Y178996D01*
X2420437Y321543D02*
G01*
X2340437Y321543D01*
X2309454Y290560D02*
G01*
X2309454Y210563D01*
X2420437Y179583D02*
G01*
X2340437Y179583D01*
X2310998Y460021D02*
G01*
X2310998Y540024D01*
X2421973Y429036D02*
G01*
X2341976Y429036D01*
X2421973Y571002D02*
G01*
X2341976Y571002D01*
X2479563Y428454D02*
G01*
X2559563Y428454D01*
X2590545Y459437D02*
G01*
X2590545Y539435D01*
X2479563Y570415D02*
G01*
X2559563Y570415D01*
X1639001Y789978D02*
G01*
X1639001Y709975D01*
X1528025Y820963D02*
G01*
X1608023Y820963D01*
X1528025Y678997D02*
G01*
X1608023Y678997D01*
X1470436Y821545D02*
G01*
X1390436Y821545D01*
X1359453Y790562D02*
G01*
X1359453Y710564D01*
X1470436Y679584D02*
G01*
X1390436Y679584D01*
X2589001Y1039977D02*
G01*
X2589001Y959975D01*
X2478026Y1070963D02*
G01*
X2558023Y1070963D01*
X2478026Y928997D02*
G01*
X2558023Y928997D01*
X2420437Y1071544D02*
G01*
X2340437Y1071544D01*
X2309454Y1040561D02*
G01*
X2309454Y960564D01*
X2420437Y929584D02*
G01*
X2340437Y929584D01*
X2310998Y710023D02*
G01*
X2310998Y790026D01*
X2421973Y679038D02*
G01*
X2341976Y679038D01*
X2421973Y821004D02*
G01*
X2341976Y821004D01*
X2479563Y678456D02*
G01*
X2559563Y678456D01*
X2590545Y709439D02*
G01*
X2590545Y789437D01*
X2479563Y820417D02*
G01*
X2559563Y820417D01*
X2589001Y2239977D02*
G01*
X2589001Y2159975D01*
X2478026Y2270963D02*
G01*
X2558023Y2270963D01*
X2478026Y2128997D02*
G01*
X2558023Y2128997D01*
X2420437Y2271544D02*
G01*
X2340437Y2271544D01*
X2309454Y2240561D02*
G01*
X2309454Y2160564D01*
X2420437Y2129584D02*
G01*
X2340437Y2129584D01*
D29*
X1272621Y502620D02*
G01*
X1127379Y502620D01*
X1127379Y399458D01*
X1272621Y197378D02*
G01*
X1127379Y197378D01*
X1127379Y300540D01*
X1272621Y395538D02*
G01*
X1272621Y304459D01*
X1927379Y197378D02*
G01*
X2072622Y197378D01*
X2072622Y300540D01*
X1927379Y502620D02*
G01*
X2072622Y502620D01*
X2072622Y399458D01*
X1927379Y304459D02*
G01*
X1927379Y395538D01*
D30*
X616488Y314703D02*
G01*
X616488Y374693D01*
D10*
X543006Y198696D02*
G01*
X461497Y198696D01*
X461497Y264690D01*
X461497Y424705D02*
G01*
X461497Y490697D01*
X461497Y424705D01*
X461497Y490697D01*
X543006Y490697D01*
D29*
X1092621Y1883940D02*
G01*
X1188509Y1883940D01*
X1188509Y2016061D01*
X1092621Y2016061D01*
X1007379Y1883940D02*
G01*
X911491Y1883940D01*
X911491Y2016061D01*
X1007379Y2016061D01*
X1557378Y316059D02*
G01*
X1461490Y316059D01*
X1461490Y183939D01*
X1557378Y183939D01*
X1642620Y316059D02*
G01*
X1738508Y316059D01*
X1738508Y183939D01*
X1642620Y183939D01*
X1642620Y383938D02*
G01*
X1738508Y383938D01*
X1738508Y516059D01*
X1642620Y516059D01*
X1557378Y383938D02*
G01*
X1461490Y383938D01*
X1461490Y516059D01*
X1557378Y516059D01*
X2407378Y1566059D02*
G01*
X2311491Y1566059D01*
X2311491Y1433939D01*
X2407378Y1433939D01*
X2492621Y1566059D02*
G01*
X2588508Y1566059D01*
X2588508Y1433939D01*
X2492621Y1433939D01*
X2492621Y1133939D02*
G01*
X2588508Y1133939D01*
X2588508Y1266060D01*
X2492621Y1266060D01*
X2407378Y1133939D02*
G01*
X2311491Y1133939D01*
X2311491Y1266060D01*
X2407378Y1266060D01*
X2407378Y1766059D02*
G01*
X2311491Y1766059D01*
X2311491Y1633938D01*
X2407378Y1633938D01*
X2492621Y1766059D02*
G01*
X2588508Y1766059D01*
X2588508Y1633938D01*
X2492621Y1633938D01*
X1007379Y1216060D02*
G01*
X911491Y1216060D01*
X911491Y1083939D01*
X1007379Y1083939D01*
X1092621Y1216060D02*
G01*
X1188509Y1216060D01*
X1188509Y1083939D01*
X1092621Y1083939D01*
X1942622Y683940D02*
G01*
X2038510Y683940D01*
X2038510Y816061D01*
X1942622Y816061D01*
X1857380Y683940D02*
G01*
X1761492Y683940D01*
X1761492Y816061D01*
X1857380Y816061D01*
X1007379Y1016060D02*
G01*
X911491Y1016060D01*
X911491Y883940D01*
X1007379Y883940D01*
X1092621Y1016060D02*
G01*
X1188509Y1016060D01*
X1188509Y883940D01*
X1092621Y883940D01*
X1007379Y1416060D02*
G01*
X911491Y1416060D01*
X911491Y1283939D01*
X1007379Y1283939D01*
X1092621Y1416060D02*
G01*
X1188509Y1416060D01*
X1188509Y1283939D01*
X1092621Y1283939D01*
X1007379Y1616059D02*
G01*
X911491Y1616059D01*
X911491Y1483939D01*
X1007379Y1483939D01*
X1092621Y1616059D02*
G01*
X1188509Y1616059D01*
X1188509Y1483939D01*
X1092621Y1483939D01*
X2407378Y2016061D02*
G01*
X2311491Y2016061D01*
X2311491Y1883940D01*
X2407378Y1883940D01*
X2492621Y2016061D02*
G01*
X2588508Y2016061D01*
X2588508Y1883940D01*
X2492621Y1883940D01*
X1007379Y816061D02*
G01*
X911491Y816061D01*
X911491Y683940D01*
X1007379Y683940D01*
X1092621Y816061D02*
G01*
X1188509Y816061D01*
X1188509Y683940D01*
X1092621Y683940D01*
X966061Y392620D02*
G01*
X966061Y488508D01*
X833940Y488508D01*
X833940Y392620D01*
X966061Y307378D02*
G01*
X966061Y211490D01*
X833940Y211490D01*
X833940Y307378D01*
D10*
X3199998Y1899998D02*
G01*
X3047723Y1899998D01*
X3601499Y1900001D02*
G01*
X3462964Y1900001D01*
X3462964Y999997D02*
G01*
X3601499Y999997D01*
X3601499Y1900001D01*
X3057786Y1000000D02*
G01*
X3210062Y1000000D01*
D29*
X3257141Y832619D02*
G01*
X3257141Y167378D01*
X2962861Y167378D01*
X2962861Y832619D01*
X3257141Y832619D01*
X1877138Y867382D02*
G01*
X1522859Y867382D01*
X1522859Y1882620D01*
X1877138Y1882620D01*
X1877138Y867382D01*
D10*
G75*
G01*
X909450Y1790560D02*
G02*
X940432Y1821543I30982J0D01*
G75*
G01*
X940432Y1679578D02*
G02*
X909450Y1710563I0J30982D01*
G75*
G01*
X1158019Y1820962D02*
G02*
X1189002Y1789976I0J-30983D01*
G75*
G01*
X1189002Y1709979D02*
G02*
X1158019Y1678996I-30983J0D01*
G75*
G01*
X2309449Y290561D02*
G02*
X2340432Y321544I30983J0D01*
G75*
G01*
X2340432Y179578D02*
G02*
X2309449Y210563I0J30983D01*
G75*
G01*
X2558019Y320962D02*
G02*
X2589002Y289977I0J-30983D01*
G75*
G01*
X2589002Y209979D02*
G02*
X2558019Y178996I-30983J0D01*
G75*
G01*
X2590551Y459438D02*
G02*
X2559568Y428455I-30983J0D01*
G75*
G01*
X2559568Y570420D02*
G02*
X2590551Y539435I0J-30982D01*
G75*
G01*
X2341982Y429036D02*
G02*
X2310999Y460022I0J30983D01*
G75*
G01*
X2310999Y540019D02*
G02*
X2341982Y571002I30983J0D01*
G75*
G01*
X1359449Y790562D02*
G02*
X1390432Y821545I30983J0D01*
G75*
G01*
X1390432Y679580D02*
G02*
X1359449Y710565I0J30982D01*
G75*
G01*
X1608018Y820964D02*
G02*
X1639001Y789978I0J-30983D01*
G75*
G01*
X1639001Y709981D02*
G02*
X1608018Y678998I-30983J0D01*
G75*
G01*
X2309449Y1040562D02*
G02*
X2340432Y1071545I30983J0D01*
G75*
G01*
X2340432Y929579D02*
G02*
X2309449Y960565I0J30983D01*
G75*
G01*
X2558019Y1070963D02*
G02*
X2589002Y1039978I0J-30983D01*
G75*
G01*
X2589002Y959980D02*
G02*
X2558019Y928997I-30983J0D01*
G75*
G01*
X2590551Y709440D02*
G02*
X2559568Y678457I-30983J0D01*
G75*
G01*
X2559568Y820423D02*
G02*
X2590551Y789437I0J-30983D01*
G75*
G01*
X2341982Y679039D02*
G02*
X2310999Y710024I0J30982D01*
G75*
G01*
X2310999Y790021D02*
G02*
X2341982Y821004I30983J0D01*
G75*
G01*
X2309449Y2240562D02*
G02*
X2340432Y2271545I30983J0D01*
G75*
G01*
X2340432Y2129579D02*
G02*
X2309449Y2160565I0J30983D01*
G75*
G01*
X2558019Y2270963D02*
G02*
X2589002Y2239978I0J-30983D01*
G75*
G01*
X2589002Y2159980D02*
G02*
X2558019Y2128998I-30983J0D01*
D31*
G75*
G01
X1816913Y930504D02*
G03X1816913Y930504I-15011J0D01*
G75*
G01
X2002257Y857275D02*
G03X2002257Y857275I-15011J0D01*
M02*
