G04 Layer: TopSolderMaskLayer*
G04 EasyEDA v6.4.25, 2021-11-23T22:34:31+08:00*
G04 edc2d8422afb4d2cae5fb123c77887e6,45ba98ba689c459a8d72e4540021d05b,10*
G04 Gerber Generator version 0.2*
G04 Scale: 100 percent, Rotated: No, Reflected: No *
G04 Dimensions in millimeters *
G04 leading zeros omitted , absolute positions ,4 integer and 5 decimal *
%FSLAX45Y45*%
%MOMM*%

%ADD33C,1.3500*%
%ADD34C,1.5000*%
%ADD35C,0.6616*%

%LPD*%
G36*
X3075533Y2852216D02*
G01*
X3054858Y2852013D01*
X3038144Y2851454D01*
X3027476Y2850540D01*
X3024987Y2849981D01*
X3022600Y2848762D01*
X3020517Y2847238D01*
X3018739Y2845206D01*
X3017215Y2842717D01*
X3015945Y2839516D01*
X3014929Y2835656D01*
X3014116Y2830982D01*
X3013049Y2818790D01*
X3012592Y2802280D01*
X3012592Y2781554D01*
X3013049Y2765044D01*
X3014167Y2753664D01*
X3014980Y2749448D01*
X3015996Y2745994D01*
X3017266Y2743098D01*
X3018282Y2741422D01*
X3022650Y2736138D01*
X3029610Y2728518D01*
X3049270Y2708503D01*
X3061055Y2697073D01*
X3112566Y2648661D01*
X3112566Y2591155D01*
X3056686Y2591155D01*
X3056686Y2649982D01*
X3012541Y2649982D01*
X3012490Y2593543D01*
X3012694Y2581198D01*
X3012998Y2576169D01*
X3013608Y2571800D01*
X3014472Y2568041D01*
X3015691Y2564841D01*
X3017367Y2562199D01*
X3019501Y2560015D01*
X3022193Y2558288D01*
X3025495Y2556865D01*
X3029458Y2555849D01*
X3034182Y2555087D01*
X3039668Y2554528D01*
X3053232Y2553919D01*
X3114243Y2553106D01*
X3127552Y2553309D01*
X3135833Y2554071D01*
X3138678Y2554782D01*
X3140964Y2555646D01*
X3144774Y2558186D01*
X3149498Y2562301D01*
X3151632Y2564688D01*
X3153156Y2567432D01*
X3154222Y2571191D01*
X3154984Y2576423D01*
X3155797Y2593644D01*
X3156305Y2615031D01*
X3156153Y2630982D01*
X3155543Y2644749D01*
X3154578Y2654808D01*
X3153918Y2658008D01*
X3152089Y2662783D01*
X3150616Y2665476D01*
X3146348Y2671622D01*
X3140049Y2679141D01*
X3131464Y2688437D01*
X3120136Y2699816D01*
X3088182Y2730296D01*
X3056686Y2759557D01*
X3056686Y2814675D01*
X3112566Y2814675D01*
X3112566Y2758795D01*
X3157220Y2758795D01*
X3155848Y2813405D01*
X3155289Y2825242D01*
X3154781Y2830118D01*
X3154070Y2834335D01*
X3153054Y2837992D01*
X3151733Y2841040D01*
X3149955Y2843631D01*
X3147720Y2845765D01*
X3144977Y2847492D01*
X3141675Y2848813D01*
X3137662Y2849880D01*
X3132988Y2850642D01*
X3121253Y2851556D01*
G37*
G36*
X3191967Y2850337D02*
G01*
X3191967Y2811780D01*
X3256838Y2811780D01*
X3265373Y2811526D01*
X3273094Y2810916D01*
X3279292Y2810002D01*
X3283000Y2808884D01*
X3285388Y2807004D01*
X3287776Y2804109D01*
X3289960Y2800502D01*
X3291636Y2796692D01*
X3292094Y2794863D01*
X3292856Y2787954D01*
X3294024Y2763672D01*
X3294684Y2729992D01*
X3294938Y2692247D01*
X3294634Y2655925D01*
X3293821Y2626512D01*
X3293211Y2616098D01*
X3292500Y2609392D01*
X3292094Y2607665D01*
X3290112Y2603906D01*
X3287318Y2600604D01*
X3283661Y2597759D01*
X3279190Y2595422D01*
X3273958Y2593594D01*
X3267964Y2592222D01*
X3261258Y2591409D01*
X3253841Y2591155D01*
X3236061Y2591155D01*
X3236061Y2811780D01*
X3191967Y2811780D01*
X3191967Y2552293D01*
X3254349Y2553716D01*
X3271774Y2554427D01*
X3285642Y2555443D01*
X3291484Y2556103D01*
X3301187Y2557932D01*
X3305200Y2559100D01*
X3308858Y2560472D01*
X3312109Y2562047D01*
X3317849Y2565908D01*
X3323031Y2570886D01*
X3327044Y2575661D01*
X3329686Y2579573D01*
X3331921Y2584094D01*
X3333750Y2589479D01*
X3335274Y2596032D01*
X3336442Y2604058D01*
X3337356Y2613761D01*
X3338017Y2625547D01*
X3338677Y2656179D01*
X3338474Y2710891D01*
X3337814Y2765450D01*
X3337356Y2783078D01*
X3336747Y2795828D01*
X3335883Y2804769D01*
X3334715Y2811119D01*
X3333089Y2815996D01*
X3330956Y2820568D01*
X3327552Y2826308D01*
X3323132Y2832100D01*
X3318306Y2837281D01*
X3313531Y2841142D01*
X3308705Y2844190D01*
X3306318Y2845308D01*
X3303625Y2846273D01*
X3300425Y2847035D01*
X3296564Y2847644D01*
X3285947Y2848457D01*
X3270097Y2849016D01*
G37*
G36*
X3413099Y2849981D02*
G01*
X3397707Y2849778D01*
X3387750Y2848914D01*
X3384194Y2848102D01*
X3381248Y2847035D01*
X3378657Y2845663D01*
X3376168Y2843885D01*
X3371951Y2839974D01*
X3369614Y2835351D01*
X3368649Y2827985D01*
X3368446Y2815945D01*
X3368446Y2794101D01*
X3394557Y2794101D01*
X3396386Y2822041D01*
X3425799Y2822041D01*
X3426866Y2803956D01*
X3426714Y2800197D01*
X3426053Y2796743D01*
X3424732Y2793238D01*
X3422497Y2789377D01*
X3419246Y2784652D01*
X3393541Y2752344D01*
X3382162Y2737561D01*
X3374136Y2726486D01*
X3369005Y2718257D01*
X3367379Y2715056D01*
X3366262Y2712313D01*
X3365652Y2709926D01*
X3365500Y2699969D01*
X3456686Y2699969D01*
X3456686Y2726436D01*
X3424021Y2726588D01*
X3416503Y2727045D01*
X3411474Y2727655D01*
X3409594Y2728366D01*
X3411423Y2731312D01*
X3416300Y2737967D01*
X3432403Y2758338D01*
X3455212Y2786380D01*
X3456635Y2824276D01*
X3455974Y2832455D01*
X3453892Y2837738D01*
X3449726Y2842463D01*
X3447287Y2844800D01*
X3444900Y2846628D01*
X3442258Y2847949D01*
X3439007Y2848864D01*
X3434842Y2849473D01*
X3429355Y2849829D01*
G37*
G36*
X2857398Y2849981D02*
G01*
X2854706Y2849270D01*
X2851302Y2847390D01*
X2847543Y2844596D01*
X2840431Y2837738D01*
X2837230Y2834944D01*
X2834589Y2833065D01*
X2831846Y2831744D01*
X2830982Y2830068D01*
X2830423Y2827629D01*
X2830169Y2824632D01*
X2830322Y2820365D01*
X2831185Y2818638D01*
X2833319Y2819146D01*
X2840380Y2823565D01*
X2845054Y2826105D01*
X2846273Y2826461D01*
X2846882Y2824276D01*
X2847390Y2818231D01*
X2847848Y2798521D01*
X2847949Y2782417D01*
X2848762Y2774086D01*
X2850946Y2771038D01*
X2855163Y2770581D01*
X2862529Y2770581D01*
X2862529Y2822295D01*
X2862122Y2838602D01*
X2861716Y2843580D01*
X2861056Y2846882D01*
X2860141Y2848813D01*
X2858922Y2849778D01*
G37*
G36*
X2815894Y2849727D02*
G01*
X2810357Y2849473D01*
X2805734Y2848203D01*
X2802178Y2844596D01*
X2798622Y2836722D01*
X2790393Y2812796D01*
X2787294Y2804617D01*
X2784805Y2799080D01*
X2783382Y2797048D01*
X2781909Y2799080D01*
X2779369Y2804617D01*
X2776169Y2812796D01*
X2767685Y2836621D01*
X2763977Y2844495D01*
X2760370Y2848203D01*
X2755849Y2849473D01*
X2752750Y2849676D01*
X2750159Y2849524D01*
X2748483Y2849067D01*
X2747822Y2848356D01*
X2748889Y2844596D01*
X2756154Y2823311D01*
X2769158Y2787345D01*
X2771952Y2780639D01*
X2774238Y2776016D01*
X2776270Y2773070D01*
X2778252Y2771444D01*
X2780487Y2770733D01*
X2783078Y2770581D01*
X2787599Y2771140D01*
X2790901Y2773578D01*
X2793949Y2779115D01*
X2816250Y2840329D01*
X2817825Y2847390D01*
G37*
G36*
X2943250Y2849626D02*
G01*
X2937459Y2849168D01*
X2931820Y2847390D01*
X2926537Y2844190D01*
X2923540Y2841447D01*
X2920847Y2838348D01*
X2918764Y2835198D01*
X2917596Y2832404D01*
X2917139Y2829407D01*
X2917901Y2827578D01*
X2920288Y2826715D01*
X2924556Y2826461D01*
X2928162Y2826766D01*
X2930855Y2827528D01*
X2932531Y2828848D01*
X2933141Y2830576D01*
X2935833Y2835198D01*
X2941828Y2836976D01*
X2947974Y2835706D01*
X2951124Y2831287D01*
X2951022Y2825445D01*
X2948940Y2819806D01*
X2944215Y2813202D01*
X2931312Y2799181D01*
X2923489Y2789936D01*
X2920593Y2785922D01*
X2918358Y2782316D01*
X2916783Y2779064D01*
X2915818Y2776220D01*
X2915462Y2773730D01*
X2917291Y2772359D01*
X2922473Y2771394D01*
X2930855Y2770784D01*
X2942132Y2770581D01*
X2957271Y2770682D01*
X2965094Y2771444D01*
X2967888Y2773426D01*
X2967888Y2777185D01*
X2966872Y2780639D01*
X2964434Y2782874D01*
X2959862Y2784297D01*
X2952242Y2785262D01*
X2937560Y2786735D01*
X2948381Y2796590D01*
X2953410Y2801518D01*
X2957677Y2806496D01*
X2961132Y2811424D01*
X2963773Y2816250D01*
X2965602Y2820873D01*
X2966567Y2825343D01*
X2966567Y2829458D01*
X2965704Y2833268D01*
X2962808Y2838754D01*
X2958896Y2843225D01*
X2954172Y2846578D01*
X2948889Y2848711D01*
G37*
G36*
X2896362Y2785262D02*
G01*
X2892755Y2784957D01*
X2890469Y2783789D01*
X2889351Y2781554D01*
X2888996Y2777947D01*
X2889351Y2774289D01*
X2890469Y2772054D01*
X2892755Y2770886D01*
X2896362Y2770581D01*
X2900019Y2770886D01*
X2902254Y2772054D01*
X2903372Y2774289D01*
X2903728Y2777947D01*
X2903372Y2781554D01*
X2902254Y2783789D01*
X2900019Y2784957D01*
G37*
G36*
X2872181Y2729382D02*
G01*
X2870809Y2729128D01*
X2869488Y2728315D01*
X2868320Y2727147D01*
X2867558Y2725724D01*
X2867761Y2723540D01*
X2869234Y2720340D01*
X2871825Y2716479D01*
X2875229Y2712466D01*
X2884271Y2702915D01*
X2840634Y2702864D01*
X2826004Y2702356D01*
X2820619Y2701696D01*
X2816301Y2700680D01*
X2812999Y2699258D01*
X2810560Y2697327D01*
X2808833Y2694838D01*
X2807665Y2691688D01*
X2807004Y2687828D01*
X2806649Y2677718D01*
X2806852Y2669387D01*
X2807665Y2664561D01*
X2809392Y2662275D01*
X2812389Y2661767D01*
X2815285Y2662326D01*
X2817164Y2664409D01*
X2818333Y2668676D01*
X2818993Y2675737D01*
X2819908Y2689707D01*
X2897733Y2690622D01*
X2932379Y2690520D01*
X2942945Y2690063D01*
X2949752Y2689301D01*
X2951937Y2688844D01*
X2953359Y2688285D01*
X2954070Y2687624D01*
X2954832Y2685186D01*
X2955188Y2681325D01*
X2955137Y2676550D01*
X2953918Y2664663D01*
X2954172Y2660904D01*
X2955747Y2659176D01*
X2958846Y2658821D01*
X2961995Y2659888D01*
X2964535Y2662783D01*
X2966364Y2667101D01*
X2967431Y2672334D01*
X2967736Y2678125D01*
X2967126Y2683916D01*
X2965653Y2689301D01*
X2963214Y2693822D01*
X2961284Y2696210D01*
X2959354Y2698089D01*
X2956966Y2699512D01*
X2953867Y2700477D01*
X2949600Y2701188D01*
X2936138Y2702001D01*
X2911652Y2702864D01*
X2901950Y2703779D01*
X2896565Y2705100D01*
X2894888Y2706878D01*
X2891993Y2712313D01*
X2885287Y2719832D01*
X2877667Y2726537D01*
G37*
G36*
X2285492Y2726334D02*
G01*
X2281834Y2724353D01*
X2279650Y2717088D01*
X2278684Y2707335D01*
X2246071Y2705862D01*
X2239721Y2704846D01*
X2236927Y2703220D01*
X2236622Y2700578D01*
X2237994Y2698038D01*
X2241550Y2696362D01*
X2248204Y2695346D01*
X2258872Y2694686D01*
X2280158Y2693822D01*
X2280158Y2682189D01*
X2280412Y2676296D01*
X2281275Y2672791D01*
X2283104Y2671013D01*
X2286050Y2670556D01*
X2289048Y2671013D01*
X2290826Y2672791D01*
X2291740Y2676347D01*
X2291943Y2682341D01*
X2291943Y2694127D01*
X2353716Y2694127D01*
X2353716Y2682341D01*
X2353919Y2676347D01*
X2354834Y2672791D01*
X2356612Y2671013D01*
X2359609Y2670556D01*
X2362606Y2671013D01*
X2364384Y2672791D01*
X2365248Y2676347D01*
X2365451Y2682341D01*
X2365451Y2694127D01*
X2385771Y2694127D01*
X2395220Y2694330D01*
X2401773Y2695041D01*
X2405786Y2696311D01*
X2407615Y2698242D01*
X2408224Y2702204D01*
X2405583Y2704490D01*
X2398471Y2705608D01*
X2385771Y2705862D01*
X2365857Y2705862D01*
X2364943Y2715412D01*
X2362962Y2722473D01*
X2359660Y2725013D01*
X2356205Y2722930D01*
X2353716Y2716174D01*
X2352192Y2707335D01*
X2292350Y2705658D01*
X2291384Y2715310D01*
X2289200Y2723235D01*
G37*
G36*
X2692857Y2723540D02*
G01*
X2689809Y2722626D01*
X2687269Y2719425D01*
X2684780Y2713177D01*
X2680614Y2698546D01*
X2677261Y2688285D01*
X2673197Y2677515D01*
X2668879Y2667508D01*
X2662275Y2653690D01*
X2659938Y2647492D01*
X2659634Y2643886D01*
X2661107Y2642209D01*
X2662936Y2641752D01*
X2664917Y2641650D01*
X2666796Y2641955D01*
X2668320Y2642565D01*
X2670149Y2644394D01*
X2672537Y2647848D01*
X2678277Y2658211D01*
X2684170Y2670860D01*
X2690571Y2687370D01*
X2692552Y2690876D01*
X2694635Y2693212D01*
X2696514Y2694127D01*
X2697327Y2693822D01*
X2698038Y2692958D01*
X2698648Y2691333D01*
X2699613Y2685491D01*
X2700375Y2675432D01*
X2701290Y2638907D01*
X2702001Y2587142D01*
X2702560Y2571851D01*
X2703423Y2562961D01*
X2704033Y2560370D01*
X2704795Y2558745D01*
X2705709Y2557830D01*
X2706827Y2557424D01*
X2708148Y2557322D01*
X2711246Y2557932D01*
X2713177Y2560472D01*
X2714244Y2566060D01*
X2714904Y2575712D01*
X2715768Y2594102D01*
X2763316Y2594254D01*
X2772511Y2594914D01*
X2776321Y2596489D01*
X2776677Y2599232D01*
X2775102Y2601976D01*
X2770530Y2603652D01*
X2761284Y2604617D01*
X2715463Y2606090D01*
X2715463Y2643886D01*
X2758389Y2645359D01*
X2767177Y2646273D01*
X2771597Y2647746D01*
X2772816Y2649982D01*
X2771597Y2652217D01*
X2767177Y2653690D01*
X2758389Y2654655D01*
X2744165Y2655265D01*
X2715463Y2656078D01*
X2715463Y2694584D01*
X2763215Y2691688D01*
X2773984Y2691688D01*
X2780792Y2692450D01*
X2784551Y2694076D01*
X2786380Y2695752D01*
X2787396Y2697226D01*
X2787599Y2698496D01*
X2786888Y2699562D01*
X2785160Y2700477D01*
X2782417Y2701188D01*
X2778556Y2701798D01*
X2767228Y2702560D01*
X2750616Y2702915D01*
X2694635Y2702915D01*
X2697378Y2718562D01*
X2697124Y2721711D01*
X2695702Y2723134D01*
G37*
G36*
X2657144Y2723540D02*
G01*
X2654604Y2722626D01*
X2652369Y2719730D01*
X2650286Y2714498D01*
X2647188Y2702712D01*
X2643835Y2692857D01*
X2639263Y2681478D01*
X2634030Y2669946D01*
X2626360Y2654503D01*
X2622245Y2645714D01*
X2619451Y2639212D01*
X2618435Y2635859D01*
X2619857Y2632506D01*
X2623464Y2632760D01*
X2627985Y2636062D01*
X2632303Y2641904D01*
X2634030Y2644952D01*
X2635351Y2646629D01*
X2636316Y2646527D01*
X2636977Y2644190D01*
X2637434Y2639212D01*
X2638044Y2619349D01*
X2638602Y2588564D01*
X2639314Y2568600D01*
X2639872Y2562758D01*
X2640634Y2559050D01*
X2641701Y2556967D01*
X2643124Y2556052D01*
X2644952Y2555849D01*
X2646273Y2555951D01*
X2647340Y2556306D01*
X2648254Y2557068D01*
X2648966Y2558542D01*
X2649524Y2560777D01*
X2649982Y2563977D01*
X2650540Y2574086D01*
X2650998Y2636672D01*
X2651353Y2653639D01*
X2652115Y2666390D01*
X2653385Y2676601D01*
X2654198Y2681224D01*
X2656484Y2690520D01*
X2662021Y2710434D01*
X2663291Y2718866D01*
X2661716Y2722676D01*
G37*
G36*
X2094738Y2723235D02*
G01*
X2087168Y2722981D01*
X2081530Y2722473D01*
X2077415Y2721660D01*
X2074418Y2720594D01*
X2072081Y2719171D01*
X2068525Y2715818D01*
X2066543Y2710840D01*
X2065680Y2702102D01*
X2065567Y2691180D01*
X2077212Y2691180D01*
X2077212Y2698038D01*
X2077821Y2703474D01*
X2078482Y2705608D01*
X2079243Y2706928D01*
X2080717Y2707284D01*
X2089251Y2707894D01*
X2103780Y2708249D01*
X2122525Y2708249D01*
X2184603Y2707335D01*
X2186432Y2691180D01*
X2065567Y2691180D01*
X2065676Y2679395D01*
X2186432Y2679395D01*
X2184603Y2663240D01*
X2078685Y2663240D01*
X2076856Y2679395D01*
X2065676Y2679395D01*
X2066391Y2666949D01*
X2067255Y2659735D01*
X2068372Y2655874D01*
X2071065Y2653741D01*
X2076450Y2652217D01*
X2085136Y2651150D01*
X2112772Y2649728D01*
X2120696Y2648559D01*
X2123795Y2646375D01*
X2124303Y2642362D01*
X2123897Y2638399D01*
X2121712Y2636316D01*
X2116378Y2635453D01*
X2106472Y2635300D01*
X2096770Y2635453D01*
X2091639Y2636164D01*
X2089912Y2637942D01*
X2090470Y2641142D01*
X2090216Y2645867D01*
X2086559Y2647188D01*
X2081326Y2645156D01*
X2076246Y2640025D01*
X2073605Y2636469D01*
X2065324Y2627274D01*
X2056130Y2617927D01*
X2053082Y2613812D01*
X2051608Y2610408D01*
X2051710Y2607665D01*
X2054047Y2603957D01*
X2057603Y2603550D01*
X2062988Y2606548D01*
X2077770Y2618943D01*
X2083765Y2622042D01*
X2091436Y2623261D01*
X2103323Y2623515D01*
X2124303Y2623515D01*
X2124303Y2603500D01*
X2083206Y2600198D01*
X2074570Y2598877D01*
X2069846Y2597251D01*
X2068423Y2595219D01*
X2069693Y2593238D01*
X2074214Y2592019D01*
X2082800Y2591358D01*
X2096363Y2591155D01*
X2124303Y2591155D01*
X2124303Y2567635D01*
X2075942Y2567635D01*
X2060549Y2567228D01*
X2056079Y2566771D01*
X2053183Y2566060D01*
X2051608Y2564993D01*
X2050897Y2563571D01*
X2050796Y2560675D01*
X2050999Y2559761D01*
X2051456Y2558999D01*
X2052269Y2558338D01*
X2053589Y2557780D01*
X2058212Y2556967D01*
X2066188Y2556459D01*
X2095906Y2556256D01*
X2177034Y2557119D01*
X2195525Y2557627D01*
X2207412Y2558389D01*
X2211324Y2558846D01*
X2214016Y2559456D01*
X2215743Y2560116D01*
X2216658Y2560878D01*
X2216962Y2561742D01*
X2216607Y2563012D01*
X2215388Y2564028D01*
X2213152Y2564841D01*
X2209596Y2565501D01*
X2197709Y2566416D01*
X2138984Y2567787D01*
X2138984Y2591155D01*
X2186736Y2591308D01*
X2195982Y2592019D01*
X2199843Y2593543D01*
X2200198Y2596337D01*
X2198624Y2599029D01*
X2194052Y2600706D01*
X2184806Y2601671D01*
X2138984Y2603144D01*
X2138984Y2623312D01*
X2188667Y2624734D01*
X2198776Y2625699D01*
X2203805Y2627172D01*
X2205177Y2629408D01*
X2203805Y2631643D01*
X2198776Y2633116D01*
X2188667Y2634030D01*
X2161184Y2634945D01*
X2147112Y2635656D01*
X2143150Y2636266D01*
X2140762Y2637231D01*
X2139543Y2638552D01*
X2139086Y2640330D01*
X2138984Y2642717D01*
X2139442Y2646883D01*
X2142236Y2649016D01*
X2149652Y2649880D01*
X2177745Y2650236D01*
X2183028Y2650744D01*
X2187244Y2651607D01*
X2190597Y2652979D01*
X2193188Y2655011D01*
X2195017Y2657754D01*
X2196338Y2661361D01*
X2197150Y2665933D01*
X2197608Y2671572D01*
X2197811Y2686608D01*
X2197608Y2699918D01*
X2196846Y2708910D01*
X2195474Y2714599D01*
X2193340Y2717698D01*
X2191461Y2718612D01*
X2188108Y2719425D01*
X2183231Y2720187D01*
X2168652Y2721406D01*
X2147214Y2722372D01*
X2117648Y2723083D01*
G37*
G36*
X2476296Y2717190D02*
G01*
X2459939Y2717038D01*
X2449372Y2716479D01*
X2445918Y2716072D01*
X2443378Y2715514D01*
X2441651Y2714853D01*
X2440635Y2714091D01*
X2440025Y2713126D01*
X2439466Y2711246D01*
X2439212Y2709468D01*
X2439314Y2708046D01*
X2439720Y2707132D01*
X2441346Y2706319D01*
X2444394Y2705608D01*
X2454503Y2704338D01*
X2468981Y2703474D01*
X2509570Y2702915D01*
X2509418Y2621788D01*
X2508453Y2587294D01*
X2507742Y2580132D01*
X2507030Y2577998D01*
X2505964Y2576372D01*
X2504084Y2575204D01*
X2500884Y2574391D01*
X2496007Y2573934D01*
X2488946Y2573629D01*
X2444648Y2573375D01*
X2437688Y2573121D01*
X2432862Y2572664D01*
X2429814Y2571953D01*
X2428138Y2570886D01*
X2427376Y2569464D01*
X2427274Y2566568D01*
X2427478Y2565654D01*
X2427935Y2564892D01*
X2428798Y2564231D01*
X2430170Y2563672D01*
X2434945Y2562809D01*
X2443175Y2562352D01*
X2473960Y2562148D01*
X2526436Y2562555D01*
X2566111Y2563164D01*
X2579065Y2563622D01*
X2588260Y2564180D01*
X2594305Y2564892D01*
X2597708Y2565806D01*
X2598623Y2566365D01*
X2599131Y2566974D01*
X2599283Y2567635D01*
X2598928Y2568905D01*
X2597759Y2569921D01*
X2595473Y2570734D01*
X2591917Y2571343D01*
X2586837Y2571902D01*
X2571292Y2572613D01*
X2521356Y2573680D01*
X2521356Y2702763D01*
X2564739Y2703830D01*
X2578455Y2704592D01*
X2582570Y2705150D01*
X2585212Y2705963D01*
X2586685Y2707030D01*
X2587396Y2708452D01*
X2587447Y2711602D01*
X2587040Y2712720D01*
X2586075Y2713634D01*
X2584348Y2714396D01*
X2581605Y2715006D01*
X2572105Y2715869D01*
X2555849Y2716377D01*
X2499817Y2717088D01*
G37*
G36*
X2344267Y2682036D02*
G01*
X2340254Y2680462D01*
X2337257Y2674467D01*
X2335631Y2669438D01*
X2329078Y2652776D01*
X2320340Y2632608D01*
X2317699Y2624937D01*
X2316835Y2619908D01*
X2317699Y2617165D01*
X2321052Y2615234D01*
X2324557Y2617114D01*
X2328875Y2623515D01*
X2338679Y2642616D01*
X2342286Y2648204D01*
X2345436Y2651709D01*
X2348077Y2652928D01*
X2350160Y2652572D01*
X2351481Y2651353D01*
X2351938Y2649321D01*
X2351684Y2646324D01*
X2351836Y2642463D01*
X2353919Y2637993D01*
X2358237Y2632456D01*
X2365044Y2625394D01*
X2373985Y2617470D01*
X2380589Y2613710D01*
X2384653Y2614117D01*
X2386076Y2618689D01*
X2385009Y2621127D01*
X2382215Y2625140D01*
X2377998Y2630068D01*
X2363571Y2645308D01*
X2360726Y2648813D01*
X2359660Y2650744D01*
X2361387Y2651556D01*
X2366162Y2652268D01*
X2373223Y2652776D01*
X2393594Y2653080D01*
X2400198Y2653792D01*
X2402941Y2655366D01*
X2403144Y2658059D01*
X2401671Y2660751D01*
X2397455Y2662428D01*
X2389124Y2663444D01*
X2348230Y2664917D01*
X2348738Y2672791D01*
X2347671Y2679395D01*
G37*
G36*
X2263851Y2678023D02*
G01*
X2262378Y2677769D01*
X2261362Y2677210D01*
X2260650Y2674010D01*
X2260092Y2666593D01*
X2259584Y2643378D01*
X2259736Y2626207D01*
X2260447Y2616657D01*
X2261971Y2612694D01*
X2264714Y2612288D01*
X2267458Y2613914D01*
X2269134Y2618587D01*
X2270099Y2628188D01*
X2270709Y2644546D01*
X2270963Y2659989D01*
X2270556Y2669844D01*
X2269388Y2675229D01*
X2267305Y2677363D01*
X2265527Y2677871D01*
G37*
G36*
X2303729Y2676448D02*
G01*
X2300325Y2675788D01*
X2298598Y2671978D01*
X2298141Y2662529D01*
X2298446Y2644851D01*
X2299055Y2629052D01*
X2299970Y2619349D01*
X2301494Y2614523D01*
X2303729Y2613202D01*
X2305964Y2614523D01*
X2307437Y2619349D01*
X2308352Y2629052D01*
X2308961Y2644851D01*
X2309317Y2662529D01*
X2308809Y2671978D01*
X2307082Y2675788D01*
G37*
G36*
X2858922Y2675940D02*
G01*
X2844901Y2675788D01*
X2834386Y2675382D01*
X2827274Y2674721D01*
X2823464Y2673858D01*
X2822702Y2673299D01*
X2821940Y2669540D01*
X2825343Y2666847D01*
X2833319Y2665120D01*
X2846324Y2664104D01*
X2866847Y2663240D01*
X2844444Y2640634D01*
X2839974Y2635554D01*
X2836621Y2631135D01*
X2834436Y2627477D01*
X2833319Y2624531D01*
X2833319Y2622346D01*
X2834487Y2620873D01*
X2836824Y2620162D01*
X2845257Y2620060D01*
X2880207Y2621178D01*
X2880207Y2599994D01*
X2832455Y2599842D01*
X2823210Y2599131D01*
X2819349Y2597607D01*
X2818993Y2594864D01*
X2820568Y2592120D01*
X2825089Y2590444D01*
X2834386Y2589479D01*
X2880207Y2588006D01*
X2880207Y2567635D01*
X2833776Y2567635D01*
X2819044Y2567228D01*
X2814726Y2566771D01*
X2811932Y2566060D01*
X2810408Y2564993D01*
X2809748Y2563571D01*
X2809697Y2560370D01*
X2810052Y2559253D01*
X2811068Y2558338D01*
X2812897Y2557627D01*
X2815844Y2557068D01*
X2820162Y2556662D01*
X2834030Y2556256D01*
X2889758Y2556560D01*
X2941167Y2557373D01*
X2955696Y2557983D01*
X2964434Y2558846D01*
X2967075Y2559456D01*
X2968752Y2560116D01*
X2969615Y2560878D01*
X2969920Y2561742D01*
X2969564Y2563012D01*
X2968345Y2564028D01*
X2966110Y2564841D01*
X2962503Y2565501D01*
X2950667Y2566416D01*
X2891942Y2567787D01*
X2891942Y2587447D01*
X2939897Y2590749D01*
X2949854Y2592120D01*
X2955137Y2593695D01*
X2956661Y2595829D01*
X2955239Y2597861D01*
X2950210Y2599182D01*
X2940304Y2599791D01*
X2924302Y2599994D01*
X2891942Y2599994D01*
X2891942Y2619705D01*
X2925318Y2622448D01*
X2932430Y2622143D01*
X2936798Y2620111D01*
X2940659Y2615996D01*
X2945587Y2611932D01*
X2950819Y2610358D01*
X2954985Y2611323D01*
X2956661Y2614980D01*
X2955290Y2618282D01*
X2951632Y2623515D01*
X2946349Y2629966D01*
X2940100Y2636926D01*
X2933547Y2643682D01*
X2927451Y2649423D01*
X2922320Y2653588D01*
X2918968Y2655316D01*
X2913938Y2654909D01*
X2912770Y2651963D01*
X2915462Y2647086D01*
X2921762Y2640888D01*
X2931058Y2633218D01*
X2885490Y2631287D01*
X2861157Y2630779D01*
X2854960Y2630932D01*
X2853944Y2631186D01*
X2854045Y2632303D01*
X2855264Y2634386D01*
X2857347Y2637231D01*
X2863494Y2644241D01*
X2870200Y2652826D01*
X2877921Y2664714D01*
X2934309Y2664815D01*
X2940710Y2665069D01*
X2945231Y2665526D01*
X2948127Y2666136D01*
X2949702Y2667050D01*
X2950311Y2668270D01*
X2950210Y2669844D01*
X2949854Y2670911D01*
X2949143Y2671876D01*
X2947924Y2672638D01*
X2945993Y2673299D01*
X2943250Y2673858D01*
X2934563Y2674670D01*
X2920593Y2675229D01*
X2876702Y2675890D01*
G37*
G36*
X2324303Y2608732D02*
G01*
X2293315Y2608326D01*
X2280412Y2607919D01*
X2270099Y2607360D01*
X2262936Y2606649D01*
X2259584Y2605938D01*
X2257602Y2603550D01*
X2255926Y2599080D01*
X2255578Y2597353D01*
X2350465Y2597353D01*
X2381656Y2595575D01*
X2381656Y2566162D01*
X2352243Y2566162D01*
X2350465Y2597353D01*
X2255578Y2597353D01*
X2254656Y2592781D01*
X2252726Y2574340D01*
X2251303Y2568702D01*
X2248712Y2566162D01*
X2240602Y2564384D01*
X2265476Y2564384D01*
X2265476Y2578760D01*
X2265832Y2589022D01*
X2267813Y2594457D01*
X2272842Y2596642D01*
X2282291Y2597048D01*
X2339289Y2597048D01*
X2337511Y2566162D01*
X2306675Y2564384D01*
X2306675Y2597048D01*
X2295194Y2597048D01*
X2293416Y2566162D01*
X2265476Y2564384D01*
X2240602Y2564384D01*
X2238349Y2563368D01*
X2236673Y2561844D01*
X2236063Y2560066D01*
X2236216Y2559456D01*
X2236774Y2558897D01*
X2239365Y2557932D01*
X2244293Y2557170D01*
X2252167Y2556662D01*
X2279040Y2556002D01*
X2324303Y2555849D01*
X2358593Y2556052D01*
X2386685Y2556611D01*
X2405583Y2557424D01*
X2410764Y2557932D01*
X2412542Y2558440D01*
X2411272Y2561640D01*
X2408072Y2564587D01*
X2404110Y2566619D01*
X2400350Y2567025D01*
X2398420Y2567584D01*
X2396947Y2570530D01*
X2395778Y2576118D01*
X2393950Y2592781D01*
X2392680Y2599080D01*
X2391003Y2603550D01*
X2389022Y2605938D01*
X2385669Y2606649D01*
X2378506Y2607360D01*
X2368194Y2607919D01*
X2340457Y2608630D01*
G37*
G36*
X285242Y2831795D02*
G01*
X281838Y2829814D01*
X274980Y2824988D01*
X268325Y2819501D01*
X260400Y2812034D01*
X252018Y2803347D01*
X243890Y2794254D01*
X236778Y2785618D01*
X227888Y2772968D01*
X216763Y2758186D01*
X204520Y2742742D01*
X193700Y2728061D01*
X186334Y2716885D01*
X182422Y2711500D01*
X178460Y2706725D01*
X174548Y2702712D01*
X170688Y2699410D01*
X166928Y2696819D01*
X163220Y2694990D01*
X155397Y2693009D01*
X151079Y2691688D01*
X146710Y2690012D01*
X142341Y2687980D01*
X137972Y2685643D01*
X133705Y2683052D01*
X129641Y2680208D01*
X125730Y2677109D01*
X122428Y2673858D01*
X119126Y2669692D01*
X115925Y2664866D01*
X112979Y2659634D01*
X110439Y2654350D01*
X108407Y2649270D01*
X107086Y2644648D01*
X106426Y2638094D01*
X105765Y2636621D01*
X104444Y2636266D01*
X90678Y2640838D01*
X72491Y2646172D01*
X66802Y2639568D01*
X62839Y2633726D01*
X61467Y2627934D01*
X61675Y2626766D01*
X75488Y2626766D01*
X75793Y2629154D01*
X77012Y2630271D01*
X79705Y2630424D01*
X84378Y2629712D01*
X88341Y2628798D01*
X92608Y2627528D01*
X96621Y2626055D01*
X99923Y2624582D01*
X102971Y2622651D01*
X105054Y2620416D01*
X106222Y2617825D01*
X106984Y2610866D01*
X108000Y2605481D01*
X111353Y2592578D01*
X114757Y2581300D01*
X116128Y2576017D01*
X115112Y2576626D01*
X107950Y2582976D01*
X97282Y2593543D01*
X92151Y2599232D01*
X87528Y2604871D01*
X83464Y2610256D01*
X80162Y2615336D01*
X77622Y2619857D01*
X76047Y2623769D01*
X75488Y2626766D01*
X61675Y2626766D01*
X62687Y2621076D01*
X66548Y2612085D01*
X68630Y2608529D01*
X71831Y2604109D01*
X80619Y2593695D01*
X91287Y2582367D01*
X102311Y2571750D01*
X107442Y2567178D01*
X112115Y2563368D01*
X116128Y2560523D01*
X122631Y2556865D01*
X125628Y2553970D01*
X128371Y2550109D01*
X130810Y2545181D01*
X133858Y2537409D01*
X134620Y2534869D01*
X134670Y2533751D01*
X133756Y2533599D01*
X128930Y2534158D01*
X122224Y2535428D01*
X116179Y2536190D01*
X105410Y2535428D01*
X99568Y2533853D01*
X94589Y2530094D01*
X91135Y2524912D01*
X89865Y2519019D01*
X90728Y2514752D01*
X91576Y2512872D01*
X106832Y2512872D01*
X106883Y2514701D01*
X107492Y2516225D01*
X108712Y2517394D01*
X110439Y2518257D01*
X112776Y2518765D01*
X115620Y2518867D01*
X119075Y2518664D01*
X123037Y2518054D01*
X127558Y2517038D01*
X138226Y2513787D01*
X160274Y2505049D01*
X168300Y2502204D01*
X174294Y2500528D01*
X177393Y2500223D01*
X180492Y2502712D01*
X179832Y2506268D01*
X175412Y2510739D01*
X160934Y2519883D01*
X156210Y2523693D01*
X152857Y2527706D01*
X150469Y2532278D01*
X132740Y2572054D01*
X128168Y2583688D01*
X124866Y2594203D01*
X122580Y2603957D01*
X121361Y2613406D01*
X120954Y2622956D01*
X121310Y2631592D01*
X122275Y2639517D01*
X123952Y2646629D01*
X126237Y2652979D01*
X129133Y2658465D01*
X132638Y2663088D01*
X136652Y2666746D01*
X147878Y2672740D01*
X149656Y2673858D01*
X152806Y2675382D01*
X166725Y2680665D01*
X183794Y2686812D01*
X191617Y2690063D01*
X198983Y2693568D01*
X205638Y2697073D01*
X211429Y2700578D01*
X216001Y2703830D01*
X219252Y2706827D01*
X220878Y2709316D01*
X220471Y2711551D01*
X217220Y2711958D01*
X211124Y2710535D01*
X197205Y2705455D01*
X190195Y2703322D01*
X188874Y2703220D01*
X189026Y2703982D01*
X189890Y2705506D01*
X198526Y2716123D01*
X209753Y2731871D01*
X229717Y2756408D01*
X246329Y2777693D01*
X255016Y2787446D01*
X264464Y2797403D01*
X273354Y2806293D01*
X280314Y2812592D01*
X282651Y2814421D01*
X284022Y2815031D01*
X284683Y2812897D01*
X285038Y2807106D01*
X285140Y2798572D01*
X284581Y2782366D01*
X283616Y2770276D01*
X282346Y2758541D01*
X280822Y2748635D01*
X277876Y2734513D01*
X277418Y2728772D01*
X278739Y2726639D01*
X282041Y2727248D01*
X284073Y2729026D01*
X285953Y2732532D01*
X287680Y2737662D01*
X289102Y2744165D01*
X290322Y2751937D01*
X291236Y2760726D01*
X291795Y2770378D01*
X291998Y2780690D01*
X291998Y2807309D01*
X304342Y2793847D01*
X307492Y2790037D01*
X311251Y2784856D01*
X319989Y2771444D01*
X329184Y2756001D01*
X337515Y2741015D01*
X343509Y2728772D01*
X345186Y2724505D01*
X345795Y2721813D01*
X345440Y2720949D01*
X344271Y2720644D01*
X342392Y2720949D01*
X333298Y2723743D01*
X325323Y2725572D01*
X316636Y2727045D01*
X308000Y2728112D01*
X300177Y2728772D01*
X293979Y2728874D01*
X290068Y2728315D01*
X289255Y2727096D01*
X290576Y2726131D01*
X293065Y2725369D01*
X296316Y2724810D01*
X305511Y2724302D01*
X310946Y2723591D01*
X316433Y2722473D01*
X321919Y2720949D01*
X327456Y2719019D01*
X333044Y2716631D01*
X338785Y2713786D01*
X344627Y2710484D01*
X349758Y2707132D01*
X355295Y2703068D01*
X361086Y2698394D01*
X372922Y2687675D01*
X384403Y2675940D01*
X389737Y2669946D01*
X394614Y2664053D01*
X398932Y2658414D01*
X402640Y2653080D01*
X408838Y2642362D01*
X412089Y2637637D01*
X414832Y2634386D01*
X416712Y2633218D01*
X419100Y2634284D01*
X419811Y2637180D01*
X418896Y2641752D01*
X416306Y2647696D01*
X410718Y2659024D01*
X409701Y2662174D01*
X410006Y2663799D01*
X411784Y2664002D01*
X415137Y2662936D01*
X427126Y2657144D01*
X436270Y2652268D01*
X447497Y2645765D01*
X473506Y2629763D01*
X506069Y2608427D01*
X516991Y2600807D01*
X525830Y2594356D01*
X531825Y2589479D01*
X533603Y2587752D01*
X535178Y2585415D01*
X533450Y2583942D01*
X526897Y2582926D01*
X500583Y2580589D01*
X495350Y2579725D01*
X490474Y2578557D01*
X485648Y2576931D01*
X480314Y2574798D01*
X455676Y2563063D01*
X448005Y2559913D01*
X443331Y2558796D01*
X441198Y2559507D01*
X440639Y2560828D01*
X440334Y2562199D01*
X440334Y2563469D01*
X440690Y2564485D01*
X441451Y2569159D01*
X440334Y2575356D01*
X438048Y2580640D01*
X435406Y2582570D01*
X433679Y2580741D01*
X432460Y2575560D01*
X431546Y2565908D01*
X430580Y2544165D01*
X429666Y2531008D01*
X428447Y2518867D01*
X427024Y2509215D01*
X426313Y2505811D01*
X424637Y2500122D01*
X422605Y2494686D01*
X421674Y2492705D01*
X435000Y2492705D01*
X437642Y2505557D01*
X439572Y2518867D01*
X441045Y2531770D01*
X442112Y2537409D01*
X443331Y2541828D01*
X444601Y2544419D01*
X447497Y2546654D01*
X453085Y2549956D01*
X460451Y2553817D01*
X477520Y2561894D01*
X485546Y2565298D01*
X492150Y2567787D01*
X496570Y2569006D01*
X502259Y2569667D01*
X515467Y2570480D01*
X527964Y2570581D01*
X532790Y2570378D01*
X535990Y2569972D01*
X537159Y2569413D01*
X534771Y2564993D01*
X528929Y2557170D01*
X521665Y2548432D01*
X515112Y2541371D01*
X505053Y2532532D01*
X492912Y2522931D01*
X479551Y2513330D01*
X466191Y2504389D01*
X453745Y2496820D01*
X448208Y2493822D01*
X443280Y2491435D01*
X437642Y2489047D01*
X435101Y2489200D01*
X435000Y2492705D01*
X421674Y2492705D01*
X420217Y2489606D01*
X417525Y2484831D01*
X414477Y2480360D01*
X411124Y2476246D01*
X407416Y2472486D01*
X403402Y2469083D01*
X399084Y2465984D01*
X394512Y2463241D01*
X389585Y2460853D01*
X384352Y2458821D01*
X378866Y2457145D01*
X373075Y2455875D01*
X367030Y2454910D01*
X360730Y2454351D01*
X353974Y2454198D01*
X346506Y2454300D01*
X330657Y2455367D01*
X322884Y2456230D01*
X315569Y2457297D01*
X309067Y2458516D01*
X303530Y2459939D01*
X298399Y2459736D01*
X295300Y2456637D01*
X294894Y2451862D01*
X297789Y2446832D01*
X300837Y2444343D01*
X304698Y2442210D01*
X309422Y2440482D01*
X315061Y2439111D01*
X321665Y2438044D01*
X329387Y2437333D01*
X338226Y2436876D01*
X348234Y2436774D01*
X355549Y2436926D01*
X362508Y2437384D01*
X369062Y2438095D01*
X375361Y2439111D01*
X381304Y2440381D01*
X386994Y2442006D01*
X392379Y2443937D01*
X397560Y2446172D01*
X402488Y2448763D01*
X407263Y2451658D01*
X411835Y2454910D01*
X418744Y2460447D01*
X425856Y2465374D01*
X434898Y2470912D01*
X454253Y2481478D01*
X464870Y2487879D01*
X476859Y2495854D01*
X495604Y2509367D01*
X507441Y2518511D01*
X517753Y2527096D01*
X525780Y2534412D01*
X528675Y2537460D01*
X532892Y2542590D01*
X535432Y2543759D01*
X539394Y2543556D01*
X545846Y2542235D01*
X557225Y2539085D01*
X569620Y2534920D01*
X580186Y2530754D01*
X583844Y2529027D01*
X585978Y2527706D01*
X586536Y2526538D01*
X586435Y2524810D01*
X585724Y2522677D01*
X584352Y2520340D01*
X580999Y2515971D01*
X569874Y2503627D01*
X556666Y2490266D01*
X550621Y2484526D01*
X545744Y2480259D01*
X538784Y2475382D01*
X536956Y2472639D01*
X537057Y2469642D01*
X539038Y2466492D01*
X542899Y2463139D01*
X548589Y2459685D01*
X556158Y2456078D01*
X565556Y2452370D01*
X573786Y2449576D01*
X581456Y2447442D01*
X588619Y2445918D01*
X595477Y2445105D01*
X602284Y2444902D01*
X609092Y2445258D01*
X616204Y2446274D01*
X623722Y2447848D01*
X631037Y2449830D01*
X637946Y2452014D01*
X644398Y2454452D01*
X650392Y2457196D01*
X655929Y2460193D01*
X661009Y2463393D01*
X665683Y2466949D01*
X669950Y2470708D01*
X673760Y2474823D01*
X677113Y2479192D01*
X680110Y2483815D01*
X682701Y2488793D01*
X684834Y2494026D01*
X686612Y2499614D01*
X687933Y2505456D01*
X689965Y2517902D01*
X691489Y2523236D01*
X693521Y2527655D01*
X696010Y2531262D01*
X699058Y2534056D01*
X702665Y2535986D01*
X706831Y2537155D01*
X711606Y2537561D01*
X720547Y2536799D01*
X727608Y2534158D01*
X733602Y2529179D01*
X739394Y2521254D01*
X741934Y2516733D01*
X743915Y2512060D01*
X745337Y2507234D01*
X746302Y2502255D01*
X746810Y2497175D01*
X746760Y2491994D01*
X746302Y2486812D01*
X745388Y2481529D01*
X744016Y2476246D01*
X742188Y2470962D01*
X740003Y2465730D01*
X737362Y2460548D01*
X734364Y2455418D01*
X731012Y2450439D01*
X727252Y2445562D01*
X723188Y2440838D01*
X718769Y2436317D01*
X714044Y2431948D01*
X708964Y2427833D01*
X703630Y2423972D01*
X697992Y2420366D01*
X692099Y2417064D01*
X685901Y2414066D01*
X679500Y2411425D01*
X674776Y2409850D01*
X669493Y2408377D01*
X657606Y2405989D01*
X644245Y2404160D01*
X630021Y2403043D01*
X615289Y2402535D01*
X600608Y2402636D01*
X586486Y2403449D01*
X573328Y2404922D01*
X561695Y2407005D01*
X556615Y2408326D01*
X546862Y2411526D01*
X543153Y2412238D01*
X540461Y2411933D01*
X538276Y2410714D01*
X535584Y2407615D01*
X535279Y2404262D01*
X537565Y2399944D01*
X542594Y2394000D01*
X553618Y2381808D01*
X559714Y2373985D01*
X561746Y2369159D01*
X560578Y2365857D01*
X558647Y2363978D01*
X555904Y2362098D01*
X552500Y2360269D01*
X548335Y2358440D01*
X543509Y2356662D01*
X531926Y2353259D01*
X525221Y2351633D01*
X516483Y2350160D01*
X505358Y2348941D01*
X492658Y2348026D01*
X479145Y2347417D01*
X465632Y2347163D01*
X452882Y2347264D01*
X441807Y2347772D01*
X433120Y2348687D01*
X394868Y2354834D01*
X385673Y2356612D01*
X375310Y2359152D01*
X363982Y2362403D01*
X351891Y2366213D01*
X326237Y2375408D01*
X300024Y2386126D01*
X287172Y2391867D01*
X274777Y2397709D01*
X263093Y2403652D01*
X221437Y2426716D01*
X212445Y2432100D01*
X208635Y2434742D01*
X203200Y2439060D01*
X194868Y2444242D01*
X186029Y2448915D01*
X179679Y2452522D01*
X177393Y2454402D01*
X173329Y2457094D01*
X166624Y2461056D01*
X152450Y2470251D01*
X137820Y2480259D01*
X126949Y2488590D01*
X118414Y2496108D01*
X115062Y2499512D01*
X112268Y2502712D01*
X110032Y2505659D01*
X108407Y2508351D01*
X107289Y2510739D01*
X106832Y2512872D01*
X91576Y2512872D01*
X93065Y2509570D01*
X96672Y2503678D01*
X101346Y2497429D01*
X106883Y2491028D01*
X112979Y2484780D01*
X119430Y2478989D01*
X126085Y2473960D01*
X142087Y2462936D01*
X163830Y2448661D01*
X167640Y2446629D01*
X173482Y2443022D01*
X195478Y2427935D01*
X207365Y2420518D01*
X220827Y2412492D01*
X249428Y2396490D01*
X262991Y2389327D01*
X275031Y2383332D01*
X301752Y2371699D01*
X331876Y2358136D01*
X336245Y2356358D01*
X340004Y2355392D01*
X353618Y2350058D01*
X360781Y2347823D01*
X370027Y2345486D01*
X381050Y2343150D01*
X393395Y2340813D01*
X406755Y2338628D01*
X420827Y2336596D01*
X442417Y2334056D01*
X457403Y2332888D01*
X472135Y2332380D01*
X486460Y2332532D01*
X500227Y2333294D01*
X513334Y2334615D01*
X525627Y2336596D01*
X536956Y2339035D01*
X547166Y2342032D01*
X556107Y2345537D01*
X560120Y2347468D01*
X563727Y2349500D01*
X566928Y2351633D01*
X569772Y2353868D01*
X572160Y2356256D01*
X574141Y2358694D01*
X576884Y2363825D01*
X577646Y2368905D01*
X576427Y2374341D01*
X573227Y2380589D01*
X568604Y2388006D01*
X595477Y2387041D01*
X609346Y2387295D01*
X624636Y2388260D01*
X640232Y2389733D01*
X655269Y2391714D01*
X668629Y2394102D01*
X674370Y2395372D01*
X680008Y2396947D01*
X685546Y2398776D01*
X696366Y2403297D01*
X706678Y2408885D01*
X716381Y2415387D01*
X721004Y2418943D01*
X729691Y2426665D01*
X737514Y2435047D01*
X744423Y2444038D01*
X747522Y2448661D01*
X752856Y2458262D01*
X755091Y2463190D01*
X757021Y2468219D01*
X758647Y2473248D01*
X759917Y2478328D01*
X760882Y2483408D01*
X761441Y2488539D01*
X761746Y2494991D01*
X761593Y2500985D01*
X760882Y2506624D01*
X759612Y2511958D01*
X757732Y2517241D01*
X755243Y2522524D01*
X752043Y2527960D01*
X748131Y2533650D01*
X744474Y2538171D01*
X740410Y2542082D01*
X736092Y2545334D01*
X731570Y2547975D01*
X726846Y2550007D01*
X722020Y2551430D01*
X717194Y2552242D01*
X712317Y2552395D01*
X707542Y2551988D01*
X702868Y2550922D01*
X698398Y2549296D01*
X694182Y2547010D01*
X690270Y2544165D01*
X686714Y2540660D01*
X683564Y2536596D01*
X680872Y2531922D01*
X678942Y2527300D01*
X677367Y2522270D01*
X676300Y2517444D01*
X675894Y2513482D01*
X674776Y2506167D01*
X671931Y2497582D01*
X667969Y2489149D01*
X663498Y2482443D01*
X660400Y2479243D01*
X656691Y2476195D01*
X652424Y2473248D01*
X647700Y2470505D01*
X642569Y2467965D01*
X637133Y2465679D01*
X631444Y2463647D01*
X625602Y2461920D01*
X619709Y2460498D01*
X613816Y2459482D01*
X607974Y2458821D01*
X602335Y2458618D01*
X596798Y2458974D01*
X589940Y2459990D01*
X582371Y2461514D01*
X574700Y2463342D01*
X567639Y2465324D01*
X561797Y2467305D01*
X557784Y2469032D01*
X556310Y2470454D01*
X557682Y2472436D01*
X566775Y2482646D01*
X581253Y2498090D01*
X587756Y2505405D01*
X592937Y2511806D01*
X596798Y2517343D01*
X599287Y2522118D01*
X600506Y2526284D01*
X600456Y2529941D01*
X599135Y2533243D01*
X596595Y2536190D01*
X592785Y2538984D01*
X587806Y2541727D01*
X581609Y2544521D01*
X574090Y2547416D01*
X566420Y2550058D01*
X559562Y2552141D01*
X554329Y2553309D01*
X547776Y2554478D01*
X545033Y2555951D01*
X545642Y2558542D01*
X552043Y2567330D01*
X553720Y2571191D01*
X554126Y2574950D01*
X553161Y2578912D01*
X550722Y2583281D01*
X546709Y2588260D01*
X541070Y2594152D01*
X529386Y2604973D01*
X512826Y2619095D01*
X506577Y2624074D01*
X467106Y2650540D01*
X455930Y2656941D01*
X442163Y2664155D01*
X427685Y2671318D01*
X414274Y2677464D01*
X403860Y2681782D01*
X396189Y2684627D01*
X391414Y2687269D01*
X386638Y2690622D01*
X374091Y2701594D01*
X364185Y2708706D01*
X362102Y2710738D01*
X360680Y2712770D01*
X359765Y2716326D01*
X356971Y2723438D01*
X352094Y2733903D01*
X345795Y2746502D01*
X338734Y2760014D01*
X331520Y2773070D01*
X324916Y2784449D01*
X319532Y2792882D01*
X313537Y2800604D01*
X305917Y2811119D01*
X303123Y2815386D01*
X299008Y2821025D01*
X293878Y2826308D01*
X288950Y2830220D01*
G37*
G36*
X98348Y2829102D02*
G01*
X95605Y2829052D01*
X94640Y2827070D01*
X95097Y2825800D01*
X98399Y2822397D01*
X104648Y2817622D01*
X107442Y2814320D01*
X109220Y2810865D01*
X110083Y2807309D01*
X109982Y2803804D01*
X109067Y2800400D01*
X107289Y2797251D01*
X104749Y2794457D01*
X101498Y2792120D01*
X97485Y2790291D01*
X92862Y2789123D01*
X87630Y2788716D01*
X81534Y2790240D01*
X76758Y2794304D01*
X73914Y2800045D01*
X73660Y2806649D01*
X74015Y2811322D01*
X72898Y2812491D01*
X71170Y2810459D01*
X69494Y2805379D01*
X69037Y2799943D01*
X70053Y2795066D01*
X72339Y2790799D01*
X75793Y2787345D01*
X80111Y2784805D01*
X85242Y2783281D01*
X90982Y2782976D01*
X97129Y2783992D01*
X103733Y2786684D01*
X108966Y2790698D01*
X112725Y2795727D01*
X115011Y2801416D01*
X115671Y2807411D01*
X114655Y2813405D01*
X111912Y2819044D01*
X107238Y2823972D01*
X102362Y2827426D01*
G37*
G36*
X78181Y2739593D02*
G01*
X77165Y2739339D01*
X76809Y2738374D01*
X77114Y2736951D01*
X77927Y2735224D01*
X79298Y2733446D01*
X81991Y2727045D01*
X79756Y2721305D01*
X73964Y2717850D01*
X65938Y2718155D01*
X62788Y2720695D01*
X61214Y2724912D01*
X61366Y2729331D01*
X63550Y2732532D01*
X64465Y2733294D01*
X65227Y2734310D01*
X65735Y2735427D01*
X65938Y2736545D01*
X65684Y2737408D01*
X64973Y2737612D01*
X63855Y2737154D01*
X62331Y2736088D01*
X59232Y2731008D01*
X58623Y2724454D01*
X60452Y2718257D01*
X64465Y2714244D01*
X69545Y2713024D01*
X74523Y2713685D01*
X79044Y2715869D01*
X82804Y2719171D01*
X85496Y2723235D01*
X86715Y2727706D01*
X86207Y2732125D01*
X83616Y2736189D01*
X81635Y2737967D01*
X79756Y2739136D01*
G37*
G36*
X203301Y2683256D02*
G01*
X197612Y2682900D01*
X191871Y2681427D01*
X186334Y2678836D01*
X180949Y2674518D01*
X177800Y2669743D01*
X176784Y2664968D01*
X177647Y2660497D01*
X180289Y2656738D01*
X184556Y2654096D01*
X190246Y2652877D01*
X197205Y2653487D01*
X202946Y2656027D01*
X208991Y2660650D01*
X214121Y2666288D01*
X217373Y2672029D01*
X217678Y2675788D01*
X216103Y2678836D01*
X212902Y2681173D01*
X208534Y2682697D01*
G37*
G36*
X155803Y2669133D02*
G01*
X153212Y2668828D01*
X150876Y2666746D01*
X151130Y2663088D01*
X154279Y2658973D01*
X158496Y2656230D01*
X161899Y2656484D01*
X163271Y2659126D01*
X162864Y2661716D01*
X161188Y2663190D01*
X158648Y2662783D01*
X157632Y2662326D01*
X157073Y2662580D01*
X157073Y2663545D01*
X157530Y2665120D01*
X157581Y2667812D01*
G37*
G36*
X199948Y2640279D02*
G01*
X198221Y2639110D01*
X197510Y2636113D01*
X197713Y2634183D01*
X198323Y2632202D01*
X199237Y2630373D01*
X200355Y2628950D01*
X201828Y2627833D01*
X203657Y2626918D01*
X205638Y2626258D01*
X209448Y2625699D01*
X210820Y2624632D01*
X211582Y2622804D01*
X211836Y2620162D01*
X213258Y2615184D01*
X216662Y2611577D01*
X220878Y2610154D01*
X224637Y2611628D01*
X225755Y2613101D01*
X225907Y2614472D01*
X225044Y2615895D01*
X221589Y2619197D01*
X220268Y2621534D01*
X219354Y2624226D01*
X218795Y2630170D01*
X217779Y2632100D01*
X215646Y2633014D01*
X209245Y2633522D01*
X206756Y2634234D01*
X204876Y2635402D01*
X202031Y2639568D01*
G37*
G36*
X327202Y2580335D02*
G01*
X322580Y2580182D01*
X318312Y2578658D01*
X313791Y2575610D01*
X309880Y2571953D01*
X306527Y2567635D01*
X303834Y2562961D01*
X301802Y2558034D01*
X300583Y2553157D01*
X300177Y2548483D01*
X300736Y2544267D01*
X302260Y2540660D01*
X305562Y2537663D01*
X310743Y2535428D01*
X316687Y2534259D01*
X322427Y2534412D01*
X326898Y2535986D01*
X330860Y2538679D01*
X334365Y2542286D01*
X337210Y2546604D01*
X339496Y2551430D01*
X341020Y2556459D01*
X341884Y2561488D01*
X341884Y2566365D01*
X341071Y2570784D01*
X339344Y2574544D01*
X336651Y2577388D01*
X332943Y2579166D01*
G37*
G36*
X330352Y2527249D02*
G01*
X327050Y2525877D01*
X324967Y2522626D01*
X324764Y2518156D01*
X326237Y2514142D01*
X329082Y2512415D01*
X330708Y2512161D01*
X332486Y2511348D01*
X334162Y2510231D01*
X337210Y2507081D01*
X338429Y2506522D01*
X339496Y2507030D01*
X340766Y2508605D01*
X342036Y2511958D01*
X341731Y2514955D01*
X340156Y2516886D01*
X336397Y2516835D01*
X335483Y2517495D01*
X334975Y2518918D01*
X334416Y2524709D01*
X332841Y2526792D01*
G37*
D33*
X2858980Y1017498D02*
G01*
X2973979Y1017498D01*
X2858980Y1882520D02*
G01*
X2973979Y1882520D01*
D34*
X3301519Y1017498D02*
G01*
X3371519Y1017498D01*
X3301519Y1882520D02*
G01*
X3371519Y1882520D01*
D35*
X1927994Y930503D02*
G01*
X2046495Y930503D01*
X1927994Y1057503D02*
G01*
X2046495Y1057503D01*
X1927994Y1184503D02*
G01*
X2046495Y1184503D01*
X1927994Y1311503D02*
G01*
X2046495Y1311503D01*
X1927994Y1438503D02*
G01*
X2046495Y1438503D01*
X1927994Y1565503D02*
G01*
X2046495Y1565503D01*
X1927994Y1692503D02*
G01*
X2046495Y1692503D01*
X1927994Y1819503D02*
G01*
X2046495Y1819503D01*
X1353497Y930503D02*
G01*
X1471998Y930503D01*
X1353497Y1057503D02*
G01*
X1471998Y1057503D01*
X1353497Y1184503D02*
G01*
X1471998Y1184503D01*
X1353497Y1311503D02*
G01*
X1471998Y1311503D01*
X1353497Y1438503D02*
G01*
X1471998Y1438503D01*
X1353497Y1565503D02*
G01*
X1471998Y1565503D01*
X1353497Y1692503D02*
G01*
X1471998Y1692503D01*
X1353497Y1819503D02*
G01*
X1471998Y1819503D01*
G36*
X1074928Y1700021D02*
G01*
X1074928Y1800097D01*
X1165097Y1800097D01*
X1165097Y1700021D01*
G37*
G36*
X934973Y1700021D02*
G01*
X934973Y1800097D01*
X1025144Y1800097D01*
X1025144Y1700021D01*
G37*
G36*
X2474975Y199897D02*
G01*
X2474975Y299973D01*
X2565145Y299973D01*
X2565145Y199897D01*
G37*
G36*
X2335022Y199897D02*
G01*
X2335022Y299973D01*
X2425191Y299973D01*
X2425191Y199897D01*
G37*
G36*
X2335022Y449834D02*
G01*
X2335022Y550163D01*
X2425191Y550163D01*
X2425191Y449834D01*
G37*
G36*
X2474975Y449834D02*
G01*
X2474975Y550163D01*
X2565145Y550163D01*
X2565145Y449834D01*
G37*
G36*
X1525015Y700023D02*
G01*
X1525015Y800100D01*
X1615186Y800100D01*
X1615186Y700023D01*
G37*
G36*
X1384807Y700023D02*
G01*
X1384807Y800100D01*
X1474978Y800100D01*
X1474978Y700023D01*
G37*
G36*
X2474975Y949960D02*
G01*
X2474975Y1050036D01*
X2565145Y1050036D01*
X2565145Y949960D01*
G37*
G36*
X2335022Y949960D02*
G01*
X2335022Y1050036D01*
X2425191Y1050036D01*
X2425191Y949960D01*
G37*
G36*
X2335022Y700023D02*
G01*
X2335022Y800100D01*
X2425191Y800100D01*
X2425191Y700023D01*
G37*
G36*
X2474975Y700023D02*
G01*
X2474975Y800100D01*
X2565145Y800100D01*
X2565145Y700023D01*
G37*
G36*
X2474975Y2149855D02*
G01*
X2474975Y2250186D01*
X2565145Y2250186D01*
X2565145Y2149855D01*
G37*
G36*
X2335022Y2149855D02*
G01*
X2335022Y2250186D01*
X2425191Y2250186D01*
X2425191Y2149855D01*
G37*
G36*
X1232407Y214884D02*
G01*
X1232407Y295147D01*
X1367536Y295147D01*
X1367536Y214884D01*
G37*
G36*
X1232407Y404876D02*
G01*
X1232407Y485139D01*
X1367536Y485139D01*
X1367536Y404876D01*
G37*
G36*
X1032510Y309879D02*
G01*
X1032510Y390144D01*
X1167637Y390144D01*
X1167637Y309879D01*
G37*
G36*
X1832355Y404876D02*
G01*
X1832355Y485139D01*
X1967484Y485139D01*
X1967484Y404876D01*
G37*
G36*
X1832355Y214884D02*
G01*
X1832355Y295147D01*
X1967484Y295147D01*
X1967484Y214884D01*
G37*
G36*
X2032508Y309879D02*
G01*
X2032508Y390144D01*
X2167636Y390144D01*
X2167636Y309879D01*
G37*
G36*
X316484Y299465D02*
G01*
X316484Y389889D01*
X486663Y389889D01*
X486663Y299465D01*
G37*
G36*
X578865Y394462D02*
G01*
X578865Y484886D01*
X749045Y484886D01*
X749045Y394462D01*
G37*
G36*
X578865Y204470D02*
G01*
X578865Y294894D01*
X749045Y294894D01*
X749045Y204470D01*
G37*
G36*
X1080007Y1901697D02*
G01*
X1080007Y1998218D01*
X1170686Y1998218D01*
X1170686Y1901697D01*
G37*
G36*
X929386Y1901697D02*
G01*
X929386Y1998218D01*
X1020063Y1998218D01*
X1020063Y1901697D01*
G37*
G36*
X1479295Y201676D02*
G01*
X1479295Y298195D01*
X1569973Y298195D01*
X1569973Y201676D01*
G37*
G36*
X1629918Y201676D02*
G01*
X1629918Y298195D01*
X1720850Y298195D01*
X1720850Y201676D01*
G37*
G36*
X1629918Y401828D02*
G01*
X1629918Y498347D01*
X1720850Y498347D01*
X1720850Y401828D01*
G37*
G36*
X1479295Y401828D02*
G01*
X1479295Y498347D01*
X1569973Y498347D01*
X1569973Y401828D01*
G37*
G36*
X2329179Y1451610D02*
G01*
X2329179Y1548384D01*
X2420111Y1548384D01*
X2420111Y1451610D01*
G37*
G36*
X2479802Y1451610D02*
G01*
X2479802Y1548384D01*
X2570734Y1548384D01*
X2570734Y1451610D01*
G37*
G36*
X2479802Y1151636D02*
G01*
X2479802Y1248155D01*
X2570734Y1248155D01*
X2570734Y1151636D01*
G37*
G36*
X2329179Y1151636D02*
G01*
X2329179Y1248155D01*
X2420111Y1248155D01*
X2420111Y1151636D01*
G37*
G36*
X2329179Y1651762D02*
G01*
X2329179Y1748281D01*
X2420111Y1748281D01*
X2420111Y1651762D01*
G37*
G36*
X2479802Y1651762D02*
G01*
X2479802Y1748281D01*
X2570734Y1748281D01*
X2570734Y1651762D01*
G37*
G36*
X929386Y1101597D02*
G01*
X929386Y1198371D01*
X1020063Y1198371D01*
X1020063Y1101597D01*
G37*
G36*
X1080007Y1101597D02*
G01*
X1080007Y1198371D01*
X1170686Y1198371D01*
X1170686Y1101597D01*
G37*
G36*
X1929892Y701802D02*
G01*
X1929892Y798321D01*
X2020824Y798321D01*
X2020824Y701802D01*
G37*
G36*
X1779270Y701802D02*
G01*
X1779270Y798321D01*
X1870202Y798321D01*
X1870202Y701802D01*
G37*
G36*
X929386Y901700D02*
G01*
X929386Y998220D01*
X1020063Y998220D01*
X1020063Y901700D01*
G37*
G36*
X1080007Y901700D02*
G01*
X1080007Y998220D01*
X1170686Y998220D01*
X1170686Y901700D01*
G37*
G36*
X929386Y1301750D02*
G01*
X929386Y1398270D01*
X1020063Y1398270D01*
X1020063Y1301750D01*
G37*
G36*
X1080007Y1301750D02*
G01*
X1080007Y1398270D01*
X1170686Y1398270D01*
X1170686Y1301750D01*
G37*
G36*
X929386Y1501647D02*
G01*
X929386Y1598168D01*
X1020063Y1598168D01*
X1020063Y1501647D01*
G37*
G36*
X1080007Y1501647D02*
G01*
X1080007Y1598168D01*
X1170686Y1598168D01*
X1170686Y1501647D01*
G37*
G36*
X2329179Y1901697D02*
G01*
X2329179Y1998218D01*
X2420111Y1998218D01*
X2420111Y1901697D01*
G37*
G36*
X2479802Y1901697D02*
G01*
X2479802Y1998218D01*
X2570734Y1998218D01*
X2570734Y1901697D01*
G37*
G36*
X929386Y701802D02*
G01*
X929386Y798321D01*
X1020063Y798321D01*
X1020063Y701802D01*
G37*
G36*
X1080007Y701802D02*
G01*
X1080007Y798321D01*
X1170686Y798321D01*
X1170686Y701802D01*
G37*
G36*
X851662Y379984D02*
G01*
X851662Y470662D01*
X948181Y470662D01*
X948181Y379984D01*
G37*
G36*
X851662Y229362D02*
G01*
X851662Y320039D01*
X948181Y320039D01*
X948181Y229362D01*
G37*
G36*
X2800858Y1255013D02*
G01*
X2800858Y1294892D01*
X2926079Y1294892D01*
X2926079Y1255013D01*
G37*
G36*
X2800858Y1305052D02*
G01*
X2800858Y1344929D01*
X2926079Y1344929D01*
X2926079Y1305052D01*
G37*
G36*
X2800858Y1355089D02*
G01*
X2800858Y1394968D01*
X2926079Y1394968D01*
X2926079Y1355089D01*
G37*
G36*
X2800858Y1404873D02*
G01*
X2800858Y1445005D01*
X2926079Y1445005D01*
X2926079Y1404873D01*
G37*
G36*
X2800858Y1454912D02*
G01*
X2800858Y1495044D01*
X2926079Y1495044D01*
X2926079Y1454912D01*
G37*
G36*
X2800858Y1504950D02*
G01*
X2800858Y1545081D01*
X2926079Y1545081D01*
X2926079Y1504950D01*
G37*
G36*
X2800858Y1554987D02*
G01*
X2800858Y1595120D01*
X2926079Y1595120D01*
X2926079Y1554987D01*
G37*
G36*
X2800858Y1605026D02*
G01*
X2800858Y1644904D01*
X2926079Y1644904D01*
X2926079Y1605026D01*
G37*
G36*
X2800858Y1204976D02*
G01*
X2800858Y1245107D01*
X2926079Y1245107D01*
X2926079Y1204976D01*
G37*
G36*
X2800858Y1655063D02*
G01*
X2800858Y1694942D01*
X2926079Y1694942D01*
X2926079Y1655063D01*
G37*
G36*
X2800858Y1175004D02*
G01*
X2800858Y1214881D01*
X2926079Y1214881D01*
X2926079Y1175004D01*
G37*
G36*
X2800858Y1685036D02*
G01*
X2800858Y1724913D01*
X2926079Y1724913D01*
X2926079Y1685036D01*
G37*
G36*
X2800858Y1124965D02*
G01*
X2800858Y1165097D01*
X2926079Y1165097D01*
X2926079Y1124965D01*
G37*
G36*
X2800858Y1735073D02*
G01*
X2800858Y1774952D01*
X2926079Y1774952D01*
X2926079Y1735073D01*
G37*
G36*
X2800858Y1094994D02*
G01*
X2800858Y1135126D01*
X2926079Y1135126D01*
X2926079Y1094994D01*
G37*
G36*
X2800858Y1765045D02*
G01*
X2800858Y1804923D01*
X2926079Y1804923D01*
X2926079Y1765045D01*
G37*
G36*
X2672841Y669797D02*
G01*
X2672841Y790194D01*
X2933191Y790194D01*
X2933191Y669797D01*
G37*
G36*
X2672841Y439928D02*
G01*
X2672841Y560070D01*
X2933191Y560070D01*
X2933191Y439928D01*
G37*
G36*
X2672841Y209804D02*
G01*
X2672841Y330200D01*
X2933191Y330200D01*
X2933191Y209804D01*
G37*
G36*
X3274822Y314960D02*
G01*
X3274822Y685037D01*
X3519170Y685037D01*
X3519170Y314960D01*
G37*
G36*
X504189Y1804670D02*
G01*
X491489Y1810004D01*
X486155Y1822704D01*
X486155Y1846834D01*
X491489Y1859534D01*
X504189Y1864868D01*
X691387Y1864868D01*
X704342Y1859534D01*
X709676Y1846834D01*
X709676Y1822704D01*
X704342Y1810004D01*
X691387Y1804670D01*
G37*
G36*
X504189Y1734565D02*
G01*
X491489Y1739900D01*
X486155Y1752854D01*
X486155Y1776729D01*
X491489Y1789684D01*
X504189Y1795018D01*
X691387Y1795018D01*
X704342Y1789684D01*
X709676Y1776729D01*
X709676Y1752854D01*
X704342Y1739900D01*
X691387Y1734565D01*
G37*
G36*
X504189Y1664715D02*
G01*
X491489Y1670050D01*
X486155Y1682750D01*
X486155Y1706879D01*
X491489Y1719579D01*
X504189Y1724913D01*
X691387Y1724913D01*
X704342Y1719579D01*
X709676Y1706879D01*
X709676Y1682750D01*
X704342Y1670050D01*
X691387Y1664715D01*
G37*
G36*
X504189Y1594612D02*
G01*
X491489Y1599945D01*
X486155Y1612645D01*
X486155Y1636776D01*
X491489Y1649729D01*
X504189Y1655063D01*
X691387Y1655063D01*
X704342Y1649729D01*
X709676Y1636776D01*
X709676Y1612645D01*
X704342Y1599945D01*
X691387Y1594612D01*
G37*
G36*
X504189Y1524507D02*
G01*
X491489Y1529842D01*
X486155Y1542795D01*
X486155Y1566926D01*
X491489Y1579626D01*
X504189Y1584960D01*
X691387Y1584960D01*
X704342Y1579626D01*
X709676Y1566926D01*
X709676Y1542795D01*
X704342Y1529842D01*
X691387Y1524507D01*
G37*
G36*
X504189Y1454657D02*
G01*
X491489Y1459992D01*
X486155Y1472692D01*
X486155Y1496821D01*
X491489Y1509521D01*
X504189Y1514855D01*
X691387Y1514855D01*
X704342Y1509521D01*
X709676Y1496821D01*
X709676Y1472692D01*
X704342Y1459992D01*
X691387Y1454657D01*
G37*
G36*
X504189Y1034542D02*
G01*
X491489Y1039876D01*
X486155Y1052829D01*
X486155Y1076705D01*
X491489Y1089660D01*
X504189Y1094994D01*
X691387Y1094994D01*
X704342Y1089660D01*
X709676Y1076705D01*
X709676Y1052829D01*
X704342Y1039876D01*
X691387Y1034542D01*
G37*
G36*
X504189Y1104645D02*
G01*
X491489Y1109979D01*
X486155Y1122679D01*
X486155Y1146810D01*
X491489Y1159763D01*
X504189Y1164844D01*
X691387Y1164844D01*
X704342Y1159763D01*
X709676Y1146810D01*
X709676Y1122679D01*
X704342Y1109979D01*
X691387Y1104645D01*
G37*
G36*
X504189Y1174750D02*
G01*
X491489Y1179829D01*
X486155Y1192784D01*
X486155Y1216913D01*
X491489Y1229613D01*
X504189Y1234947D01*
X691387Y1234947D01*
X704342Y1229613D01*
X709676Y1216913D01*
X709676Y1192784D01*
X704342Y1179829D01*
X691387Y1174750D01*
G37*
G36*
X504189Y1244600D02*
G01*
X491489Y1249934D01*
X486155Y1262887D01*
X486155Y1286763D01*
X491489Y1299718D01*
X504189Y1305052D01*
X691387Y1305052D01*
X704342Y1299718D01*
X709676Y1286763D01*
X709676Y1262887D01*
X704342Y1249934D01*
X691387Y1244600D01*
G37*
G36*
X504189Y1314704D02*
G01*
X491489Y1320037D01*
X486155Y1332737D01*
X486155Y1356868D01*
X491489Y1369568D01*
X504189Y1374902D01*
X691387Y1374902D01*
X704342Y1369568D01*
X709676Y1356868D01*
X709676Y1332737D01*
X704342Y1320037D01*
X691387Y1314704D01*
G37*
G36*
X504189Y1384554D02*
G01*
X491489Y1389887D01*
X486155Y1402842D01*
X486155Y1426718D01*
X491489Y1439671D01*
X504189Y1445005D01*
X691387Y1445005D01*
X704342Y1439671D01*
X709676Y1426718D01*
X709676Y1402842D01*
X704342Y1389887D01*
X691387Y1384554D01*
G37*
M02*
