G04 Layer: BottomSilkLayer*
G04 EasyEDA v6.4.25, 2021-11-23T22:34:31+08:00*
G04 edc2d8422afb4d2cae5fb123c77887e6,45ba98ba689c459a8d72e4540021d05b,10*
G04 Gerber Generator version 0.2*
G04 Scale: 100 percent, Rotated: No, Reflected: No *
G04 Dimensions in millimeters *
G04 leading zeros omitted , absolute positions ,4 integer and 5 decimal *
%FSLAX45Y45*%
%MOMM*%

%ADD10C,0.2540*%
%ADD29C,0.1524*%
%ADD32C,0.2032*%

%LPD*%
G36*
X1050798Y1799793D02*
G01*
X1044194Y1799386D01*
X1038047Y1798269D01*
X1032357Y1796542D01*
X1027074Y1794306D01*
X1022197Y1791563D01*
X1017828Y1788515D01*
X1013866Y1785213D01*
X1010412Y1781759D01*
X1019759Y1770837D01*
X1025956Y1776577D01*
X1033170Y1781098D01*
X1041298Y1783994D01*
X1050493Y1785061D01*
X1055878Y1784756D01*
X1060958Y1783943D01*
X1065834Y1782622D01*
X1070406Y1780743D01*
X1074674Y1778406D01*
X1078636Y1775561D01*
X1082294Y1772208D01*
X1085596Y1768449D01*
X1088593Y1764233D01*
X1091234Y1759559D01*
X1093470Y1754428D01*
X1095349Y1748942D01*
X1096822Y1743049D01*
X1097889Y1736750D01*
X1098550Y1730095D01*
X1098804Y1723085D01*
X1098550Y1716074D01*
X1097940Y1709369D01*
X1096873Y1703070D01*
X1095451Y1697126D01*
X1093622Y1691589D01*
X1091438Y1686458D01*
X1088898Y1681734D01*
X1086002Y1677466D01*
X1082751Y1673606D01*
X1079144Y1670253D01*
X1075232Y1667357D01*
X1071016Y1664970D01*
X1066495Y1663090D01*
X1061720Y1661718D01*
X1056640Y1660855D01*
X1051306Y1660601D01*
X1046022Y1660855D01*
X1041044Y1661718D01*
X1036370Y1663090D01*
X1031900Y1665020D01*
X1027684Y1667408D01*
X1023619Y1670354D01*
X1019759Y1673758D01*
X1015949Y1677619D01*
X1006856Y1667205D01*
X1011275Y1662328D01*
X1016000Y1658061D01*
X1021080Y1654403D01*
X1026464Y1651406D01*
X1032256Y1649018D01*
X1038453Y1647291D01*
X1045006Y1646224D01*
X1052017Y1645869D01*
X1057503Y1646072D01*
X1062786Y1646732D01*
X1067917Y1647748D01*
X1072845Y1649222D01*
X1077569Y1651101D01*
X1082090Y1653387D01*
X1086408Y1656029D01*
X1090472Y1659077D01*
X1094282Y1662480D01*
X1097838Y1666239D01*
X1101140Y1670405D01*
X1104138Y1674875D01*
X1106830Y1679752D01*
X1109167Y1684934D01*
X1111250Y1690420D01*
X1112926Y1696262D01*
X1114298Y1702460D01*
X1115263Y1708962D01*
X1115872Y1715719D01*
X1116025Y1722831D01*
X1115822Y1729841D01*
X1115263Y1736598D01*
X1114247Y1743049D01*
X1112875Y1749145D01*
X1111148Y1754987D01*
X1109065Y1760524D01*
X1106627Y1765706D01*
X1103884Y1770532D01*
X1100836Y1775053D01*
X1097483Y1779219D01*
X1093876Y1783029D01*
X1089964Y1786432D01*
X1085850Y1789531D01*
X1081430Y1792173D01*
X1076807Y1794459D01*
X1071981Y1796389D01*
X1066952Y1797862D01*
X1061720Y1798929D01*
X1056335Y1799589D01*
G37*
G36*
X1388364Y1799793D02*
G01*
X1381760Y1799386D01*
X1375613Y1798269D01*
X1369822Y1796542D01*
X1364538Y1794306D01*
X1359662Y1791563D01*
X1355242Y1788515D01*
X1351330Y1785213D01*
X1347927Y1781759D01*
X1357325Y1770837D01*
X1363522Y1776577D01*
X1370736Y1781098D01*
X1378864Y1783994D01*
X1388059Y1785061D01*
X1393444Y1784756D01*
X1398524Y1783943D01*
X1403400Y1782622D01*
X1407972Y1780743D01*
X1412240Y1778406D01*
X1416202Y1775561D01*
X1419860Y1772208D01*
X1423162Y1768449D01*
X1426159Y1764233D01*
X1428800Y1759559D01*
X1431036Y1754428D01*
X1432915Y1748942D01*
X1434388Y1743049D01*
X1435455Y1736750D01*
X1436116Y1730095D01*
X1436319Y1723085D01*
X1436116Y1716074D01*
X1435506Y1709369D01*
X1434439Y1703070D01*
X1433017Y1697126D01*
X1431188Y1691589D01*
X1429004Y1686458D01*
X1426464Y1681734D01*
X1423568Y1677466D01*
X1420317Y1673606D01*
X1416710Y1670253D01*
X1412798Y1667357D01*
X1408582Y1664970D01*
X1404061Y1663090D01*
X1399286Y1661718D01*
X1394206Y1660855D01*
X1388872Y1660601D01*
X1383588Y1660855D01*
X1378610Y1661718D01*
X1373936Y1663090D01*
X1369466Y1665020D01*
X1365250Y1667408D01*
X1361186Y1670354D01*
X1357325Y1673758D01*
X1353566Y1677619D01*
X1344117Y1667205D01*
X1348638Y1662328D01*
X1353464Y1658061D01*
X1358595Y1654403D01*
X1364030Y1651406D01*
X1369822Y1649018D01*
X1376019Y1647291D01*
X1382572Y1646224D01*
X1389583Y1645869D01*
X1395069Y1646072D01*
X1400352Y1646732D01*
X1405483Y1647748D01*
X1410411Y1649222D01*
X1415135Y1651101D01*
X1419656Y1653387D01*
X1423974Y1656029D01*
X1428038Y1659077D01*
X1431848Y1662480D01*
X1435404Y1666239D01*
X1438706Y1670405D01*
X1441704Y1674875D01*
X1444396Y1679752D01*
X1446733Y1684934D01*
X1448816Y1690420D01*
X1450492Y1696262D01*
X1451864Y1702460D01*
X1452829Y1708962D01*
X1453438Y1715719D01*
X1453591Y1722831D01*
X1453388Y1729841D01*
X1452829Y1736598D01*
X1451813Y1743049D01*
X1450441Y1749145D01*
X1448714Y1754987D01*
X1446631Y1760524D01*
X1444193Y1765706D01*
X1441450Y1770532D01*
X1438402Y1775053D01*
X1435049Y1779219D01*
X1431442Y1783029D01*
X1427581Y1786432D01*
X1423416Y1789531D01*
X1418996Y1792173D01*
X1414373Y1794459D01*
X1409547Y1796389D01*
X1404518Y1797862D01*
X1399286Y1798929D01*
X1393901Y1799589D01*
G37*
G36*
X1725930Y1799793D02*
G01*
X1719325Y1799386D01*
X1713179Y1798269D01*
X1707388Y1796542D01*
X1702104Y1794306D01*
X1697228Y1791563D01*
X1692808Y1788515D01*
X1688896Y1785213D01*
X1685493Y1781759D01*
X1694688Y1770837D01*
X1700987Y1776577D01*
X1708251Y1781098D01*
X1716430Y1783994D01*
X1725625Y1785061D01*
X1730959Y1784756D01*
X1736039Y1783943D01*
X1740865Y1782622D01*
X1745386Y1780743D01*
X1749653Y1778406D01*
X1753666Y1775561D01*
X1757324Y1772208D01*
X1760626Y1768449D01*
X1763623Y1764233D01*
X1766265Y1759559D01*
X1768551Y1754428D01*
X1770430Y1748942D01*
X1771954Y1743049D01*
X1773021Y1736750D01*
X1773682Y1730095D01*
X1773885Y1723085D01*
X1773682Y1716074D01*
X1773072Y1709369D01*
X1772005Y1703070D01*
X1770583Y1697126D01*
X1768754Y1691589D01*
X1766570Y1686458D01*
X1764030Y1681734D01*
X1761083Y1677466D01*
X1757832Y1673606D01*
X1754225Y1670253D01*
X1750314Y1667357D01*
X1746046Y1664970D01*
X1741525Y1663090D01*
X1736648Y1661718D01*
X1731568Y1660855D01*
X1726133Y1660601D01*
X1720951Y1660855D01*
X1716024Y1661718D01*
X1711350Y1663090D01*
X1706930Y1665020D01*
X1702663Y1667408D01*
X1698650Y1670354D01*
X1694789Y1673758D01*
X1691132Y1677619D01*
X1681683Y1667205D01*
X1686204Y1662328D01*
X1691030Y1658061D01*
X1696161Y1654403D01*
X1701596Y1651406D01*
X1707388Y1649018D01*
X1713585Y1647291D01*
X1720138Y1646224D01*
X1727149Y1645869D01*
X1732584Y1646072D01*
X1737868Y1646732D01*
X1742948Y1647748D01*
X1747875Y1649222D01*
X1752600Y1651101D01*
X1757121Y1653387D01*
X1761439Y1656029D01*
X1765503Y1659077D01*
X1769313Y1662480D01*
X1772869Y1666239D01*
X1776171Y1670405D01*
X1779168Y1674875D01*
X1781860Y1679752D01*
X1784248Y1684934D01*
X1786331Y1690420D01*
X1788058Y1696262D01*
X1789379Y1702460D01*
X1790395Y1708962D01*
X1790954Y1715719D01*
X1791157Y1722831D01*
X1790954Y1729841D01*
X1790395Y1736598D01*
X1789379Y1743049D01*
X1788007Y1749145D01*
X1786280Y1754987D01*
X1784197Y1760524D01*
X1781759Y1765706D01*
X1779016Y1770532D01*
X1775968Y1775053D01*
X1772615Y1779219D01*
X1769008Y1783029D01*
X1765096Y1786432D01*
X1760982Y1789531D01*
X1756562Y1792173D01*
X1751939Y1794459D01*
X1747113Y1796389D01*
X1742084Y1797862D01*
X1736852Y1798929D01*
X1731467Y1799589D01*
G37*
G36*
X1193749Y1797253D02*
G01*
X1193749Y1662633D01*
X1127709Y1662633D01*
X1127709Y1648409D01*
X1210564Y1648409D01*
X1210564Y1797253D01*
G37*
G36*
X1251407Y1797253D02*
G01*
X1251407Y1691335D01*
X1251661Y1685137D01*
X1252423Y1679244D01*
X1253642Y1673606D01*
X1255471Y1668373D01*
X1257808Y1663547D01*
X1260703Y1659178D01*
X1264208Y1655318D01*
X1268323Y1652066D01*
X1273098Y1649425D01*
X1278483Y1647494D01*
X1284528Y1646275D01*
X1291285Y1645869D01*
X1297940Y1646224D01*
X1304086Y1647342D01*
X1309776Y1649171D01*
X1315008Y1651711D01*
X1319784Y1654962D01*
X1324102Y1658924D01*
X1328013Y1663598D01*
X1331417Y1668983D01*
X1319225Y1677365D01*
X1313891Y1669592D01*
X1307744Y1664411D01*
X1300734Y1661515D01*
X1292809Y1660601D01*
X1287018Y1661058D01*
X1282039Y1662430D01*
X1277772Y1664766D01*
X1274318Y1668170D01*
X1271625Y1672589D01*
X1269746Y1678178D01*
X1268577Y1684883D01*
X1268222Y1692859D01*
X1268222Y1797253D01*
G37*
G36*
X1531112Y1797253D02*
G01*
X1531112Y1662633D01*
X1465275Y1662633D01*
X1465275Y1648409D01*
X1548130Y1648409D01*
X1548130Y1797253D01*
G37*
G36*
X1589024Y1797253D02*
G01*
X1589024Y1691335D01*
X1589227Y1685137D01*
X1589938Y1679244D01*
X1591208Y1673606D01*
X1592935Y1668373D01*
X1595272Y1663547D01*
X1598168Y1659178D01*
X1601673Y1655318D01*
X1605788Y1652066D01*
X1610512Y1649425D01*
X1615948Y1647494D01*
X1622044Y1646275D01*
X1628851Y1645869D01*
X1635506Y1646224D01*
X1641652Y1647342D01*
X1647342Y1649171D01*
X1652574Y1651711D01*
X1657350Y1654962D01*
X1661668Y1658924D01*
X1665579Y1663598D01*
X1668983Y1668983D01*
X1656791Y1677365D01*
X1651355Y1669592D01*
X1645208Y1664411D01*
X1638300Y1661515D01*
X1630375Y1660601D01*
X1624584Y1661058D01*
X1619605Y1662430D01*
X1615338Y1664766D01*
X1611884Y1668170D01*
X1609191Y1672589D01*
X1607312Y1678178D01*
X1606143Y1684883D01*
X1605788Y1692859D01*
X1605788Y1797253D01*
G37*
G36*
X1868627Y1797253D02*
G01*
X1868627Y1662633D01*
X1802841Y1662633D01*
X1802841Y1648409D01*
X1885696Y1648409D01*
X1885696Y1797253D01*
G37*
G36*
X1926285Y1797253D02*
G01*
X1926285Y1691335D01*
X1926539Y1685137D01*
X1927301Y1679244D01*
X1928520Y1673606D01*
X1930349Y1668373D01*
X1932686Y1663547D01*
X1935632Y1659178D01*
X1939137Y1655318D01*
X1943303Y1652066D01*
X1948078Y1649425D01*
X1953514Y1647494D01*
X1959610Y1646275D01*
X1966417Y1645869D01*
X1973072Y1646224D01*
X1979218Y1647342D01*
X1984908Y1649171D01*
X1990140Y1651711D01*
X1994916Y1654962D01*
X1999234Y1658924D01*
X2003145Y1663598D01*
X2006549Y1668983D01*
X1994407Y1677365D01*
X1988921Y1669592D01*
X1982774Y1664411D01*
X1975866Y1661515D01*
X1967992Y1660601D01*
X1962150Y1661058D01*
X1957171Y1662430D01*
X1952904Y1664766D01*
X1949450Y1668170D01*
X1946757Y1672589D01*
X1944878Y1678178D01*
X1943709Y1684883D01*
X1943354Y1692859D01*
X1943354Y1797253D01*
G37*
D29*
X2759684Y650001D02*
G01*
X2868650Y650001D01*
X2759684Y650001D02*
G01*
X2759684Y582437D01*
X2811500Y650001D02*
G01*
X2811500Y608345D01*
X2759684Y548147D02*
G01*
X2868650Y548147D01*
X2759684Y548147D02*
G01*
X2759684Y501411D01*
X2764764Y485917D01*
X2770098Y480583D01*
X2780512Y475503D01*
X2796006Y475503D01*
X2806420Y480583D01*
X2811500Y485917D01*
X2816834Y501411D01*
X2816834Y548147D01*
X2785592Y363235D02*
G01*
X2775178Y368315D01*
X2764764Y378729D01*
X2759684Y389143D01*
X2759684Y409971D01*
X2764764Y420385D01*
X2775178Y430799D01*
X2785592Y435879D01*
X2801340Y441213D01*
X2827248Y441213D01*
X2842742Y435879D01*
X2853156Y430799D01*
X2863570Y420385D01*
X2868650Y409971D01*
X2868650Y389143D01*
X2863570Y378729D01*
X2853156Y368315D01*
X2842742Y363235D01*
X2780512Y328945D02*
G01*
X2775178Y318531D01*
X2759684Y303037D01*
X2868650Y303037D01*
X2250000Y440316D02*
G01*
X2250000Y362338D01*
X2244920Y346844D01*
X2234506Y336430D01*
X2218758Y331350D01*
X2208344Y331350D01*
X2192850Y336430D01*
X2182436Y346844D01*
X2177356Y362338D01*
X2177356Y440316D01*
X2143066Y419488D02*
G01*
X2132652Y424822D01*
X2116904Y440316D01*
X2116904Y331350D01*
D32*
X1939978Y1465732D02*
G01*
X1939978Y1271930D01*
X1939978Y1465732D02*
G01*
X1820090Y1465732D01*
X1939978Y1373530D02*
G01*
X1866318Y1373530D01*
X1939978Y1271930D02*
G01*
X1820090Y1271930D01*
X1629844Y1438046D02*
G01*
X1648132Y1456588D01*
X1675818Y1465732D01*
X1712902Y1465732D01*
X1740588Y1456588D01*
X1759130Y1438046D01*
X1759130Y1419758D01*
X1749732Y1401216D01*
X1740588Y1392072D01*
X1722046Y1382674D01*
X1666674Y1364132D01*
X1648132Y1354988D01*
X1638988Y1345844D01*
X1629844Y1327302D01*
X1629844Y1299616D01*
X1648132Y1281074D01*
X1675818Y1271930D01*
X1712902Y1271930D01*
X1740588Y1281074D01*
X1759130Y1299616D01*
X1568884Y1465732D02*
G01*
X1568884Y1271930D01*
X1568884Y1465732D02*
G01*
X1485572Y1465732D01*
X1457886Y1456588D01*
X1448742Y1447444D01*
X1439598Y1428902D01*
X1439598Y1401216D01*
X1448742Y1382674D01*
X1457886Y1373530D01*
X1485572Y1364132D01*
X1568884Y1364132D01*
X1378638Y1428902D02*
G01*
X1360096Y1438046D01*
X1332410Y1465732D01*
X1332410Y1271930D01*
X1262052Y1419758D02*
G01*
X1262052Y1428902D01*
X1252908Y1447444D01*
X1243764Y1456588D01*
X1225222Y1465732D01*
X1188138Y1465732D01*
X1169850Y1456588D01*
X1160452Y1447444D01*
X1151308Y1428902D01*
X1151308Y1410360D01*
X1160452Y1392072D01*
X1178994Y1364132D01*
X1271450Y1271930D01*
X1142164Y1271930D01*
X1081204Y1465732D02*
G01*
X1081204Y1271930D01*
X1081204Y1465732D02*
G01*
X961062Y1465732D01*
X1081204Y1373530D02*
G01*
X1007290Y1373530D01*
D10*
X2667002Y56799D02*
G01*
X2887103Y56796D01*
X2662412Y914694D02*
G01*
X2662402Y59100D01*
X3235111Y86601D02*
G01*
X3186811Y86601D01*
X3235111Y283890D02*
G01*
X3235111Y86601D01*
X2700009Y914996D02*
G01*
X2662412Y914996D01*
X3228207Y914697D02*
G01*
X3177611Y914697D01*
X3228207Y914697D02*
G01*
X3228207Y717400D01*
X2700009Y914996D02*
G01*
X2883311Y914996D01*
X2100150Y1975078D02*
G01*
X2100150Y675081D01*
X900153Y675081D01*
X900153Y1975078D01*
X2100150Y1975078D01*
X1000152Y2275078D02*
G01*
X2000150Y2275078D01*
X2000150Y2775077D01*
X1900151Y2775077D01*
X1900151Y2475077D01*
X1800151Y2475077D01*
X1800151Y2775077D01*
X1700151Y2775077D01*
X1700151Y2475077D01*
X1600151Y2475077D01*
X1600151Y2775077D01*
X1500151Y2775077D01*
X1500151Y2475077D01*
X1400152Y2475077D01*
X1400152Y2775077D01*
X800153Y2775077D01*
X2200150Y2175078D02*
G01*
X800153Y2175078D01*
X2300150Y2875076D02*
G01*
X700153Y2875076D01*
X700153Y2875076D02*
G01*
X700153Y2098182D01*
X700153Y1951954D02*
G01*
X700153Y1898182D01*
X700153Y1751954D02*
G01*
X700153Y1698183D01*
X700153Y1551955D02*
G01*
X700153Y1498183D01*
X700153Y1351955D02*
G01*
X700153Y1298183D01*
X700153Y1151956D02*
G01*
X700153Y1098181D01*
X700153Y951953D02*
G01*
X700153Y898182D01*
X700153Y751954D02*
G01*
X700153Y698182D01*
X700153Y551954D02*
G01*
X700153Y475081D01*
X700153Y475081D02*
G01*
X927204Y475081D01*
X1073431Y475081D02*
G01*
X1127203Y475081D01*
X1273431Y475081D02*
G01*
X1327127Y475081D01*
X1473354Y475081D02*
G01*
X1527202Y475081D01*
X1673430Y475081D02*
G01*
X1727075Y475081D01*
X1873303Y475081D02*
G01*
X1926871Y475081D01*
X2073099Y475081D02*
G01*
X2300150Y475081D01*
X2300150Y475081D02*
G01*
X2300150Y551954D01*
X2300150Y698182D02*
G01*
X2300150Y751954D01*
X2300150Y898182D02*
G01*
X2300150Y951953D01*
X2300150Y1098181D02*
G01*
X2300150Y1151956D01*
X2300150Y1298183D02*
G01*
X2300150Y1351955D01*
X2300150Y1498183D02*
G01*
X2300150Y1551955D01*
X2300150Y1698183D02*
G01*
X2300150Y1751954D01*
X2300150Y1898182D02*
G01*
X2300150Y1951954D01*
X2300150Y2098182D02*
G01*
X2300150Y2875076D01*
X-202107Y2249792D02*
G01*
X147891Y2249792D01*
X247891Y2149792D01*
X247891Y1999792D01*
X347893Y1899793D01*
X647893Y1899793D01*
X647893Y999792D01*
X197891Y999792D01*
X147891Y949792D01*
X147891Y399790D01*
X97891Y349791D01*
X-202107Y349791D01*
G75*
G01
X3329686Y758063D02*
G03X3329686Y758063I-12700J0D01*
M02*
