G04 Layer: TopPasteMaskLayer*
G04 EasyEDA v6.4.25, 2021-11-23T22:34:31+08:00*
G04 edc2d8422afb4d2cae5fb123c77887e6,45ba98ba689c459a8d72e4540021d05b,10*
G04 Gerber Generator version 0.2*
G04 Scale: 100 percent, Rotated: No, Reflected: No *
G04 Dimensions in millimeters *
G04 leading zeros omitted , absolute positions ,4 integer and 5 decimal *
%FSLAX45Y45*%
%MOMM*%

%ADD12C,0.5600*%
%ADD14R,0.8000X0.9000*%
%ADD15R,1.2500X0.7000*%
%ADD16R,1.5000X0.7000*%
%ADD20R,2.5000X1.1000*%

%LPD*%
G36*
X1089507Y1995017D02*
G01*
X1084478Y1989988D01*
X1084478Y1967179D01*
X1121511Y1967179D01*
X1121511Y1934210D01*
X1084478Y1934210D01*
X1084478Y1909978D01*
X1089507Y1905000D01*
X1169517Y1905000D01*
X1174496Y1909978D01*
X1174496Y1989988D01*
X1169517Y1995017D01*
G37*
G36*
X930503Y1995017D02*
G01*
X925525Y1989988D01*
X925525Y1909978D01*
X930503Y1905000D01*
X1009497Y1905000D01*
X1014476Y1909978D01*
X1014476Y1934210D01*
X976528Y1934210D01*
X976528Y1967179D01*
X1014476Y1967179D01*
X1014476Y1989988D01*
X1009497Y1995017D01*
G37*
G36*
X1480515Y294995D02*
G01*
X1475486Y290017D01*
X1475486Y210007D01*
X1480515Y204978D01*
X1560474Y204978D01*
X1565503Y210007D01*
X1565503Y232816D01*
X1528521Y232816D01*
X1528521Y265785D01*
X1565503Y265785D01*
X1565503Y290017D01*
X1560474Y294995D01*
G37*
G36*
X1640484Y294995D02*
G01*
X1635506Y290017D01*
X1635506Y265785D01*
X1673504Y265785D01*
X1673504Y232816D01*
X1635506Y232816D01*
X1635506Y210007D01*
X1640484Y204978D01*
X1719478Y204978D01*
X1724507Y210007D01*
X1724507Y290017D01*
X1719478Y294995D01*
G37*
G36*
X1639519Y494995D02*
G01*
X1634489Y490016D01*
X1634489Y467207D01*
X1671523Y467207D01*
X1671523Y434187D01*
X1634489Y434187D01*
X1634489Y410006D01*
X1639519Y404977D01*
X1719478Y404977D01*
X1724507Y410006D01*
X1724507Y490016D01*
X1719478Y494995D01*
G37*
G36*
X1480515Y494995D02*
G01*
X1475486Y490016D01*
X1475486Y410006D01*
X1480515Y404977D01*
X1559509Y404977D01*
X1564487Y410006D01*
X1564487Y434187D01*
X1526489Y434187D01*
X1526489Y467207D01*
X1564487Y467207D01*
X1564487Y490016D01*
X1559509Y494995D01*
G37*
G36*
X2330500Y1544980D02*
G01*
X2325522Y1540002D01*
X2325522Y1459992D01*
X2330500Y1455013D01*
X2410510Y1455013D01*
X2415489Y1459992D01*
X2415489Y1482801D01*
X2378506Y1482801D01*
X2378506Y1515821D01*
X2415489Y1515821D01*
X2415489Y1540002D01*
X2410510Y1544980D01*
G37*
G36*
X2490520Y1544980D02*
G01*
X2485491Y1540002D01*
X2485491Y1515821D01*
X2523490Y1515821D01*
X2523490Y1482801D01*
X2485491Y1482801D01*
X2485491Y1459992D01*
X2490520Y1455013D01*
X2569514Y1455013D01*
X2574493Y1459992D01*
X2574493Y1540002D01*
X2569514Y1544980D01*
G37*
G36*
X2489504Y1245006D02*
G01*
X2484475Y1239977D01*
X2484475Y1217218D01*
X2521508Y1217218D01*
X2521508Y1184198D01*
X2484475Y1184198D01*
X2484475Y1160018D01*
X2489504Y1154988D01*
X2569514Y1154988D01*
X2574493Y1160018D01*
X2574493Y1239977D01*
X2569514Y1245006D01*
G37*
G36*
X2330500Y1245006D02*
G01*
X2325522Y1239977D01*
X2325522Y1160018D01*
X2330500Y1154988D01*
X2409494Y1154988D01*
X2414524Y1160018D01*
X2414524Y1184198D01*
X2376525Y1184198D01*
X2376525Y1217218D01*
X2414524Y1217218D01*
X2414524Y1239977D01*
X2409494Y1245006D01*
G37*
G36*
X2330500Y1744980D02*
G01*
X2325522Y1740001D01*
X2325522Y1659991D01*
X2330500Y1655013D01*
X2410510Y1655013D01*
X2415489Y1659991D01*
X2415489Y1682800D01*
X2378506Y1682800D01*
X2378506Y1715820D01*
X2415489Y1715820D01*
X2415489Y1740001D01*
X2410510Y1744980D01*
G37*
G36*
X2490520Y1744980D02*
G01*
X2485491Y1740001D01*
X2485491Y1715820D01*
X2523490Y1715820D01*
X2523490Y1682800D01*
X2485491Y1682800D01*
X2485491Y1659991D01*
X2490520Y1655013D01*
X2569514Y1655013D01*
X2574493Y1659991D01*
X2574493Y1740001D01*
X2569514Y1744980D01*
G37*
G36*
X930503Y1195019D02*
G01*
X925474Y1189990D01*
X925474Y1109980D01*
X930503Y1105001D01*
X1010513Y1105001D01*
X1015492Y1109980D01*
X1015492Y1132789D01*
X978509Y1132789D01*
X978509Y1165809D01*
X1015492Y1165809D01*
X1015492Y1189990D01*
X1010513Y1195019D01*
G37*
G36*
X1090472Y1195019D02*
G01*
X1085494Y1189990D01*
X1085494Y1165809D01*
X1123492Y1165809D01*
X1123492Y1132789D01*
X1085494Y1132789D01*
X1085494Y1109980D01*
X1090472Y1105001D01*
X1169517Y1105001D01*
X1174496Y1109980D01*
X1174496Y1189990D01*
X1169517Y1195019D01*
G37*
G36*
X1939493Y795020D02*
G01*
X1934514Y789990D01*
X1934514Y767181D01*
X1971497Y767181D01*
X1971497Y734212D01*
X1934514Y734212D01*
X1934514Y709980D01*
X1939493Y705002D01*
X2019503Y705002D01*
X2024481Y709980D01*
X2024481Y789990D01*
X2019503Y795020D01*
G37*
G36*
X1780489Y795020D02*
G01*
X1775510Y789990D01*
X1775510Y709980D01*
X1780489Y705002D01*
X1859483Y705002D01*
X1864512Y709980D01*
X1864512Y734212D01*
X1826514Y734212D01*
X1826514Y767181D01*
X1864512Y767181D01*
X1864512Y789990D01*
X1859483Y795020D01*
G37*
G36*
X930503Y995019D02*
G01*
X925474Y989990D01*
X925474Y909980D01*
X930503Y905002D01*
X1010513Y905002D01*
X1015492Y909980D01*
X1015492Y932789D01*
X978509Y932789D01*
X978509Y965809D01*
X1015492Y965809D01*
X1015492Y989990D01*
X1010513Y995019D01*
G37*
G36*
X1090472Y995019D02*
G01*
X1085494Y989990D01*
X1085494Y965809D01*
X1123492Y965809D01*
X1123492Y932789D01*
X1085494Y932789D01*
X1085494Y909980D01*
X1090472Y905002D01*
X1169517Y905002D01*
X1174496Y909980D01*
X1174496Y989990D01*
X1169517Y995019D01*
G37*
G36*
X930503Y1395018D02*
G01*
X925474Y1389989D01*
X925474Y1309979D01*
X930503Y1305001D01*
X1010513Y1305001D01*
X1015492Y1309979D01*
X1015492Y1332788D01*
X978509Y1332788D01*
X978509Y1365808D01*
X1015492Y1365808D01*
X1015492Y1389989D01*
X1010513Y1395018D01*
G37*
G36*
X1090472Y1395018D02*
G01*
X1085494Y1389989D01*
X1085494Y1365808D01*
X1123492Y1365808D01*
X1123492Y1332788D01*
X1085494Y1332788D01*
X1085494Y1309979D01*
X1090472Y1305001D01*
X1169517Y1305001D01*
X1174496Y1309979D01*
X1174496Y1389989D01*
X1169517Y1395018D01*
G37*
G36*
X930503Y1595018D02*
G01*
X925474Y1589989D01*
X925474Y1509979D01*
X930503Y1505000D01*
X1010513Y1505000D01*
X1015492Y1509979D01*
X1015492Y1532788D01*
X978509Y1532788D01*
X978509Y1565808D01*
X1015492Y1565808D01*
X1015492Y1589989D01*
X1010513Y1595018D01*
G37*
G36*
X1090472Y1595018D02*
G01*
X1085494Y1589989D01*
X1085494Y1565808D01*
X1123492Y1565808D01*
X1123492Y1532788D01*
X1085494Y1532788D01*
X1085494Y1509979D01*
X1090472Y1505000D01*
X1169517Y1505000D01*
X1174496Y1509979D01*
X1174496Y1589989D01*
X1169517Y1595018D01*
G37*
G36*
X2330500Y1995017D02*
G01*
X2325522Y1989988D01*
X2325522Y1910029D01*
X2330500Y1905000D01*
X2410510Y1905000D01*
X2415489Y1910029D01*
X2415489Y1932787D01*
X2378506Y1932787D01*
X2378506Y1965807D01*
X2415489Y1965807D01*
X2415489Y1989988D01*
X2410510Y1995017D01*
G37*
G36*
X2490520Y1995017D02*
G01*
X2485491Y1989988D01*
X2485491Y1965807D01*
X2523490Y1965807D01*
X2523490Y1932787D01*
X2485491Y1932787D01*
X2485491Y1910029D01*
X2490520Y1905000D01*
X2569514Y1905000D01*
X2574493Y1910029D01*
X2574493Y1989988D01*
X2569514Y1995017D01*
G37*
G36*
X930503Y795020D02*
G01*
X925474Y789990D01*
X925474Y709980D01*
X930503Y705002D01*
X1010513Y705002D01*
X1015492Y709980D01*
X1015492Y732790D01*
X978509Y732790D01*
X978509Y765810D01*
X1015492Y765810D01*
X1015492Y789990D01*
X1010513Y795020D01*
G37*
G36*
X1090472Y795020D02*
G01*
X1085494Y789990D01*
X1085494Y765810D01*
X1123492Y765810D01*
X1123492Y732790D01*
X1085494Y732790D01*
X1085494Y709980D01*
X1090472Y705002D01*
X1169517Y705002D01*
X1174496Y709980D01*
X1174496Y789990D01*
X1169517Y795020D01*
G37*
G36*
X859993Y474522D02*
G01*
X855014Y469493D01*
X855014Y389483D01*
X859993Y384505D01*
X882802Y384505D01*
X882802Y421487D01*
X915822Y421487D01*
X915822Y384505D01*
X940003Y384505D01*
X944981Y389483D01*
X944981Y469493D01*
X940003Y474522D01*
G37*
G36*
X859993Y314502D02*
G01*
X855014Y309524D01*
X855014Y230479D01*
X859993Y225501D01*
X940003Y225501D01*
X944981Y230479D01*
X944981Y309524D01*
X940003Y314502D01*
X915822Y314502D01*
X915822Y276504D01*
X882802Y276504D01*
X882802Y314502D01*
G37*
G36*
X2805988Y1290015D02*
G01*
X2805988Y1259992D01*
X2921000Y1259992D01*
X2921000Y1290015D01*
G37*
G36*
X2805988Y1340002D02*
G01*
X2805988Y1309979D01*
X2921000Y1309979D01*
X2921000Y1340002D01*
G37*
G36*
X2805988Y1389989D02*
G01*
X2805988Y1360017D01*
X2921000Y1360017D01*
X2921000Y1389989D01*
G37*
G36*
X2805988Y1440027D02*
G01*
X2805988Y1410004D01*
X2921000Y1410004D01*
X2921000Y1440027D01*
G37*
G36*
X2805988Y1490014D02*
G01*
X2805988Y1459992D01*
X2921000Y1459992D01*
X2921000Y1490014D01*
G37*
G36*
X2805988Y1540002D02*
G01*
X2805988Y1509979D01*
X2921000Y1509979D01*
X2921000Y1540002D01*
G37*
G36*
X2805988Y1589989D02*
G01*
X2805988Y1560017D01*
X2921000Y1560017D01*
X2921000Y1589989D01*
G37*
G36*
X2805988Y1640027D02*
G01*
X2805988Y1610004D01*
X2921000Y1610004D01*
X2921000Y1640027D01*
G37*
G36*
X2858973Y1080008D02*
G01*
X2851861Y1079601D01*
X2844850Y1078382D01*
X2837992Y1076350D01*
X2831388Y1073607D01*
X2825191Y1070102D01*
X2819400Y1065885D01*
X2814167Y1061059D01*
X2809494Y1055674D01*
X2805480Y1049782D01*
X2802128Y1043482D01*
X2799537Y1036828D01*
X2797708Y1029919D01*
X2796692Y1022858D01*
X2796489Y1015695D01*
X2797098Y1008583D01*
X2798521Y1001623D01*
X2800756Y994816D01*
X2803702Y988314D01*
X2807411Y982218D01*
X2811729Y976579D01*
X2816707Y971448D01*
X2822244Y966927D01*
X2828239Y963066D01*
X2834640Y959916D01*
X2841396Y957529D01*
X2848305Y955903D01*
X2855417Y955090D01*
X2973984Y954989D01*
X2981096Y955395D01*
X2988157Y956614D01*
X2994964Y958646D01*
X3001568Y961390D01*
X3007766Y964895D01*
X3013557Y969111D01*
X3018790Y973937D01*
X3023463Y979322D01*
X3027527Y985215D01*
X3030829Y991514D01*
X3032252Y994816D01*
X3034436Y1001623D01*
X3035858Y1008583D01*
X3036468Y1015695D01*
X3036265Y1022858D01*
X3035249Y1029919D01*
X3033420Y1036828D01*
X3032252Y1040180D01*
X3029254Y1046683D01*
X3025597Y1052779D01*
X3021228Y1058418D01*
X3016250Y1063548D01*
X3010712Y1068070D01*
X3004718Y1071930D01*
X2998317Y1075080D01*
X2991612Y1077468D01*
X2984652Y1079093D01*
X2977540Y1079906D01*
G37*
G36*
X2858973Y1944979D02*
G01*
X2851861Y1944573D01*
X2844850Y1943354D01*
X2841396Y1942490D01*
X2834640Y1940052D01*
X2828239Y1936902D01*
X2822244Y1933041D01*
X2816707Y1928571D01*
X2811729Y1923440D01*
X2807411Y1917801D01*
X2803702Y1911654D01*
X2800756Y1905152D01*
X2798521Y1898396D01*
X2797098Y1891385D01*
X2796489Y1884273D01*
X2796692Y1877161D01*
X2797708Y1870100D01*
X2799537Y1863191D01*
X2802128Y1856536D01*
X2805480Y1850237D01*
X2809494Y1844344D01*
X2811729Y1841550D01*
X2816707Y1836470D01*
X2822244Y1831949D01*
X2828239Y1828088D01*
X2834640Y1824939D01*
X2837992Y1823618D01*
X2844850Y1821637D01*
X2851861Y1820418D01*
X2858973Y1820011D01*
X2977540Y1820113D01*
X2984652Y1820925D01*
X2991612Y1822551D01*
X2998317Y1824939D01*
X3004718Y1828088D01*
X3010712Y1831949D01*
X3016250Y1836470D01*
X3021228Y1841550D01*
X3025597Y1847240D01*
X3029254Y1853336D01*
X3032252Y1859838D01*
X3034436Y1866595D01*
X3035858Y1873605D01*
X3036468Y1880717D01*
X3036265Y1887829D01*
X3035249Y1894890D01*
X3033420Y1901799D01*
X3032252Y1905152D01*
X3029254Y1911654D01*
X3025597Y1917801D01*
X3021228Y1923440D01*
X3016250Y1928571D01*
X3010712Y1933041D01*
X3004718Y1936902D01*
X2998317Y1940052D01*
X2991612Y1942490D01*
X2984652Y1944065D01*
X2977540Y1944878D01*
G37*
G36*
X3301492Y1087475D02*
G01*
X3293922Y1087069D01*
X3286455Y1085850D01*
X3279140Y1083818D01*
X3275584Y1082548D01*
X3268726Y1079347D01*
X3262223Y1075436D01*
X3256178Y1070864D01*
X3250692Y1065631D01*
X3245764Y1059840D01*
X3241548Y1053592D01*
X3237992Y1046886D01*
X3236468Y1043432D01*
X3234080Y1036218D01*
X3232454Y1028801D01*
X3231591Y1021283D01*
X3231591Y1013714D01*
X3232454Y1006195D01*
X3234080Y998778D01*
X3236468Y991565D01*
X3239668Y984707D01*
X3243580Y978204D01*
X3248152Y972159D01*
X3253384Y966673D01*
X3256178Y964133D01*
X3262223Y959561D01*
X3268726Y955649D01*
X3275584Y952449D01*
X3282797Y950061D01*
X3290163Y948436D01*
X3297732Y947623D01*
X3371494Y947521D01*
X3379063Y947928D01*
X3386582Y949147D01*
X3393846Y951179D01*
X3397402Y952449D01*
X3404311Y955649D01*
X3410813Y959561D01*
X3416808Y964133D01*
X3422345Y969365D01*
X3424885Y972159D01*
X3429457Y978204D01*
X3433368Y984707D01*
X3436518Y991565D01*
X3438956Y998778D01*
X3440582Y1006195D01*
X3441395Y1013714D01*
X3441395Y1021283D01*
X3440582Y1028801D01*
X3438956Y1036218D01*
X3436518Y1043432D01*
X3433368Y1050290D01*
X3429457Y1056792D01*
X3424885Y1062837D01*
X3419652Y1068324D01*
X3413861Y1073200D01*
X3407613Y1077468D01*
X3400907Y1081024D01*
X3397402Y1082548D01*
X3390239Y1084935D01*
X3382822Y1086561D01*
X3375304Y1087374D01*
G37*
G36*
X3301492Y1952498D02*
G01*
X3293922Y1952091D01*
X3286455Y1950872D01*
X3279140Y1948840D01*
X3272129Y1946046D01*
X3265424Y1942490D01*
X3259175Y1938223D01*
X3253384Y1933295D01*
X3248152Y1927809D01*
X3243580Y1921764D01*
X3239668Y1915312D01*
X3236468Y1908403D01*
X3234080Y1901240D01*
X3232454Y1893824D01*
X3231591Y1886305D01*
X3231591Y1878685D01*
X3232454Y1871167D01*
X3234080Y1863750D01*
X3236468Y1856587D01*
X3239668Y1849729D01*
X3243580Y1843227D01*
X3248152Y1837182D01*
X3253384Y1831695D01*
X3259175Y1826768D01*
X3265424Y1822500D01*
X3272129Y1818995D01*
X3279140Y1816150D01*
X3286455Y1814118D01*
X3293922Y1812899D01*
X3301492Y1812493D01*
X3375304Y1812594D01*
X3382822Y1813407D01*
X3390239Y1815033D01*
X3397402Y1817471D01*
X3404311Y1820672D01*
X3407613Y1822500D01*
X3413861Y1826768D01*
X3419652Y1831695D01*
X3424885Y1837182D01*
X3429457Y1843227D01*
X3433368Y1849729D01*
X3436518Y1856587D01*
X3438956Y1863750D01*
X3440582Y1871167D01*
X3441395Y1878685D01*
X3441395Y1886305D01*
X3440582Y1893824D01*
X3438956Y1901240D01*
X3436518Y1908403D01*
X3433368Y1915312D01*
X3429457Y1921764D01*
X3424885Y1927809D01*
X3419652Y1933295D01*
X3413861Y1938223D01*
X3407613Y1942490D01*
X3400907Y1946046D01*
X3393846Y1948840D01*
X3386582Y1950872D01*
X3379063Y1952091D01*
X3371494Y1952498D01*
G37*
G36*
X2805988Y1160119D02*
G01*
X2805988Y1099718D01*
X2915005Y1100074D01*
X2915005Y1099718D01*
X2921000Y1099718D01*
X2921000Y1160119D01*
G37*
G36*
X2805988Y1240078D02*
G01*
X2805988Y1179677D01*
X2915056Y1180033D01*
X2915056Y1179677D01*
X2921050Y1179677D01*
X2921050Y1240078D01*
G37*
G36*
X2805836Y1720189D02*
G01*
X2805836Y1659737D01*
X2914904Y1660093D01*
X2914904Y1659737D01*
X2920898Y1659737D01*
X2920898Y1720189D01*
G37*
G36*
X2805734Y1799894D02*
G01*
X2805734Y1739493D01*
X2914802Y1739849D01*
X2914802Y1739493D01*
X2920796Y1739493D01*
X2920796Y1799894D01*
G37*
D12*
X1927994Y930503D02*
G01*
X2046495Y930503D01*
X1927994Y1057503D02*
G01*
X2046495Y1057503D01*
X1927994Y1184503D02*
G01*
X2046495Y1184503D01*
X1927994Y1311503D02*
G01*
X2046495Y1311503D01*
X1927994Y1438503D02*
G01*
X2046495Y1438503D01*
X1927994Y1565503D02*
G01*
X2046495Y1565503D01*
X1927994Y1692503D02*
G01*
X2046495Y1692503D01*
X1927994Y1819503D02*
G01*
X2046495Y1819503D01*
X1353497Y930503D02*
G01*
X1471998Y930503D01*
X1353497Y1057503D02*
G01*
X1471998Y1057503D01*
X1353497Y1184503D02*
G01*
X1471998Y1184503D01*
X1353497Y1311503D02*
G01*
X1471998Y1311503D01*
X1353497Y1438503D02*
G01*
X1471998Y1438503D01*
X1353497Y1565503D02*
G01*
X1471998Y1565503D01*
X1353497Y1692503D02*
G01*
X1471998Y1692503D01*
X1353497Y1819503D02*
G01*
X1471998Y1819503D01*
G36*
X1080000Y1795000D02*
G01*
X1160000Y1795000D01*
X1160000Y1704997D01*
X1080000Y1704997D01*
G37*
G36*
X940000Y1795000D02*
G01*
X1020000Y1795000D01*
X1020000Y1704997D01*
X940000Y1704997D01*
G37*
G36*
X2480000Y295000D02*
G01*
X2559999Y295000D01*
X2559999Y204998D01*
X2480000Y204998D01*
G37*
G36*
X2340000Y295000D02*
G01*
X2420000Y295000D01*
X2420000Y204998D01*
X2340000Y204998D01*
G37*
D14*
G01*
X2380005Y499998D03*
G01*
X2520010Y499998D03*
G36*
X1529999Y795002D02*
G01*
X1609999Y795002D01*
X1609999Y704999D01*
X1529999Y704999D01*
G37*
G36*
X1389999Y795002D02*
G01*
X1469999Y795002D01*
X1469999Y704999D01*
X1389999Y704999D01*
G37*
G36*
X2480000Y1045001D02*
G01*
X2559999Y1045001D01*
X2559999Y954999D01*
X2480000Y954999D01*
G37*
G36*
X2340000Y1045001D02*
G01*
X2420000Y1045001D01*
X2420000Y954999D01*
X2340000Y954999D01*
G37*
G01*
X2380005Y750011D03*
G01*
X2520010Y750011D03*
G36*
X2480000Y2245001D02*
G01*
X2559999Y2245001D01*
X2559999Y2154999D01*
X2480000Y2154999D01*
G37*
G36*
X2340000Y2245001D02*
G01*
X2420000Y2245001D01*
X2420000Y2154999D01*
X2340000Y2154999D01*
G37*
G36*
X1237500Y290004D02*
G01*
X1362499Y290004D01*
X1362499Y220002D01*
X1237500Y220002D01*
G37*
G36*
X1237500Y479993D02*
G01*
X1362499Y479993D01*
X1362499Y409994D01*
X1237500Y409994D01*
G37*
G36*
X1037501Y384997D02*
G01*
X1162499Y384997D01*
X1162499Y314998D01*
X1037501Y314998D01*
G37*
D15*
G01*
X1899996Y445007D03*
G01*
X1899996Y255015D03*
G01*
X2099995Y350012D03*
D16*
G01*
X401523Y344703D03*
G01*
X663981Y439699D03*
G01*
X663955Y249707D03*
D20*
G01*
X2803016Y729995D03*
G01*
X2803016Y499998D03*
G01*
X2803016Y270002D03*
G36*
X3280001Y319999D02*
G01*
X3280001Y679998D01*
X3514001Y679998D01*
X3514001Y319999D01*
G37*
G36*
X689490Y1854794D02*
G01*
X696561Y1851863D01*
X699490Y1844794D01*
X699490Y1824794D01*
X696561Y1817723D01*
X689490Y1814794D01*
X506290Y1814794D01*
X499219Y1817723D01*
X496290Y1824794D01*
X496290Y1844794D01*
X499219Y1851863D01*
X506290Y1854794D01*
G37*
G36*
X689490Y1784791D02*
G01*
X696561Y1781863D01*
X699490Y1774791D01*
X699490Y1754792D01*
X696561Y1747723D01*
X689490Y1744792D01*
X506290Y1744792D01*
X499219Y1747723D01*
X496290Y1754792D01*
X496290Y1774791D01*
X499219Y1781863D01*
X506290Y1784791D01*
G37*
G36*
X689490Y1714792D02*
G01*
X696561Y1711863D01*
X699490Y1704792D01*
X699490Y1684792D01*
X696561Y1677723D01*
X689490Y1674792D01*
X506290Y1674792D01*
X499219Y1677723D01*
X496290Y1684792D01*
X496290Y1704792D01*
X499219Y1711863D01*
X506290Y1714792D01*
G37*
G36*
X689490Y1644792D02*
G01*
X696561Y1641863D01*
X699490Y1634792D01*
X699490Y1614792D01*
X696561Y1607720D01*
X689490Y1604792D01*
X506290Y1604792D01*
X499219Y1607720D01*
X496290Y1614792D01*
X496290Y1634792D01*
X499219Y1641863D01*
X506290Y1644792D01*
G37*
G36*
X689490Y1574792D02*
G01*
X696561Y1571863D01*
X699490Y1564792D01*
X699490Y1544792D01*
X696561Y1537721D01*
X689490Y1534792D01*
X506290Y1534792D01*
X499219Y1537721D01*
X496290Y1544792D01*
X496290Y1564792D01*
X499219Y1571863D01*
X506290Y1574792D01*
G37*
G36*
X689490Y1504792D02*
G01*
X696561Y1501863D01*
X699490Y1494792D01*
X699490Y1474792D01*
X696561Y1467721D01*
X689490Y1464792D01*
X506290Y1464792D01*
X499219Y1467721D01*
X496290Y1474792D01*
X496290Y1494792D01*
X499219Y1501863D01*
X506290Y1504792D01*
G37*
G36*
X689490Y1084793D02*
G01*
X696561Y1081864D01*
X699490Y1074793D01*
X699490Y1054793D01*
X696561Y1047722D01*
X689490Y1044793D01*
X506290Y1044793D01*
X499219Y1047722D01*
X496290Y1054793D01*
X496290Y1074793D01*
X499219Y1081864D01*
X506290Y1084793D01*
G37*
G36*
X689490Y1154793D02*
G01*
X696561Y1151864D01*
X699490Y1144793D01*
X699490Y1124793D01*
X696561Y1117721D01*
X689490Y1114793D01*
X506290Y1114793D01*
X499219Y1117721D01*
X496290Y1124793D01*
X496290Y1144793D01*
X499219Y1151864D01*
X506290Y1154793D01*
G37*
G36*
X689490Y1224793D02*
G01*
X696561Y1221864D01*
X699490Y1214793D01*
X699490Y1194793D01*
X696561Y1187721D01*
X689490Y1184793D01*
X506290Y1184793D01*
X499219Y1187721D01*
X496290Y1194793D01*
X496290Y1214793D01*
X499219Y1221864D01*
X506290Y1224793D01*
G37*
G36*
X689490Y1294792D02*
G01*
X696561Y1291864D01*
X699490Y1284792D01*
X699490Y1264793D01*
X696561Y1257721D01*
X689490Y1254793D01*
X506290Y1254793D01*
X499219Y1257721D01*
X496290Y1264793D01*
X496290Y1284792D01*
X499219Y1291864D01*
X506290Y1294792D01*
G37*
G36*
X689490Y1364792D02*
G01*
X696561Y1361864D01*
X699490Y1354792D01*
X699490Y1334792D01*
X696561Y1327721D01*
X689490Y1324792D01*
X506290Y1324792D01*
X499219Y1327721D01*
X496290Y1334792D01*
X496290Y1354792D01*
X499219Y1361864D01*
X506290Y1364792D01*
G37*
G36*
X689490Y1434792D02*
G01*
X696561Y1431864D01*
X699490Y1424792D01*
X699490Y1404792D01*
X696561Y1397721D01*
X689490Y1394792D01*
X506290Y1394792D01*
X499219Y1397721D01*
X496290Y1404792D01*
X496290Y1424792D01*
X499219Y1431864D01*
X506290Y1434792D01*
G37*
M02*
