G04 Layer: BottomLayer*
G04 EasyEDA v6.4.25, 2021-11-23T22:34:31+08:00*
G04 edc2d8422afb4d2cae5fb123c77887e6,45ba98ba689c459a8d72e4540021d05b,10*
G04 Gerber Generator version 0.2*
G04 Scale: 100 percent, Rotated: No, Reflected: No *
G04 Dimensions in millimeters *
G04 leading zeros omitted , absolute positions ,4 integer and 5 decimal *
%FSLAX45Y45*%
%MOMM*%

%ADD10C,0.2540*%
%ADD11C,0.2500*%
%ADD13C,0.6096*%
%ADD22C,1.2500*%
%ADD23C,1.4000*%
%ADD24C,0.5000*%

%LPD*%
G36*
X2070252Y288544D02*
G01*
X2066340Y289306D01*
X2063038Y291541D01*
X2041601Y312978D01*
X2039366Y316280D01*
X2038604Y320192D01*
X2038604Y338886D01*
X2039264Y342544D01*
X2041245Y345694D01*
X2044192Y347980D01*
X2047798Y348996D01*
X2055774Y349808D01*
X2061210Y351688D01*
X2066086Y354736D01*
X2070201Y358851D01*
X2073249Y363728D01*
X2075180Y369214D01*
X2075891Y375513D01*
X2075891Y502615D01*
X2076653Y506476D01*
X2078837Y509778D01*
X2082139Y511962D01*
X2086051Y512775D01*
X2089912Y511962D01*
X2093214Y509778D01*
X2113838Y489153D01*
X2117293Y486003D01*
X2120798Y483311D01*
X2124557Y480923D01*
X2128469Y478891D01*
X2132584Y477164D01*
X2136851Y475843D01*
X2141169Y474878D01*
X2145588Y474319D01*
X2150211Y474116D01*
X2499106Y474116D01*
X2503373Y473151D01*
X2505710Y472033D01*
X2515209Y469493D01*
X2525014Y468630D01*
X2534767Y469493D01*
X2544267Y472033D01*
X2553157Y476199D01*
X2561234Y481838D01*
X2568143Y488797D01*
X2573782Y496824D01*
X2577947Y505714D01*
X2580487Y515213D01*
X2581351Y525018D01*
X2580487Y534771D01*
X2577947Y544271D01*
X2573782Y553161D01*
X2568143Y561238D01*
X2561234Y568147D01*
X2553157Y573786D01*
X2548686Y575919D01*
X2545181Y578561D01*
X2543149Y582472D01*
X2542946Y586892D01*
X2544622Y590956D01*
X2548788Y596900D01*
X2552954Y605790D01*
X2555494Y615289D01*
X2556357Y625043D01*
X2555494Y634847D01*
X2554274Y639368D01*
X2554071Y643788D01*
X2555748Y647852D01*
X2558999Y650798D01*
X2563215Y652119D01*
X2567584Y651560D01*
X2571292Y649224D01*
X2572562Y647954D01*
X2578760Y642823D01*
X2585466Y639267D01*
X2592679Y637082D01*
X2600706Y636270D01*
X2857093Y636270D01*
X2861005Y635508D01*
X2864307Y633272D01*
X2866491Y630021D01*
X2867253Y626110D01*
X2866491Y622198D01*
X2864307Y618947D01*
X2536901Y291541D01*
X2533599Y289306D01*
X2529687Y288544D01*
G37*

%LPD*%
G36*
X64922Y25908D02*
G01*
X61061Y26670D01*
X57759Y28905D01*
X28905Y57759D01*
X26670Y61061D01*
X25908Y64922D01*
X25908Y2164842D01*
X26670Y2168702D01*
X28905Y2172004D01*
X32156Y2174240D01*
X36068Y2175002D01*
X2148992Y2175002D01*
X2150719Y2175713D01*
X2272030Y2297023D01*
X2275332Y2299208D01*
X2279192Y2300020D01*
X3013303Y2300020D01*
X3016605Y2299462D01*
X3019501Y2297887D01*
X3021787Y2295499D01*
X3026765Y2287981D01*
X3031998Y2280920D01*
X3038703Y2273198D01*
X3043224Y2268372D01*
X3055823Y2257094D01*
X3067558Y2248662D01*
X3070758Y2246630D01*
X3084525Y2239060D01*
X3100324Y2232507D01*
X3105200Y2230932D01*
X3116478Y2227884D01*
X3123692Y2226462D01*
X3133090Y2225040D01*
X3142640Y2224328D01*
X3149955Y2224074D01*
X3161639Y2224582D01*
X3166872Y2225040D01*
X3176270Y2226462D01*
X3183534Y2227884D01*
X3194812Y2230932D01*
X3199739Y2232507D01*
X3215335Y2238959D01*
X3230270Y2247239D01*
X3244189Y2257094D01*
X3256737Y2268372D01*
X3261309Y2273198D01*
X3268014Y2280920D01*
X3273247Y2287981D01*
X3278225Y2295499D01*
X3280511Y2297887D01*
X3283407Y2299462D01*
X3286658Y2300020D01*
X3513937Y2300020D01*
X3517798Y2299208D01*
X3521100Y2297023D01*
X3523335Y2293721D01*
X3524097Y2289860D01*
X3524097Y853694D01*
X3523132Y849376D01*
X3520440Y845870D01*
X3516579Y843838D01*
X3512159Y843686D01*
X3508095Y845362D01*
X3503168Y848817D01*
X3494278Y852932D01*
X3484778Y855471D01*
X3474974Y856335D01*
X3465220Y855471D01*
X3455720Y852932D01*
X3446830Y848817D01*
X3438753Y843178D01*
X3431844Y836218D01*
X3426206Y828192D01*
X3422040Y819251D01*
X3419500Y809802D01*
X3418636Y799998D01*
X3419500Y790194D01*
X3422040Y780745D01*
X3426206Y771804D01*
X3431844Y763778D01*
X3433419Y762203D01*
X3435604Y758901D01*
X3436416Y754989D01*
X3436416Y485901D01*
X3435604Y481939D01*
X3433267Y478586D01*
X3429863Y476453D01*
X3425901Y475742D01*
X3421938Y476707D01*
X3419297Y477926D01*
X3409797Y480517D01*
X3399993Y481330D01*
X3390239Y480517D01*
X3380740Y477926D01*
X3371850Y473811D01*
X3366871Y470357D01*
X3362807Y468680D01*
X3358438Y468833D01*
X3354527Y470865D01*
X3351834Y474370D01*
X3350920Y478637D01*
X3350920Y489407D01*
X3350209Y495706D01*
X3349294Y499922D01*
X3350209Y504240D01*
X3350920Y510540D01*
X3350920Y539394D01*
X3350209Y545744D01*
X3349294Y550011D01*
X3350209Y554228D01*
X3350920Y560527D01*
X3350920Y589381D01*
X3350209Y595731D01*
X3349294Y599948D01*
X3350209Y604215D01*
X3350920Y610565D01*
X3350920Y639419D01*
X3350209Y645718D01*
X3349294Y650036D01*
X3350209Y654202D01*
X3350920Y660552D01*
X3350920Y689406D01*
X3350209Y695706D01*
X3348278Y701192D01*
X3345179Y706069D01*
X3341115Y710184D01*
X3336188Y713282D01*
X3330752Y715162D01*
X3324402Y715873D01*
X3205581Y715873D01*
X3199231Y715162D01*
X3196031Y714044D01*
X3192678Y713486D01*
X2620416Y713486D01*
X2616504Y714248D01*
X2613202Y716483D01*
X2596591Y733094D01*
X2594406Y736295D01*
X2593594Y740105D01*
X2594305Y743915D01*
X2596337Y747217D01*
X2599486Y749503D01*
X2603195Y751179D01*
X2611221Y756818D01*
X2618181Y763778D01*
X2623820Y771804D01*
X2627934Y780745D01*
X2630474Y790194D01*
X2631338Y799998D01*
X2630474Y809802D01*
X2627934Y819251D01*
X2623820Y828192D01*
X2618181Y836218D01*
X2611221Y843178D01*
X2603195Y848817D01*
X2594203Y852982D01*
X2591104Y855218D01*
X2589022Y858469D01*
X2588310Y862177D01*
X2588310Y1604924D01*
X2589072Y1608836D01*
X2591308Y1612138D01*
X2620111Y1640839D01*
X2623007Y1642872D01*
X2626410Y1643786D01*
X2634792Y1644497D01*
X2644292Y1647037D01*
X2653182Y1651203D01*
X2661208Y1656842D01*
X2668168Y1663801D01*
X2673807Y1671828D01*
X2677972Y1680718D01*
X2680512Y1690217D01*
X2681325Y1700022D01*
X2680512Y1709775D01*
X2677972Y1719275D01*
X2673807Y1728165D01*
X2668168Y1736242D01*
X2661208Y1743151D01*
X2653182Y1748789D01*
X2644292Y1752955D01*
X2634792Y1755495D01*
X2624988Y1756359D01*
X2615234Y1755495D01*
X2605735Y1752955D01*
X2596845Y1748789D01*
X2588768Y1743151D01*
X2581859Y1736242D01*
X2576220Y1728165D01*
X2572054Y1719275D01*
X2569514Y1709775D01*
X2568803Y1701495D01*
X2567889Y1698091D01*
X2565857Y1695196D01*
X2556052Y1685442D01*
X2552750Y1683257D01*
X2548890Y1682496D01*
X2544978Y1683257D01*
X2541727Y1685493D01*
X2539492Y1688744D01*
X2538730Y1692656D01*
X2538730Y1774443D01*
X2537917Y1782470D01*
X2535732Y1789684D01*
X2532176Y1796389D01*
X2527096Y1802587D01*
X2477414Y1852015D01*
X2471267Y1857044D01*
X2464562Y1860600D01*
X2457348Y1862785D01*
X2449322Y1863598D01*
X2436215Y1863598D01*
X2432558Y1864258D01*
X2429408Y1866239D01*
X2427122Y1869186D01*
X2426106Y1872792D01*
X2425344Y1880870D01*
X2423414Y1886254D01*
X2420366Y1891182D01*
X2416251Y1895246D01*
X2411374Y1898345D01*
X2405888Y1900275D01*
X2399588Y1900986D01*
X2200706Y1900986D01*
X2194407Y1900275D01*
X2188921Y1898345D01*
X2184044Y1895246D01*
X2179929Y1891182D01*
X2176881Y1886254D01*
X2174951Y1880819D01*
X2174240Y1874469D01*
X2174240Y1775612D01*
X2174951Y1769313D01*
X2176881Y1763826D01*
X2179929Y1758950D01*
X2184044Y1754835D01*
X2188921Y1751787D01*
X2194407Y1749856D01*
X2200706Y1749145D01*
X2307640Y1749145D01*
X2311704Y1748282D01*
X2315108Y1745894D01*
X2317242Y1742338D01*
X2317800Y1738223D01*
X2316632Y1734261D01*
X2313990Y1731060D01*
X2310282Y1729181D01*
X2305710Y1727962D01*
X2296820Y1723796D01*
X2288794Y1718157D01*
X2281834Y1711198D01*
X2277668Y1705305D01*
X2275433Y1702968D01*
X2272538Y1701495D01*
X2269337Y1700987D01*
X2200706Y1700987D01*
X2194407Y1700275D01*
X2188921Y1698345D01*
X2184044Y1695246D01*
X2179929Y1691182D01*
X2176881Y1686255D01*
X2174951Y1680819D01*
X2174240Y1674469D01*
X2174240Y1575612D01*
X2174951Y1569313D01*
X2176881Y1563827D01*
X2179929Y1558950D01*
X2184044Y1554835D01*
X2188921Y1551787D01*
X2194407Y1549857D01*
X2200706Y1549146D01*
X2399588Y1549146D01*
X2405888Y1549857D01*
X2411374Y1551787D01*
X2416251Y1554835D01*
X2420366Y1558950D01*
X2423414Y1563827D01*
X2425344Y1569313D01*
X2426055Y1575612D01*
X2426055Y1674469D01*
X2425344Y1680819D01*
X2423414Y1686255D01*
X2420366Y1691182D01*
X2416251Y1695246D01*
X2411374Y1698345D01*
X2405888Y1700275D01*
X2399588Y1700987D01*
X2380640Y1700987D01*
X2377440Y1701495D01*
X2374544Y1702968D01*
X2372309Y1705305D01*
X2368143Y1711198D01*
X2361234Y1718157D01*
X2353157Y1723796D01*
X2344267Y1727962D01*
X2339695Y1729181D01*
X2335987Y1731060D01*
X2333345Y1734261D01*
X2332228Y1738223D01*
X2332736Y1742338D01*
X2334869Y1745894D01*
X2338273Y1748282D01*
X2342337Y1749145D01*
X2399588Y1749145D01*
X2405888Y1749856D01*
X2411374Y1751787D01*
X2416251Y1754835D01*
X2420366Y1758950D01*
X2423414Y1763826D01*
X2425344Y1769313D01*
X2425598Y1771396D01*
X2426716Y1775002D01*
X2429052Y1777949D01*
X2432304Y1779879D01*
X2436063Y1780438D01*
X2439720Y1779574D01*
X2442870Y1777492D01*
X2458516Y1761896D01*
X2460752Y1758594D01*
X2461514Y1754682D01*
X2461514Y775462D01*
X2462326Y767435D01*
X2464511Y760222D01*
X2468067Y753516D01*
X2473198Y747318D01*
X2524150Y696315D01*
X2526487Y692607D01*
X2527096Y688238D01*
X2525776Y684072D01*
X2522778Y680821D01*
X2518714Y679145D01*
X2514346Y679348D01*
X2509774Y680567D01*
X2500020Y681431D01*
X2490216Y680567D01*
X2480716Y678027D01*
X2471826Y673862D01*
X2463800Y668223D01*
X2462174Y666648D01*
X2458923Y664464D01*
X2455011Y663651D01*
X2436164Y663651D01*
X2432507Y664362D01*
X2429306Y666292D01*
X2427071Y669239D01*
X2426055Y672846D01*
X2425242Y680872D01*
X2423363Y686257D01*
X2420264Y691184D01*
X2416200Y695248D01*
X2411272Y698347D01*
X2405837Y700227D01*
X2399487Y700938D01*
X2200656Y700938D01*
X2194306Y700227D01*
X2188870Y698347D01*
X2183942Y695248D01*
X2179878Y691184D01*
X2176780Y686257D01*
X2174900Y680821D01*
X2174189Y674471D01*
X2174189Y597357D01*
X2173376Y593445D01*
X2171192Y590194D01*
X2167890Y587959D01*
X2164029Y587197D01*
X2160117Y587959D01*
X2156815Y590194D01*
X2153869Y593090D01*
X2151684Y596392D01*
X2150922Y600303D01*
X2150922Y649782D01*
X2150719Y654456D01*
X2150110Y658825D01*
X2149144Y663194D01*
X2147824Y667410D01*
X2146147Y671525D01*
X2144064Y675436D01*
X2141677Y679196D01*
X2138984Y682701D01*
X2135835Y686155D01*
X2070455Y751535D01*
X2068322Y754684D01*
X2067458Y758444D01*
X2068068Y762203D01*
X2070049Y765505D01*
X2073097Y767791D01*
X2076754Y768858D01*
X2084882Y769569D01*
X2094331Y772109D01*
X2103272Y776274D01*
X2111298Y781913D01*
X2112873Y783488D01*
X2116175Y785672D01*
X2120087Y786434D01*
X2164080Y786434D01*
X2167737Y785774D01*
X2170887Y783793D01*
X2173173Y780846D01*
X2174189Y777290D01*
X2175002Y769213D01*
X2176881Y763828D01*
X2179929Y758952D01*
X2184044Y754837D01*
X2188921Y751789D01*
X2194407Y749858D01*
X2200706Y749147D01*
X2399588Y749147D01*
X2405888Y749858D01*
X2411374Y751789D01*
X2416251Y754837D01*
X2420366Y758952D01*
X2423414Y763828D01*
X2425344Y769315D01*
X2426055Y775614D01*
X2426055Y874471D01*
X2425344Y880821D01*
X2423414Y886256D01*
X2420366Y891184D01*
X2416251Y895248D01*
X2411374Y898347D01*
X2405888Y900226D01*
X2399588Y900937D01*
X2200706Y900937D01*
X2194407Y900226D01*
X2188921Y898347D01*
X2184044Y895248D01*
X2179929Y891184D01*
X2176881Y886256D01*
X2175002Y880871D01*
X2174189Y872845D01*
X2173173Y869238D01*
X2170887Y866292D01*
X2167737Y864362D01*
X2164080Y863650D01*
X2120087Y863650D01*
X2116175Y864463D01*
X2112873Y866648D01*
X2111298Y868222D01*
X2103272Y873861D01*
X2094331Y878027D01*
X2084882Y880567D01*
X2075078Y881430D01*
X2065274Y880567D01*
X2055825Y878027D01*
X2046884Y873861D01*
X2038857Y868222D01*
X2037283Y866648D01*
X2033981Y864463D01*
X2030069Y863650D01*
X1220165Y863650D01*
X1216253Y864463D01*
X1212951Y866648D01*
X1002639Y1076960D01*
X996442Y1082040D01*
X989736Y1085646D01*
X982522Y1087831D01*
X974496Y1088593D01*
X919987Y1088593D01*
X916076Y1089406D01*
X912825Y1091590D01*
X911199Y1093165D01*
X903173Y1098804D01*
X894283Y1102969D01*
X884783Y1105509D01*
X874979Y1106373D01*
X865225Y1105509D01*
X855726Y1102969D01*
X846836Y1098804D01*
X838758Y1093165D01*
X835507Y1089914D01*
X832205Y1087678D01*
X828243Y1086916D01*
X824331Y1087729D01*
X821029Y1090015D01*
X815898Y1095298D01*
X811072Y1098346D01*
X805586Y1100226D01*
X799287Y1100937D01*
X600405Y1100937D01*
X594106Y1100226D01*
X588619Y1098346D01*
X583742Y1095248D01*
X579628Y1091184D01*
X576580Y1086256D01*
X574649Y1080820D01*
X573938Y1074470D01*
X573938Y975614D01*
X574649Y969314D01*
X576580Y963828D01*
X579628Y958951D01*
X583742Y954836D01*
X588619Y951788D01*
X594106Y949858D01*
X600405Y949147D01*
X767029Y949147D01*
X770940Y948385D01*
X774242Y946150D01*
X797356Y923036D01*
X802335Y918971D01*
X804926Y915771D01*
X805992Y911809D01*
X805434Y907694D01*
X803300Y904189D01*
X799896Y901801D01*
X795883Y900937D01*
X600557Y900937D01*
X594207Y900226D01*
X588772Y898347D01*
X583844Y895248D01*
X579780Y891184D01*
X576681Y886256D01*
X574802Y880821D01*
X574090Y874471D01*
X574090Y775614D01*
X574802Y769315D01*
X576681Y763828D01*
X579780Y758952D01*
X583844Y754837D01*
X588772Y751789D01*
X594207Y749858D01*
X600557Y749147D01*
X799388Y749147D01*
X805738Y749858D01*
X811174Y751789D01*
X816102Y754837D01*
X820166Y758952D01*
X823264Y763828D01*
X825195Y769315D01*
X825550Y772820D01*
X826871Y776782D01*
X829665Y779881D01*
X833475Y781608D01*
X837641Y781659D01*
X841502Y779983D01*
X846836Y776274D01*
X855726Y772109D01*
X865225Y769569D01*
X874979Y768705D01*
X884783Y769569D01*
X894283Y772109D01*
X903173Y776274D01*
X911199Y781913D01*
X918159Y788822D01*
X923798Y796899D01*
X927963Y805789D01*
X930503Y815289D01*
X931367Y825042D01*
X930503Y834847D01*
X927963Y844346D01*
X923798Y853236D01*
X918159Y861263D01*
X911199Y868222D01*
X903173Y873861D01*
X894334Y877976D01*
X891032Y880414D01*
X889000Y883970D01*
X888542Y888085D01*
X889711Y891997D01*
X892352Y895146D01*
X905103Y901192D01*
X913180Y906830D01*
X920089Y913790D01*
X925728Y921816D01*
X929894Y930706D01*
X932434Y940206D01*
X933297Y950010D01*
X932434Y959764D01*
X929894Y969264D01*
X925728Y978153D01*
X920089Y986231D01*
X912520Y993800D01*
X910336Y997102D01*
X909574Y1000963D01*
X910336Y1004874D01*
X912825Y1008430D01*
X916076Y1010615D01*
X919987Y1011377D01*
X954786Y1011377D01*
X958697Y1010615D01*
X961999Y1008430D01*
X1172311Y798118D01*
X1178509Y792988D01*
X1185164Y789432D01*
X1192428Y787247D01*
X1200454Y786434D01*
X1214170Y786434D01*
X1218133Y785622D01*
X1221435Y783336D01*
X1223619Y779932D01*
X1224280Y775919D01*
X1223365Y772007D01*
X1222146Y769366D01*
X1219606Y759866D01*
X1218742Y750112D01*
X1219606Y740308D01*
X1222146Y730808D01*
X1226261Y721918D01*
X1231900Y713892D01*
X1238859Y706932D01*
X1246886Y701294D01*
X1255826Y697128D01*
X1265275Y694588D01*
X1275080Y693724D01*
X1284884Y694588D01*
X1294333Y697128D01*
X1296670Y698246D01*
X1300988Y699211D01*
X1974596Y699211D01*
X1978507Y698398D01*
X1981809Y696214D01*
X2046122Y631901D01*
X2048306Y628599D01*
X2049068Y624687D01*
X2049068Y611022D01*
X2048306Y607110D01*
X2046122Y603859D01*
X2042820Y601624D01*
X2038908Y600862D01*
X1950567Y600862D01*
X1944217Y600151D01*
X1938782Y598220D01*
X1933854Y595172D01*
X1929790Y591058D01*
X1926691Y586181D01*
X1924761Y580694D01*
X1924050Y574395D01*
X1924050Y375513D01*
X1924761Y369214D01*
X1926691Y363728D01*
X1929790Y358851D01*
X1933854Y354736D01*
X1938782Y351688D01*
X1944166Y349808D01*
X1952193Y348996D01*
X1955800Y347980D01*
X1958746Y345694D01*
X1960727Y342544D01*
X1961388Y338886D01*
X1961388Y300482D01*
X1962200Y292455D01*
X1964385Y285242D01*
X1967941Y278536D01*
X1973072Y272338D01*
X1989531Y255828D01*
X1991715Y252577D01*
X1992477Y248666D01*
X1991715Y244754D01*
X1989531Y241503D01*
X1986229Y239267D01*
X1982317Y238506D01*
X1870252Y238506D01*
X1866290Y239267D01*
X1862988Y241503D01*
X1841652Y263093D01*
X1839468Y266395D01*
X1838706Y270256D01*
X1838706Y339039D01*
X1839366Y342696D01*
X1841347Y345846D01*
X1844293Y348132D01*
X1847900Y349148D01*
X1856028Y349961D01*
X1861413Y351840D01*
X1866290Y354888D01*
X1870405Y359003D01*
X1873453Y363880D01*
X1875383Y369366D01*
X1876094Y375666D01*
X1876094Y574548D01*
X1875383Y580847D01*
X1873453Y586333D01*
X1870405Y591210D01*
X1866290Y595325D01*
X1861413Y598373D01*
X1855927Y600303D01*
X1849628Y601014D01*
X1750771Y601014D01*
X1744421Y600303D01*
X1738985Y598373D01*
X1734057Y595325D01*
X1729993Y591210D01*
X1726895Y586333D01*
X1724964Y580847D01*
X1724253Y574548D01*
X1724253Y375666D01*
X1724964Y369366D01*
X1726895Y363880D01*
X1729993Y359003D01*
X1734057Y354888D01*
X1738985Y351840D01*
X1744370Y349910D01*
X1752346Y349148D01*
X1755902Y348132D01*
X1758848Y345846D01*
X1760829Y342696D01*
X1761489Y339039D01*
X1761489Y250698D01*
X1762252Y242874D01*
X1764385Y235610D01*
X1767941Y228955D01*
X1773021Y222656D01*
X1789480Y206044D01*
X1791665Y202742D01*
X1792427Y198831D01*
X1791665Y194970D01*
X1789430Y191668D01*
X1786128Y189484D01*
X1782267Y188722D01*
X1395120Y188722D01*
X1391208Y189484D01*
X1387906Y191719D01*
X1247343Y332282D01*
X1245209Y335381D01*
X1244346Y339090D01*
X1244955Y342798D01*
X1246835Y346100D01*
X1249781Y348437D01*
X1253388Y349554D01*
X1256080Y349859D01*
X1261516Y351790D01*
X1266393Y354838D01*
X1270508Y358952D01*
X1273606Y363829D01*
X1275486Y369316D01*
X1276197Y375615D01*
X1276197Y574497D01*
X1275486Y580796D01*
X1273606Y586282D01*
X1270508Y591159D01*
X1266393Y595274D01*
X1261516Y598322D01*
X1256080Y600252D01*
X1249730Y600964D01*
X1150874Y600964D01*
X1144574Y600252D01*
X1139088Y598322D01*
X1134211Y595274D01*
X1130096Y591159D01*
X1126998Y586282D01*
X1125118Y580796D01*
X1124407Y574497D01*
X1124407Y379730D01*
X1123645Y375869D01*
X1121410Y372567D01*
X1118108Y370332D01*
X1114247Y369570D01*
X1110335Y370332D01*
X1107033Y372567D01*
X1079195Y400405D01*
X1077010Y403707D01*
X1076198Y407568D01*
X1076198Y574395D01*
X1075486Y580745D01*
X1073607Y586181D01*
X1070508Y591108D01*
X1066393Y595172D01*
X1061516Y598271D01*
X1056081Y600151D01*
X1049731Y600862D01*
X950874Y600862D01*
X944575Y600151D01*
X939088Y598271D01*
X934212Y595172D01*
X930097Y591108D01*
X926998Y586181D01*
X925118Y580745D01*
X924407Y574395D01*
X924407Y375564D01*
X925118Y369214D01*
X926998Y363778D01*
X930097Y358851D01*
X934212Y354787D01*
X939088Y351688D01*
X944575Y349808D01*
X950874Y349046D01*
X1017117Y349046D01*
X1020978Y348284D01*
X1024280Y346100D01*
X1297482Y73101D01*
X1303680Y68021D01*
X1310386Y64465D01*
X1317599Y62280D01*
X1325626Y61467D01*
X2649474Y61467D01*
X2657500Y62280D01*
X2664714Y64465D01*
X2671419Y68021D01*
X2677617Y73152D01*
X3037890Y433374D01*
X3041192Y435609D01*
X3045104Y436372D01*
X3192983Y436372D01*
X3196336Y435813D01*
X3199841Y434543D01*
X3203397Y432409D01*
X3205784Y429056D01*
X3206648Y424992D01*
X3205784Y420928D01*
X3203397Y417525D01*
X3199841Y415391D01*
X3193796Y413258D01*
X3190290Y411530D01*
X3187496Y411124D01*
X3179114Y411124D01*
X3179826Y404215D01*
X3180689Y399999D01*
X3179775Y395732D01*
X3179064Y389382D01*
X3179064Y360527D01*
X3179775Y354228D01*
X3180689Y349961D01*
X3179826Y345744D01*
X3179114Y339394D01*
X3179114Y310540D01*
X3179826Y304241D01*
X3181705Y298754D01*
X3184804Y293878D01*
X3188919Y289763D01*
X3193796Y286715D01*
X3199282Y284784D01*
X3205581Y284073D01*
X3324453Y284073D01*
X3330752Y284784D01*
X3333648Y285800D01*
X3337001Y286359D01*
X3426206Y286359D01*
X3430117Y285597D01*
X3433419Y283413D01*
X3435604Y280111D01*
X3436416Y276199D01*
X3436416Y270002D01*
X3435604Y266090D01*
X3433419Y262788D01*
X3431844Y261213D01*
X3426206Y253187D01*
X3422040Y244297D01*
X3419500Y234797D01*
X3418636Y224993D01*
X3419500Y215239D01*
X3422040Y205740D01*
X3426206Y196850D01*
X3431844Y188772D01*
X3438753Y181813D01*
X3446830Y176225D01*
X3455720Y172059D01*
X3465220Y169519D01*
X3474974Y168656D01*
X3484778Y169519D01*
X3494278Y172059D01*
X3503168Y176225D01*
X3508095Y179628D01*
X3512159Y181356D01*
X3516579Y181152D01*
X3520440Y179120D01*
X3523132Y175615D01*
X3524097Y171348D01*
X3524097Y114960D01*
X3523335Y111048D01*
X3521100Y107746D01*
X3442258Y28905D01*
X3438956Y26670D01*
X3435045Y25908D01*
X3187750Y25908D01*
X3183585Y26771D01*
X3180181Y29311D01*
X3178098Y32969D01*
X3177641Y37185D01*
X3177844Y38658D01*
X3177844Y76758D01*
X3103270Y76758D01*
X3103270Y36068D01*
X3102508Y32156D01*
X3100273Y28905D01*
X3096971Y26670D01*
X3093110Y25908D01*
X2990748Y25908D01*
X2986836Y26670D01*
X2983534Y28905D01*
X2981350Y32156D01*
X2980588Y36068D01*
X2980588Y76758D01*
X2906014Y76758D01*
X2906014Y38658D01*
X2906166Y37185D01*
X2905760Y32969D01*
X2903677Y29311D01*
X2900222Y26771D01*
X2896057Y25908D01*
G37*

%LPC*%
G36*
X3277666Y924763D02*
G01*
X3277666Y976172D01*
X3215182Y976172D01*
X3216402Y973378D01*
X3223158Y962202D01*
X3231438Y952042D01*
X3240989Y943102D01*
X3251708Y935583D01*
X3263290Y929538D01*
X3275634Y925169D01*
G37*
G36*
X3395370Y1923846D02*
G01*
X3457854Y1923846D01*
X3456635Y1926589D01*
X3449828Y1937816D01*
X3441598Y1947925D01*
X3432048Y1956866D01*
X3421329Y1964436D01*
X3409696Y1970430D01*
X3397402Y1974850D01*
X3395370Y1975256D01*
G37*
G36*
X3215182Y1923846D02*
G01*
X3277666Y1923846D01*
X3277666Y1975256D01*
X3275634Y1974850D01*
X3263290Y1970430D01*
X3251708Y1964436D01*
X3240989Y1956866D01*
X3231438Y1947925D01*
X3223158Y1937816D01*
X3216402Y1926589D01*
G37*
G36*
X900023Y118668D02*
G01*
X909777Y119532D01*
X919276Y122072D01*
X928166Y126187D01*
X936244Y131826D01*
X943152Y138785D01*
X948791Y146812D01*
X952957Y155752D01*
X955497Y165201D01*
X956360Y175006D01*
X955497Y184810D01*
X952957Y194259D01*
X948791Y203200D01*
X943203Y211175D01*
X935177Y219049D01*
X932942Y222351D01*
X932129Y226263D01*
X932891Y230174D01*
X935075Y233476D01*
X938377Y235712D01*
X942289Y236474D01*
X954887Y236474D01*
X958748Y235712D01*
X962050Y233476D01*
X1015796Y179628D01*
X1017828Y176733D01*
X1018743Y173329D01*
X1019454Y165201D01*
X1021994Y155752D01*
X1026109Y146812D01*
X1031748Y138785D01*
X1038707Y131826D01*
X1046734Y126187D01*
X1055674Y122072D01*
X1065123Y119532D01*
X1074928Y118668D01*
X1084732Y119532D01*
X1094181Y122072D01*
X1103122Y126187D01*
X1111148Y131826D01*
X1118108Y138785D01*
X1123746Y146812D01*
X1127861Y155752D01*
X1130401Y165201D01*
X1131265Y175006D01*
X1130401Y184810D01*
X1127861Y194259D01*
X1123746Y203200D01*
X1118108Y211226D01*
X1111148Y218186D01*
X1103122Y223824D01*
X1094181Y227939D01*
X1084732Y230479D01*
X1076807Y231190D01*
X1073353Y232105D01*
X1070457Y234137D01*
X1002792Y302006D01*
X996543Y307136D01*
X989888Y310692D01*
X982675Y312877D01*
X974648Y313690D01*
X695096Y313690D01*
X691184Y314452D01*
X687882Y316687D01*
X466547Y538022D01*
X464312Y541324D01*
X463550Y545236D01*
X463550Y1154785D01*
X464312Y1158697D01*
X466547Y1161999D01*
X487984Y1183436D01*
X491286Y1185672D01*
X495198Y1186434D01*
X563880Y1186434D01*
X567537Y1185773D01*
X570687Y1183792D01*
X572922Y1180846D01*
X573989Y1177239D01*
X574751Y1169212D01*
X576630Y1163828D01*
X579729Y1158951D01*
X583793Y1154836D01*
X588721Y1151788D01*
X594156Y1149858D01*
X600506Y1149146D01*
X799338Y1149146D01*
X805688Y1149858D01*
X811123Y1151788D01*
X816000Y1154836D01*
X821080Y1160018D01*
X824382Y1162253D01*
X828294Y1163066D01*
X832205Y1162304D01*
X835507Y1160068D01*
X838758Y1156817D01*
X846836Y1151178D01*
X855726Y1147064D01*
X865225Y1144524D01*
X874979Y1143660D01*
X884783Y1144524D01*
X894283Y1147064D01*
X903173Y1151178D01*
X911199Y1156817D01*
X918159Y1163777D01*
X923798Y1171803D01*
X927862Y1180592D01*
X930097Y1183690D01*
X933348Y1185722D01*
X937107Y1186434D01*
X1489100Y1186434D01*
X1493062Y1185621D01*
X1496415Y1183335D01*
X1498600Y1179931D01*
X1499260Y1175918D01*
X1498295Y1172006D01*
X1497025Y1169263D01*
X1494485Y1159764D01*
X1493672Y1150010D01*
X1494485Y1140206D01*
X1497025Y1130706D01*
X1501190Y1121816D01*
X1506829Y1113790D01*
X1513789Y1106830D01*
X1521815Y1101191D01*
X1530705Y1097026D01*
X1540205Y1094486D01*
X1548231Y1093825D01*
X1551635Y1092911D01*
X1554530Y1090879D01*
X1640890Y1004519D01*
X1642872Y1001623D01*
X1643786Y998219D01*
X1644497Y990193D01*
X1647037Y980744D01*
X1651203Y971803D01*
X1656842Y963777D01*
X1663801Y956818D01*
X1671828Y951179D01*
X1680718Y947064D01*
X1690217Y944524D01*
X1700022Y943660D01*
X1709775Y944524D01*
X1719275Y947064D01*
X1728165Y951179D01*
X1736242Y956818D01*
X1743151Y963777D01*
X1748789Y971803D01*
X1752955Y980744D01*
X1755495Y990193D01*
X1756359Y999998D01*
X1755495Y1009802D01*
X1752955Y1019251D01*
X1748789Y1028192D01*
X1743151Y1036218D01*
X1736242Y1043178D01*
X1728165Y1048816D01*
X1719275Y1052931D01*
X1709775Y1055471D01*
X1701749Y1056182D01*
X1698345Y1057097D01*
X1695450Y1059129D01*
X1609140Y1145489D01*
X1607108Y1148384D01*
X1606194Y1151788D01*
X1605483Y1159764D01*
X1602943Y1169263D01*
X1601673Y1172006D01*
X1600758Y1175918D01*
X1601419Y1179931D01*
X1603603Y1183335D01*
X1606905Y1185621D01*
X1610868Y1186434D01*
X2164080Y1186434D01*
X2167737Y1185773D01*
X2170887Y1183792D01*
X2173173Y1180846D01*
X2174189Y1177290D01*
X2175002Y1169212D01*
X2176881Y1163828D01*
X2179929Y1158951D01*
X2184044Y1154836D01*
X2188921Y1151788D01*
X2194407Y1149858D01*
X2200706Y1149146D01*
X2399588Y1149146D01*
X2405888Y1149858D01*
X2411374Y1151788D01*
X2416251Y1154836D01*
X2420366Y1158951D01*
X2423414Y1163828D01*
X2425344Y1169314D01*
X2426055Y1175613D01*
X2426055Y1274470D01*
X2425344Y1280820D01*
X2423414Y1286256D01*
X2420366Y1291183D01*
X2416251Y1295247D01*
X2411374Y1298346D01*
X2405888Y1300226D01*
X2399588Y1300937D01*
X2200706Y1300937D01*
X2194407Y1300226D01*
X2188921Y1298346D01*
X2184044Y1295247D01*
X2179929Y1291183D01*
X2176881Y1286256D01*
X2175002Y1280871D01*
X2174189Y1272844D01*
X2173173Y1269238D01*
X2170887Y1266291D01*
X2167737Y1264361D01*
X2164080Y1263650D01*
X900531Y1263650D01*
X892556Y1262888D01*
X885291Y1260703D01*
X879449Y1257554D01*
X875537Y1256385D01*
X865225Y1255471D01*
X860704Y1254302D01*
X856284Y1254099D01*
X852220Y1255776D01*
X849274Y1259027D01*
X847953Y1263192D01*
X848512Y1267561D01*
X850900Y1271270D01*
X870458Y1290878D01*
X873353Y1292910D01*
X876757Y1293825D01*
X884783Y1294485D01*
X894283Y1297025D01*
X903173Y1301191D01*
X911199Y1306830D01*
X918159Y1313789D01*
X923798Y1321816D01*
X927963Y1330706D01*
X930503Y1340205D01*
X931367Y1350010D01*
X930503Y1359763D01*
X927963Y1369263D01*
X923798Y1378153D01*
X918159Y1386230D01*
X911199Y1393190D01*
X903173Y1398778D01*
X894283Y1402943D01*
X884783Y1405483D01*
X874979Y1406347D01*
X865225Y1405483D01*
X855726Y1402943D01*
X846836Y1398778D01*
X841908Y1395323D01*
X837844Y1393647D01*
X833424Y1393850D01*
X829513Y1395882D01*
X826871Y1399387D01*
X825906Y1403654D01*
X825906Y1474470D01*
X825195Y1480820D01*
X823264Y1486255D01*
X820216Y1491183D01*
X816102Y1495247D01*
X811225Y1498346D01*
X805738Y1500276D01*
X799439Y1500987D01*
X600557Y1500987D01*
X594258Y1500276D01*
X588772Y1498346D01*
X583895Y1495247D01*
X579780Y1491183D01*
X576732Y1486255D01*
X574802Y1480820D01*
X574090Y1474470D01*
X574090Y1375613D01*
X574802Y1369314D01*
X576732Y1363827D01*
X579780Y1358950D01*
X583895Y1354836D01*
X588772Y1351788D01*
X594258Y1349857D01*
X600557Y1349146D01*
X795020Y1349146D01*
X798931Y1348384D01*
X802182Y1346149D01*
X804418Y1342898D01*
X805180Y1338986D01*
X804418Y1335125D01*
X802182Y1331823D01*
X774344Y1303934D01*
X771042Y1301750D01*
X767130Y1300937D01*
X600506Y1300937D01*
X594156Y1300226D01*
X588721Y1298346D01*
X583793Y1295247D01*
X579729Y1291183D01*
X576630Y1286256D01*
X574751Y1280871D01*
X573989Y1272844D01*
X572922Y1269238D01*
X570687Y1266291D01*
X567537Y1264310D01*
X563880Y1263650D01*
X475488Y1263650D01*
X467461Y1262837D01*
X460248Y1260652D01*
X453542Y1257096D01*
X447344Y1251966D01*
X430936Y1235608D01*
X427634Y1233424D01*
X423773Y1232662D01*
X419862Y1233424D01*
X416610Y1235608D01*
X414375Y1238910D01*
X413613Y1242822D01*
X413613Y1529791D01*
X414375Y1533702D01*
X416610Y1537004D01*
X463092Y1583486D01*
X466394Y1585671D01*
X470255Y1586433D01*
X563880Y1586433D01*
X567537Y1585772D01*
X570687Y1583791D01*
X572922Y1580845D01*
X573989Y1577289D01*
X574751Y1569212D01*
X576630Y1563827D01*
X579729Y1558950D01*
X583793Y1554835D01*
X588721Y1551787D01*
X594156Y1549857D01*
X600506Y1549146D01*
X799338Y1549146D01*
X809548Y1550517D01*
X813155Y1549755D01*
X816254Y1547774D01*
X818438Y1544777D01*
X822045Y1530705D01*
X826211Y1521815D01*
X831850Y1513789D01*
X838758Y1506829D01*
X846836Y1501190D01*
X855726Y1497025D01*
X865225Y1494485D01*
X874979Y1493672D01*
X884783Y1494485D01*
X894283Y1497025D01*
X903173Y1501190D01*
X911199Y1506829D01*
X918159Y1513789D01*
X923798Y1521815D01*
X927963Y1530705D01*
X930503Y1540205D01*
X931367Y1550009D01*
X930503Y1559763D01*
X927963Y1569262D01*
X923798Y1578152D01*
X918159Y1586230D01*
X911199Y1593189D01*
X903173Y1598777D01*
X894283Y1602943D01*
X884783Y1605483D01*
X876757Y1606194D01*
X873353Y1607108D01*
X870458Y1609140D01*
X828802Y1650796D01*
X826617Y1654098D01*
X825855Y1657959D01*
X825855Y1674469D01*
X825144Y1680819D01*
X823214Y1686255D01*
X820115Y1691182D01*
X816051Y1695246D01*
X811123Y1698345D01*
X805688Y1700275D01*
X799338Y1700987D01*
X600506Y1700987D01*
X594156Y1700275D01*
X588721Y1698345D01*
X583793Y1695246D01*
X579729Y1691182D01*
X576630Y1686255D01*
X574751Y1680870D01*
X573989Y1672843D01*
X572922Y1669237D01*
X570687Y1666290D01*
X567537Y1664360D01*
X563880Y1663649D01*
X450545Y1663649D01*
X442518Y1662887D01*
X435305Y1660702D01*
X428650Y1657096D01*
X422401Y1652016D01*
X348081Y1577644D01*
X342950Y1571447D01*
X339394Y1564741D01*
X337210Y1557528D01*
X336397Y1549501D01*
X336397Y475488D01*
X337210Y467461D01*
X339394Y460248D01*
X342950Y453593D01*
X348030Y447344D01*
X647344Y148082D01*
X653592Y142951D01*
X660247Y139395D01*
X667461Y137210D01*
X675487Y136398D01*
X855014Y136398D01*
X858875Y135636D01*
X862177Y133400D01*
X863803Y131826D01*
X871829Y126187D01*
X880719Y122072D01*
X890219Y119532D01*
G37*
G36*
X2779064Y1920087D02*
G01*
X2850134Y1920087D01*
X2850134Y1970227D01*
X2846425Y1969973D01*
X2834081Y1967280D01*
X2822244Y1962912D01*
X2811221Y1956866D01*
X2801112Y1949297D01*
X2792171Y1940356D01*
X2784652Y1930298D01*
G37*
G36*
X2982823Y1920087D02*
G01*
X3053892Y1920087D01*
X3048355Y1930298D01*
X3040786Y1940356D01*
X3031845Y1949297D01*
X3021787Y1956866D01*
X3010712Y1962912D01*
X2998876Y1967280D01*
X2986582Y1969973D01*
X2982823Y1970227D01*
G37*
G36*
X2906014Y179476D02*
G01*
X2980588Y179476D01*
X2980588Y243992D01*
X2932480Y243992D01*
X2926181Y243281D01*
X2920695Y241401D01*
X2915818Y238302D01*
X2911703Y234238D01*
X2908655Y229311D01*
X2906725Y223875D01*
X2906014Y217525D01*
G37*
G36*
X3103270Y179476D02*
G01*
X3177844Y179476D01*
X3177844Y217525D01*
X3177133Y223875D01*
X3175203Y229311D01*
X3172104Y234238D01*
X3168040Y238302D01*
X3163112Y241401D01*
X3157677Y243281D01*
X3151327Y243992D01*
X3103270Y243992D01*
G37*
G36*
X2850134Y1794764D02*
G01*
X2850134Y1844903D01*
X2779064Y1844903D01*
X2784652Y1834692D01*
X2792171Y1824634D01*
X2801112Y1815693D01*
X2811221Y1808124D01*
X2822244Y1802130D01*
X2834081Y1797710D01*
X2846425Y1795018D01*
G37*
G36*
X3395370Y1789734D02*
G01*
X3397402Y1790192D01*
X3409696Y1794560D01*
X3421329Y1800555D01*
X3432048Y1808124D01*
X3441598Y1817065D01*
X3449828Y1827225D01*
X3456635Y1838401D01*
X3457854Y1841144D01*
X3395370Y1841144D01*
G37*
G36*
X3277666Y1789734D02*
G01*
X3277666Y1841144D01*
X3215182Y1841144D01*
X3216402Y1838401D01*
X3223158Y1827225D01*
X3231438Y1817065D01*
X3240989Y1808124D01*
X3251708Y1800555D01*
X3263290Y1794560D01*
X3275634Y1790192D01*
G37*
G36*
X600506Y1749145D02*
G01*
X799388Y1749145D01*
X805688Y1749856D01*
X811174Y1751787D01*
X816051Y1754835D01*
X820166Y1758950D01*
X823214Y1763826D01*
X825144Y1769211D01*
X825906Y1777288D01*
X826922Y1780844D01*
X829208Y1783791D01*
X832358Y1785772D01*
X836015Y1786432D01*
X874572Y1786432D01*
X882599Y1787245D01*
X889812Y1789430D01*
X895400Y1792427D01*
X899312Y1793595D01*
X909777Y1794510D01*
X919276Y1797050D01*
X928166Y1801215D01*
X936244Y1806854D01*
X943152Y1813763D01*
X948791Y1821840D01*
X952957Y1830730D01*
X955497Y1840230D01*
X956360Y1849983D01*
X955497Y1859788D01*
X952957Y1869287D01*
X948791Y1878177D01*
X943152Y1886204D01*
X936548Y1892807D01*
X934364Y1896110D01*
X933602Y1900021D01*
X934364Y1903882D01*
X936548Y1907184D01*
X943152Y1913788D01*
X948791Y1921814D01*
X952957Y1930704D01*
X955497Y1940204D01*
X956360Y1950008D01*
X955497Y1959762D01*
X952957Y1969262D01*
X948791Y1978152D01*
X943152Y1986229D01*
X936244Y1993188D01*
X928166Y1998776D01*
X919276Y2002942D01*
X909777Y2005482D01*
X901750Y2006193D01*
X898347Y2007107D01*
X895451Y2009139D01*
X852576Y2052015D01*
X846378Y2057095D01*
X839724Y2060702D01*
X833018Y2062683D01*
X829310Y2064766D01*
X826719Y2068220D01*
X825855Y2072436D01*
X825855Y2074468D01*
X825144Y2080818D01*
X823214Y2086254D01*
X820115Y2091182D01*
X816051Y2095246D01*
X811123Y2098344D01*
X805688Y2100275D01*
X799338Y2100986D01*
X600506Y2100986D01*
X594156Y2100275D01*
X588721Y2098344D01*
X583793Y2095246D01*
X579729Y2091182D01*
X576630Y2086254D01*
X574751Y2080818D01*
X574040Y2074468D01*
X574040Y1975612D01*
X574751Y1969312D01*
X576630Y1963826D01*
X579729Y1958949D01*
X583793Y1954834D01*
X588721Y1951786D01*
X594156Y1949856D01*
X600506Y1949145D01*
X799338Y1949145D01*
X805688Y1949856D01*
X811123Y1951786D01*
X816000Y1954834D01*
X821029Y1959914D01*
X824331Y1962150D01*
X828243Y1962962D01*
X832103Y1962150D01*
X835456Y1959965D01*
X840892Y1954530D01*
X842873Y1951634D01*
X843787Y1948230D01*
X844499Y1940204D01*
X847039Y1930704D01*
X851204Y1921814D01*
X856843Y1913788D01*
X863447Y1907184D01*
X865632Y1903882D01*
X866394Y1900021D01*
X865632Y1896110D01*
X863447Y1892807D01*
X856843Y1886204D01*
X851204Y1878177D01*
X847191Y1869541D01*
X844956Y1866442D01*
X841705Y1864360D01*
X837946Y1863648D01*
X836015Y1863648D01*
X832358Y1864360D01*
X829208Y1866290D01*
X826922Y1869236D01*
X825906Y1872843D01*
X825144Y1880870D01*
X823214Y1886254D01*
X820166Y1891182D01*
X816051Y1895246D01*
X811174Y1898345D01*
X805688Y1900275D01*
X799388Y1900986D01*
X600506Y1900986D01*
X594207Y1900275D01*
X588721Y1898345D01*
X583844Y1895246D01*
X579729Y1891182D01*
X576681Y1886254D01*
X574751Y1880819D01*
X574040Y1874469D01*
X574040Y1775612D01*
X574751Y1769313D01*
X576681Y1763826D01*
X579729Y1758950D01*
X583844Y1754835D01*
X588721Y1751787D01*
X594207Y1749856D01*
G37*
G36*
X1350822Y349148D02*
G01*
X1449679Y349148D01*
X1455978Y349859D01*
X1461465Y351790D01*
X1466342Y354838D01*
X1470456Y358952D01*
X1473504Y363829D01*
X1475435Y369316D01*
X1476146Y375615D01*
X1476146Y574497D01*
X1475435Y580796D01*
X1473504Y586282D01*
X1470456Y591159D01*
X1466342Y595274D01*
X1461465Y598322D01*
X1455978Y600252D01*
X1449679Y600964D01*
X1350822Y600964D01*
X1344472Y600252D01*
X1339037Y598322D01*
X1334109Y595274D01*
X1330045Y591159D01*
X1326946Y586282D01*
X1325016Y580796D01*
X1324305Y574497D01*
X1324305Y375615D01*
X1325016Y369316D01*
X1326946Y363829D01*
X1330045Y358952D01*
X1334109Y354838D01*
X1339037Y351790D01*
X1344472Y349859D01*
G37*
G36*
X1550873Y349148D02*
G01*
X1649730Y349148D01*
X1656080Y349859D01*
X1661515Y351790D01*
X1666392Y354838D01*
X1670507Y358952D01*
X1673606Y363829D01*
X1675485Y369316D01*
X1676196Y375615D01*
X1676196Y574497D01*
X1675485Y580796D01*
X1673606Y586282D01*
X1670507Y591159D01*
X1666392Y595274D01*
X1661515Y598322D01*
X1656080Y600252D01*
X1649730Y600964D01*
X1550873Y600964D01*
X1544574Y600252D01*
X1539087Y598322D01*
X1534210Y595274D01*
X1530096Y591159D01*
X1526997Y586282D01*
X1525117Y580796D01*
X1524406Y574497D01*
X1524406Y375615D01*
X1525117Y369316D01*
X1526997Y363829D01*
X1530096Y358952D01*
X1534210Y354838D01*
X1539087Y351790D01*
X1544574Y349859D01*
G37*
G36*
X2973933Y1681683D02*
G01*
X2983788Y1682953D01*
X2993237Y1685848D01*
X3002076Y1690268D01*
X3010052Y1696161D01*
X3016910Y1703324D01*
X3022447Y1711502D01*
X3026511Y1720545D01*
X3029000Y1730146D01*
X3029864Y1740001D01*
X3029000Y1749856D01*
X3026511Y1759457D01*
X3022447Y1768449D01*
X3016910Y1776679D01*
X3006140Y1787702D01*
X3004870Y1791512D01*
X3005124Y1795576D01*
X3006953Y1799132D01*
X3010052Y1801774D01*
X3021787Y1808124D01*
X3031845Y1815693D01*
X3040786Y1824634D01*
X3048355Y1834692D01*
X3053892Y1844903D01*
X2982823Y1844903D01*
X2982823Y1808429D01*
X2982112Y1804619D01*
X2980029Y1801418D01*
X2976880Y1799183D01*
X2973120Y1798269D01*
X2964078Y1797913D01*
X2954375Y1795780D01*
X2945180Y1792122D01*
X2936748Y1786940D01*
X2929331Y1780387D01*
X2923133Y1772666D01*
X2918307Y1764030D01*
X2915005Y1754682D01*
X2913329Y1744929D01*
X2913329Y1735023D01*
X2915005Y1725269D01*
X2918307Y1715973D01*
X2923133Y1707286D01*
X2929331Y1699615D01*
X2936748Y1693062D01*
X2945180Y1687880D01*
X2954375Y1684172D01*
X2964078Y1682089D01*
G37*
G36*
X1599996Y1618640D02*
G01*
X1609801Y1619504D01*
X1619250Y1622044D01*
X1628190Y1626209D01*
X1636217Y1631848D01*
X1643176Y1638757D01*
X1648815Y1646834D01*
X1652930Y1655724D01*
X1655470Y1665224D01*
X1656181Y1673250D01*
X1657096Y1676654D01*
X1659128Y1679549D01*
X1963064Y1983486D01*
X1966366Y1985670D01*
X1970227Y1986432D01*
X2164080Y1986432D01*
X2167737Y1985772D01*
X2170887Y1983790D01*
X2173173Y1980844D01*
X2174189Y1977288D01*
X2175002Y1969211D01*
X2176881Y1963826D01*
X2179929Y1958949D01*
X2184044Y1954834D01*
X2188921Y1951786D01*
X2194407Y1949856D01*
X2200706Y1949145D01*
X2399588Y1949145D01*
X2405888Y1949856D01*
X2411374Y1951786D01*
X2416251Y1954834D01*
X2420366Y1958949D01*
X2423414Y1963826D01*
X2425344Y1969312D01*
X2426055Y1975612D01*
X2426055Y2074468D01*
X2425344Y2080818D01*
X2423414Y2086254D01*
X2420366Y2091182D01*
X2416251Y2095246D01*
X2411374Y2098344D01*
X2405888Y2100275D01*
X2399588Y2100986D01*
X2200706Y2100986D01*
X2194407Y2100275D01*
X2188921Y2098344D01*
X2184044Y2095246D01*
X2179929Y2091182D01*
X2176881Y2086254D01*
X2175002Y2080869D01*
X2174189Y2072843D01*
X2173173Y2069236D01*
X2170887Y2066289D01*
X2167737Y2064359D01*
X2164080Y2063648D01*
X1950567Y2063648D01*
X1942541Y2062886D01*
X1935276Y2060702D01*
X1928622Y2057095D01*
X1922373Y2052015D01*
X1604518Y1734108D01*
X1601622Y1732127D01*
X1598218Y1731213D01*
X1590192Y1730502D01*
X1580743Y1727962D01*
X1571802Y1723796D01*
X1563776Y1718157D01*
X1556816Y1711198D01*
X1551178Y1703171D01*
X1547063Y1694281D01*
X1544523Y1684782D01*
X1543659Y1674977D01*
X1544523Y1665224D01*
X1547063Y1655724D01*
X1551178Y1646834D01*
X1556816Y1638757D01*
X1563776Y1631848D01*
X1571802Y1626209D01*
X1580743Y1622044D01*
X1590192Y1619504D01*
G37*
G36*
X2200706Y1349146D02*
G01*
X2399588Y1349146D01*
X2405888Y1349857D01*
X2411374Y1351788D01*
X2416251Y1354836D01*
X2420366Y1358950D01*
X2423414Y1363827D01*
X2425344Y1369314D01*
X2426055Y1375613D01*
X2426055Y1474470D01*
X2425344Y1480820D01*
X2423414Y1486255D01*
X2420366Y1491183D01*
X2416251Y1495247D01*
X2411374Y1498346D01*
X2405888Y1500276D01*
X2399588Y1500987D01*
X2200706Y1500987D01*
X2194407Y1500276D01*
X2188921Y1498346D01*
X2184044Y1495247D01*
X2179929Y1491183D01*
X2176881Y1486255D01*
X2174951Y1480820D01*
X2174240Y1474470D01*
X2174240Y1375613D01*
X2174951Y1369314D01*
X2176881Y1363827D01*
X2179929Y1358950D01*
X2184044Y1354836D01*
X2188921Y1351788D01*
X2194407Y1349857D01*
G37*
G36*
X2987548Y1268780D02*
G01*
X2997352Y1269644D01*
X3006801Y1272184D01*
X3015742Y1276299D01*
X3023768Y1281938D01*
X3030728Y1288897D01*
X3036366Y1296924D01*
X3040481Y1305864D01*
X3043021Y1315313D01*
X3043885Y1325118D01*
X3043021Y1334922D01*
X3040481Y1344371D01*
X3039567Y1346403D01*
X3038602Y1350721D01*
X3038602Y1430020D01*
X3039364Y1433880D01*
X3041599Y1437182D01*
X3043174Y1438757D01*
X3048812Y1446834D01*
X3052927Y1455724D01*
X3055467Y1465224D01*
X3056331Y1474978D01*
X3055467Y1484782D01*
X3052927Y1494282D01*
X3048812Y1503172D01*
X3043174Y1511198D01*
X3036214Y1518158D01*
X3028188Y1523796D01*
X3019247Y1527962D01*
X3009798Y1530502D01*
X2999994Y1531366D01*
X2990189Y1530502D01*
X2980740Y1527962D01*
X2971800Y1523796D01*
X2963773Y1518158D01*
X2956814Y1511198D01*
X2951175Y1503172D01*
X2947060Y1494282D01*
X2944520Y1484782D01*
X2943656Y1474978D01*
X2944520Y1465224D01*
X2947060Y1455724D01*
X2951175Y1446834D01*
X2956814Y1438757D01*
X2958439Y1437182D01*
X2960624Y1433880D01*
X2961386Y1430020D01*
X2961386Y1380642D01*
X2960878Y1377442D01*
X2959404Y1374546D01*
X2957068Y1372311D01*
X2951327Y1368298D01*
X2944368Y1361338D01*
X2938729Y1353312D01*
X2934614Y1344371D01*
X2932074Y1334922D01*
X2931210Y1325118D01*
X2932074Y1315313D01*
X2934614Y1305864D01*
X2938729Y1296924D01*
X2944368Y1288897D01*
X2951327Y1281938D01*
X2959354Y1276299D01*
X2968294Y1272184D01*
X2977743Y1269644D01*
G37*
G36*
X756462Y549148D02*
G01*
X799541Y549148D01*
X805891Y549859D01*
X811326Y551789D01*
X816254Y554837D01*
X820318Y558952D01*
X823417Y563829D01*
X825347Y569315D01*
X826058Y575614D01*
X826058Y593699D01*
X756462Y593699D01*
G37*
G36*
X600710Y549148D02*
G01*
X643788Y549148D01*
X643788Y593699D01*
X574243Y593699D01*
X574243Y575614D01*
X574954Y569315D01*
X576834Y563829D01*
X579932Y558952D01*
X583996Y554837D01*
X588924Y551789D01*
X594360Y549859D01*
G37*
G36*
X3395370Y1058824D02*
G01*
X3457854Y1058824D01*
X3456635Y1061618D01*
X3449828Y1072794D01*
X3441598Y1082954D01*
X3432048Y1091895D01*
X3421329Y1099413D01*
X3409696Y1105458D01*
X3397402Y1109827D01*
X3395370Y1110234D01*
G37*
G36*
X756462Y656386D02*
G01*
X826058Y656386D01*
X826058Y674471D01*
X825347Y680821D01*
X823417Y686257D01*
X820318Y691184D01*
X816254Y695248D01*
X811326Y698347D01*
X805891Y700227D01*
X799541Y700938D01*
X756462Y700938D01*
G37*
G36*
X574243Y656386D02*
G01*
X643788Y656386D01*
X643788Y700938D01*
X600710Y700938D01*
X594360Y700227D01*
X588924Y698347D01*
X583996Y695248D01*
X579932Y691184D01*
X576834Y686257D01*
X574954Y680821D01*
X574243Y674471D01*
G37*
G36*
X3215182Y1058824D02*
G01*
X3277666Y1058824D01*
X3277666Y1110234D01*
X3275634Y1109827D01*
X3263290Y1105458D01*
X3251708Y1099413D01*
X3240989Y1091895D01*
X3231438Y1082954D01*
X3223158Y1072794D01*
X3216402Y1061618D01*
G37*
G36*
X2982823Y1055116D02*
G01*
X3053892Y1055116D01*
X3048355Y1065276D01*
X3040786Y1075385D01*
X3031845Y1084275D01*
X3021787Y1091844D01*
X3010052Y1098245D01*
X3006953Y1100836D01*
X3005124Y1104442D01*
X3004870Y1108506D01*
X3006191Y1112316D01*
X3016910Y1123340D01*
X3022447Y1131519D01*
X3026511Y1140561D01*
X3029000Y1150162D01*
X3029864Y1160018D01*
X3029000Y1169873D01*
X3026511Y1179474D01*
X3022447Y1188466D01*
X3016910Y1196695D01*
X3010052Y1203807D01*
X3002076Y1209700D01*
X2993237Y1214170D01*
X2983788Y1217066D01*
X2973933Y1218336D01*
X2964078Y1217930D01*
X2954375Y1215796D01*
X2945180Y1212138D01*
X2936748Y1206957D01*
X2929331Y1200404D01*
X2923133Y1192682D01*
X2918307Y1184046D01*
X2915005Y1174699D01*
X2913329Y1164945D01*
X2913329Y1155039D01*
X2915005Y1145286D01*
X2918307Y1135989D01*
X2923133Y1127302D01*
X2929331Y1119632D01*
X2936748Y1113078D01*
X2945180Y1107897D01*
X2954375Y1104188D01*
X2964078Y1102106D01*
X2973120Y1101750D01*
X2976880Y1100836D01*
X2980029Y1098600D01*
X2982112Y1095349D01*
X2982823Y1091590D01*
G37*
G36*
X2779064Y1055116D02*
G01*
X2850134Y1055116D01*
X2850134Y1105255D01*
X2846425Y1105001D01*
X2834081Y1102309D01*
X2822244Y1097889D01*
X2811221Y1091844D01*
X2801112Y1084275D01*
X2792171Y1075385D01*
X2784652Y1065276D01*
G37*
G36*
X2200706Y949147D02*
G01*
X2399588Y949147D01*
X2405888Y949858D01*
X2411374Y951788D01*
X2416251Y954836D01*
X2420366Y958951D01*
X2423414Y963828D01*
X2425344Y969314D01*
X2426055Y975614D01*
X2426055Y1074470D01*
X2425344Y1080820D01*
X2423414Y1086256D01*
X2420366Y1091184D01*
X2416251Y1095248D01*
X2411374Y1098346D01*
X2405888Y1100226D01*
X2399588Y1100937D01*
X2200706Y1100937D01*
X2194407Y1100226D01*
X2188921Y1098346D01*
X2184044Y1095248D01*
X2179929Y1091184D01*
X2176881Y1086256D01*
X2174951Y1080820D01*
X2174240Y1074470D01*
X2174240Y975614D01*
X2174951Y969314D01*
X2176881Y963828D01*
X2179929Y958951D01*
X2184044Y954836D01*
X2188921Y951788D01*
X2194407Y949858D01*
G37*
G36*
X2850134Y929741D02*
G01*
X2850134Y979881D01*
X2779064Y979881D01*
X2784652Y969721D01*
X2792171Y959612D01*
X2801112Y950721D01*
X2811221Y943152D01*
X2822244Y937107D01*
X2834081Y932687D01*
X2846425Y929995D01*
G37*
G36*
X3096361Y926337D02*
G01*
X3170885Y926337D01*
X3170885Y964437D01*
X3170174Y970737D01*
X3168294Y976223D01*
X3165195Y981100D01*
X3161080Y985215D01*
X3156204Y988263D01*
X3150768Y990193D01*
X3144418Y990904D01*
X3096361Y990904D01*
G37*
G36*
X3096361Y759104D02*
G01*
X3144418Y759104D01*
X3150768Y759815D01*
X3156204Y761695D01*
X3161080Y764794D01*
X3165195Y768908D01*
X3168294Y773785D01*
X3170174Y779272D01*
X3170885Y785571D01*
X3170885Y823671D01*
X3096361Y823671D01*
G37*
G36*
X2925572Y759104D02*
G01*
X2973628Y759104D01*
X2973628Y823671D01*
X2899105Y823671D01*
X2899105Y785571D01*
X2899816Y779272D01*
X2901696Y773785D01*
X2904794Y768908D01*
X2908858Y764794D01*
X2913786Y761695D01*
X2919222Y759815D01*
G37*
G36*
X3395370Y924763D02*
G01*
X3397402Y925169D01*
X3409696Y929538D01*
X3421329Y935583D01*
X3432048Y943102D01*
X3441598Y952042D01*
X3449828Y962202D01*
X3456635Y973378D01*
X3457854Y976172D01*
X3395370Y976172D01*
G37*

%LPD*%
D11*
X2549908Y899919D02*
G01*
X2549908Y825091D01*
X2575001Y799998D01*
D10*
X2300224Y1824989D02*
G01*
X2449829Y1824989D01*
X2500122Y1774952D01*
X2500122Y774954D01*
X2600197Y674878D01*
X3264915Y674878D01*
D11*
X2625090Y1700021D02*
G01*
X2549906Y1625092D01*
X2549906Y899921D01*
X3264999Y424980D02*
G01*
X3099981Y424980D01*
X3041911Y366910D01*
X3041911Y128104D01*
X3264999Y374967D02*
G01*
X3349967Y374967D01*
X3400000Y425000D01*
D24*
X1275079Y750095D02*
G01*
X1824664Y750095D01*
X1824664Y750095D02*
G01*
X1999907Y750095D01*
X2100000Y650001D01*
X2100000Y575000D01*
X2150000Y525000D01*
X2525001Y525000D01*
D10*
X2300074Y625058D02*
G01*
X2500000Y625058D01*
X700023Y1225042D02*
G01*
X474979Y1225042D01*
X424942Y1175004D01*
X424942Y525018D01*
X674878Y275081D01*
X975105Y275081D01*
X1074928Y175005D01*
X3264915Y474979D02*
G01*
X3024886Y474979D01*
X2649981Y100076D01*
X1325118Y100076D01*
X1000252Y424687D01*
X1000252Y474979D01*
X3264915Y525018D02*
G01*
X2999993Y525018D01*
X2625090Y150113D01*
X1374902Y150113D01*
X1200404Y324612D01*
X1200404Y474979D01*
X3264915Y625094D02*
G01*
X2925063Y625094D01*
X2549906Y249936D01*
X2050034Y249936D01*
X1999995Y299973D01*
X1999995Y474979D01*
X3264915Y575055D02*
G01*
X2974847Y575055D01*
X2599943Y199897D01*
X1849881Y199897D01*
X1800097Y250189D01*
X1800097Y474979D01*
X3264999Y324980D02*
G01*
X3474999Y324980D01*
X3474999Y800000D02*
G01*
X3474999Y225000D01*
X2300150Y2025055D02*
G01*
X1950049Y2025055D01*
X1599996Y1675003D01*
X1550001Y1150000D02*
G01*
X1699996Y1000005D01*
X1699996Y999997D01*
X899998Y175005D02*
G01*
X674994Y175005D01*
X375003Y474997D01*
X375003Y1550001D01*
X450057Y1625053D01*
X699927Y1625053D01*
X699975Y825058D02*
G01*
X874999Y825058D01*
X2300150Y1225057D02*
G01*
X900056Y1225057D01*
X874999Y1200000D01*
X699950Y1825056D02*
G01*
X875057Y1825056D01*
X900000Y1849998D01*
X699924Y2025055D02*
G01*
X824946Y2025055D01*
X900000Y1950001D01*
X874999Y1050000D02*
G01*
X974999Y1050000D01*
X1199941Y825058D01*
X2075080Y825058D01*
X2075080Y825058D02*
G01*
X2300150Y825058D01*
X699848Y1025057D02*
G01*
X749942Y1025057D01*
X824999Y950000D01*
X876940Y950000D01*
X699924Y1225057D02*
G01*
X750056Y1225057D01*
X874999Y1349999D01*
X699924Y1625056D02*
G01*
X799942Y1625056D01*
X874999Y1549999D01*
X2987547Y1325118D02*
G01*
X2999999Y1337569D01*
X2999999Y1474993D01*
G36*
X2925003Y964991D02*
G01*
X2925003Y784992D01*
X3145002Y784992D01*
X3145002Y964991D01*
G37*
G36*
X2931901Y218099D02*
G01*
X2931901Y38100D01*
X3151901Y38100D01*
X3151901Y218099D01*
G37*
G36*
X3204999Y339981D02*
G01*
X3204999Y309979D01*
X3324999Y309979D01*
X3324999Y339981D01*
G37*
G36*
X3204999Y389968D02*
G01*
X3204999Y359966D01*
X3324999Y359966D01*
X3324999Y389968D01*
G37*
G36*
X3204999Y439981D02*
G01*
X3204999Y409978D01*
X3324999Y409978D01*
X3324999Y439981D01*
G37*
G36*
X3204999Y489968D02*
G01*
X3204999Y459966D01*
X3324999Y459966D01*
X3324999Y489968D01*
G37*
G36*
X3204999Y539981D02*
G01*
X3204999Y509978D01*
X3324999Y509978D01*
X3324999Y539981D01*
G37*
G36*
X3204999Y589968D02*
G01*
X3204999Y559965D01*
X3324999Y559965D01*
X3324999Y589968D01*
G37*
G36*
X3204999Y639980D02*
G01*
X3204999Y609978D01*
X3324999Y609978D01*
X3324999Y639980D01*
G37*
G36*
X3204999Y689968D02*
G01*
X3204999Y659965D01*
X3324999Y659965D01*
X3324999Y689968D01*
G37*
G36*
X599925Y1975068D02*
G01*
X799924Y1975068D01*
X799924Y2075068D01*
X599925Y2075068D01*
G37*
G36*
X599950Y1775068D02*
G01*
X799950Y1775068D01*
X799950Y1875068D01*
X599950Y1875068D01*
G37*
G36*
X599925Y1575069D02*
G01*
X799924Y1575069D01*
X799924Y1675069D01*
X599925Y1675069D01*
G37*
G36*
X600001Y1375069D02*
G01*
X800000Y1375069D01*
X800000Y1475069D01*
X600001Y1475069D01*
G37*
G36*
X599925Y1175070D02*
G01*
X799924Y1175070D01*
X799924Y1275069D01*
X599925Y1275069D01*
G37*
G36*
X599848Y975067D02*
G01*
X799848Y975067D01*
X799848Y1075067D01*
X599848Y1075067D01*
G37*
G36*
X599975Y775068D02*
G01*
X799975Y775068D01*
X799975Y875068D01*
X599975Y875068D01*
G37*
G36*
X600128Y575068D02*
G01*
X800127Y575068D01*
X800127Y675068D01*
X600128Y675068D01*
G37*
G36*
X1050317Y374980D02*
G01*
X1050317Y574979D01*
X950318Y574979D01*
X950318Y374980D01*
G37*
G36*
X1250317Y375056D02*
G01*
X1250317Y575055D01*
X1150317Y575055D01*
X1150317Y375056D01*
G37*
G36*
X1450240Y375056D02*
G01*
X1450240Y575055D01*
X1350241Y575055D01*
X1350241Y375056D01*
G37*
G36*
X1650316Y375056D02*
G01*
X1650316Y575055D01*
X1550316Y575055D01*
X1550316Y375056D01*
G37*
G36*
X1850189Y375107D02*
G01*
X1850189Y575106D01*
X1750189Y575106D01*
X1750189Y375107D01*
G37*
G36*
X2049985Y374954D02*
G01*
X2049985Y574954D01*
X1949985Y574954D01*
X1949985Y374954D01*
G37*
G36*
X2400073Y675068D02*
G01*
X2200074Y675068D01*
X2200074Y575068D01*
X2400073Y575068D01*
G37*
G36*
X2400150Y875068D02*
G01*
X2200150Y875068D01*
X2200150Y775068D01*
X2400150Y775068D01*
G37*
G36*
X2400150Y1075067D02*
G01*
X2200150Y1075067D01*
X2200150Y975067D01*
X2400150Y975067D01*
G37*
G36*
X2400150Y1275069D02*
G01*
X2200150Y1275069D01*
X2200150Y1175070D01*
X2400150Y1175070D01*
G37*
G36*
X2400150Y1475069D02*
G01*
X2200150Y1475069D01*
X2200150Y1375069D01*
X2400150Y1375069D01*
G37*
G36*
X2400150Y1675069D02*
G01*
X2200150Y1675069D01*
X2200150Y1575069D01*
X2400150Y1575069D01*
G37*
G36*
X2400150Y1875068D02*
G01*
X2200150Y1875068D01*
X2200150Y1775068D01*
X2400150Y1775068D01*
G37*
G36*
X2400150Y2075068D02*
G01*
X2200150Y2075068D01*
X2200150Y1975068D01*
X2400150Y1975068D01*
G37*
D13*
G01*
X2999993Y1475003D03*
G01*
X2987547Y1325118D03*
G01*
X2324988Y1675003D03*
G01*
X2300147Y2025065D03*
G01*
X3474999Y224993D03*
G01*
X3474999Y799998D03*
G01*
X875004Y1350010D03*
G01*
X875004Y1050010D03*
G01*
X876935Y950010D03*
G01*
X875004Y1550009D03*
G01*
X2075078Y825068D03*
G01*
X899998Y1950008D03*
G01*
X899998Y1850009D03*
G01*
X875004Y1199997D03*
G01*
X875004Y825068D03*
G01*
X899998Y175005D03*
G01*
X1699996Y999997D03*
G01*
X1550009Y1150010D03*
G01*
X1599996Y1675003D03*
G01*
X1074928Y175005D03*
G01*
X2499995Y625068D03*
G01*
X1275079Y750087D03*
G01*
X2524988Y524992D03*
G01*
X75006Y2124989D03*
G01*
X450011Y1524990D03*
G01*
X124993Y1524990D03*
G01*
X124993Y1350010D03*
G01*
X499998Y624992D03*
G01*
X124993Y624992D03*
G01*
X1250010Y1750009D03*
G01*
X1250010Y1499996D03*
G01*
X1250010Y2075002D03*
G01*
X3399993Y424992D03*
G01*
X3225012Y824992D03*
G01*
X3325012Y824992D03*
G01*
X3399993Y99999D03*
G01*
X3274999Y99999D03*
G01*
X2850006Y75006D03*
G01*
X2875000Y850011D03*
G01*
X2799994Y850011D03*
G01*
X2724988Y850011D03*
G01*
X2675000Y999997D03*
G01*
X2675000Y1150010D03*
G01*
X2624988Y1699996D03*
G01*
X2575001Y799998D03*
G01*
X275005Y1524990D03*
G01*
X275005Y1350010D03*
G01*
X275005Y624992D03*
G01*
X499998Y724992D03*
G01*
X275005Y724992D03*
G01*
X275005Y824992D03*
G01*
X499998Y824992D03*
G01*
X1250010Y1099997D03*
G01*
X1575003Y924991D03*
G01*
X1850009Y924991D03*
G01*
X2124989Y924991D03*
G01*
X1599996Y1499996D03*
G01*
X1999995Y1924989D03*
G01*
X1824989Y2075002D03*
G01*
X2624988Y2075002D03*
G01*
X3199993Y2075002D03*
G01*
X450011Y1799996D03*
G01*
X275005Y1799996D03*
G01*
X124993Y1799996D03*
G01*
X450011Y1350010D03*
G01*
X3474999Y2075002D03*
G01*
X75006Y75006D03*
G01*
X275005Y2124989D03*
G01*
X450011Y2124989D03*
G01*
X1250010Y1375003D03*
G01*
X1250010Y1624990D03*
G01*
X1599996Y1375003D03*
G01*
X2124989Y1924989D03*
G01*
X2375001Y399999D03*
G01*
X2299995Y399999D03*
G01*
X2124989Y999997D03*
G01*
X1824659Y750087D03*
D22*
X2858980Y1017498D02*
G01*
X2973979Y1017498D01*
X2858980Y1882520D02*
G01*
X2973979Y1882520D01*
D23*
X3301519Y1017498D02*
G01*
X3371519Y1017498D01*
X3301519Y1882520D02*
G01*
X3371519Y1882520D01*
M02*
