M48
METRIC,LZ,000.000
;FILE_FORMAT=3:3
;TYPE=PLATED
;Layer: Drill PTH
;EasyEDA v6.4.25, 2021-11-23T22:34:31+08:00
;edc2d8422afb4d2cae5fb123c77887e6,45ba98ba689c459a8d72e4540021d05b,10
;Gerber Generator version 0.2
;Holesize 1 = 0.305 mm
T01C0.305
;Holesize 2 = 0.650 mm
T02C0.650
%
G05
G90
T01
X030000Y014750
X029875Y013251
X023250Y016750
X023001Y020251
X034750Y002250
X034750Y008000
X008750Y013500
X008750Y010500
X008769Y009500
X008750Y015500
X020751Y008251
X009000Y019500
X009000Y018500
X008750Y012000
X008750Y008251
X009000Y001750
X017000Y010000
X015500Y011500
X016000Y016750
X010749Y001750
X025000Y006251
X012751Y007501
X025250Y005250
X000750Y021250
X004500Y015250
X001250Y015250
X001250Y013500
X005000Y006250
X001250Y006250
X012500Y017500
X012500Y015000
X012500Y020750
X034000Y004250
X032250Y008250
X033250Y008250
X034000Y001000
X032750Y001000
X028500Y000750
X028750Y008500
X028000Y008500
X027250Y008500
X026750Y010000
X026750Y011500
X026250Y017000
X025750Y008000
X002750Y015250
X002750Y013500
X002750Y006250
X005000Y007250
X002750Y007250
X002750Y008250
X005000Y008250
X012500Y011000
X015750Y009250
X018500Y009250
X021250Y009250
X016000Y015000
X020000Y019250
X018250Y020750
X026250Y020750
X032000Y020750
X004500Y018000
X002750Y018000
X001250Y018000
X004500Y013500
X034750Y020750
X000750Y000750
X002750Y021250
X004500Y021250
X012500Y013750
X012500Y016250
X016000Y013750
X021250Y019250
X023750Y004000
X023000Y004000
X021250Y010000
X018247Y007501
T02
X029690Y010175G85X028640Y010175
X029690Y018825G85X028640Y018825
X033740Y010175G85X032990Y010175
X033740Y018825G85X032990Y018825
M30
